<svg width="20" height="20" viewBox="0 0 20 20" fill="none" xmlns="http://www.w3.org/2000/svg">
<g id="Frame">
<g id="Group">
<path id="Vector" d="M18.3334 9.68335C18.3334 9.51759 18.2676 9.35862 18.1504 9.24141C18.0331 9.12419 17.8742 9.05835 17.7084 9.05835H9.16675V7.29585C9.16675 5.39418 6.98342 4.32001 5.47758 5.47918L2.37508 7.86835C2.09705 8.0824 1.87189 8.35745 1.71696 8.67227C1.56202 8.9871 1.48145 9.3333 1.48145 9.68418C1.48145 10.0351 1.56202 10.3813 1.71696 10.6961C1.87189 11.0109 2.09705 11.286 2.37508 11.5L5.47675 13.8875C6.98342 15.0458 9.16675 13.9708 9.16675 12.0692V10.3083H17.7084C17.8742 10.3083 18.0331 10.2425 18.1504 10.1253C18.2676 10.0081 18.3334 9.84911 18.3334 9.68335Z" fill="#3E3E3E"/>
</g>
</g>
</svg>
