<svg width="20" height="20" viewBox="0 0 20 20" fill="none" xmlns="http://www.w3.org/2000/svg">
<g id="Frame" clip-path="url(#clip0_25_2630)">
<g id="Group">
<path id="Vector" fill-rule="evenodd" clip-rule="evenodd" d="M18.9998 11.0207V12.2359L17.5084 12.8087C17.3191 13.6014 17.0044 14.3589 16.5759 15.0526L17.2251 16.5108L15.5025 18.2294L14.0415 17.5819C13.346 18.0095 12.5865 18.3236 11.7918 18.5124L11.2179 20H8.78184L8.20777 18.512C7.41325 18.3232 6.654 18.0092 5.95863 17.5817L4.49714 18.2294L2.77458 16.5108L3.42349 15.0531C2.99495 14.3592 2.68013 13.6015 2.49091 12.8086L0.999802 12.2359V11.0207H5.22148C5.22148 13.6536 7.36085 15.7881 9.9998 15.7881C12.6388 15.7881 14.7781 13.6536 14.7781 11.0207H18.9998ZM3.96584 3.72995C4.79888 3.72995 5.47417 4.40372 5.47417 5.2348C5.47417 6.06592 4.79888 6.73965 3.96584 6.73965C3.1328 6.73965 2.45752 6.06592 2.45752 5.2348C2.45752 4.40368 3.1328 3.72995 3.96584 3.72995ZM1.39138 9.80558H6.54026C6.59031 9.80579 6.63974 9.79455 6.68476 9.77273C6.72978 9.75091 6.76919 9.71909 6.79996 9.67971C6.83074 9.64033 6.85206 9.59444 6.8623 9.54556C6.87253 9.49668 6.87141 9.44611 6.859 9.39773C6.53344 8.10592 5.36161 7.14947 3.96584 7.14947C2.57004 7.14947 1.39825 8.10592 1.07268 9.39773C1.06027 9.4461 1.05914 9.49667 1.06936 9.54555C1.07959 9.59443 1.10091 9.64033 1.13169 9.67971C1.16246 9.71909 1.20187 9.75091 1.24689 9.77273C1.2919 9.79455 1.34134 9.80579 1.39138 9.80558ZM8.82859 4.27867C8.75939 4.32975 8.6728 4.35156 8.5876 4.33937C8.50239 4.32718 8.42544 4.28198 8.37341 4.21356C8.32139 4.14514 8.29849 4.05902 8.30968 3.97388C8.32086 3.88873 8.36524 3.81141 8.43318 3.75868L11.6386 1.33037C11.6847 1.29548 11.7393 1.2734 11.7967 1.26639C11.8541 1.25939 11.9124 1.2677 11.9655 1.29049L11.966 1.28939L14.9777 2.58143L17.0986 0.656312L16.7518 0.657583C16.6658 0.656225 16.5839 0.621216 16.5236 0.560111C16.4633 0.499005 16.4295 0.416703 16.4295 0.330964C16.4295 0.245224 16.4633 0.162922 16.5236 0.101817C16.5839 0.0407116 16.6658 0.0057027 16.7518 0.00434454L17.9494 0C18.1563 0 18.3098 0.188537 18.2707 0.389205L18.0393 1.56153C18.0311 1.60375 18.0146 1.64393 17.9907 1.67978C17.9669 1.71563 17.9362 1.74644 17.9005 1.77047C17.8647 1.79449 17.8245 1.81125 17.7823 1.81979C17.74 1.82833 17.6965 1.82848 17.6542 1.82024C17.6119 1.812 17.5716 1.79552 17.5357 1.77175C17.4998 1.74798 17.4689 1.71738 17.4448 1.6817C17.4207 1.64601 17.4039 1.60595 17.3953 1.56379C17.3868 1.52164 17.3866 1.47821 17.3949 1.43599L17.4344 1.23647L15.2743 3.19717C15.2278 3.24354 15.1685 3.27493 15.1039 3.2873C15.0394 3.29967 14.9726 3.29245 14.9123 3.26656L11.8812 1.96619L8.82859 4.27867ZM11.3303 4.39175H12.3424C12.4781 4.39175 12.5888 4.50221 12.5888 4.63767V9.55966C12.5888 9.69512 12.4781 9.80558 12.3424 9.80558H11.3303C11.1946 9.80558 11.0838 9.69512 11.0838 9.55966V4.63767C11.0839 4.50225 11.1946 4.39175 11.3303 4.39175ZM8.12491 6.92503H9.1369C9.27267 6.92503 9.38338 7.03549 9.38338 7.17095V9.55966C9.38338 9.69512 9.27267 9.80558 9.1369 9.80558H8.12491C7.98914 9.80558 7.87843 9.69512 7.87843 9.55966V7.17095C7.87843 7.03549 7.98914 6.92503 8.12491 6.92503ZM17.7413 2.42216C17.6055 2.42216 17.4948 2.53262 17.4948 2.66808V9.55966C17.4948 9.69512 17.6055 9.80558 17.7413 9.80558H18.7533C18.8891 9.80558 18.9998 9.69512 18.9998 9.55966V2.66808C18.9998 2.53262 18.8891 2.42216 18.7533 2.42216H17.7413ZM14.5358 5.41579H15.5479C15.6836 5.41579 15.7943 5.52625 15.7943 5.66171V9.55971C15.7943 9.69517 15.6836 9.80562 15.5479 9.80562H14.5358C14.4001 9.80562 14.2893 9.69517 14.2893 9.55971V5.66171C14.2893 5.52625 14.4001 5.41579 14.5358 5.41579ZM5.87877 11.0207C5.87877 13.2915 7.72376 15.1323 9.9998 15.1323C12.2758 15.1323 14.1208 13.2915 14.1208 11.0207H5.87877Z" fill="#30B9CC"/>
</g>
<g id="Group_2">
<path id="Vector_2" fill-rule="evenodd" clip-rule="evenodd" d="M3.96589 3.72995C4.79893 3.72995 5.47422 4.40372 5.47422 5.2348C5.47422 6.06592 4.79893 6.73965 3.96589 6.73965C3.13285 6.73965 2.45757 6.06592 2.45757 5.2348C2.45757 4.40368 3.13285 3.72995 3.96589 3.72995ZM1.39143 9.80558H6.54031C6.59036 9.80579 6.63979 9.79455 6.68481 9.77273C6.72983 9.75091 6.76924 9.71909 6.80001 9.67971C6.83079 9.64033 6.85211 9.59444 6.86235 9.54556C6.87258 9.49668 6.87146 9.44611 6.85905 9.39773C6.53349 8.10592 5.36166 7.14947 3.96589 7.14947C2.57009 7.14947 1.39829 8.10592 1.07273 9.39773C1.06032 9.4461 1.05919 9.49667 1.06941 9.54555C1.07964 9.59443 1.10096 9.64033 1.13173 9.67971C1.16251 9.71909 1.20192 9.75091 1.24693 9.77273C1.29195 9.79455 1.34138 9.80579 1.39143 9.80558ZM8.82864 4.27867C8.75944 4.32975 8.67285 4.35156 8.58765 4.33937C8.50244 4.32718 8.42548 4.28198 8.37346 4.21356C8.32144 4.14514 8.29854 4.05902 8.30972 3.97388C8.32091 3.88873 8.36529 3.81141 8.43323 3.75868L11.6387 1.33037C11.6848 1.29548 11.7393 1.2734 11.7967 1.26639C11.8542 1.25939 11.9124 1.2677 11.9656 1.29049L11.9661 1.28939L14.9777 2.58143L17.0987 0.656312L16.7518 0.657583C16.6659 0.656225 16.584 0.621216 16.5237 0.560111C16.4634 0.499005 16.4296 0.416703 16.4296 0.330964C16.4296 0.245224 16.4634 0.162922 16.5237 0.101817C16.584 0.0407116 16.6659 0.0057027 16.7518 0.00434454L17.9495 0C18.1563 0 18.3099 0.188537 18.2708 0.389205L18.0394 1.56153C18.0311 1.60375 18.0146 1.64393 17.9908 1.67978C17.967 1.71563 17.9363 1.74644 17.9005 1.77047C17.8648 1.79449 17.8246 1.81125 17.7823 1.81979C17.7401 1.82833 17.6966 1.82848 17.6542 1.82024C17.6119 1.812 17.5717 1.79552 17.5357 1.77175C17.4998 1.74798 17.4689 1.71738 17.4448 1.6817C17.4208 1.64601 17.404 1.60595 17.3954 1.56379C17.3868 1.52164 17.3867 1.47821 17.3949 1.43599L17.4345 1.23647L15.2743 3.19717C15.2278 3.24354 15.1685 3.27493 15.104 3.2873C15.0394 3.29967 14.9727 3.29245 14.9123 3.26656L11.8812 1.96619L8.82864 4.27867ZM11.3304 4.39175H12.3424C12.4782 4.39175 12.5889 4.50221 12.5889 4.63767V9.55966C12.5889 9.69512 12.4782 9.80558 12.3424 9.80558H11.3304C11.1946 9.80558 11.0839 9.69512 11.0839 9.55966V4.63767C11.0839 4.50225 11.1946 4.39175 11.3304 4.39175ZM8.12496 6.92503H9.13695C9.27272 6.92503 9.38343 7.03549 9.38343 7.17095V9.55966C9.38343 9.69512 9.27272 9.80558 9.13695 9.80558H8.12496C7.98919 9.80558 7.87848 9.69512 7.87848 9.55966V7.17095C7.87848 7.03549 7.98919 6.92503 8.12496 6.92503ZM17.7413 2.42216C17.6056 2.42216 17.4949 2.53262 17.4949 2.66808V9.55966C17.4949 9.69512 17.6056 9.80558 17.7413 9.80558H18.7534C18.8891 9.80558 18.9999 9.69512 18.9999 9.55966V2.66808C18.9999 2.53262 18.8891 2.42216 18.7534 2.42216H17.7413ZM14.5359 5.41579H15.5479C15.6837 5.41579 15.7944 5.52625 15.7944 5.66171V9.55971C15.7944 9.69517 15.6837 9.80562 15.5479 9.80562H14.5359C14.4001 9.80562 14.2894 9.69517 14.2894 9.55971V5.66171C14.2894 5.52625 14.4001 5.41579 14.5359 5.41579Z" fill="#ACE3EB"/>
</g>
</g>
<defs>
<clipPath id="clip0_25_2630">
<rect width="20" height="20" fill="white"/>
</clipPath>
</defs>
</svg>
