<svg width="41" height="41" viewBox="0 0 41 41" fill="none" xmlns="http://www.w3.org/2000/svg">
<g id="Frame" clip-path="url(#clip0_5_1303)">
<g id="Group">
<path id="Vector" d="M37.1778 31.6222C28.8883 42.2463 9.47554 42.417 4.10219 36.5164C1.95659 34.1611 1.39098 30.1156 0.558424 24.1746C0.157298 21.3148 0.101025 19.0086 0.0663952 17.4269C-0.0504797 12.0468 -0.109639 9.35612 0.754658 7.52567C3.23067 2.28591 11.8318 0.247256 17.3913 0.15183C17.7794 0.1446 18.1705 0.147492 18.5658 0.159059C25.0747 0.352803 32.4205 3.06811 36.9512 8.87031C37.4202 9.46889 37.8574 10.1007 38.26 10.7658C42.3953 17.5816 41.6998 25.8273 37.1778 31.6222Z" fill="#E5F8FE"/>
<g id="Group_2">
<g id="Group_3">
<g id="Group_4">
<path id="Vector_2" d="M4.81503 40.4187L6.54795 31.4284C6.85096 29.6442 6.25216 27.7907 4.94633 26.4547C4.22921 25.7216 3.77903 24.7818 3.67802 23.7871C3.52075 22.2357 3.5395 19.7112 4.57695 16.6243C5.96791 12.4791 10.2836 9.82451 14.9153 10.3421C17.2745 10.6053 20.0723 11.2443 23.0677 12.5904C24.8179 13.377 26.03 14.9356 26.2233 16.7386C26.3128 17.5786 26.4802 18.5083 26.7832 19.3382C27.1655 20.3836 27.3315 21.1007 27.4007 21.5663C27.4628 21.9885 27.2824 22.4063 26.9275 22.6767C26.5624 22.9543 26.473 23.4329 26.7125 23.816L29.3948 28.1116V28.249C29.3948 28.6726 29.0312 29.011 28.5637 29.0211L26.9462 29.0587L27.0068 30.5566C27.0184 30.8457 26.8106 31.0944 26.5033 31.158L26.1368 31.2332L26.4701 31.492C26.7428 31.7031 26.8135 32.0559 26.6374 32.322L26.1656 33.0348C25.9535 33.3572 25.9838 33.775 26.2421 34.0931C26.6721 34.6209 26.7601 35.3062 26.4701 35.8701L26.3388 36.126C25.7313 37.3072 24.2956 37.8957 22.8758 37.5487C21.2828 37.1598 19.2642 36.5829 17.8935 35.8903C17.5053 35.6937 17.0609 35.9351 17.0609 36.3356V40.4187H4.81503Z" fill="#D8DEE8"/>
<path id="Vector_3" d="M20.0954 21.2988C21.3594 21.027 21.7417 21.5316 22.7676 21.1499C24.0028 20.6901 24.9262 19.4525 25.0806 18.2134C25.2999 16.4523 23.9162 15.1453 22.9682 14.2489C20.7923 12.1929 18.146 11.7201 17.3741 11.5914C16.3265 11.4179 11.8535 10.8207 8.30545 13.7775C5.84386 15.8292 5.24362 18.4201 5.07624 19.1937C4.83239 20.3185 4.07487 23.8276 6.05597 25.2041C7.23049 26.0195 9.11636 25.9227 10.3154 25.2315C11.1985 24.7226 11.0167 24.3568 11.8867 23.8537C13.624 22.8488 14.8389 24.1168 16.8936 23.3331C18.5342 22.7056 18.3827 21.6675 20.0954 21.2988Z" fill="#BFC8D6"/>
</g>
</g>
<g id="Group_5">
<path id="Vector_4" d="M13.4912 19.6766L13.0757 19.6216C13.067 19.4207 13.041 19.2226 12.9992 19.0303L13.3844 18.8684C13.4927 18.8235 13.5446 18.6977 13.4984 18.5879L13.2171 17.9054C13.1723 17.797 13.0482 17.7449 12.94 17.7898L12.5519 17.9517C12.4465 17.7854 12.3268 17.6293 12.194 17.4847L12.4494 17.1492C12.5201 17.0567 12.5028 16.9222 12.4105 16.8514L11.8319 16.4061C11.7395 16.3352 11.6068 16.3526 11.5346 16.4451L11.2764 16.7805C11.1061 16.6923 10.9243 16.6172 10.7367 16.5593L10.7944 16.1386C10.8103 16.0229 10.7295 15.9159 10.6141 15.9015L9.89117 15.806C9.77574 15.7901 9.66897 15.8726 9.6531 15.9882L9.59394 16.4133C9.3977 16.422 9.20435 16.448 9.01678 16.4899L8.85661 16.0938C8.81333 15.9853 8.68924 15.9347 8.58102 15.9795L7.90141 16.26C7.7932 16.3049 7.73981 16.4292 7.7831 16.5376L7.9447 16.9381C7.78021 17.0437 7.62438 17.1623 7.48009 17.2938L7.13812 17.0292C7.04578 16.9584 6.91303 16.9757 6.83944 17.0683L6.38348 17.6538C6.3099 17.7478 6.32577 17.8823 6.41811 17.9531L6.76008 18.2192C6.66918 18.3912 6.5927 18.572 6.53066 18.7614L6.09635 18.7035C5.97947 18.6876 5.87125 18.7715 5.85394 18.8886L5.74428 19.626C5.72696 19.7445 5.80777 19.853 5.92464 19.8674L6.3604 19.9253C6.36617 20.1248 6.38781 20.32 6.42533 20.5108L6.01699 20.6815C5.90733 20.7277 5.8525 20.855 5.89578 20.9648L6.16849 21.6588C6.21178 21.7702 6.33731 21.8222 6.44697 21.776L6.85676 21.6039C6.9592 21.7716 7.07752 21.9292 7.20738 22.0767L6.93467 22.4309C6.86108 22.5264 6.87696 22.6637 6.97074 22.7375L7.55512 23.1972C7.64891 23.271 7.78454 23.2522 7.85813 23.1553L8.12795 22.8025C8.29965 22.8951 8.48146 22.9702 8.67192 23.0324L8.61132 23.4719C8.59401 23.592 8.67625 23.7033 8.79457 23.7177L9.53189 23.8146C9.65021 23.8305 9.75843 23.7452 9.77574 23.6252L9.8349 23.1886C10.0355 23.1799 10.2331 23.1539 10.425 23.1105L10.5867 23.5139C10.6314 23.6252 10.7569 23.6787 10.868 23.6324L11.5563 23.3404C11.6659 23.2941 11.7193 23.1654 11.6732 23.0541L11.5115 22.6536C11.6789 22.5452 11.8376 22.4208 11.9848 22.2849L12.321 22.5466C12.4148 22.6203 12.5504 22.6015 12.6226 22.5061L13.0728 21.9075C13.1449 21.8121 13.1276 21.6748 13.0324 21.6025L12.6991 21.3437C12.79 21.1673 12.865 20.9807 12.9256 20.787L13.3426 20.8419C13.4595 20.8578 13.5662 20.774 13.5821 20.6554L13.6773 19.9152C13.6903 19.7995 13.6081 19.691 13.4912 19.6766ZM12.3441 20.1161C12.1493 21.5851 10.8117 22.6261 9.3573 22.4353C7.90286 22.2444 6.89427 20.894 7.10493 19.4265C7.31415 17.969 8.64884 16.9468 10.0889 17.1362C11.526 17.3256 12.5375 18.6558 12.3441 20.1161Z" fill="white"/>
<path id="Vector_5" d="M16.9845 14.6985L16.706 14.6623C16.7002 14.5279 16.6829 14.3948 16.654 14.2662L16.9123 14.1577C16.9845 14.1274 17.0191 14.0435 16.9888 13.9698L16.7998 13.5129C16.7695 13.4406 16.6858 13.4059 16.6136 13.4362L16.3539 13.5447C16.2832 13.4334 16.2024 13.3278 16.1144 13.2309L16.2861 13.0068C16.3337 12.9447 16.3222 12.855 16.2601 12.8073L15.872 12.508C15.8099 12.4603 15.7205 12.4719 15.6729 12.534L15.4997 12.7596C15.3857 12.7003 15.2645 12.6511 15.1375 12.6107L15.1765 12.3287C15.1866 12.2506 15.1332 12.1798 15.0553 12.1697L14.5705 12.1061C14.4926 12.0959 14.4219 12.1509 14.4103 12.2275L14.3714 12.5123C14.2401 12.5181 14.1102 12.5355 13.9847 12.5644L13.8779 12.2984C13.849 12.2261 13.7653 12.1914 13.6932 12.2217L13.2372 12.4097C13.1637 12.4401 13.129 12.5225 13.1579 12.5962L13.2661 12.8651C13.1564 12.936 13.0511 13.0155 12.9544 13.1037L12.7265 12.9244C12.6644 12.8767 12.575 12.8883 12.5259 12.9504L12.22 13.3423C12.1709 13.4044 12.181 13.4955 12.2431 13.5432L12.4725 13.7225C12.4119 13.8382 12.36 13.9596 12.3181 14.0854L12.0267 14.0478C11.9487 14.0377 11.8752 14.0927 11.8636 14.1722L11.79 14.6667C11.7785 14.7462 11.8319 14.8185 11.9112 14.8286L12.2027 14.8676C12.2056 15.0007 12.22 15.1322 12.246 15.2609L11.9718 15.3751C11.8982 15.4055 11.8622 15.4908 11.891 15.566L12.0743 16.0315C12.1031 16.1067 12.1868 16.1414 12.2618 16.1096L12.536 15.994C12.6053 16.1067 12.6832 16.2123 12.7712 16.3106L12.5879 16.5477C12.5389 16.6128 12.549 16.7039 12.611 16.753L13.0035 17.061C13.0655 17.1102 13.1564 17.0986 13.2069 17.0335L13.3873 16.7978C13.5027 16.86 13.6254 16.9106 13.7524 16.9511L13.712 17.2461C13.7004 17.327 13.7552 17.4008 13.8346 17.4109L14.3295 17.476C14.4089 17.4861 14.481 17.4297 14.4926 17.3487L14.533 17.0567C14.6672 17.0509 14.7999 17.0335 14.9283 17.0046L15.0365 17.275C15.0668 17.3502 15.1505 17.3849 15.2256 17.3545L15.6873 17.1593C15.7609 17.1275 15.7955 17.0422 15.7652 16.967L15.657 16.6981C15.7695 16.6258 15.8763 16.5419 15.9744 16.4508L16.1995 16.6272C16.263 16.6764 16.3525 16.6634 16.4015 16.5998L16.7031 16.1978C16.7507 16.1342 16.7392 16.0417 16.6771 15.994L16.4535 15.8205C16.5141 15.7019 16.5646 15.5775 16.605 15.4474L16.8849 15.4836C16.9628 15.4937 17.035 15.4373 17.0451 15.3578L17.1085 14.8619C17.1186 14.7809 17.0624 14.7086 16.9845 14.6985ZM16.2154 14.9934C16.0855 15.978 15.188 16.6764 14.2126 16.5477C13.2372 16.419 12.562 15.5139 12.7019 14.5308C12.8419 13.5534 13.7365 12.868 14.7018 12.9953C15.6671 13.1225 16.3453 14.0146 16.2154 14.9934Z" fill="white"/>
<path id="Vector_6" d="M22.6391 17.8259L22.3116 17.7825C22.3044 17.6235 22.2856 17.4688 22.251 17.3169L22.554 17.1897C22.6391 17.1536 22.6795 17.0552 22.6435 16.9699L22.4227 16.4335C22.3881 16.3482 22.29 16.3077 22.2048 16.3424L21.9004 16.4697C21.8167 16.3395 21.7229 16.2152 21.619 16.1024L21.821 15.8393C21.8773 15.7655 21.8629 15.6614 21.7907 15.6051L21.3348 15.2552C21.2626 15.1988 21.1573 15.2132 21.101 15.2855L20.8976 15.5487C20.7634 15.4793 20.6205 15.42 20.4733 15.3752L20.5181 15.0441C20.5311 14.953 20.4661 14.8691 20.3752 14.8575L19.8067 14.7824C19.7158 14.7708 19.6321 14.8344 19.6191 14.9255L19.573 15.2595C19.4186 15.2667 19.2671 15.287 19.1185 15.3202L18.9929 15.0094C18.9583 14.9241 18.8616 14.8836 18.7765 14.9197L18.2426 15.1409C18.1575 15.1756 18.1156 15.274 18.1503 15.3593L18.2772 15.6745C18.1474 15.7569 18.0247 15.8508 17.9122 15.9535L17.6438 15.7453C17.5717 15.6889 17.4663 15.7034 17.4086 15.7771L17.0493 16.2369C16.9916 16.3106 17.0046 16.4162 17.0768 16.4726L17.3466 16.6822C17.2744 16.8167 17.2138 16.9598 17.1662 17.1087L16.8242 17.0639C16.7319 17.0523 16.6468 17.1174 16.6338 17.2099L16.5472 17.7897C16.5328 17.8823 16.5963 17.9676 16.6886 17.9806L17.032 18.0254C17.0364 18.1816 17.0537 18.3363 17.084 18.4866L16.7622 18.6211C16.6756 18.6572 16.6323 18.757 16.667 18.8438L16.882 19.3888C16.9166 19.4756 17.0147 19.5175 17.1013 19.4814L17.4231 19.3469C17.5039 19.4785 17.5962 19.6028 17.6986 19.7185L17.4837 19.9975C17.4259 20.0727 17.4375 20.1812 17.5111 20.239L17.9714 20.6005C18.0449 20.6583 18.1517 20.6438 18.2094 20.5672L18.4215 20.2896C18.5572 20.3619 18.7 20.4226 18.8501 20.4703L18.8025 20.8159C18.7895 20.9113 18.8544 20.9966 18.9468 21.0096L19.5268 21.0863C19.6191 21.0978 19.7057 21.0313 19.7187 20.9374L19.7649 20.5947C19.9222 20.5875 20.078 20.5672 20.228 20.534L20.355 20.8506C20.3897 20.9388 20.4892 20.9807 20.5758 20.9431L21.1169 20.7132C21.2034 20.6771 21.2453 20.5759 21.2092 20.4877L21.0822 20.1725C21.215 20.0872 21.3391 19.9903 21.4545 19.8833L21.7186 20.0901C21.7922 20.1479 21.8989 20.1335 21.9552 20.0583L22.3102 19.5869C22.3664 19.5117 22.3534 19.4047 22.2784 19.3469L22.0158 19.1431C22.0879 19.0042 22.1471 18.8582 22.1933 18.705L22.5208 18.7483C22.6132 18.7599 22.6968 18.6948 22.7084 18.6009L22.7834 18.0196C22.7964 17.9228 22.7315 17.8374 22.6391 17.8259ZM21.7359 18.1714C21.5829 19.3267 20.5311 20.1465 19.3854 19.9961C18.2412 19.8457 17.4476 18.783 17.6135 17.6292C17.778 16.4827 18.8284 15.6788 19.9597 15.8277C21.0938 15.9766 21.8888 17.0234 21.7359 18.1714Z" fill="white"/>
</g>
</g>
<g id="Group_6">
<g id="Group_7">
<path id="Vector_7" d="M7.31263 40.7976C5.35173 40.5445 2.86417 39.8809 1.86569 38.01C1.62761 37.5646 1.38953 36.7 1.98978 36.3747C2.53808 36.0769 3.24654 36.392 3.65488 36.7781C3.95501 37.0629 4.18876 37.6991 4.52495 37.9001C5.01698 38.1936 5.28247 37.3911 5.27237 37.06C5.24929 36.3198 4.34026 36.0161 3.73569 35.8556C2.73287 35.5882 1.56556 35.3597 1.62761 34.2276C1.6911 33.0955 2.79203 32.416 3.64045 32.9104C4.33882 33.3182 4.2407 34.19 4.7183 34.7134C5.14251 35.1775 5.28969 34.4242 5.26227 34.0541C5.20023 33.2517 4.49609 32.6704 3.97809 32.1326C3.39228 31.5239 2.74441 30.3007 3.36919 29.4968C3.72847 29.0341 4.64183 28.9257 5.18147 29.0037C7.82342 29.3855 6.07174 32.8121 6.55223 33.1938C7.03271 33.5755 7.48723 32.9075 7.48578 31.8897C7.48434 30.8718 7.64017 30.1214 8.69926 30.4482C9.75835 30.7735 9.96036 33.4309 8.75121 34.4532C7.54061 35.4739 8.82768 36.5887 9.15233 35.8571C9.38752 35.3279 9.59242 33.9442 10.2706 33.7924C11.4004 33.5394 11.3831 35.8499 11.0584 36.3877C10.6024 37.141 9.57222 37.3058 8.99794 37.9565C8.83056 38.1459 8.45397 38.6129 8.5997 38.889C8.80459 39.2736 9.37454 38.8616 9.58376 38.6837C10.0541 38.2818 10.7063 36.9183 11.3701 37.8249C12.1868 38.9425 10.816 40.6009 7.31263 40.7976Z" fill="#30B9CC"/>
<g id="Group_8" opacity="0.8">
<path id="Vector_8" d="M7.02979 40.5764C7.07596 40.5764 7.11348 40.5518 7.11492 40.5055C7.11636 40.465 7.16975 36.4427 5.41374 31.6497C5.39787 31.6063 5.34881 31.586 5.30552 31.602C5.26224 31.6179 5.23915 31.6685 5.25502 31.7118C6.99949 36.4745 6.9461 40.4607 6.94466 40.4997C6.94321 40.546 6.98073 40.5749 7.02835 40.5749C7.02979 40.5764 7.02979 40.5764 7.02979 40.5764Z" fill="white"/>
</g>
</g>
<path id="Vector_9" d="M6.54642 38.8948C6.86386 38.623 7.54058 39.0481 7.8205 39.2085C7.98355 39.3025 8.20575 39.4457 8.40199 39.3618C8.60688 39.2751 8.59245 39.0582 8.46836 38.9049C8.24616 38.6302 7.81906 38.555 7.50883 38.422C7.17552 38.2789 6.86963 38.0822 6.70514 37.7453C6.57383 37.4764 6.54353 37.0788 6.69215 36.8142C7.10049 36.0812 7.69497 36.6537 8.02683 37.0904C8.18844 37.3029 8.54916 37.6673 8.82331 37.4171C9.11478 37.1511 8.86516 36.6769 8.63862 36.4672C8.34283 36.1939 7.98643 36.0045 7.66467 35.766C7.37464 35.552 7.07741 35.2455 7.26931 34.8652C7.41793 34.5717 7.79308 34.4098 8.11485 34.4343C8.8565 34.4922 8.97193 35.5766 9.45963 35.9915C9.63278 36.139 10.0238 36.2561 10.2301 36.1115C10.4394 35.9641 10.3037 35.6272 10.2287 35.4435C10.0051 34.8985 8.40199 33.0724 9.7309 32.8425C10.0657 32.7846 10.5259 32.8902 10.7885 33.1027C11.2849 33.5047 11.5475 34.2999 11.6774 34.9042C11.8823 35.8542 11.8707 36.9096 11.6413 37.8552C11.1348 39.943 9.94445 40.6139 9.94445 40.6139C9.42933 40.7831 8.7858 40.8669 8.25193 40.7542C7.62427 40.6211 6.87396 40.1556 6.56373 39.5743C6.46129 39.3922 6.35018 39.064 6.54642 38.8948Z" fill="#98EDF9"/>
</g>
<g id="Group_9">
<g id="Group_10">
<g id="Group_11">
<path id="Vector_10" d="M23.958 20.7624L23.8599 20.7349L26.4845 11.5784L26.5826 11.6058L23.958 20.7624Z" fill="url(#paint0_linear_5_1303)"/>
</g>
<g id="Group_12">
<path id="Vector_11" d="M36.5805 22.5466L35.5647 6.50053L35.6657 6.49475L36.6829 22.5394L36.5805 22.5466Z" fill="url(#paint1_linear_5_1303)"/>
</g>
<g id="Group_13">
<path id="Vector_12" d="M33.7754 25.5309L33.6744 25.5222L35.1043 9.18695L35.2054 9.19563L33.7754 25.5309Z" fill="url(#paint2_linear_5_1303)"/>
</g>
<g id="Group_14">
<path id="Vector_13" d="M28.7643 25.4007L28.6676 25.3689L33.1016 11.321L33.1997 11.3514L28.7643 25.4007Z" fill="url(#paint3_linear_5_1303)"/>
</g>
</g>
<g id="Group_15">
<path id="Vector_14" d="M29.2029 3.87201C29.2029 3.87201 32.1276 4.45469 33.6932 5.15014C35.2587 5.8456 36.6713 6.31261 36.2962 6.59599C35.921 6.87938 35.0784 7.87413 33.0814 6.61334C31.0844 5.35111 29.0254 5.4422 29.0254 5.4422L29.2029 3.87201Z" fill="url(#paint4_linear_5_1303)"/>
<path id="Vector_15" opacity="0.3" d="M29.2029 3.87201C29.2029 3.87201 32.1276 4.45469 33.6932 5.15014C35.2587 5.8456 36.6713 6.31261 36.2962 6.59599C35.921 6.87938 35.0784 7.87413 33.0814 6.61334C31.0844 5.35111 29.0254 5.4422 29.0254 5.4422L29.2029 3.87201Z" fill="#EDC0B4"/>
<path id="Vector_16" d="M35.0524 9.44288C34.0943 8.59561 33.1132 7.8698 32.3643 7.34929C31.5981 6.82011 31.0772 6.50781 31.0772 6.50781L29.8782 3.71008C29.8782 3.71008 33.3426 5.10822 34.5301 6.33575C34.9211 6.74059 35.2559 7.39845 35.6094 8.04185V8.0433C36.2139 9.35469 36.351 10.5909 35.0524 9.44288Z" fill="#EDC0B4"/>
<path id="Vector_17" opacity="0.3" d="M35.0524 9.44285C34.0943 8.59559 33.1131 7.86977 32.3643 7.34926C31.852 6.58585 31.4322 5.65906 31.386 4.63251C33.7293 7.30444 35.6108 8.04327 35.6108 8.04327V8.04472C36.2139 9.35466 36.351 10.5909 35.0524 9.44285Z" fill="url(#paint5_linear_5_1303)"/>
<path id="Vector_18" d="M32.5836 13.2729C31.7857 12.0165 32.6702 10.7615 32.5 9.87661C32.3297 8.99175 29.796 7.65 29.0269 7.16564C27.8033 6.395 25.6649 6.16656 25.3807 7.0225C25.2104 7.53433 25.8424 8.10544 26.4282 8.7821C26.8236 9.23754 27.1973 9.7407 27.2896 10.3046C27.5176 11.7027 27.1194 13.1587 25.6938 11.6174C24.2697 10.0761 20.5542 8.04905 19.8991 6.82153C19.244 5.59544 16.9253 6.70875 16.9253 6.70875V1.37067L17.7824 1.39525C17.7824 1.39525 23.9941 1.16391 28.2102 2.76158C32.4264 4.35924 33.8029 7.64566 34.4017 8.84572C34.9991 10.0443 33.3816 14.5279 32.5836 13.2729Z" fill="#EDC0B4"/>
<path id="Vector_19" opacity="0.3" d="M25.6938 11.6174C24.2697 10.0761 20.5542 8.04904 19.8991 6.82151C19.244 5.59543 16.9253 6.70874 16.9253 6.70874V3.89511C17.6309 3.76787 18.8025 3.81848 20.2036 4.98528C22.4444 6.85043 23.0201 8.82835 25.1845 8.82835C25.727 8.82835 26.1267 8.80233 26.4253 8.78064C26.8207 9.23608 27.1959 9.73924 27.2882 10.3031C27.5147 11.7027 27.1179 13.1587 25.6938 11.6174Z" fill="url(#paint6_linear_5_1303)"/>
<path id="Vector_20" d="M17.3783 0.866047V6.78392C17.3783 7.00947 17.221 7.16707 16.9959 7.16707H15.162V0.453979H16.9959C17.221 0.453979 17.3783 0.640494 17.3783 0.866047Z" fill="white"/>
<path id="Vector_21" opacity="0.9" d="M17.3783 5.33953V6.78538C17.3783 7.01093 17.221 7.16853 16.9959 7.16853H15.162V0.957153C15.8676 1.21018 16.7939 1.72201 16.9151 2.70663C17.019 3.54523 17.1763 4.50816 17.3783 5.33953Z" fill="#D8DEE8"/>
<path id="Vector_22" d="M15.9801 0H14.0943H13.5359H12.3916H11.6514H10.5043H9.94593H8.06006V7.77145H9.94593H10.5043H11.6486H12.3888H13.533H14.0914H15.9773C16.1345 7.77145 16.2673 7.63554 16.2673 7.47794V0.284833C16.2702 0.127235 16.1374 0 15.9801 0Z" fill="url(#paint7_linear_5_1303)"/>
<path id="Vector_23" opacity="0.3" d="M14.2544 7.77145H8.06006V0H9.19274C9.93583 0.312304 10.5519 1.09162 10.2836 2.89604C9.84204 5.87739 12.6442 6.76225 14.2544 7.77145Z" fill="url(#paint8_linear_5_1303)"/>
</g>
<g id="Group_16">
<path id="Vector_24" d="M30.3283 22.8863L30.0715 25.9342C30.0715 25.9342 29.7064 26.1352 29.0701 26.3145C28.4713 26.4836 27.6315 26.6354 26.6287 26.5848C25.6172 26.5328 24.7832 25.1477 24.1974 23.7466C24.1743 23.6902 24.1512 23.6353 24.1282 23.5789C24.1282 23.5775 24.1397 23.576 24.1397 23.5746C24.131 23.5529 24.1253 23.5298 24.1253 23.5081C23.5712 22.1258 23.2523 20.8 23.2523 20.8C23.2523 20.8 23.5005 20.5629 23.8829 20.5629C24.2652 20.5629 26.1987 23.1061 26.6114 23.764C27.0241 24.4218 30.3283 22.8863 30.3283 22.8863Z" fill="#30B9CC"/>
<path id="Vector_25" d="M23.9089 20.7494C23.9089 20.7494 23.7444 20.0684 23.3202 20.2563C22.896 20.4443 21.9234 21.066 22.1846 21.1817C22.4458 21.2973 22.5699 21.2453 22.7675 21.1152C22.9652 20.985 23.0807 20.7378 23.0807 20.839C23.0807 20.9402 23.072 21.1889 23.1413 21.2135C23.2105 21.2381 23.1355 21.0833 23.2625 20.985C23.3894 20.8882 23.4991 20.8202 23.5265 20.7812C23.5539 20.7392 23.8295 20.8433 23.9089 20.7494Z" fill="url(#paint9_linear_5_1303)"/>
<path id="Vector_26" opacity="0.3" d="M24.1008 23.5066C24.1095 23.5254 24.1181 23.5485 24.1282 23.5731C24.1181 23.5514 24.1095 23.5283 24.1008 23.5066Z" fill="url(#paint10_linear_5_1303)"/>
<path id="Vector_27" opacity="0.3" d="M29.252 25.5539L29.0702 26.3129C28.4714 26.4821 27.6316 26.6339 26.6288 26.5833C25.6173 26.5313 24.7833 25.1461 24.1975 23.7451C24.6722 24.789 26.0372 25.992 27.2117 25.178C28.4512 24.3206 29.252 25.5539 29.252 25.5539Z" fill="#30B9CC"/>
<path id="Vector_28" d="M36.1923 22.1259C36.1923 22.1259 36.1951 22.9153 36.4534 22.8907C36.7117 22.8661 36.9123 22.8994 36.9051 22.8907C36.8978 22.882 36.8026 22.1533 36.8026 22.1533L36.1923 22.1259Z" fill="url(#paint11_linear_5_1303)"/>
<g id="Group_17">
<path id="Vector_29" d="M29.0788 40.3769C29.0788 40.3769 27.9634 40.8887 27.9447 40.9697C27.9259 41.0507 28.6633 40.9408 28.9634 40.9523C29.2635 40.9639 29.5117 40.8743 29.4843 40.7456C29.4568 40.6183 29.3501 40.2974 29.3501 40.2974L29.0788 40.3769Z" fill="url(#paint12_linear_5_1303)"/>
<path id="Vector_30" d="M29.037 39.9648L29.1062 40.4679C29.1062 40.4679 29.2837 40.5301 29.402 40.4564L29.4511 39.9041L29.037 39.9648Z" fill="url(#paint13_linear_5_1303)"/>
<path id="Vector_31" d="M30.9243 31.3937C30.6703 32.9813 30.451 33.0246 30.2981 34.1437C30.1264 35.406 30.3789 35.5534 30.1682 37.2566C30.109 37.741 30.0239 38.2456 29.8825 38.8109C29.7483 39.3473 29.5983 39.797 29.4713 40.1382C29.4078 40.1426 29.3414 40.1469 29.2736 40.1483C29.174 40.1512 29.0774 40.1512 28.9865 40.1483C28.959 39.9691 28.9331 39.7883 28.9071 39.6047C28.8984 39.544 28.8898 39.4818 28.8811 39.4211C28.6806 37.9723 28.5218 36.4021 28.4338 34.7235C28.3689 33.4555 28.3487 32.2482 28.366 31.1045C28.3718 30.6737 28.3833 30.2529 28.3978 29.8423C28.5796 29.7295 28.7599 29.6298 28.9374 29.5416C29.5391 29.2423 30.0975 29.0905 30.4957 29.1498C30.5333 29.1555 30.5679 29.1628 30.6025 29.1714C30.6025 29.1714 30.6025 29.1714 30.604 29.1714C30.6169 29.1743 30.6285 29.1787 30.64 29.1816C30.6516 29.1859 30.6646 29.1902 30.6747 29.1931C30.6977 29.2018 30.7208 29.2119 30.741 29.222C30.7627 29.2322 30.7829 29.2437 30.8031 29.2567C30.8334 29.2755 30.8608 29.2972 30.8868 29.3204C30.8983 29.3305 30.9098 29.3435 30.9243 29.3594C30.9272 29.3623 30.93 29.3666 30.9329 29.3695C30.9358 29.3724 30.9387 29.3768 30.9416 29.3811C30.9445 29.3854 30.9474 29.3898 30.9502 29.3941C30.9575 29.4057 30.9647 29.4187 30.9719 29.4331C30.9791 29.4476 30.9863 29.4649 30.9935 29.4837C30.995 29.4895 30.9979 29.4953 30.9993 29.5011C31.0036 29.5141 31.008 29.5271 31.0123 29.5416C31.0238 29.5821 31.0339 29.6298 31.0412 29.6876C31.0426 29.6992 31.044 29.7107 31.0455 29.7223C31.0527 29.7816 31.0585 29.8495 31.0599 29.9291C31.0599 29.9421 31.0614 29.9565 31.0614 29.971C31.0657 30.2717 31.0311 30.7214 30.9243 31.3937Z" fill="url(#paint14_linear_5_1303)"/>
<path id="Vector_32" opacity="0.3" d="M30.9242 31.3938C30.6703 32.9813 30.451 33.0247 30.298 34.1438C30.1263 35.406 30.3788 35.5535 30.1681 37.2567C30.109 37.741 30.0239 38.2456 29.8825 38.811C29.7483 39.3474 29.5982 39.797 29.4712 40.1383C29.4077 40.1426 29.3414 40.1469 29.2736 40.1484C29.174 40.1513 29.0773 40.1513 28.9864 40.1484C28.959 39.9691 28.933 39.7884 28.9071 39.6047C28.8984 39.544 28.8897 39.4818 28.8811 39.4211C29.3443 39.0727 29.5059 38.7358 29.5621 38.4784C29.6934 37.8798 29.2837 37.6008 29.3688 36.7911C29.4409 36.1072 29.754 36.1116 29.7627 35.5578C29.7757 34.7207 29.0614 34.5125 29.0586 33.7201C29.0571 33.3297 29.2288 33.1129 29.3991 32.8714C29.3991 32.8685 29.3991 32.8671 29.3991 32.8656C29.3991 32.8656 29.5852 31.5499 28.366 31.1031C28.3717 30.6723 28.3833 30.2429 28.3977 29.8322C28.5795 29.7195 28.7599 29.624 28.9374 29.5228H28.9402C29.5419 29.2698 30.0974 29.0818 30.4971 29.1397C30.5346 29.1455 30.5693 29.157 30.6039 29.1657C30.6039 29.1657 30.6039 29.1686 30.6053 29.1686C30.6183 29.1715 30.6299 29.1773 30.6414 29.1802C30.653 29.1845 30.6659 29.1888 30.676 29.1932C30.6991 29.2018 30.7222 29.212 30.7424 29.2221C30.7641 29.2322 30.7843 29.2438 30.8045 29.2568C30.8348 29.2756 30.8622 29.2973 30.8882 29.3204C30.8997 29.3305 30.9112 29.3435 30.9257 29.3594C30.9286 29.3623 30.9314 29.3667 30.9343 29.3696C30.9372 29.3725 30.9401 29.3768 30.943 29.3811C30.9459 29.3855 30.9488 29.3898 30.9516 29.3941C30.9589 29.4057 30.9661 29.4187 30.9733 29.4332C30.9805 29.4476 30.9877 29.465 30.9949 29.4838C30.9964 29.4896 30.9993 29.4954 31.0007 29.5011C31.005 29.5141 31.0094 29.5272 31.0137 29.5416C31.0252 29.5821 31.0353 29.6298 31.0425 29.6876C31.044 29.6992 31.0454 29.7108 31.0469 29.7223C31.0541 29.7816 31.0599 29.8496 31.0613 29.9291C31.0613 29.9421 31.0627 29.9566 31.0627 29.971C31.0656 30.2718 31.031 30.7214 30.9242 31.3938Z" fill="url(#paint15_linear_5_1303)"/>
<path id="Vector_33" d="M36.3048 39.2577L36.4347 39.4659C36.4707 39.5237 36.4823 39.5946 36.465 39.6611C36.4202 39.8346 36.3293 40.1744 36.2904 40.2626C36.237 40.3826 35.5141 40.4563 35.5141 40.4563C35.5141 40.4563 35.4492 40.3652 35.5992 40.2553C35.7493 40.1454 35.846 40.1281 35.8979 39.9662C35.9499 39.8042 35.9845 39.3459 35.9845 39.3459L36.3048 39.2577Z" fill="url(#paint16_linear_5_1303)"/>
<path id="Vector_34" d="M35.9181 38.7532L35.5011 39.0958C35.5617 39.1016 36.1403 39.5672 36.1403 39.5672C36.1403 39.5672 36.2557 39.6062 36.2976 39.4096C36.3091 39.3532 36.2976 39.2939 36.2644 39.2462L35.9181 38.7532Z" fill="url(#paint17_linear_5_1303)"/>
<path id="Vector_35" d="M35.9745 38.7402C35.9095 38.4481 34.7798 36.4832 33.5576 35.3713C33.2719 35.1111 33.1132 34.738 33.1233 34.3505C33.145 33.5842 33.1478 32.2873 32.9747 31.2752C32.7135 29.7426 29.9619 30.8921 29.9619 30.8921C29.9619 30.8921 30.6545 35.2369 32.1667 36.4412C33.6788 37.6456 35.7956 39.3734 35.7956 39.3734C35.7956 39.3734 36.0466 39.0684 35.9745 38.7402Z" fill="url(#paint18_linear_5_1303)"/>
</g>
<path id="Vector_36" d="M34.9009 25.7115C34.8677 25.8142 34.8346 25.9197 34.7985 26.0267C34.7047 26.3101 34.5979 26.6007 34.4681 26.8769C34.3368 27.1559 34.178 27.4176 33.9818 27.6389C33.4104 28.2808 33.4349 30.7807 33.4595 31.3648C33.484 31.9489 33.3137 32.4116 32.3903 31.5354C31.4668 30.6592 28.8927 31.7306 28.1525 31.2304C27.4455 30.7547 28.2419 30.4785 28.3011 29.7585C28.304 29.7238 28.3054 29.6876 28.304 29.6515C28.2852 28.8519 28.7224 26.2349 29.2505 24.1544C29.3285 23.8493 29.5348 23.5066 29.7541 23.2854C30.5275 22.5032 32.2922 22.3138 33.3888 22.5466C33.4624 22.5625 33.5316 22.5798 33.5994 22.5986H33.6009C34.0366 22.7244 34.5445 23.0353 34.8259 23.3938C35.3583 24.0705 35.139 24.9669 34.9009 25.7115Z" fill="#30B9CC"/>
<path id="Vector_37" d="M31.3384 22.2126C31.3384 22.2126 31.5678 22.5856 31.3096 22.6695C31.0527 22.7533 30.7916 22.7996 30.8666 22.9659C30.9431 23.1336 32.5505 23.2174 32.8015 22.895C33.0526 22.5726 32.5274 22.749 32.1638 22.467C31.8002 22.1851 31.4957 21.8439 31.4957 21.8439L31.3384 22.2126Z" fill="url(#paint19_linear_5_1303)"/>
<g id="Group_18">
<path id="Vector_38" d="M30.7843 21.909C30.4668 21.883 30.1494 21.4882 30.2143 21.3191C30.2331 21.2699 30.2749 21.2627 30.8968 21.1644C31.2056 21.1152 31.36 21.095 31.4653 21.1817C31.5303 21.2338 31.5808 21.3277 31.5952 21.4159C31.6024 21.4608 31.6038 21.5229 31.5952 21.6473C31.588 21.7572 31.5894 21.7528 31.5865 21.7846C31.5793 21.8627 31.5577 22.0001 31.4798 22.1895C31.448 22.1548 31.4062 22.1128 31.3542 22.0709C31.334 22.055 31.2532 21.9928 31.1623 21.9567C31.0065 21.8916 30.8882 21.9177 30.7843 21.909Z" fill="url(#paint20_linear_5_1303)"/>
<path id="Vector_39" d="M31.5981 21.9769C31.5981 21.9769 31.5822 22.2805 31.2951 22.4121C31.0383 22.5307 30.7021 21.9914 30.7973 21.7875C30.829 21.7196 30.9257 21.6458 31.0253 21.6241C31.0844 21.6111 31.1118 21.6227 31.2071 21.5995C31.2951 21.5779 31.3124 21.5576 31.3456 21.5648C31.3874 21.5735 31.4423 21.6227 31.4812 21.8121C31.5029 21.7383 31.549 21.6892 31.5995 21.6863C31.6082 21.6863 31.6313 21.6877 31.65 21.7008C31.7193 21.7456 31.7049 21.8584 31.5981 21.9769Z" fill="url(#paint21_linear_5_1303)"/>
</g>
<path id="Vector_40" d="M37.7376 28.3257C37.6164 28.3604 37.4591 28.3618 37.2629 28.3228C36.4015 28.1507 35.3092 27.477 34.468 26.8769C33.7076 26.3362 33.1492 25.8533 33.1492 25.8533L33.1549 25.8171L33.6008 22.6001H33.6022C33.6499 22.6117 34.7508 22.8791 36.2644 24.5028C37.6279 25.966 38.6365 28.0683 37.7376 28.3257Z" fill="#30B9CC"/>
<path id="Vector_41" opacity="0.3" d="M37.7593 28.2534C37.7593 28.2534 37.7521 28.2794 37.7377 28.3257C37.6165 28.3604 37.4592 28.3618 37.263 28.3228C36.4015 28.1507 35.3093 27.477 34.4681 26.8769C34.3368 27.156 34.178 27.4177 33.9818 27.6389C33.4104 28.2808 33.4349 30.7807 33.4595 31.3648C33.484 31.949 33.3137 32.4116 32.3903 31.5355C31.4668 30.6593 28.8927 31.7306 28.1525 31.2304C27.4455 30.7547 28.2419 30.4785 28.3011 29.7585C29.0298 29.5489 29.8407 29.7368 30.3269 29.812C31.1479 29.9392 32.3845 30.0491 32.0382 28.5715C31.6919 27.0924 32.7121 26.1627 32.7121 26.1627C32.8693 26.0195 33.0165 25.9053 33.155 25.8157C33.9313 25.3125 34.4031 25.6147 34.7985 26.0253C35.2068 26.4504 35.5344 26.994 36.0278 26.8914C37.0855 26.6745 37.7593 28.2534 37.7593 28.2534Z" fill="url(#paint22_linear_5_1303)"/>
<path id="Vector_42" d="M36.9527 22.4294L36.1649 22.4945V24.0763C36.2659 27.2644 37.1172 28.2577 37.1172 28.2577H37.1158C37.1591 28.2938 37.2125 28.3155 37.2687 28.3227C40.4272 28.6972 36.9527 22.4294 36.9527 22.4294Z" fill="#30B9CC"/>
<path id="Vector_43" d="M36.1922 22.1128C36.1922 22.1128 36.1836 22.3138 36.338 22.4468C36.4923 22.5798 36.4433 22.9543 36.5429 22.8343C36.6424 22.7143 36.6078 22.5509 36.6309 22.5423C36.654 22.5336 37.0262 23.1538 37.26 23.0917C37.4937 23.0309 37.5413 22.9442 37.4677 22.7013C37.3942 22.4584 37.0681 21.9466 36.6742 21.9176C36.2802 21.8916 36.2038 22.068 36.1922 22.1128Z" fill="url(#paint23_linear_5_1303)"/>
</g>
</g>
</g>
</g>
<defs>
<linearGradient id="paint0_linear_5_1303" x1="23.86" y1="16.1704" x2="26.5827" y2="16.1704" gradientUnits="userSpaceOnUse">
<stop stop-color="#444B8C"/>
<stop offset="0.9964" stop-color="#26264F"/>
</linearGradient>
<linearGradient id="paint1_linear_5_1303" x1="35.5642" y1="14.5204" x2="36.6828" y2="14.5204" gradientUnits="userSpaceOnUse">
<stop stop-color="#444B8C"/>
<stop offset="0.9964" stop-color="#26264F"/>
</linearGradient>
<linearGradient id="paint2_linear_5_1303" x1="33.6742" y1="17.3588" x2="35.2057" y2="17.3588" gradientUnits="userSpaceOnUse">
<stop stop-color="#444B8C"/>
<stop offset="0.9964" stop-color="#26264F"/>
</linearGradient>
<linearGradient id="paint3_linear_5_1303" x1="28.6671" y1="18.3606" x2="33.1991" y2="18.3606" gradientUnits="userSpaceOnUse">
<stop stop-color="#444B8C"/>
<stop offset="0.9964" stop-color="#26264F"/>
</linearGradient>
<linearGradient id="paint4_linear_5_1303" x1="32.9121" y1="4.66946" x2="32.0222" y2="8.1638" gradientUnits="userSpaceOnUse">
<stop stop-color="#FCB148"/>
<stop offset="0.0520724" stop-color="#FDBA46"/>
<stop offset="0.1424" stop-color="#FFC244"/>
<stop offset="0.3183" stop-color="#FFC444"/>
<stop offset="0.4849" stop-color="#FDB946"/>
<stop offset="0.7754" stop-color="#F99C4D"/>
<stop offset="0.8658" stop-color="#F8924F"/>
<stop offset="1" stop-color="#F8924F"/>
</linearGradient>
<linearGradient id="paint5_linear_5_1303" x1="34.0403" y1="4.76253" x2="32.8986" y2="13.1111" gradientUnits="userSpaceOnUse">
<stop stop-color="#FCB148"/>
<stop offset="0.0520724" stop-color="#FDBA46"/>
<stop offset="0.1424" stop-color="#FFC244"/>
<stop offset="0.3183" stop-color="#FFC444"/>
<stop offset="0.4849" stop-color="#FDB946"/>
<stop offset="0.7754" stop-color="#F99C4D"/>
<stop offset="0.8658" stop-color="#F8924F"/>
<stop offset="1" stop-color="#F8924F"/>
</linearGradient>
<linearGradient id="paint6_linear_5_1303" x1="22.6006" y1="4.16035" x2="20.8369" y2="17.0569" gradientUnits="userSpaceOnUse">
<stop stop-color="#FCB148"/>
<stop offset="0.0520724" stop-color="#FDBA46"/>
<stop offset="0.1424" stop-color="#FFC244"/>
<stop offset="0.3183" stop-color="#FFC444"/>
<stop offset="0.4849" stop-color="#FDB946"/>
<stop offset="0.7754" stop-color="#F99C4D"/>
<stop offset="0.8658" stop-color="#F8924F"/>
<stop offset="1" stop-color="#F8924F"/>
</linearGradient>
<linearGradient id="paint7_linear_5_1303" x1="12.7955" y1="-0.880532" x2="10.6258" y2="14.9853" gradientUnits="userSpaceOnUse">
<stop stop-color="#001C49"/>
<stop offset="0.9964" stop-color="#3E4177"/>
</linearGradient>
<linearGradient id="paint8_linear_5_1303" x1="8.06026" y1="3.88605" x2="14.2543" y2="3.88605" gradientUnits="userSpaceOnUse">
<stop stop-color="#444B8C"/>
<stop offset="0.9964" stop-color="#3E4177"/>
</linearGradient>
<linearGradient id="paint9_linear_5_1303" x1="23.1358" y1="20.1172" x2="22.8495" y2="22.2109" gradientUnits="userSpaceOnUse">
<stop stop-color="#FFC444"/>
<stop offset="0.9964" stop-color="#F36F56"/>
</linearGradient>
<linearGradient id="paint10_linear_5_1303" x1="24.1202" y1="23.494" x2="24.0957" y2="23.6731" gradientUnits="userSpaceOnUse">
<stop stop-color="#AA80F9"/>
<stop offset="0.9964" stop-color="#6165D7"/>
</linearGradient>
<linearGradient id="paint11_linear_5_1303" x1="36.6971" y1="21.4223" x2="36.5043" y2="22.8322" gradientUnits="userSpaceOnUse">
<stop stop-color="#FFC444"/>
<stop offset="0.9964" stop-color="#F36F56"/>
</linearGradient>
<linearGradient id="paint12_linear_5_1303" x1="28.5335" y1="38.6136" x2="28.8206" y2="42.1517" gradientUnits="userSpaceOnUse">
<stop stop-color="#311944"/>
<stop offset="1" stop-color="#A03976"/>
</linearGradient>
<linearGradient id="paint13_linear_5_1303" x1="29.2546" y1="40.582" x2="29.1951" y2="36.917" gradientUnits="userSpaceOnUse">
<stop stop-color="#FFC444"/>
<stop offset="0.9964" stop-color="#F36F56"/>
</linearGradient>
<linearGradient id="paint14_linear_5_1303" x1="28.3609" y1="34.6434" x2="31.0608" y2="34.6434" gradientUnits="userSpaceOnUse">
<stop stop-color="#444B8C"/>
<stop offset="0.9964" stop-color="#3E4177"/>
</linearGradient>
<linearGradient id="paint15_linear_5_1303" x1="28.166" y1="34.6401" x2="31.0607" y2="34.6401" gradientUnits="userSpaceOnUse">
<stop stop-color="#444B8C"/>
<stop offset="0.9964" stop-color="#3E4177"/>
</linearGradient>
<linearGradient id="paint16_linear_5_1303" x1="35.7837" y1="37.4823" x2="36.0708" y2="41.0203" gradientUnits="userSpaceOnUse">
<stop stop-color="#311944"/>
<stop offset="1" stop-color="#A03976"/>
</linearGradient>
<linearGradient id="paint17_linear_5_1303" x1="36.3252" y1="39.8366" x2="34.2912" y2="36.7873" gradientUnits="userSpaceOnUse">
<stop stop-color="#FFC444"/>
<stop offset="0.9964" stop-color="#F36F56"/>
</linearGradient>
<linearGradient id="paint18_linear_5_1303" x1="29.9627" y1="34.9252" x2="35.9872" y2="34.9252" gradientUnits="userSpaceOnUse">
<stop stop-color="#444B8C"/>
<stop offset="0.9964" stop-color="#3E4177"/>
</linearGradient>
<linearGradient id="paint19_linear_5_1303" x1="30.8541" y1="22.4795" x2="32.8677" y2="22.4795" gradientUnits="userSpaceOnUse">
<stop stop-color="#FFC444"/>
<stop offset="0.9964" stop-color="#F36F56"/>
</linearGradient>
<linearGradient id="paint20_linear_5_1303" x1="29.7715" y1="19.6255" x2="32.237" y2="23.4903" gradientUnits="userSpaceOnUse">
<stop stop-color="#444B8C"/>
<stop offset="0.9964" stop-color="#26264F"/>
</linearGradient>
<linearGradient id="paint21_linear_5_1303" x1="31.0847" y1="21.6083" x2="33.8511" y2="26.4487" gradientUnits="userSpaceOnUse">
<stop stop-color="#FFC444"/>
<stop offset="0.9964" stop-color="#F36F56"/>
</linearGradient>
<linearGradient id="paint22_linear_5_1303" x1="33.5734" y1="23.9346" x2="31.0203" y2="42.6038" gradientUnits="userSpaceOnUse">
<stop stop-color="#AA80F9"/>
<stop offset="0.9964" stop-color="#6165D7"/>
</linearGradient>
<linearGradient id="paint23_linear_5_1303" x1="36.9285" y1="21.8986" x2="36.6579" y2="23.8768" gradientUnits="userSpaceOnUse">
<stop stop-color="#FFC444"/>
<stop offset="0.9964" stop-color="#F36F56"/>
</linearGradient>
<clipPath id="clip0_5_1303">
<rect width="41" height="41" fill="white"/>
</clipPath>
</defs>
</svg>
