<svg width="22" height="22" viewBox="0 0 22 22" fill="none" xmlns="http://www.w3.org/2000/svg">
<g id="Frame">
<g id="Group">
<path id="Vector" d="M3.29989 11.66C3.66509 11.66 3.95989 11.3652 3.95989 11V7.91999C3.95989 7.55699 4.25689 7.25999 4.61989 7.25999H14.7399V8.79999C14.7398 8.88668 14.7568 8.97255 14.79 9.05266C14.8231 9.13278 14.8717 9.20557 14.933 9.26687C14.9943 9.32818 15.0671 9.37679 15.1472 9.40992C15.2273 9.44306 15.3132 9.46007 15.3999 9.45999C15.5253 9.45999 15.6529 9.42479 15.7651 9.34999L19.0651 7.14999C19.2499 7.02679 19.3599 6.81999 19.3599 6.59999C19.3599 6.37999 19.2499 6.17319 19.0651 6.04999L15.7651 3.84999C15.4637 3.64759 15.0523 3.73119 14.8499 4.03479C14.7751 4.14699 14.7399 4.27459 14.7399 4.39999V5.93999H4.61989C3.52869 5.93999 2.63989 6.82879 2.63989 7.91999V11C2.63989 11.3652 2.93469 11.66 3.29989 11.66ZM18.6999 10.34C18.3347 10.34 18.0399 10.6348 18.0399 11V14.08C18.0399 14.443 17.7429 14.74 17.3799 14.74H7.25989V13.2C7.25989 13.0746 7.22469 12.947 7.14989 12.8348C7.05276 12.6892 6.90195 12.5881 6.73044 12.5535C6.55893 12.5188 6.38068 12.5535 6.23469 12.65L2.93469 14.85C2.74989 14.9732 2.63989 15.18 2.63989 15.4C2.63989 15.62 2.74989 15.8268 2.93469 15.95L6.23469 18.15C6.34689 18.2248 6.47449 18.26 6.59989 18.26C6.68659 18.2601 6.77245 18.2431 6.85257 18.2099C6.93268 18.1768 7.00547 18.1282 7.06678 18.0669C7.12808 18.0056 7.17669 17.9328 7.20983 17.8527C7.24297 17.7725 7.25998 17.6867 7.25989 17.6V16.06H17.3799C18.4711 16.06 19.3599 15.1712 19.3599 14.08V11C19.3599 10.6348 19.0651 10.34 18.6999 10.34Z" fill="white"/>
</g>
</g>
</svg>
