<svg width="12" height="12" viewBox="0 0 12 12" fill="none" xmlns="http://www.w3.org/2000/svg">
<g id="Frame" clip-path="url(#clip0_5_2438)">
<g id="Group">
<path id="Vector" d="M7.06127 6.00036L11.7801 1.28151C12.0733 0.988585 12.0733 0.513298 11.7801 0.220371C11.4869 -0.072806 11.0122 -0.072806 10.719 0.220371L6.00012 4.93922L1.28102 0.220371C0.987847 -0.072806 0.51306 -0.072806 0.219883 0.220371C-0.0732943 0.513298 -0.0732943 0.988585 0.219883 1.28151L4.93898 6.00036L0.219883 10.7192C-0.0732943 11.0121 -0.0732943 11.4874 0.219883 11.7804C0.366471 11.9267 0.558587 12 0.750453 12C0.942319 12 1.13444 11.9267 1.28102 11.7801L6.00012 7.06125L10.719 11.7801C10.8656 11.9267 11.0577 12 11.2495 12C11.4414 12 11.6335 11.9267 11.7801 11.7801C12.0733 11.4872 12.0733 11.0119 11.7801 10.719L7.06127 6.00036Z" fill="#509AA5"/>
</g>
</g>
<defs>
<clipPath id="clip0_5_2438">
<rect width="12" height="12" fill="white"/>
</clipPath>
</defs>
</svg>
