<svg width="22" height="22" viewBox="0 0 22 22" fill="none" xmlns="http://www.w3.org/2000/svg">
<g id="Frame" clip-path="url(#clip0_5_3430)">
<g id="Group">
<path id="Vector" d="M15.7344 6.29311L11.4031 10.6243C10.916 11.1115 10.1261 11.1115 9.63887 10.6243L5.3076 6.29311C3.86795 4.85346 3.86795 2.51934 5.3076 1.07974C6.74726 -0.359912 9.08135 -0.359912 10.521 1.07974C11.9607 -0.359912 14.2948 -0.359912 15.7344 1.07974C17.1741 2.51934 17.1741 4.85346 15.7344 6.29311ZM19.8638 4.80219C19.2247 4.80219 18.7066 5.32026 18.7066 5.95937V10.3891C18.7066 11.0268 18.4583 11.6263 18.0074 12.0772L15.8112 14.2734L14.9411 13.4033L17.1373 11.2071C17.5884 10.7561 17.5884 10.0221 17.1373 9.57108C16.6862 9.12003 15.9523 9.12003 15.5012 9.57108L11.1362 13.9361V19.7525C11.1362 20.4415 11.6948 21 12.3838 21H15.331C16.02 21 16.5786 20.4415 16.5786 19.7525V17.6059L20.7029 12.9995C20.9078 12.7708 21.021 12.4745 21.021 12.1674V5.95937C21.021 5.32026 20.5029 4.80219 19.8638 4.80219ZM3.9047 9.57108C3.45364 10.0221 3.45364 10.7561 3.9047 11.2071L6.10089 13.4033L5.23082 14.2734L3.03463 12.0772C2.5837 11.6263 2.33539 11.0268 2.33539 10.3891V5.95937C2.33539 5.32026 1.81732 4.80219 1.17821 4.80219C0.539098 4.80219 0.0210266 5.32026 0.0210266 5.95937V12.1674C0.0210266 12.4745 0.13429 12.7708 0.339131 12.9995L4.4635 17.6059V19.7525C4.4635 20.4415 5.02204 21 5.71103 21H8.65823C9.34723 21 9.90577 20.4415 9.90577 19.7525V13.9361L5.54074 9.57108C5.08973 9.12003 4.35579 9.12003 3.9047 9.57108Z" fill="#C7D7D9"/>
</g>
</g>
<defs>
<clipPath id="clip0_5_3430">
<rect width="21.109" height="21.109" fill="white" transform="translate(0.0210266)"/>
</clipPath>
</defs>
</svg>
