<svg width="20" height="20" viewBox="0 0 20 20" fill="#3E3E3E" xmlns="http://www.w3.org/2000/svg">
<g id="vuesax-bulk-category 1" clip-path="url(#clip0_5_2230)">
<g id="vuesax/bulk/category">
<g id="category">
<path id="Vector" opacity="0.8" d="M6.03337 1.66667H4.45004C4.07363 1.61764 3.691 1.65558 3.33155 1.77756C2.9721 1.89955 2.64541 2.10235 2.3766 2.37035C2.10779 2.63836 1.90402 2.96444 1.78095 3.32352C1.65788 3.6826 1.6188 4.06512 1.66671 4.44167V6.02501C1.61856 6.40087 1.65719 6.78277 1.77962 7.14138C1.90205 7.5 2.10503 7.82578 2.37298 8.09373C2.64093 8.36168 2.96672 8.56466 3.32533 8.68709C3.68394 8.80953 4.06584 8.84815 4.44171 8.80001H6.02504C6.4009 8.84815 6.7828 8.80953 7.14142 8.68709C7.50003 8.56466 7.82582 8.36168 8.09376 8.09373C8.36171 7.82578 8.56469 7.5 8.68713 7.14138C8.80956 6.78277 8.84819 6.40087 8.80004 6.02501V4.44167C8.8498 4.06623 8.81258 3.68437 8.69127 3.3256C8.56995 2.96683 8.36779 2.64074 8.10039 2.37254C7.83299 2.10434 7.50752 1.90119 7.14912 1.7788C6.79071 1.65641 6.40897 1.61805 6.03337 1.66667Z" fill="#30B9CC"/>
<path id="Vector_2" opacity="0.5" d="M15.5584 1.66664H13.975C13.5992 1.6185 13.2173 1.65712 12.8587 1.77956C12.5 1.90199 12.1743 2.10497 11.9063 2.37292C11.6384 2.64087 11.4354 2.96666 11.3129 3.32527C11.1905 3.68388 11.1519 4.06578 11.2 4.44164V6.02498C11.1519 6.40084 11.1905 6.78274 11.3129 7.14135C11.4354 7.49997 11.6384 7.82575 11.9063 8.0937C12.1743 8.36165 12.5 8.56463 12.8587 8.68707C13.2173 8.8095 13.5992 8.84812 13.975 8.79998H15.5584C15.9342 8.84812 16.3161 8.8095 16.6747 8.68707C17.0334 8.56463 17.3591 8.36165 17.6271 8.0937C17.895 7.82575 18.098 7.49997 18.2205 7.14135C18.3429 6.78274 18.3815 6.40084 18.3334 6.02498V4.44164C18.3815 4.06578 18.3429 3.68388 18.2205 3.32527C18.098 2.96666 17.895 2.64087 17.6271 2.37292C17.3591 2.10497 17.0334 1.90199 16.6747 1.77956C16.3161 1.65712 15.9342 1.6185 15.5584 1.66664Z" fill="#30B9CC"/>
<path id="Vector_3" opacity="0.8" d="M15.5584 11.1917H13.975C13.5992 11.1435 13.2173 11.1821 12.8587 11.3046C12.5 11.427 12.1743 11.63 11.9063 11.8979C11.6384 12.1659 11.4354 12.4917 11.3129 12.8503C11.1905 13.2089 11.1519 13.5908 11.2 13.9667V15.55C11.1519 15.9259 11.1905 16.3078 11.3129 16.6664C11.4354 17.025 11.6384 17.3508 11.9063 17.6187C12.1743 17.8867 12.5 18.0897 12.8587 18.2121C13.2173 18.3345 13.5992 18.3731 13.975 18.325H15.5584C15.9342 18.3731 16.3161 18.3345 16.6747 18.2121C17.0334 18.0897 17.3591 17.8867 17.6271 17.6187C17.895 17.3508 18.098 17.025 18.2205 16.6664C18.3429 16.3078 18.3815 15.9259 18.3334 15.55V13.9667C18.3815 13.5908 18.3429 13.2089 18.2205 12.8503C18.098 12.4917 17.895 12.1659 17.6271 11.8979C17.3591 11.63 17.0334 11.427 16.6747 11.3046C16.3161 11.1821 15.9342 11.1435 15.5584 11.1917Z" fill="#30B9CC"/>
<path id="Vector_4" opacity="0.5" d="M6.03334 11.1917H4.45001C4.0736 11.1427 3.69096 11.1806 3.33151 11.3026C2.97206 11.4246 2.64538 11.6274 2.37657 11.8954C2.10776 12.1634 1.90398 12.4895 1.78092 12.8485C1.65785 13.2076 1.61877 13.5901 1.66667 13.9667V15.55C1.61764 15.9264 1.65558 16.3091 1.77756 16.6685C1.89955 17.028 2.10235 17.3547 2.37035 17.6235C2.63836 17.8923 2.96444 18.0961 3.32352 18.2191C3.6826 18.3422 4.06512 18.3813 4.44167 18.3334H6.02501C6.40087 18.3815 6.78277 18.3429 7.14138 18.2205C7.5 18.098 7.82578 17.895 8.09373 17.6271C8.36168 17.3591 8.56466 17.0334 8.68709 16.6747C8.80953 16.3161 8.84815 15.9342 8.80001 15.5584V13.975C8.85066 13.599 8.81413 13.2165 8.69327 12.8568C8.5724 12.4972 8.37042 12.1702 8.10297 11.9012C7.83551 11.6321 7.50975 11.4282 7.15087 11.3052C6.79199 11.1821 6.40962 11.1433 6.03334 11.1917Z" fill="#30B9CC"/>
</g>
</g>
</g>
<defs>
<clipPath id="clip0_5_2230">
<rect width="20" height="20" fill="white"/>
</clipPath>
</defs>
</svg>
