<svg width="18" height="18" viewBox="0 0 18 18" fill="none" xmlns="http://www.w3.org/2000/svg">
<path d="M15.7624 0H2.23757C0.999398 0 0 1.03542 0 2.31822V11.5911C0 12.8738 0.999398 13.9093 2.23757 13.9093H2.98343V16.2275C2.98343 16.7858 3.54138 17.1901 4.08729 16.9075C4.10221 16.8921 4.13209 16.8921 4.14701 16.8766C8.25002 14.0259 7.33047 14.6615 8.24922 14.0329C8.36851 13.9556 8.50276 13.9093 8.65193 13.9093H15.7624C17.0006 13.9093 18 12.8738 18 11.5911V2.31822C18 1.03542 17.0006 0 15.7624 0ZM9.79558 9.27286H3.72928C2.74609 9.27286 2.74207 7.72738 3.72928 7.72738H9.79558C10.7788 7.72738 10.7828 9.27286 9.79558 9.27286ZM14.2707 6.18191H3.72928C2.74609 6.18191 2.74207 4.63643 3.72928 4.63643H14.2707C15.2539 4.63643 15.2579 6.18191 14.2707 6.18191Z" fill="#3E3E3E"/>
</svg>
