<svg width="35" height="35" viewBox="0 0 35 35" fill="none" xmlns="http://www.w3.org/2000/svg">
<rect width="35" height="35" fill="#F5F5F5"/>
<g id="iPhone 13 mini - 51" clip-path="url(#clip0_0_1)">
<rect width="375" height="812" transform="translate(-288 -416)" fill="white"/>
<g id="Rectangle 1877" filter="url(#filter0_d_0_1)">
<rect x="-37" y="-14" width="108" height="98" rx="13" fill="white"/>
</g>
<circle id="Ellipse 160" cx="17.5" cy="17.5" r="17.5" fill="#30B9CC"/>
<path id="Vector" d="M24.0111 11H11.989C10.8884 11 10 11.9136 10 13.0455V21.2274C10 22.3592 10.8884 23.2729 11.989 23.2729H12.6519V25.3184C12.6519 25.811 13.1479 26.1677 13.6331 25.9184C13.6464 25.9048 13.673 25.9048 13.6862 25.8911C17.3333 23.3758 16.516 23.9366 17.3326 23.382C17.4387 23.3138 17.558 23.2729 17.6906 23.2729H24.0111C25.1116 23.2729 26 22.3592 26 21.2274V13.0455C26 11.9136 25.1116 11 24.0111 11ZM18.7072 19.1819H13.3149C12.441 19.1819 12.4374 17.8183 13.3149 17.8183H18.7072C19.5811 17.8183 19.5847 19.1819 18.7072 19.1819ZM22.6851 16.4546H13.3149C12.441 16.4546 12.4374 15.091 13.3149 15.091H22.6851C23.559 15.091 23.5626 16.4546 22.6851 16.4546Z" fill="white"/>
</g>
<defs>
<filter id="filter0_d_0_1" x="-47" y="-22" width="128" height="118" filterUnits="userSpaceOnUse" color-interpolation-filters="sRGB">
<feFlood flood-opacity="0" result="BackgroundImageFix"/>
<feColorMatrix in="SourceAlpha" type="matrix" values="0 0 0 0 0 0 0 0 0 0 0 0 0 0 0 0 0 0 127 0" result="hardAlpha"/>
<feOffset dy="2"/>
<feGaussianBlur stdDeviation="5"/>
<feComposite in2="hardAlpha" operator="out"/>
<feColorMatrix type="matrix" values="0 0 0 0 0 0 0 0 0 0 0 0 0 0 0 0 0 0 0.05 0"/>
<feBlend mode="normal" in2="BackgroundImageFix" result="effect1_dropShadow_0_1"/>
<feBlend mode="normal" in="SourceGraphic" in2="effect1_dropShadow_0_1" result="shape"/>
</filter>
<clipPath id="clip0_0_1">
<rect width="375" height="812" fill="white" transform="translate(-288 -416)"/>
</clipPath>
</defs>
</svg>
