<svg width="22" height="22" viewBox="0 0 22 22" fill="#30B9CC" xmlns="http://www.w3.org/2000/svg">
<g id="Frame" clip-path="url(#clip0_5_3424)">
<g id="Group">
<path id="Vector" d="M5.95805 4.83748C5.72478 4.83748 5.50106 4.74482 5.33612 4.57987C5.17117 4.41493 5.07851 4.19121 5.07851 3.95794V0.879543C5.07851 0.646273 5.17117 0.422558 5.33612 0.257612C5.50106 0.0926658 5.72478 0 5.95805 0C6.19132 0 6.41503 0.0926658 6.57998 0.257612C6.74493 0.422558 6.83759 0.646273 6.83759 0.879543V3.95794C6.83759 4.19121 6.74493 4.41493 6.57998 4.57987C6.41503 4.74482 6.19132 4.83748 5.95805 4.83748ZM10.1359 4.83748C9.90261 4.83748 9.67889 4.74482 9.51395 4.57987C9.349 4.41493 9.25633 4.19121 9.25633 3.95794V0.879543C9.25633 0.646273 9.349 0.422558 9.51395 0.257612C9.67889 0.0926658 9.90261 0 10.1359 0C10.3691 0 10.5929 0.0926658 10.7578 0.257612C10.9228 0.422558 11.0154 0.646273 11.0154 0.879543V3.95794C11.0154 4.19121 10.9228 4.41493 10.7578 4.57987C10.5929 4.74482 10.3691 4.83748 10.1359 4.83748ZM14.3137 4.83748C14.0804 4.83748 13.8567 4.74482 13.6918 4.57987C13.5268 4.41493 13.4342 4.19121 13.4342 3.95794V0.879543C13.4342 0.646273 13.5268 0.422558 13.6918 0.257612C13.8567 0.0926658 14.0804 0 14.3137 0C14.547 0 14.7707 0.0926658 14.9356 0.257612C15.1006 0.422558 15.1932 0.646273 15.1932 0.879543V3.95794C15.1932 4.19121 15.1006 4.41493 14.9356 4.57987C14.7707 4.74482 14.547 4.83748 14.3137 4.83748Z" fill="#30B9CC"/>
<path id="Vector_2" d="M16.0728 1.97894H4.19897C3.55762 1.97941 2.94268 2.23439 2.48918 2.68789C2.03567 3.14139 1.78069 3.75634 1.78023 4.39768V18.6903C1.78069 19.3316 2.03567 19.9465 2.48918 20.4C2.94268 20.8535 3.55762 21.1085 4.19897 21.109H16.0728C16.7141 21.1085 17.3291 20.8535 17.7826 20.4C18.2361 19.9465 18.4911 19.3316 18.4915 18.6903V4.39768C18.4911 3.75634 18.2361 3.14139 17.7826 2.68789C17.3291 2.23439 16.7141 1.97941 16.0728 1.97894ZM6.17794 7.03631H10.5757C10.8089 7.03631 11.0326 7.12898 11.1976 7.29392C11.3625 7.45887 11.4552 7.68259 11.4552 7.91585C11.4552 8.14912 11.3625 8.37284 11.1976 8.53779C11.0326 8.70273 10.8089 8.7954 10.5757 8.7954H6.17794C5.94467 8.7954 5.72096 8.70273 5.55601 8.53779C5.39106 8.37284 5.2984 8.14912 5.2984 7.91585C5.2984 7.68259 5.39106 7.45887 5.55601 7.29392C5.72096 7.12898 5.94467 7.03631 6.17794 7.03631ZM14.9734 15.8317H6.17794C5.94467 15.8317 5.72096 15.7391 5.55601 15.5741C5.39106 15.4092 5.2984 15.1855 5.2984 14.9522C5.2984 14.7189 5.39106 14.4952 5.55601 14.3303C5.72096 14.1653 5.94467 14.0727 6.17794 14.0727H14.9734C15.2066 14.0727 15.4304 14.1653 15.5953 14.3303C15.7602 14.4952 15.8529 14.7189 15.8529 14.9522C15.8529 15.1855 15.7602 15.4092 15.5953 15.5741C15.4304 15.7391 15.2066 15.8317 14.9734 15.8317ZM14.9734 12.3136H6.17794C5.94467 12.3136 5.72096 12.2209 5.55601 12.056C5.39106 11.891 5.2984 11.6673 5.2984 11.434C5.2984 11.2008 5.39106 10.977 5.55601 10.8121C5.72096 10.6471 5.94467 10.5545 6.17794 10.5545H14.9734C15.2066 10.5545 15.4304 10.6471 15.5953 10.8121C15.7602 10.977 15.8529 11.2008 15.8529 11.434C15.8529 11.6673 15.7602 11.891 15.5953 12.056C15.4304 12.2209 15.2066 12.3136 14.9734 12.3136Z" fill="#30B9CC"/>
</g>
</g>
<defs>
<clipPath id="clip0_5_3424">
<rect width="21.109" height="21.109" fill="#30B9CC" transform="translate(0.0211487)"/>
</clipPath>
</defs>
</svg>
