<svg width="69" height="40" viewBox="0 0 69 40" fill="none" xmlns="http://www.w3.org/2000/svg">
<g id="Frame" clip-path="url(#clip0_5_1177)">
<path id="Vector" d="M12.5016 39.9273C12.5016 39.9273 14.5834 38.9882 14.274 37.5353C13.9646 36.0825 12.2708 36.233 12.5016 35.0914C12.7323 33.9447 13.844 32.1598 12.7638 30.8574C11.6835 29.5602 9.88483 30.3386 9.65934 28.3201C9.4758 26.6961 8.72067 25.5442 7.24712 25.8814C5.88894 26.1928 4.87161 27.2357 4.84539 29.7159C4.81917 32.357 2.94183 31.615 2.91561 33.5556C2.89464 35.5117 4.46782 35.5117 5.08661 36.8297C5.37503 37.4523 4.6199 39.6316 6.85907 39.9222H12.5016V39.9273Z" fill="#C3DCFA"/>
<path id="Vector_2" d="M7.4726 26.9399C7.4726 26.9399 7.46736 26.9866 7.46211 27.0696C7.43589 27.3291 7.3887 27.9621 7.3887 28.8442C7.3887 31.423 7.79773 36.1395 10.3987 39.9014C10.404 39.9066 10.4092 39.917 10.4092 39.9221H10.1365C7.56175 36.1136 7.16321 31.423 7.16321 28.8442C7.16321 27.656 7.24711 26.914 7.24711 26.914C7.25235 26.8517 7.31004 26.8102 7.37297 26.8154C7.43589 26.8206 7.48309 26.8776 7.4726 26.9399Z" fill="white"/>
<path id="Vector_3" fill-rule="evenodd" clip-rule="evenodd" d="M10.0002 39.9274C10.0002 39.9274 10.3306 38.1373 9.09824 37.4056C7.87115 36.674 6.6126 36.1085 6.74894 34.9306C6.88529 33.7528 6.54967 32.3674 4.57794 32.3414C3.36135 32.3259 3.81757 31.0546 2.58 30.8004C1.83011 30.6447 1.33193 31.423 1.23754 32.1858C1.12742 33.0523 1.6256 33.9084 1.054 34.6141C0.314607 35.5325 0.0157012 37.2396 1.60462 37.7273C3.19354 38.2151 1.77767 39.7043 3.94343 39.9222H10.0002V39.9274Z" fill="#DAEDFF"/>
<path id="Vector_4" d="M2.66397 31.6513C2.70592 32.7928 3.21983 34.4169 4.09557 35.9684C4.97131 37.5198 6.20888 38.9986 7.68768 39.8703C7.70866 39.8807 7.72439 39.9014 7.73487 39.9222H7.34158C5.91522 39.009 4.74057 37.5717 3.8963 36.0773C3.00482 34.4999 2.48567 32.8551 2.43848 31.6565C2.43848 31.5942 2.48567 31.5424 2.5486 31.5424C2.61153 31.5424 2.66397 31.5891 2.66397 31.6513Z" fill="white"/>
<g id="Group">
<g id="Clip path group">
<mask id="mask0_5_1177" style="mask-type:luminance" maskUnits="userSpaceOnUse" x="6" y="18" width="36" height="22">
<g id="SVGID_2_">
<path id="Vector_5" d="M11.8408 39.2372H11.8146C11.7831 39.2372 11.7517 39.2321 11.7254 39.2269H11.7202C11.715 39.2269 11.7045 39.2269 11.6992 39.2217H11.694C11.6887 39.2217 11.6782 39.2165 11.673 39.2165H11.6678C11.6625 39.2165 11.652 39.2113 11.6468 39.2113C11.6415 39.2113 11.6363 39.2061 11.6258 39.2061C11.6206 39.2061 11.6153 39.2009 11.6101 39.2009C11.6048 39.2009 11.5996 39.1957 11.5943 39.1957H11.5891C11.5839 39.1957 11.5786 39.1905 11.5734 39.1905C11.5681 39.1905 11.5629 39.1854 11.5576 39.1854C11.5524 39.1854 11.5471 39.1802 11.5419 39.1802C11.5314 39.175 11.5262 39.175 11.5157 39.1698L11.5052 39.1646L11.4947 39.1594H11.4895C11.4842 39.1542 11.4737 39.1542 11.4685 39.149C11.4475 39.1387 11.4265 39.1283 11.4108 39.1179H11.4056L11.4003 39.1127L11.3898 39.1075L11.3793 39.1023C11.3584 39.092 11.3426 39.0816 11.3217 39.066C11.3164 39.0608 11.3112 39.0608 11.3059 39.0556C11.3007 39.0504 11.2954 39.0504 11.2902 39.0453C11.2849 39.0401 11.2797 39.0401 11.2745 39.0349C11.2692 39.0297 11.2587 39.0245 11.2535 39.0193C11.243 39.0141 11.2378 39.0037 11.2273 38.9986L11.222 38.9934C11.2115 38.9882 11.2063 38.9778 11.1958 38.9726L11.1906 38.9674C11.1538 38.9363 11.1171 38.9 11.0857 38.8637C11.0752 38.8533 11.0699 38.8429 11.0595 38.8325L11.0542 38.8273C11.049 38.817 11.0385 38.8118 11.0332 38.8014C11.0227 38.791 11.0123 38.7754 11.0018 38.7599C10.9965 38.7547 10.9913 38.7443 10.986 38.7391L10.9756 38.7236C10.9651 38.708 10.9546 38.6924 10.9441 38.6769C10.9388 38.6717 10.9336 38.6613 10.9284 38.6509C10.9231 38.6405 10.9179 38.6354 10.9126 38.625C10.8969 38.599 10.8812 38.5731 10.8654 38.5471L10.8602 38.5368L10.8549 38.5264L10.8497 38.516L10.8445 38.5056C10.834 38.4901 10.8287 38.4693 10.8182 38.4537L10.813 38.4434C10.8077 38.433 10.8025 38.4226 10.7973 38.407C10.792 38.3915 10.7815 38.3759 10.7763 38.3552C10.771 38.3396 10.7658 38.3292 10.7606 38.3136L10.7553 38.2981C10.7448 38.2721 10.7396 38.2514 10.7291 38.2254L10.7238 38.2099C10.7186 38.1943 10.7134 38.1787 10.7081 38.158C10.6976 38.1165 10.6871 38.075 10.6766 38.0335L10.2886 36.3212L9.74322 33.9292L7.42539 23.7177L6.88002 21.3257L6.53392 19.795C6.53392 19.7898 6.53392 19.7898 6.53392 19.7847V19.7795C6.53392 19.7743 6.52868 19.7639 6.52868 19.7587V19.7483C6.52868 19.738 6.52868 19.7328 6.52343 19.7224V19.712C6.51819 19.6861 6.51819 19.6653 6.51819 19.6394V19.5615C6.51819 19.546 6.51819 19.5356 6.52343 19.5252V19.5148C6.52343 19.5045 6.52343 19.4993 6.52868 19.4889V19.4837C6.52868 19.4733 6.53392 19.4681 6.53392 19.463C6.53916 19.4526 6.53916 19.437 6.54441 19.4266V19.4214C6.54441 19.4163 6.54965 19.4111 6.54965 19.4059L6.5549 19.3903V19.3851L6.56014 19.3747V19.3696C6.56538 19.354 6.57063 19.3332 6.58112 19.3177C6.58636 19.3125 6.58636 19.3021 6.5916 19.2969L6.59685 19.2865L6.60209 19.2762C6.60209 19.271 6.60209 19.271 6.60734 19.2658C6.61258 19.2554 6.62307 19.2398 6.62831 19.2295C6.63356 19.2191 6.6388 19.2139 6.64404 19.2035C6.64929 19.1983 6.64929 19.1931 6.65453 19.1879V19.1828L6.65978 19.1776C6.66502 19.1724 6.66502 19.1672 6.67026 19.162C6.68075 19.1464 6.69124 19.1309 6.70697 19.1153L6.71221 19.1101C6.71746 19.1049 6.7227 19.0997 6.72795 19.0946C6.73319 19.0842 6.74368 19.079 6.74892 19.0686C6.76465 19.053 6.78039 19.0375 6.79612 19.0167L6.80136 19.0115L6.80661 19.0063L6.81185 19.0012L6.81709 18.996L6.82234 18.9908L6.82758 18.9856L6.83283 18.9804C6.84856 18.9648 6.86429 18.9545 6.87478 18.9389L6.88002 18.9337C6.88527 18.9285 6.89575 18.9181 6.90624 18.9129L6.91149 18.9078C6.92197 18.9026 6.92722 18.8922 6.93771 18.887C6.94819 18.8766 6.95868 18.8714 6.97441 18.8611C6.97966 18.8559 6.9849 18.8559 6.99014 18.8507C7.01112 18.8351 7.0321 18.8247 7.04783 18.8144C7.05832 18.8092 7.06356 18.804 7.07405 18.7988L7.07929 18.7936C7.08978 18.7884 7.09502 18.7832 7.10551 18.778C7.11076 18.778 7.11076 18.7729 7.116 18.7729C7.13698 18.7625 7.15271 18.7521 7.17368 18.7417L7.18417 18.7365L7.19466 18.7313C7.20515 18.7262 7.21563 18.721 7.22612 18.7158L7.23661 18.7106C7.2471 18.7054 7.25234 18.7054 7.26283 18.7002L7.27332 18.695C7.28381 18.6898 7.28905 18.6898 7.29954 18.6846L7.31527 18.6795L7.331 18.6743L7.34673 18.6691C7.36247 18.6639 7.3782 18.6587 7.39917 18.6535C7.40442 18.6535 7.40966 18.6483 7.42015 18.6483C7.42539 18.6483 7.43064 18.6431 7.44112 18.6431C7.44637 18.6431 7.45686 18.6379 7.4621 18.6379C7.47783 18.6328 7.49356 18.6328 7.5093 18.6276C7.51978 18.6276 7.52503 18.6224 7.53552 18.6224H7.546C7.55649 18.6224 7.56174 18.6224 7.57222 18.6172H7.57747C7.61418 18.612 7.64564 18.612 7.68235 18.6068H7.70857C7.71905 18.6068 7.72954 18.6068 7.74003 18.6068H34.7569C34.7674 18.6068 34.7779 18.6068 34.7831 18.6068H34.8093C34.8461 18.6068 34.8775 18.612 34.909 18.6172H34.9142C34.9247 18.6172 34.93 18.6224 34.9404 18.6224H34.9457C34.9562 18.6224 34.9614 18.6276 34.9719 18.6276C34.9929 18.6328 35.0139 18.6379 35.0296 18.6431H35.0348C35.0401 18.6431 35.0453 18.6483 35.0506 18.6483C35.0558 18.6483 35.0611 18.6535 35.0663 18.6535C35.0715 18.6535 35.0768 18.6587 35.082 18.6587C35.0925 18.6639 35.103 18.6639 35.1083 18.6691C35.1187 18.6743 35.124 18.6743 35.1345 18.6795C35.1397 18.6795 35.1397 18.6795 35.145 18.6846H35.1502C35.1554 18.6898 35.1659 18.6898 35.1712 18.695C35.1922 18.7054 35.2131 18.7158 35.2289 18.7262C35.2341 18.7262 35.2341 18.7313 35.2393 18.7313C35.2498 18.7365 35.2603 18.7469 35.2761 18.7521C35.2918 18.7625 35.3075 18.7729 35.3233 18.7832C35.3285 18.7884 35.3337 18.7884 35.339 18.7936C35.3442 18.7988 35.3495 18.7988 35.3547 18.804C35.36 18.8092 35.3704 18.8144 35.3757 18.8196C35.3862 18.8247 35.3914 18.8351 35.4019 18.8403L35.4072 18.8455C35.4176 18.8559 35.4281 18.8611 35.4386 18.8714L35.4439 18.8766C35.4858 18.9129 35.5278 18.9545 35.5645 19.0012C35.5697 19.0115 35.5802 19.0167 35.5854 19.0271L35.5907 19.0323C35.6064 19.053 35.6222 19.0738 35.6379 19.0946C35.6431 19.0997 35.6431 19.1049 35.6484 19.1101C35.6641 19.1309 35.6746 19.1516 35.6903 19.1672C35.6956 19.1724 35.7008 19.1828 35.7061 19.1931L35.7165 19.2087C35.7323 19.2398 35.7533 19.2658 35.769 19.2969L35.7742 19.3073L35.7795 19.3177L35.7847 19.328C35.79 19.3436 35.8005 19.354 35.8057 19.3696C35.8162 19.3851 35.8214 19.4059 35.8319 19.4214C35.8424 19.4422 35.8529 19.4681 35.8634 19.4941C35.8686 19.5045 35.8686 19.5097 35.8739 19.52C35.8791 19.5356 35.8844 19.546 35.8896 19.5615C35.8948 19.5823 35.9053 19.5979 35.9106 19.6186L35.9158 19.6342L35.9211 19.6497L35.9263 19.6653C35.9368 19.6913 35.942 19.7172 35.9525 19.7431C35.9578 19.7639 35.963 19.7847 35.9735 19.8106L41.0339 38.0438C41.0392 38.0542 41.0392 38.0646 41.0392 38.075V38.0802C41.0392 38.0853 41.0444 38.0905 41.0444 38.1009V38.1113C41.0444 38.1165 41.0444 38.1217 41.0497 38.1269V38.1372C41.0497 38.1476 41.0549 38.158 41.0549 38.1684C41.0601 38.2151 41.0601 38.2618 41.0549 38.3033V38.3136C41.0549 38.324 41.0549 38.3344 41.0497 38.3396V38.35C41.0497 38.3603 41.0444 38.3655 41.0444 38.3759V38.3811C41.0444 38.3863 41.0392 38.3967 41.0392 38.4019C41.0392 38.407 41.0339 38.4122 41.0339 38.4226C41.0339 38.4278 41.0339 38.433 41.0287 38.433V38.4382C41.0287 38.4434 41.0234 38.4486 41.0234 38.4537C41.0234 38.4589 41.0182 38.4641 41.0182 38.4693V38.4745C41.0182 38.4797 41.0129 38.4849 41.0129 38.4849C41.0077 38.4953 41.0025 38.5108 40.9972 38.5212L40.992 38.5316L40.9867 38.5368V38.542C40.9815 38.5471 40.9815 38.5575 40.9762 38.5627L40.971 38.5731L40.9658 38.5835C40.9605 38.5938 40.9553 38.6094 40.9448 38.6198C40.9448 38.625 40.9395 38.625 40.9395 38.6302C40.9343 38.6353 40.9343 38.6405 40.929 38.6457C40.9238 38.6509 40.9238 38.6561 40.9186 38.6613L40.9133 38.6665C40.9028 38.6769 40.8976 38.6924 40.8871 38.7028C40.8819 38.708 40.8766 38.7132 40.8714 38.7236C40.8661 38.7287 40.8609 38.7339 40.8556 38.7443L40.8504 38.7495C40.8451 38.7599 40.8347 38.7651 40.8294 38.7754C40.7927 38.817 40.756 38.8533 40.714 38.8896L40.7088 38.8948C40.7036 38.9 40.6931 38.9104 40.6826 38.9155L40.6773 38.9207C40.6668 38.9259 40.6616 38.9363 40.6511 38.9415C40.6459 38.9467 40.6354 38.9519 40.6301 38.9571C40.6249 38.9622 40.6197 38.9622 40.6144 38.9674C40.6092 38.9726 40.5987 38.9778 40.5934 38.983C40.5882 38.9882 40.5829 38.9882 40.5777 38.9934C40.5725 38.9986 40.5672 38.9986 40.562 39.0037C40.5567 39.0089 40.5515 39.0089 40.5462 39.0141C40.5305 39.0245 40.5148 39.0349 40.4938 39.0453L40.4886 39.0504C40.4781 39.0556 40.4728 39.0608 40.4623 39.066L40.4518 39.0712C40.4361 39.0816 40.4204 39.0868 40.4046 39.0971L40.3942 39.1023L40.3837 39.1075C40.3732 39.1127 40.3627 39.1179 40.3522 39.1231L40.3417 39.1283C40.326 39.1335 40.3103 39.1438 40.2893 39.149L40.2736 39.1542L40.2631 39.1594H40.2578L40.2473 39.1646H40.2421C40.2159 39.175 40.1896 39.1802 40.1634 39.1905H40.1582C40.1529 39.1905 40.1477 39.1957 40.1425 39.1957H40.1372L40.1215 39.2009H40.1162C40.111 39.2009 40.1057 39.2061 40.1005 39.2061H40.0953C40.069 39.2113 40.0481 39.2165 40.0218 39.2217H40.0114C40.0009 39.2217 39.9956 39.2269 39.9851 39.2269H39.9746C39.9432 39.2321 39.9117 39.2321 39.8803 39.2372H39.854C39.8383 39.2372 39.8278 39.2372 39.8121 39.2372H11.8775C11.867 39.2372 11.8513 39.2372 11.8408 39.2372Z" fill="white"/>
</g>
</mask>
<g mask="url(#mask0_5_1177)">
<path id="Vector_6" d="M41.0444 18.6172H6.51294V39.2372H41.0444V18.6172Z" fill="url(#paint0_linear_5_1177)"/>
</g>
</g>
</g>
<path id="Vector_7" fill-rule="evenodd" clip-rule="evenodd" d="M8.53196 18.6172H35.5488C36.2096 18.6172 36.5766 19.1776 36.7549 19.8106L41.8154 38.0438C41.9884 38.6769 41.2752 39.2372 40.6092 39.2372H12.6747C12.0139 39.2372 11.6154 38.6872 11.4686 38.0438L7.32585 19.8106C7.18426 19.1724 7.87122 18.6172 8.53196 18.6172Z" fill="#102B6E"/>
<path id="Vector_8" fill-rule="evenodd" clip-rule="evenodd" d="M8.84125 19.5771H35.318C35.5068 19.5771 35.6117 19.738 35.6641 19.9196L40.3837 36.2849C40.4361 36.4665 40.2263 36.6274 40.0376 36.6274H12.6746C12.4858 36.6274 12.3704 36.4665 12.3285 36.2849L8.49515 19.9196C8.4532 19.738 8.65247 19.5771 8.84125 19.5771Z" fill="#B8E3FF"/>
<g id="Group_2">
<g id="Clip path group_2">
<mask id="mask1_5_1177" style="mask-type:luminance" maskUnits="userSpaceOnUse" x="11" y="37" width="37" height="3">
<g id="SVGID_5_">
<path id="Vector_9" d="M12.3076 39.6939H12.3024C12.2866 39.6939 12.2709 39.6887 12.2604 39.6887C12.2499 39.6887 12.2394 39.6835 12.2342 39.6835H12.2185C12.1922 39.6783 12.1713 39.6731 12.145 39.6679C12.1346 39.6627 12.1241 39.6627 12.1083 39.6576C12.0926 39.6524 12.0769 39.6472 12.0664 39.642H12.0611C12.0559 39.642 12.0507 39.6368 12.0507 39.6368C12.0035 39.6212 11.9563 39.5953 11.9091 39.5745C11.8986 39.5693 11.8933 39.5642 11.8829 39.559C11.8619 39.5486 11.8409 39.533 11.8252 39.5175C11.8199 39.5123 11.8147 39.5071 11.8042 39.5019C11.7989 39.4967 11.7937 39.4915 11.7832 39.4863C11.7727 39.476 11.7622 39.4708 11.7518 39.4604L11.7465 39.4552C11.7203 39.4293 11.6941 39.4033 11.6678 39.3774L11.6626 39.3722C11.6469 39.3566 11.6311 39.3359 11.6154 39.3151C11.6102 39.3099 11.6049 39.2995 11.5997 39.2943C11.5944 39.284 11.5839 39.2736 11.5787 39.2632C11.5735 39.258 11.5735 39.2528 11.5682 39.2476C11.563 39.2373 11.5577 39.2321 11.5525 39.2217C11.542 39.2061 11.5367 39.1906 11.5263 39.175L11.521 39.1646L11.5158 39.1542L11.5105 39.1439C11.4948 39.1179 11.4843 39.0868 11.4738 39.0609C11.4738 39.0557 11.4686 39.0505 11.4686 39.0453C11.4633 39.0349 11.4633 39.0245 11.4581 39.0142C11.4528 39.0038 11.4528 38.9934 11.4476 38.9778C11.4476 38.9726 11.4424 38.9623 11.4424 38.9571C11.4371 38.9415 11.4371 38.9259 11.4319 38.9104C11.4319 38.9 11.4266 38.8896 11.4266 38.8844V38.8792C11.4214 38.8429 11.4161 38.8066 11.4161 38.7703V38.7547V38.7495V37.8H47.7201V38.7495C47.7201 38.7547 47.7201 38.7599 47.7201 38.7651V38.7807C47.7201 38.8014 47.7201 38.8274 47.7148 38.8481C47.7148 38.8585 47.7096 38.8689 47.7096 38.8792V38.8844C47.7096 38.8948 47.7043 38.9 47.7043 38.9104V38.9156C47.6991 38.9311 47.6991 38.9467 47.6938 38.9623C47.6938 38.9675 47.6886 38.9726 47.6886 38.983C47.6886 38.9882 47.6833 38.9934 47.6833 39.0038C47.6781 39.0245 47.6729 39.0453 47.6624 39.066L47.6571 39.0764C47.6519 39.0868 47.6519 39.092 47.6466 39.1024C47.6414 39.1127 47.6362 39.1231 47.6309 39.1387L47.6257 39.1491L47.6204 39.1594L47.6152 39.1698L47.6099 39.1802L47.6047 39.1906L47.5994 39.2009C47.5942 39.2113 47.589 39.2165 47.5837 39.2269C47.5785 39.2373 47.5732 39.2425 47.568 39.2528C47.5575 39.2684 47.547 39.284 47.5365 39.2995C47.5313 39.3047 47.526 39.3151 47.5208 39.3203C47.5155 39.3255 47.5103 39.3307 47.5051 39.341C47.4946 39.3514 47.4893 39.3618 47.4788 39.3722L47.4736 39.3774C47.4474 39.4085 47.4212 39.4344 47.3897 39.4604L47.3844 39.4656L47.3792 39.4708C47.3635 39.4863 47.3477 39.4967 47.3268 39.5123C47.311 39.5226 47.2953 39.5382 47.2743 39.5486C47.2691 39.5538 47.2586 39.559 47.2481 39.5642C47.2376 39.5693 47.2324 39.5745 47.2219 39.5797C47.1904 39.6005 47.1537 39.616 47.1222 39.6316C47.1118 39.6368 47.1065 39.6368 47.096 39.642L47.0855 39.6472C47.0646 39.6524 47.0488 39.6627 47.0279 39.6679C47.0174 39.6731 47.0069 39.6731 46.9911 39.6783C46.9859 39.6783 46.9754 39.6835 46.9702 39.6835C46.9544 39.6887 46.9387 39.6887 46.9177 39.6939H46.9125C46.902 39.6939 46.8915 39.6991 46.8863 39.6991C46.8705 39.6991 46.8601 39.7043 46.8443 39.7043H46.8391C46.8129 39.7043 46.7866 39.7094 46.7657 39.7094H12.381C12.3548 39.6991 12.3286 39.6939 12.3076 39.6939Z" fill="white"/>
</g>
</mask>
<g mask="url(#mask1_5_1177)">
<path id="Vector_10" d="M47.7204 37.8H11.4218V39.6991H47.7204V37.8Z" fill="url(#paint1_linear_5_1177)"/>
</g>
</g>
</g>
<path id="Vector_11" fill-rule="evenodd" clip-rule="evenodd" d="M31.8676 37.8H58.8005V38.7495C58.8005 39.2736 58.3705 39.6991 57.8409 39.6991H32.8272C32.2976 39.6991 31.8676 39.2736 31.8676 38.7495V37.8Z" fill="#B8E3FF"/>
<path id="Vector_12" fill-rule="evenodd" clip-rule="evenodd" d="M42.7015 38.6042H50.4888C50.5832 38.6042 50.6618 38.6821 50.6618 38.7755C50.6618 38.8689 50.5832 38.9467 50.4888 38.9467H42.7015C42.6071 38.9467 42.5284 38.8689 42.5284 38.7755C42.5284 38.6821 42.6071 38.6042 42.7015 38.6042Z" fill="#102B6E"/>
<path id="Vector_13" d="M24.4369 38.4849H19.4813V39.0193H24.4369V38.4849Z" fill="#102B6E"/>
<path id="Vector_14" d="M26.1884 38.4849H24.9246V39.0193H26.1884V38.4849Z" fill="#102B6E"/>
<path id="Vector_15" d="M27.8978 38.4849H26.634V39.0193H27.8978V38.4849Z" fill="#102B6E"/>
<path id="Vector_16" d="M14.3474 38.4797H14.0957V39.6938H14.3474V38.4797Z" fill="#102B6E"/>
<path id="Vector_17" d="M14.8718 38.4797H14.6201V39.6938H14.8718V38.4797Z" fill="#102B6E"/>
<path id="Vector_18" d="M15.391 38.4797H15.1393V39.6938H15.391V38.4797Z" fill="#102B6E"/>
<path id="Vector_19" d="M15.9154 38.4797H15.6637V39.6938H15.9154V38.4797Z" fill="#102B6E"/>
<path id="Vector_20" d="M16.4346 38.4797H16.1829V39.6938H16.4346V38.4797Z" fill="#102B6E"/>
<path id="Vector_21" d="M16.9537 38.4797H16.702V39.6938H16.9537V38.4797Z" fill="#102B6E"/>
<path id="Vector_22" d="M17.4781 38.4797H17.2264V39.6938H17.4781V38.4797Z" fill="#102B6E"/>
<path id="Vector_23" d="M17.4781 38.4797H17.2264V39.6938H17.4781V38.4797Z" fill="#102B6E"/>
<path id="Vector_24" d="M17.9973 38.4797H17.7456V39.6938H17.9973V38.4797Z" fill="#102B6E"/>
<path id="Vector_25" d="M17.9973 38.4797H17.7456V39.6938H17.9973V38.4797Z" fill="#102B6E"/>
<path id="Vector_26" d="M18.5216 38.4797H18.2699V39.6938H18.5216V38.4797Z" fill="#102B6E"/>
<path id="Vector_27" fill-rule="evenodd" clip-rule="evenodd" d="M29.5025 22.3687H34.6206C34.6468 22.3687 34.6625 22.3894 34.6678 22.4154L36.2934 27.7079C36.2986 27.7338 36.2724 27.7546 36.2462 27.7546H31.1333C31.1071 27.7546 31.0914 27.7338 31.0861 27.7079L29.4553 22.4154C29.45 22.3946 29.4762 22.3687 29.5025 22.3687Z" fill="#E3F4FA"/>
<path id="Vector_28" d="M10.3463 20.2983H29.8171C30.6142 20.2983 30.9289 21.5333 29.9377 21.5333H10.3463C10.1733 21.5333 10.0212 21.4658 9.90583 21.3517C9.79046 21.2375 9.72229 21.087 9.72229 20.9158C9.72229 20.7446 9.79046 20.5941 9.90583 20.4799C10.0212 20.3658 10.1785 20.2983 10.3463 20.2983ZM29.8224 20.3398H10.3463C10.189 20.3398 10.0422 20.4021 9.93729 20.5059C9.83241 20.6097 9.76949 20.7549 9.76949 20.9106C9.76949 21.0663 9.83241 21.2116 9.93729 21.3153C10.0422 21.4191 10.189 21.4814 10.3463 21.4814H29.943C30.8712 21.4866 30.5618 20.3398 29.8224 20.3398Z" fill="#009FE7"/>
<path id="Vector_29" fill-rule="evenodd" clip-rule="evenodd" d="M29.77 20.3191H28.0919L28.3698 21.5073H30.0479C30.7401 21.5073 30.824 20.3191 29.77 20.3191Z" fill="#009FE7"/>
<path id="Vector_30" d="M29.77 20.3191H28.0919L28.3698 21.5073H30.0479C30.7454 21.5073 30.824 20.3191 29.77 20.3191Z" stroke="#009FE7" stroke-width="0.1997" stroke-miterlimit="22.9256"/>
<path id="Vector_31" fill-rule="evenodd" clip-rule="evenodd" d="M34.0752 20.454H32.1139C32.072 20.454 32.0405 20.4904 32.0405 20.5267C32.0405 20.5682 32.072 20.5993 32.1139 20.5993H34.0752C34.1171 20.5993 34.1486 20.5682 34.1486 20.5267C34.1538 20.4852 34.1171 20.454 34.0752 20.454Z" fill="#009FE7"/>
<path id="Vector_32" fill-rule="evenodd" clip-rule="evenodd" d="M34.1539 20.7913H32.1927C32.1507 20.7913 32.1193 20.8276 32.1193 20.8639C32.1193 20.9054 32.1507 20.9365 32.1927 20.9365H34.1539C34.1959 20.9365 34.2273 20.9054 34.2273 20.8639C34.2273 20.8224 34.1906 20.7913 34.1539 20.7913Z" fill="#009FE7"/>
<path id="Vector_33" fill-rule="evenodd" clip-rule="evenodd" d="M34.2273 21.1285H32.266C32.2241 21.1285 32.1926 21.1649 32.1926 21.2012C32.1926 21.2427 32.2241 21.2738 32.266 21.2738H34.2273C34.2692 21.2738 34.3007 21.2375 34.3007 21.2012C34.3007 21.1597 34.2692 21.1285 34.2273 21.1285Z" fill="#009FE7"/>
<path id="Vector_34" fill-rule="evenodd" clip-rule="evenodd" d="M31.3378 28.3461H36.4559C36.4822 28.3461 36.4979 28.3668 36.5031 28.3928L37.3789 31.2933C37.3841 31.3192 37.3579 31.34 37.3317 31.34H32.2188C32.1926 31.34 32.1769 31.3192 32.1716 31.2933L31.2906 28.3928C31.2802 28.3668 31.3116 28.3461 31.3378 28.3461Z" fill="#E3F4FA"/>
<path id="Vector_35" fill-rule="evenodd" clip-rule="evenodd" d="M32.4391 31.9938H37.5572C37.5834 31.9938 37.5992 32.0145 37.6044 32.0405L38.7004 35.6882C38.7056 35.7141 38.6794 35.7349 38.6532 35.7349H33.5403C33.5141 35.7349 33.4984 35.7141 33.4931 35.6882L32.3919 32.0405C32.3867 32.0197 32.4129 31.9938 32.4391 31.9938Z" fill="#E3F4FA"/>
<path id="Vector_36" fill-rule="evenodd" clip-rule="evenodd" d="M18.9727 34.3235H31.5267C31.6316 34.3235 31.7155 34.4065 31.7155 34.5103C31.7155 34.6141 31.6316 34.6971 31.5267 34.6971H18.9727C18.8678 34.6971 18.7839 34.6141 18.7839 34.5103C18.7787 34.4117 18.8678 34.3235 18.9727 34.3235Z" fill="#B8E3FF"/>
<path id="Vector_37" fill-rule="evenodd" clip-rule="evenodd" d="M0.167807 39.7042H68.8374C68.9266 39.7042 69.0052 39.7717 69.0052 39.8495C69.0052 39.9325 68.9318 39.9948 68.8374 39.9948H0.167807C0.0786594 39.9948 0 39.9273 0 39.8495C0 39.7665 0.0734154 39.7042 0.167807 39.7042Z" fill="#15378A"/>
<path id="Vector_38" fill-rule="evenodd" clip-rule="evenodd" d="M24.6623 20.5163C25.6639 22.7163 26.912 24.7762 29.7805 25.2017C32.1088 25.5493 35.8739 20.8328 35.8739 19.904C35.8739 18.9752 34.5105 17.5275 34.5105 17.5275C34.5105 17.5275 30.6195 21.1026 30.0007 20.9002C29.534 20.7446 28.0552 18.3681 26.6551 17.1021C26.3561 16.8271 24.2323 19.5667 24.6623 20.5163Z" fill="#2D3133"/>
<path id="Vector_39" fill-rule="evenodd" clip-rule="evenodd" d="M23.902 16.0488H18.4588C17.1425 16.0488 14.9453 16.5469 14.1482 17.4705C13.0051 18.7936 13.7549 33.7528 14.101 35.8179L14.4996 36.0981C14.4996 36.2952 14.4996 36.4872 14.4996 36.6844H22.9738L23.2046 36.1811L26.6289 35.9113L27.557 35.7867L26.6551 17.1021C25.9 16.4691 24.9613 16.0488 23.902 16.0488Z" fill="#3C4145"/>
<path id="Vector_40" fill-rule="evenodd" clip-rule="evenodd" d="M23.3671 16.0488C24.1432 20.8743 24.29 28.5329 24.29 35.8334C22.6697 36.2174 21.6366 35.8231 20.5564 35.8179C20.5616 27.2201 19.4918 18.1087 19.2454 16.0488H21.7048C22.2554 16.0488 22.8899 15.9813 23.3671 16.0488Z" fill="white"/>
<path id="Vector_41" fill-rule="evenodd" clip-rule="evenodd" d="M24.8039 13.3869C24.9927 14.6426 23.5401 15.6025 22.549 15.5143V16.0903L22.6014 16.1629C22.9475 17.0502 21.9722 17.6209 21.6523 17.9271C21.3586 17.704 19.7802 17.2785 19.7435 16.0487H19.8064V13.8902C19.733 13.8695 19.6596 13.8383 19.5862 13.7968C19.3659 13.6671 19.282 13.3454 19.3397 13.0133C19.3974 12.6813 19.8641 12.9044 19.8641 12.9044C19.4603 11.9237 18.9464 11.0727 19.9847 10.5279C21.023 9.98311 23.1206 10.0246 23.1206 10.0246L24.3791 9.8949C24.0435 10.4293 24.678 12.5515 24.8039 13.3869Z" fill="#F5C1C2"/>
<path id="Vector_42" fill-rule="evenodd" clip-rule="evenodd" d="M20.6926 14.5544C21.1331 15.7271 21.5526 16.163 22.549 16.2927V15.4936C22.1714 15.4625 21.238 15.1408 20.6926 14.5544Z" fill="#EC8081"/>
<path id="Vector_43" fill-rule="evenodd" clip-rule="evenodd" d="M27.0955 35.8438L20.5563 35.8179L20.6402 36.6792H27.085L27.0955 35.8438Z" fill="#003397"/>
<path id="Vector_44" fill-rule="evenodd" clip-rule="evenodd" d="M34.4371 17.9634C34.3427 18.529 35.0349 19.4214 35.4911 19.7587C35.5593 19.6394 36.2882 18.778 36.2882 18.778C36.199 18.1761 35.6642 17.5431 35.3023 17.3771L34.4371 17.9634Z" fill="white"/>
<path id="Vector_45" fill-rule="evenodd" clip-rule="evenodd" d="M35.596 17.0917C35.6432 16.8167 35.8372 15.7219 36.0207 15.5299C36.1151 15.4313 36.1413 15.4728 36.1885 15.5299C36.2305 15.5818 36.2672 15.7167 36.262 15.8153C36.2462 16.0176 36.3564 16.2304 36.3354 16.3393C37.5362 16.6922 38.5483 15.1978 38.8839 15.7115C38.8734 16.2408 39.0675 17.4497 35.9683 18.9026C35.8005 18.7832 35.3285 18.2799 35.2446 17.678L35.596 17.0917Z" fill="#F5C1C2"/>
<path id="Vector_46" fill-rule="evenodd" clip-rule="evenodd" d="M25.7846 7.80904C26.052 9.14773 25.5067 10.3411 24.1747 10.5643C23.1836 10.7251 21.4583 10.5279 20.6822 11.2492C20.2994 11.6072 20.3047 12.0638 20.5826 12.9822C20.6665 13.252 20.7924 13.4596 20.3728 13.2105C20.1788 13.0964 19.8642 12.9303 19.7383 13.0082C19.4604 13.1846 19.539 13.6204 19.7278 13.7813C19.8117 13.8539 19.9691 13.9629 19.9691 13.9629C19.9691 13.9629 19.4394 14.0978 18.9517 13.7086C18.464 13.3195 17.0429 12.1416 17.3209 10.4501C17.9449 6.67789 20.3886 7.71564 22.8847 6.58968C23.9282 6.10713 25.5748 6.75053 25.7846 7.80904Z" fill="#001C49"/>
<path id="Vector_47" fill-rule="evenodd" clip-rule="evenodd" d="M16.4975 20.9262C17.1163 19.6653 17.4047 18.0568 16.3979 17.0606C15.3911 16.0644 13.2201 18.0049 12.6013 19.2658C11.3899 21.7356 10.5771 27.4433 11.8619 29.0103C12.9107 30.2919 19.9952 30.2192 20.8762 29.9806C21.0807 29.9235 22.161 28.6367 21.752 27.4485C21.71 27.3239 21.4426 27.272 21.2381 27.2668C20.0372 27.2617 16.1776 26.4263 15.6428 26.1409C14.809 25.6998 16.0675 21.8083 16.4975 20.9262Z" fill="#2D3133"/>
<path id="Vector_48" fill-rule="evenodd" clip-rule="evenodd" d="M21.5736 27.6353C21.0545 27.8376 20.8499 28.2423 20.5353 28.8287C19.7749 30.2504 21.1017 29.7523 21.9197 29.6485C22.8269 29.5343 22.9633 28.2475 22.9003 27.6716L21.5736 27.6353Z" fill="white"/>
<path id="Vector_49" fill-rule="evenodd" clip-rule="evenodd" d="M22.8112 27.7805H23.7342L24.8721 27.272C24.8721 27.272 25.3545 26.8932 25.4909 26.9762C25.5171 26.9918 25.1133 27.7805 25.1395 27.8116C25.3755 28.0607 27.1375 28.0711 27.1218 28.1022C25.8527 30.6966 24.2638 29.0881 22.1924 29.389C21.8883 29.4357 21.8358 29.3942 21.8935 29.1503C21.9932 28.7612 22.3235 28.1593 22.8112 27.7805Z" fill="#F5C1C2"/>
<path id="Vector_50" fill-rule="evenodd" clip-rule="evenodd" d="M44.9093 9.51617C45.7064 10.502 46.5035 11.737 46.8024 12.7021C46.8286 12.7851 46.9597 12.9563 47.0908 12.9823H49.5869C49.718 12.9563 49.8491 12.7851 49.8753 12.7021C50.1742 11.737 50.9713 10.502 51.7684 9.51617C51.9047 9.35532 51.9991 9.19966 52.125 9.03362C52.5078 8.43173 52.7385 7.72087 52.7595 6.95812C52.8224 4.6647 50.9766 2.76043 48.6325 2.69817C48.5329 2.69298 48.4385 2.69817 48.3388 2.69817C48.2445 2.69298 48.1448 2.69298 48.0452 2.69817C45.7064 2.76043 43.8605 4.66989 43.9182 6.95812C43.9392 7.72087 44.1699 8.43173 44.5527 9.03362C44.6786 9.19966 44.773 9.35532 44.9093 9.51617Z" fill="#8ED4FF"/>
<path id="Vector_51" fill-rule="evenodd" clip-rule="evenodd" d="M48.323 14.6945C48.8632 14.6945 49.2984 14.9228 49.2984 15.1978C49.2984 15.478 48.8632 15.7011 48.323 15.7011C47.7829 15.7011 47.3477 15.4728 47.3477 15.1978C47.3477 14.9176 47.7829 14.6945 48.323 14.6945Z" fill="#231916"/>
<path id="Vector_52" fill-rule="evenodd" clip-rule="evenodd" d="M48.3388 3.88635C50.064 3.88635 51.4694 5.27175 51.4694 6.98403C51.4694 8.69113 50.0693 10.0817 48.3388 10.0817C46.6135 10.0817 45.2081 8.69631 45.2081 6.98403C45.2081 5.27175 46.6083 3.88635 48.3388 3.88635Z" fill="#BEE6FF"/>
<path id="Vector_53" d="M46.9177 3.62175C47.0855 3.57505 47.2638 3.66845 47.311 3.83449C47.3582 4.00053 47.2638 4.17694 47.096 4.22364C46.2622 4.46232 45.5333 5.28733 45.355 6.12272C45.3183 6.29395 45.1505 6.40291 44.9826 6.36659C44.8096 6.33027 44.6995 6.16423 44.7362 5.99819C44.8463 5.46375 45.1347 4.93969 45.5228 4.51421C45.9003 4.09911 46.388 3.77222 46.9177 3.62175Z" fill="#72B7FF"/>
<path id="Vector_54" fill-rule="evenodd" clip-rule="evenodd" d="M51.695 0.939162C51.8103 1.00143 51.847 1.14671 51.7841 1.26086L51.2649 2.14814C51.1968 2.26229 51.0552 2.29861 50.9398 2.23635C50.8245 2.17408 50.7877 2.0288 50.8507 1.91465L51.3698 1.02737C51.438 0.913218 51.5796 0.871708 51.695 0.939162ZM44.6209 0.939162C44.7362 0.876897 44.8778 0.913218 44.946 1.02737L45.4651 1.91465C45.5281 2.0288 45.4913 2.16889 45.376 2.23635C45.2606 2.29861 45.119 2.26229 45.0509 2.14814L44.5317 1.26086C44.4688 1.14671 44.5055 1.00143 44.6209 0.939162ZM42.0303 3.5024C42.0933 3.38825 42.2401 3.35193 42.3555 3.41419L43.2522 3.92788C43.3675 3.99014 43.4043 4.13543 43.3413 4.24958C43.2784 4.36373 43.1316 4.40005 43.0162 4.33779L42.1195 3.8241C42.0041 3.75665 41.9674 3.61136 42.0303 3.5024ZM54.2855 3.5024C54.3484 3.61655 54.3117 3.75665 54.1963 3.8241L53.2944 4.33779C53.1842 4.40005 53.0374 4.36373 52.9692 4.24958C52.9063 4.13543 52.943 3.99533 53.0584 3.92788L53.9603 3.41419C54.0705 3.34674 54.2173 3.38825 54.2855 3.5024ZM55.2346 6.99961C55.2346 7.12933 55.1297 7.2331 54.9986 7.2331H53.9603C53.8292 7.2331 53.7244 7.12933 53.7244 6.99961C53.7244 6.86989 53.8292 6.76612 53.9603 6.76612H54.9986C55.1245 6.76612 55.2346 6.86989 55.2346 6.99961ZM42.5967 6.99961C42.5967 7.12933 42.4918 7.2331 42.3607 7.2331H41.3224C41.1913 7.2331 41.0864 7.12933 41.0864 6.99961C41.0864 6.86989 41.1913 6.76612 41.3224 6.76612H42.3607C42.4918 6.76612 42.5967 6.86989 42.5967 6.99961ZM48.1605 0C48.2916 0 48.3965 0.103775 48.3965 0.233493V1.26086C48.3965 1.39058 48.2916 1.49436 48.1605 1.49436C48.0294 1.49436 47.9245 1.39058 47.9245 1.26086V0.233493C47.9193 0.103775 48.0294 0 48.1605 0Z" fill="#B8E3FF"/>
<path id="Vector_55" d="M49.4925 12.9874H47.1589V13.2728H49.4925V12.9874Z" fill="#9D9D9E"/>
<path id="Vector_56" d="M47.526 7.89726C47.4369 7.80905 47.3162 7.75717 47.1799 7.75717C47.0436 7.75717 46.9229 7.81424 46.8338 7.89726C46.7447 7.98547 46.6922 8.10481 46.6922 8.23972V8.53548C46.6922 8.67038 46.7499 8.78973 46.839 8.87793C46.9282 8.96614 47.0488 9.01803 47.1851 9.01803H47.6781V8.23972C47.6728 8.11 47.6152 7.98547 47.526 7.89726ZM47.1799 7.58594C47.3634 7.58594 47.526 7.65858 47.6466 7.77792C47.7672 7.89726 47.8406 8.0633 47.8406 8.23972V9.18926H47.1799C46.9964 9.18926 46.8338 9.11662 46.7132 8.99727C46.5926 8.87793 46.5192 8.71189 46.5192 8.53548V8.23972C46.5192 8.05811 46.5926 7.89726 46.7132 7.77792C46.8338 7.65858 46.9964 7.58594 47.1799 7.58594Z" fill="white"/>
<path id="Vector_57" d="M48.9156 7.77792C49.0362 7.65858 49.1988 7.58594 49.3823 7.58594C49.5658 7.58594 49.7284 7.65858 49.849 7.77792C49.9696 7.89726 50.043 8.0633 50.043 8.23972V8.53548C50.043 8.71708 49.9696 8.87793 49.849 8.99727C49.7284 9.11662 49.5606 9.18926 49.3823 9.18926H48.7163V8.23972C48.7163 8.0633 48.795 7.89726 48.9156 7.77792ZM49.3823 7.75717C49.2459 7.75717 49.1253 7.81424 49.0362 7.89726C48.947 7.98547 48.8894 8.10481 48.8894 8.23972V9.01803H49.3823C49.5186 9.01803 49.6392 8.96095 49.7284 8.87275C49.8175 8.78454 49.8752 8.6652 49.8752 8.53029V8.23453C49.8752 8.09962 49.8175 7.98028 49.7336 7.89207C49.6392 7.80905 49.5186 7.75717 49.3823 7.75717Z" fill="white"/>
<path id="Vector_58" d="M47.6729 12.9874V9.02319H48.8895V12.9874H48.7164V9.19442H47.8459V12.9874H47.6729Z" fill="white"/>
<path id="Vector_59" fill-rule="evenodd" clip-rule="evenodd" d="M47.0487 13.2676H49.5973C49.7861 13.2676 49.9434 13.4232 49.9434 13.61C49.9434 13.7968 49.7913 13.9525 49.5973 13.9525H47.0487C46.86 13.9525 46.7026 13.7968 46.7026 13.61C46.7079 13.4232 46.86 13.2676 47.0487 13.2676Z" fill="#C7C7C8"/>
<path id="Vector_60" d="M49.4925 13.9525H47.1589V14.2379H49.4925V13.9525Z" fill="#9D9D9E"/>
<path id="Vector_61" fill-rule="evenodd" clip-rule="evenodd" d="M47.0487 14.2327H49.5973C49.7861 14.2327 49.9434 14.3884 49.9434 14.5752C49.9434 14.762 49.7913 14.9176 49.5973 14.9176H47.0487C46.86 14.9176 46.7026 14.762 46.7026 14.5752C46.7079 14.3884 46.86 14.2327 47.0487 14.2327Z" fill="#C7C7C8"/>
<path id="Vector_62" fill-rule="evenodd" clip-rule="evenodd" d="M47.1589 14.9124H49.4925V15.0525C49.4925 15.1303 49.4296 15.1926 49.3509 15.1926H47.3058C47.2271 15.1926 47.1642 15.1303 47.1642 15.0525V14.9124H47.1589Z" fill="#9D9D9E"/>
<path id="Vector_63" d="M51.4695 6.90103C51.4799 7.23311 51.4327 7.59114 51.3279 7.88689C51.2702 8.04775 51.3279 8.20341 51.4957 8.26048C51.6635 8.31756 51.8575 8.23973 51.9152 8.07888C52.0725 7.62746 52.1354 7.12415 52.0673 6.62603C52.0096 6.37697 51.7369 6.34065 51.5743 6.44442C51.3908 6.55339 51.4642 6.72981 51.4695 6.90103Z" fill="#72B7FF"/>
<path id="Vector_64" fill-rule="evenodd" clip-rule="evenodd" d="M47.5208 13.3818H47.741C47.8564 13.3818 47.956 13.4752 47.956 13.5945C47.956 13.7139 47.8616 13.8073 47.741 13.8073H47.5208C47.4054 13.8073 47.3058 13.7139 47.3058 13.5945C47.3058 13.4752 47.4054 13.3818 47.5208 13.3818Z" fill="#ECEDED"/>
<path id="Vector_65" fill-rule="evenodd" clip-rule="evenodd" d="M47.5208 14.3572H47.741C47.8564 14.3572 47.956 14.4506 47.956 14.57C47.956 14.6841 47.8616 14.7827 47.741 14.7827H47.5208C47.4054 14.7827 47.3058 14.6893 47.3058 14.57C47.3058 14.4506 47.4054 14.3572 47.5208 14.3572Z" fill="#ECEDED"/>
<path id="Vector_66" fill-rule="evenodd" clip-rule="evenodd" d="M30.588 6.28876H36.8755C38.3018 6.28876 39.4555 7.43028 39.4555 8.84162V10.5435C39.4555 11.9549 38.3018 13.0964 36.8755 13.0964H31.9619L30.588 14.3469V13.0964C29.1616 13.0964 28.0079 11.9549 28.0079 10.5435V8.84162C28.0079 7.43028 29.1668 6.28876 30.588 6.28876Z" fill="#4EBED9"/>
<path id="Vector_67" fill-rule="evenodd" clip-rule="evenodd" d="M31.0967 9.27747C31.4166 9.27747 31.6788 9.5369 31.6788 9.85342C31.6788 10.1699 31.4166 10.4294 31.0967 10.4294C30.7768 10.4294 30.5146 10.1699 30.5146 9.85342C30.5146 9.5369 30.7768 9.27747 31.0967 9.27747Z" fill="white"/>
<path id="Vector_68" fill-rule="evenodd" clip-rule="evenodd" d="M33.7344 9.27747C34.0543 9.27747 34.3165 9.5369 34.3165 9.85342C34.3165 10.1699 34.0543 10.4294 33.7344 10.4294C33.4145 10.4294 33.1523 10.1699 33.1523 9.85342C33.1523 9.5369 33.4145 9.27747 33.7344 9.27747Z" fill="white"/>
<path id="Vector_69" fill-rule="evenodd" clip-rule="evenodd" d="M36.3721 9.27747C36.692 9.27747 36.9542 9.5369 36.9542 9.85342C36.9542 10.1699 36.692 10.4294 36.3721 10.4294C36.0522 10.4294 35.79 10.1699 35.79 9.85342C35.79 9.5369 36.0522 9.27747 36.3721 9.27747Z" fill="white"/>
<g id="Group_3">
<g id="Clip path group_3">
<mask id="mask2_5_1177" style="mask-type:luminance" maskUnits="userSpaceOnUse" x="40" y="20" width="10" height="6">
<g id="SVGID_8_">
<path id="Vector_70" d="M42.0881 25.98C42.0671 25.98 42.0514 25.9748 42.0304 25.9748C42.0146 25.9748 42.0042 25.9696 41.9884 25.9696C41.957 25.9644 41.9203 25.9592 41.8888 25.9541C41.8783 25.9541 41.8731 25.9489 41.8626 25.9489C41.8468 25.9437 41.8311 25.9437 41.8154 25.9385C41.7734 25.9281 41.7315 25.9177 41.6948 25.9074C41.6843 25.9022 41.6738 25.9022 41.6581 25.897C41.6056 25.8814 41.5479 25.8607 41.4955 25.8399C41.485 25.8347 41.4798 25.8347 41.4693 25.8295C41.4588 25.8243 41.4535 25.8243 41.4431 25.8192C41.4273 25.814 41.4116 25.8088 41.3959 25.7984C41.3749 25.788 41.3539 25.7776 41.3329 25.7673L41.3224 25.7621L41.312 25.7569L41.3015 25.7517C41.2385 25.7206 41.1809 25.6894 41.1232 25.6531C41.1179 25.6479 41.1127 25.6479 41.1074 25.6427C41.0498 25.6064 40.9973 25.5701 40.9449 25.5286C40.9239 25.513 40.9082 25.4974 40.8872 25.4819C40.8767 25.4715 40.8662 25.4611 40.8505 25.4508C40.8295 25.43 40.8085 25.4092 40.7823 25.3885L40.7771 25.3833L40.7718 25.3781C40.7613 25.3677 40.7456 25.3574 40.7351 25.3418L40.7299 25.3366L40.7246 25.3314C40.7037 25.3107 40.6827 25.2899 40.6617 25.264C40.6512 25.2536 40.6407 25.2432 40.6302 25.2276C40.6145 25.2121 40.5988 25.1913 40.583 25.1706C40.5411 25.1187 40.5044 25.0668 40.4677 25.0097C40.4467 24.9786 40.431 24.9526 40.41 24.9215C40.389 24.8904 40.3733 24.854 40.3523 24.8229C40.3366 24.7918 40.3208 24.7606 40.3051 24.7295C40.2946 24.7088 40.2841 24.6828 40.2737 24.6621C40.2684 24.6517 40.2684 24.6465 40.2632 24.6361C40.2369 24.5739 40.216 24.5064 40.195 24.4389C40.1845 24.4078 40.1793 24.3715 40.1688 24.3404C40.1635 24.3092 40.153 24.2781 40.1478 24.2418V24.2366C40.1426 24.2055 40.1373 24.1743 40.1321 24.1432C40.1268 24.1121 40.1268 24.0809 40.1216 24.0498V24.0446C40.1216 24.0238 40.1163 23.9979 40.1163 23.9771C40.1163 23.9408 40.1163 23.9097 40.1163 23.8734V22.4672C40.1163 22.4309 40.1163 22.3998 40.1163 22.3686C40.1163 22.3427 40.1216 22.3219 40.1216 22.296C40.1268 22.2649 40.1268 22.2337 40.1321 22.2026C40.1373 22.1611 40.1426 22.1196 40.153 22.0781C40.1583 22.0625 40.1583 22.0469 40.1635 22.0314C40.174 21.9899 40.1845 21.9484 40.195 21.912C40.2002 21.9017 40.2002 21.8913 40.2055 21.8809C40.2212 21.8342 40.2369 21.7927 40.2527 21.746C40.2579 21.7356 40.2579 21.7304 40.2632 21.72C40.2737 21.6941 40.2841 21.663 40.2999 21.637C40.3104 21.6163 40.3156 21.6007 40.3261 21.58C40.3366 21.5644 40.3418 21.5488 40.3523 21.5281L40.3576 21.5177L40.3628 21.5073C40.3733 21.4866 40.3838 21.471 40.3943 21.4502C40.3995 21.4399 40.41 21.4295 40.4152 21.4139C40.4257 21.3983 40.4362 21.3828 40.4467 21.362C40.4677 21.3257 40.4939 21.2894 40.5201 21.2582C40.5411 21.2323 40.5621 21.2064 40.583 21.1804C40.5883 21.17 40.5988 21.1649 40.604 21.1545C40.6198 21.1337 40.6407 21.113 40.6617 21.087C40.6774 21.0715 40.6932 21.0559 40.7089 21.0351L40.7141 21.0299L40.7194 21.0248C40.7456 20.9988 40.7718 20.9729 40.798 20.9469L40.8033 20.9417C40.819 20.9262 40.84 20.9106 40.861 20.8898C40.8872 20.8639 40.9187 20.8432 40.9449 20.8172C40.9606 20.8068 40.9763 20.7965 40.9921 20.7809C41.0026 20.7705 41.0131 20.7653 41.0288 20.7549C41.0445 20.7446 41.0602 20.7342 41.0812 20.7186C41.1127 20.6979 41.1441 20.6771 41.1756 20.6564C41.1861 20.6512 41.1966 20.6408 41.2123 20.6356C41.2228 20.6304 41.2333 20.62 41.249 20.6148C41.291 20.5941 41.3277 20.5733 41.3696 20.5526C41.4063 20.537 41.4378 20.5214 41.4745 20.5059C41.485 20.5007 41.4903 20.5007 41.5007 20.4955C41.5584 20.4747 41.6214 20.454 41.6843 20.4332C41.7262 20.4229 41.7629 20.4125 41.8049 20.4021C41.8311 20.3969 41.8521 20.3917 41.8783 20.3865C41.8888 20.3865 41.8993 20.3814 41.9045 20.3814C41.9255 20.3762 41.9465 20.3762 41.9674 20.371C41.9832 20.371 41.9937 20.3658 42.0094 20.3658C42.0251 20.3658 42.0409 20.3606 42.0566 20.3606H42.0618C42.0828 20.3606 42.1038 20.3554 42.1248 20.3554C42.1667 20.3554 42.2087 20.3502 42.2559 20.3502H47.4526C47.5208 20.3502 47.5837 20.3554 47.6519 20.3606C47.7043 20.3658 47.7568 20.371 47.8092 20.3814C47.8302 20.3865 47.8459 20.3865 47.8669 20.3917C47.8931 20.3969 47.9141 20.4021 47.9351 20.4073C47.9613 20.4125 47.9875 20.4177 48.0137 20.4281C48.0242 20.4332 48.04 20.4332 48.0504 20.4384C48.0714 20.4436 48.0924 20.454 48.1134 20.4592C48.1186 20.4592 48.1239 20.4644 48.1291 20.4644C48.1553 20.4747 48.1763 20.4799 48.1973 20.4903C48.234 20.5059 48.2707 20.5214 48.3074 20.537C48.3336 20.5474 48.3598 20.5578 48.3808 20.5733L48.3913 20.5785L48.4018 20.5837L48.4123 20.5889L48.4228 20.5941C48.4857 20.6252 48.5486 20.6615 48.6063 20.6979C48.622 20.7082 48.6378 20.7186 48.6535 20.729C48.664 20.7394 48.6797 20.7446 48.6902 20.7549C48.7374 20.7913 48.7846 20.8276 48.8318 20.8639C48.9052 20.9262 48.9734 20.9884 49.0363 21.0611C49.0468 21.0766 49.0625 21.087 49.073 21.1026C49.0887 21.1182 49.1045 21.1389 49.1202 21.1597C49.1464 21.1908 49.1726 21.2271 49.1936 21.2582C49.2094 21.2842 49.2303 21.3049 49.2461 21.3309C49.2618 21.3516 49.2723 21.3724 49.288 21.3932C49.3037 21.4191 49.3195 21.445 49.3352 21.471C49.3509 21.5021 49.3719 21.5384 49.3876 21.5696C49.4086 21.6111 49.4244 21.6526 49.4453 21.6993C49.4716 21.7667 49.4978 21.8394 49.5135 21.912C49.5188 21.9328 49.524 21.9535 49.5292 21.9691C49.5345 22.0002 49.545 22.0314 49.5502 22.0625C49.5502 22.0729 49.5555 22.0833 49.5555 22.0884V22.0936C49.5607 22.1248 49.5659 22.1611 49.5712 22.1922C49.5712 22.2078 49.5764 22.2234 49.5764 22.2389C49.5764 22.2597 49.5817 22.2752 49.5817 22.296V22.3012C49.5817 22.3375 49.5869 22.3686 49.5869 22.405V22.4257C49.5869 22.4361 49.5869 22.4413 49.5869 22.4517V23.8578C49.5869 23.863 49.5869 23.8734 49.5869 23.8786V23.8993C49.5869 23.9356 49.5869 23.9668 49.5817 24.0031V24.0083C49.5764 24.055 49.5712 24.1017 49.5659 24.1484C49.5607 24.1691 49.5607 24.1899 49.5555 24.2106C49.5502 24.2262 49.5502 24.247 49.545 24.2625C49.545 24.2729 49.5397 24.2781 49.5397 24.2885C49.5345 24.304 49.5345 24.3196 49.5292 24.3352C49.5292 24.3404 49.524 24.3507 49.524 24.3559C49.5188 24.3819 49.5135 24.4078 49.503 24.4286C49.4978 24.4389 49.4978 24.4493 49.4925 24.4597C49.482 24.496 49.4716 24.5323 49.4558 24.5635C49.4506 24.579 49.4453 24.5894 49.4401 24.605C49.4348 24.6154 49.4348 24.6206 49.4296 24.6309C49.4086 24.688 49.3824 24.7399 49.3562 24.797L49.3509 24.8073C49.3509 24.8125 49.3457 24.8125 49.3457 24.8177C49.309 24.8852 49.2723 24.9526 49.2303 25.0149C49.2146 25.0357 49.1989 25.0564 49.1831 25.0823C49.1674 25.1031 49.1517 25.1239 49.1359 25.1446C49.1307 25.155 49.1202 25.1602 49.115 25.1706C49.0992 25.1913 49.0835 25.2121 49.0625 25.2328C48.9944 25.3107 48.9209 25.3833 48.837 25.4508C48.7636 25.513 48.685 25.5753 48.6011 25.6272C48.5958 25.6324 48.5906 25.6324 48.5853 25.6375C48.5591 25.6531 48.5329 25.6687 48.5119 25.6842C48.4595 25.7154 48.4018 25.7413 48.3441 25.7673L48.3336 25.7725C48.3022 25.788 48.2707 25.7984 48.2392 25.814C48.2287 25.8192 48.2235 25.8192 48.213 25.8243C48.1973 25.8295 48.1868 25.8347 48.1711 25.8399L48.1553 25.8451C48.1501 25.8451 48.1448 25.8503 48.1396 25.8503C48.1186 25.8555 48.0976 25.8658 48.0767 25.871C48.0662 25.8762 48.0557 25.8762 48.0452 25.8814C48.0347 25.8866 48.0242 25.8866 48.0085 25.8918C47.9823 25.897 47.956 25.9074 47.9298 25.9125C47.8984 25.9177 47.8669 25.9281 47.8302 25.9333H47.825C47.7935 25.9385 47.762 25.9437 47.7306 25.9489C47.6991 25.9541 47.6676 25.9541 47.6362 25.9592C47.5785 25.9644 47.5156 25.9644 47.4526 25.9644H42.2559C42.2087 25.9852 42.151 25.98 42.0881 25.98Z" fill="white"/>
</g>
</mask>
<g mask="url(#mask2_5_1177)">
<path id="Vector_71" d="M49.5974 20.3606H40.1373V25.98H49.5974V20.3606Z" fill="#001C49"/>
</g>
</g>
</g>
<path id="Vector_72" fill-rule="evenodd" clip-rule="evenodd" d="M46.9911 23.2456V24.3871C45.5752 24.2159 43.9915 24.1588 42.4551 24.3871V23.2456L41.4377 22.9602L44.6838 21.7149L48.2444 22.8824L47.6728 23.0484V24.5324C47.7462 24.5687 47.7987 24.6465 47.7987 24.7296C47.7987 24.8541 47.699 24.9527 47.5732 24.9527C47.4473 24.9527 47.3477 24.8541 47.3477 24.7296C47.3477 24.631 47.4159 24.5428 47.5102 24.5168V23.0951L46.9911 23.2456Z" fill="white"/>
<path id="Vector_73" fill-rule="evenodd" clip-rule="evenodd" d="M44.8201 24.2366C44.0388 24.2262 43.2417 24.2677 42.4551 24.3871V23.2455L44.7834 23.7437L44.8201 24.2366Z" fill="#ECEDED"/>
<path id="Vector_74" fill-rule="evenodd" clip-rule="evenodd" d="M23.8285 32.7617C24.7305 32.7617 25.4646 33.4881 25.4646 34.3806C25.4646 35.2731 24.7305 35.9995 23.8285 35.9995C22.9265 35.9995 22.1924 35.2731 22.1924 34.3806C22.1924 33.4881 22.9265 32.7617 23.8285 32.7617Z" fill="#4EB2F9"/>
<path id="Vector_75" fill-rule="evenodd" clip-rule="evenodd" d="M28.2964 32.7617C29.1984 32.7617 29.9325 33.4881 29.9325 34.3806C29.9325 35.2731 29.1984 35.9995 28.2964 35.9995C27.3944 35.9995 26.6603 35.2731 26.6603 34.3806C26.6603 33.4881 27.3944 32.7617 28.2964 32.7617Z" fill="#E40013"/>
<path id="Vector_76" fill-rule="evenodd" clip-rule="evenodd" d="M32.7118 32.7617C33.6138 32.7617 34.3479 33.4881 34.3479 34.3806C34.3479 35.2731 33.6138 35.9995 32.7118 35.9995C31.8098 35.9995 31.0757 35.2731 31.0757 34.3806C31.0757 33.4881 31.8046 32.7617 32.7118 32.7617Z" fill="#4EB2F9"/>
<path id="Vector_77" fill-rule="evenodd" clip-rule="evenodd" d="M22.9109 33.9396H24.2009V34.2094H24.4264V34.1316L24.5785 33.9396H24.8249V34.8217H24.5942L24.4264 34.6816V34.5934H24.2009V34.8217H22.9109V33.9396Z" fill="white"/>
<path id="Vector_78" fill-rule="evenodd" clip-rule="evenodd" d="M32.3342 33.8046C32.3342 33.7994 32.3342 33.9032 32.3342 33.7839C32.3342 33.6593 32.5283 33.3532 32.7695 33.3532C33.0107 33.3532 33.2047 33.6593 33.2047 33.7839C33.2047 33.9084 33.2047 33.7994 33.2047 33.8046C33.2047 34.3443 33.2047 34.2197 33.2047 34.749H32.9111V35.2938H33.2047V35.4806H32.329V35.2938H32.6436V34.749H32.3342V33.8046Z" fill="white"/>
<path id="Vector_79" fill-rule="evenodd" clip-rule="evenodd" d="M28.7421 34.2146C28.4327 34.64 28.826 34.64 28.9414 34.6712C29.1406 34.7282 29.4133 34.832 29.4186 34.4896C29.4238 34.2457 29.3137 34.0952 29.0777 33.9811C28.7211 33.8046 27.9765 33.7891 27.6199 33.9396C27.3996 34.033 27.2528 34.1523 27.1899 34.3962C27.1637 34.4948 27.1741 34.666 27.2843 34.7282C27.3996 34.7957 27.5517 34.7231 27.6356 34.7075C27.7195 34.6919 27.9031 34.6815 27.9607 34.557C27.987 34.4999 27.966 34.4221 27.9502 34.3806C27.9188 34.3028 27.8821 34.282 27.8296 34.2197C28.2492 34.173 28.3016 34.1627 28.7421 34.2146Z" fill="white"/>
<path id="Vector_80" fill-rule="evenodd" clip-rule="evenodd" d="M52.1302 24.7866C49.5029 27.2824 47.7882 35.0033 44.4478 36.0462C44.4478 36.0462 44.1384 36.8193 44.2957 37.5146C44.4583 38.2099 44.7677 38.4693 44.7677 38.4693C44.7677 38.4693 47.5784 38.7236 49.9382 38.2358C51.2649 37.9608 51.4642 36.2278 51.9676 36.0306C53.3677 35.4754 54.1071 29.8716 54.1071 29.8716L52.1302 24.7866Z" fill="#4EBED9"/>
<path id="Vector_81" fill-rule="evenodd" clip-rule="evenodd" d="M44.2538 37.0683C44.2538 37.2136 44.2013 37.0943 44.301 37.5146C44.4006 37.9349 44.7729 38.4693 44.7729 38.4693C44.7729 38.4693 47.5837 38.7236 49.9435 38.2306C51.2702 37.9556 51.889 36.8971 52.3924 36.6999C53.0007 36.4561 52.6861 31.7084 53.137 31.1947L53.2052 30.9041L52.2403 27.8843C52.2403 27.8843 50.8035 35.1745 47.935 36.0514C45.0613 36.9231 44.9198 36.9179 44.2538 37.0683Z" fill="#328397"/>
<path id="Vector_82" fill-rule="evenodd" clip-rule="evenodd" d="M53.7977 15.3898C54.4742 20.2828 51.1495 21.7927 54.406 26.3225C54.406 26.3225 56.3987 24.1536 57.2535 23.998C58.1083 23.8423 58.2184 21.1908 58.2184 21.0507C58.2184 20.9158 57.458 15.6181 57.458 15.6181L53.7977 15.3898Z" fill="#001C49"/>
<path id="Vector_83" fill-rule="evenodd" clip-rule="evenodd" d="M55.7957 23.1625H60.8667C63.4152 23.1625 65.7383 24.906 66.163 27.3343C67.0021 31.9782 65.345 39.2736 65.303 39.699H52.0306L51.9729 32.274L52.1302 24.7866C52.9168 23.9149 54.5372 23.1625 55.7957 23.1625Z" fill="#7EDBF1"/>
<path id="Vector_84" fill-rule="evenodd" clip-rule="evenodd" d="M59.3668 23.1625C58.5435 25.4404 57.458 23.9149 56.4092 23.1625C56.2047 23.1625 55.8743 23.147 55.5387 23.1729C52.5497 31.89 54.1491 32.8603 55.0773 37.9608L57.9719 39.3981C58.6169 39.0089 59.5032 38.6613 60.1482 38.2721C60.2478 33.1716 58.166 33.1301 60.8718 23.1625H59.3668Z" fill="white"/>
<path id="Vector_85" fill-rule="evenodd" clip-rule="evenodd" d="M54.5686 17.7247C54.5948 18.2644 54.5109 18.7521 54.3798 19.1153C53.976 20.2672 54.8622 22.2441 56.4145 22.1144L56.4092 23.1625H56.4354C56.0526 24.4442 56.8078 25.6531 57.4003 25.6791C57.9247 25.6998 59.2986 24.8748 59.3668 23.1625L59.2147 21.4503C59.2934 21.4243 59.4455 21.0974 59.6028 21.004C59.7601 20.9106 59.9279 20.5163 59.865 20.1583C59.8021 19.8002 59.4822 19.0531 59.4822 19.0531C59.9174 17.9894 60.295 18.062 59.1675 17.4757C58.0453 16.8842 55.7747 16.9309 55.7747 16.9309L54.6 17.2785L54.5686 17.7247Z" fill="#F5C1C2"/>
<path id="Vector_86" fill-rule="evenodd" clip-rule="evenodd" d="M56.4146 22.1144L56.4093 23.1522C56.64 23.1211 57.0124 23.0328 57.4843 22.8201C58.2866 22.4517 58.5121 21.7305 58.5121 21.7305C57.8829 21.9692 57.306 22.1041 56.6296 22.1144H56.4146Z" fill="#E99090"/>
<path id="Vector_87" fill-rule="evenodd" clip-rule="evenodd" d="M48.8999 33.8617C48.8999 33.8617 47.2953 33.8461 46.7761 34.0433C46.257 34.2405 46.0682 34.5051 46.0682 34.5051L45.5385 34.6348C45.5385 34.6348 45.4389 35.0292 45.5385 35.0292C45.6382 35.0292 48.4542 35.2938 48.4542 35.2938L49.0572 35.216C49.0572 35.216 48.858 34.3287 48.9261 34.1523C48.9891 33.981 49.2932 33.7839 49.2932 33.7839L48.8999 33.8617Z" fill="#F3B0B0"/>
<path id="Vector_88" fill-rule="evenodd" clip-rule="evenodd" d="M61.7162 26.2602C62.2668 25.0461 63.9134 24.3871 64.8625 25.3262C65.5757 26.0319 65.7225 26.1305 65.7435 27.0645C65.796 29.9546 64.6003 38.1061 61.3281 38.5939C59.5347 38.8585 56.6085 39.1439 54.684 39.0816C53.9079 39.0557 53.2786 39.0868 52.9745 38.8585C51.9152 38.0698 53.4307 36.8712 53.4307 36.8712C53.4307 36.8712 59.2305 34.8113 59.907 34.6089C61.0344 34.2664 61.3333 27.1112 61.7162 26.2602Z" fill="#4EBED9"/>
<path id="Vector_89" fill-rule="evenodd" clip-rule="evenodd" d="M65.4971 26.0734C67.28 28.647 64.5164 38.1424 61.3334 38.5887C59.5399 38.8429 56.6138 39.1387 54.6893 39.0712C53.9132 39.0453 53.2839 39.0764 52.9797 38.8481C52.9797 38.8481 58.7061 38.1217 61.4278 37.3486C63.8767 36.6481 65.581 28.9117 65.4971 26.0734Z" fill="#7EDBF1"/>
<path id="Vector_90" fill-rule="evenodd" clip-rule="evenodd" d="M51.7736 36.0618C51.7736 36.0618 52.104 36.5132 52.1774 37.1151C52.2508 37.717 52.1145 38.0335 52.1145 38.0335C50.5046 38.1632 47.2796 38.0387 47.2848 38.0387C47.3949 38.0231 47.1327 37.7948 47.4788 37.6184C47.7253 37.4939 48.5486 37.4523 48.837 37.2604C50.1113 36.4198 50.9765 36.5806 51.7736 36.0618Z" fill="#E79191"/>
<path id="Vector_91" fill-rule="evenodd" clip-rule="evenodd" d="M51.1286 30.5513L39.9379 31.3089C39.4922 31.34 39.0412 31.6773 39.1304 32.1079L40.5043 38.8948C40.5934 39.3255 40.8661 39.6939 41.3119 39.6939H52.8486C53.2943 39.6939 53.7558 39.3255 53.6561 38.8948L51.9309 31.3504C51.8417 30.9249 51.5743 30.5202 51.1286 30.5513Z" fill="white"/>
<g id="Group_4">
<g id="Clip path group_4">
<mask id="mask3_5_1177" style="mask-type:luminance" maskUnits="userSpaceOnUse" x="38" y="30" width="16" height="10">
<g id="SVGID_11_">
<path id="Vector_92" d="M40.7089 39.6939C40.6984 39.6939 40.6879 39.6939 40.6774 39.6887H40.6722C40.6617 39.6887 40.6565 39.6835 40.646 39.6835C40.6302 39.6783 40.6198 39.6783 40.6093 39.6731H40.604C40.5988 39.6731 40.5935 39.6679 40.5883 39.6679C40.583 39.6679 40.5778 39.6628 40.5726 39.6628C40.5673 39.6628 40.5621 39.6576 40.5568 39.6576C40.5463 39.6524 40.5411 39.6524 40.5306 39.6472C40.5096 39.642 40.4939 39.6316 40.4782 39.6212L40.4677 39.6161C40.4519 39.6057 40.4362 39.5953 40.4152 39.5849C40.41 39.5797 40.4048 39.5797 40.3995 39.5746C40.3943 39.5694 40.389 39.5694 40.3838 39.5642C40.3785 39.559 40.368 39.5538 40.3628 39.5486C40.3523 39.5382 40.3418 39.533 40.3313 39.5227C40.2999 39.4967 40.2737 39.4708 40.2474 39.4396C40.2369 39.4293 40.2317 39.4189 40.2212 39.4085C40.216 39.4033 40.2107 39.3981 40.2055 39.3878C40.2002 39.3826 40.195 39.3722 40.1898 39.367C40.1845 39.3618 40.1845 39.3566 40.1793 39.3514C40.174 39.3411 40.1635 39.3307 40.1583 39.3203C40.153 39.3099 40.1478 39.3047 40.1426 39.2944C40.1216 39.258 40.1006 39.2217 40.0796 39.1802C40.0587 39.1387 40.0429 39.0972 40.0272 39.0557L40.0219 39.0401C40.0062 38.9934 39.9905 38.9415 39.98 38.8948L38.7529 33.5245L38.6218 32.9485L38.4907 32.3726L38.26 31.3556C38.26 31.3452 38.2547 31.3348 38.2547 31.3245V31.3193C38.2547 31.3089 38.2495 31.2985 38.2495 31.2881V31.2829C38.2442 31.2414 38.2495 31.1999 38.2547 31.1584V31.1532C38.26 31.1325 38.2652 31.1117 38.2705 31.091C38.2705 31.0858 38.2757 31.0806 38.2757 31.0754C38.2757 31.0702 38.2809 31.065 38.2809 31.0598C38.2862 31.0494 38.2862 31.0443 38.2914 31.0339C38.2967 31.0235 38.3019 31.0131 38.3072 31.0028C38.3124 30.9872 38.3229 30.9716 38.3334 30.9561C38.3439 30.9353 38.3596 30.9145 38.3753 30.899C38.3806 30.8886 38.3858 30.8834 38.3963 30.873C38.4068 30.8575 38.4225 30.8419 38.4383 30.8263L38.4435 30.8211L38.4488 30.816L38.454 30.8108C38.4697 30.7952 38.4855 30.7848 38.5012 30.7693C38.5222 30.7537 38.5431 30.7329 38.5641 30.7174C38.5694 30.7122 38.5746 30.7122 38.5799 30.707C38.5903 30.6966 38.6061 30.6914 38.6218 30.681C38.6323 30.6759 38.6428 30.6655 38.6585 30.6603C38.669 30.6551 38.6795 30.6499 38.69 30.6447L38.7005 30.6395C38.7267 30.624 38.7581 30.6136 38.7844 30.6032C38.7896 30.6032 38.7949 30.598 38.8001 30.598L38.8158 30.5928C38.8263 30.5877 38.8368 30.5877 38.8473 30.5825C38.8525 30.5825 38.8578 30.5773 38.863 30.5773H38.8683C38.8735 30.5773 38.8788 30.5721 38.884 30.5721C38.8997 30.5669 38.9155 30.5669 38.9312 30.5617C38.9417 30.5617 38.9522 30.5565 38.9627 30.5565C38.9784 30.5565 38.9994 30.5513 39.0151 30.5513H39.0308C39.0413 30.5513 39.0518 30.5513 39.0571 30.5513H50.5938C50.6042 30.5513 50.6095 30.5513 50.62 30.5513H50.6357C50.6514 30.5513 50.6724 30.5565 50.6882 30.5565C50.6986 30.5565 50.7091 30.5617 50.7196 30.5617C50.7406 30.5669 50.7616 30.5721 50.7825 30.5773H50.7878C50.8088 30.5825 50.8245 30.5877 50.8455 30.598C50.8507 30.6032 50.8612 30.6032 50.8664 30.6084C50.8927 30.6188 50.9136 30.6292 50.9346 30.6447C50.9451 30.6499 50.9504 30.6551 50.9608 30.6603C50.9661 30.6655 50.9713 30.6655 50.9766 30.6707C50.9975 30.6862 51.0185 30.7018 51.0395 30.7174C51.0762 30.7485 51.1077 30.7796 51.1391 30.816C51.1549 30.8367 51.1758 30.8575 51.1916 30.8782C51.2335 30.9405 51.2702 31.0028 51.3017 31.0754C51.3122 31.0962 51.3174 31.1169 51.3279 31.1377C51.3332 31.1532 51.3384 31.1636 51.3436 31.1792C51.3489 31.1947 51.3541 31.2103 51.3594 31.2259C51.3751 31.2674 51.3856 31.3141 51.3961 31.3556L53.1213 38.9C53.1213 38.9104 53.1266 38.9208 53.1266 38.9311V38.9363C53.1266 38.9467 53.1318 38.9571 53.1318 38.9675C53.1371 38.9986 53.1318 39.0297 53.1318 39.0557C53.1318 39.0661 53.1318 39.0764 53.1266 39.092V39.0972C53.1266 39.1128 53.1214 39.1283 53.1161 39.1439C53.1109 39.1543 53.1109 39.1646 53.1056 39.175C53.1004 39.1906 53.0951 39.201 53.0899 39.2165C53.0899 39.2217 53.0846 39.2217 53.0846 39.2269C53.0742 39.2477 53.0637 39.2684 53.0532 39.284C53.0479 39.2944 53.0427 39.2995 53.0374 39.3099C53.0322 39.3203 53.0217 39.3307 53.0165 39.3411C53.0112 39.3462 53.006 39.3566 53.0007 39.3618C52.9955 39.3722 52.985 39.3774 52.9798 39.3878C52.9535 39.4189 52.9273 39.4448 52.8959 39.4708L52.8906 39.476C52.8696 39.4915 52.8487 39.5123 52.8277 39.5279C52.8224 39.533 52.8172 39.533 52.812 39.5382C52.8015 39.5434 52.791 39.5538 52.7805 39.559C52.77 39.5642 52.7648 39.5694 52.7543 39.5746L52.7438 39.5797C52.7228 39.5901 52.6966 39.6057 52.6756 39.6161L52.6651 39.6212C52.6494 39.6264 52.6337 39.6368 52.6127 39.642C52.6074 39.642 52.6022 39.6472 52.597 39.6472C52.5917 39.6472 52.5865 39.6524 52.5865 39.6524C52.576 39.6576 52.5655 39.6576 52.555 39.6628C52.5498 39.6628 52.5445 39.6679 52.5393 39.6679C52.534 39.6679 52.5288 39.6731 52.5235 39.6731H52.5183C52.5131 39.6731 52.5078 39.6783 52.4973 39.6783C52.4921 39.6783 52.4816 39.6835 52.4763 39.6835C52.4659 39.6835 52.4606 39.6887 52.4501 39.6887H52.4449C52.4344 39.6887 52.4239 39.6939 52.4082 39.6939C52.3767 39.6991 52.3505 39.6991 52.319 39.6991H40.798C40.7666 39.6991 40.7404 39.6939 40.7089 39.6939Z" fill="white"/>
</g>
</mask>
<g mask="url(#mask3_5_1177)">
<path id="Vector_93" d="M53.1583 30.5513H38.2498V39.6991H53.1583V30.5513Z" fill="#102B6E"/>
</g>
</g>
</g>
<path id="Vector_94" fill-rule="evenodd" clip-rule="evenodd" d="M45.4599 34.3754C45.1138 34.4843 44.9355 34.9098 45.0718 35.3249C45.2082 35.74 45.5962 35.9839 45.9476 35.8749C46.2937 35.766 46.4719 35.3405 46.3356 34.9254C46.1993 34.5103 45.8112 34.2664 45.4599 34.3754Z" fill="#EDF3F7"/>
<path id="Vector_95" fill-rule="evenodd" clip-rule="evenodd" d="M59.1361 38.9519H53.2786L52.8539 39.6991H59.5137V39.3255C59.5137 39.1179 59.3459 38.9519 59.1361 38.9519Z" fill="#102B6E"/>
<path id="Vector_96" fill-rule="evenodd" clip-rule="evenodd" d="M57.6416 17.2577C57.6416 17.2577 54.941 17.9582 53.4202 17.045C52.4239 16.3601 52.3085 14.9747 53.7716 13.9525C55.6542 12.6346 59.2673 13.0237 60.6569 15.12C61.1394 15.8516 61.6218 17.128 62.1986 18.4252C63.5358 21.4451 67.107 19.5564 68.1295 24.6206C68.1767 24.8541 67.3272 24.3248 66.5721 24.138C67.2958 25.7984 66.3361 27.0333 66.1473 27.2668C65.3345 23.5984 61.9574 23.4583 59.3669 23.1625C58.9841 22.8097 58.9264 21.8186 58.9264 21.3257C58.9264 21.3257 59.7078 20.7809 59.671 20.1531C59.6343 19.52 59.4508 19.5408 59.3774 19.5512C59.304 19.5667 58.8845 19.8054 58.8845 19.8054C58.7376 18.9856 58.7743 17.3511 57.6416 17.2577Z" fill="#001C49"/>
<path id="Vector_97" fill-rule="evenodd" clip-rule="evenodd" d="M59.0417 20.6356C59.2043 20.6356 59.3406 20.7653 59.3406 20.9314C59.3406 21.0922 59.2095 21.2271 59.0417 21.2271C58.8791 21.2271 58.7428 21.0974 58.7428 20.9314C58.7428 20.7653 58.8791 20.6356 59.0417 20.6356Z" fill="white"/>
<g id="Group_5">
<g id="Clip path group_5">
<mask id="mask4_5_1177" style="mask-type:luminance" maskUnits="userSpaceOnUse" x="60" y="34" width="7" height="6">
<g id="SVGID_14_">
<path id="Vector_98" d="M64.8048 36.067V38.2255C64.8887 38.2462 64.9726 38.2566 65.0617 38.2566C65.5285 38.2566 65.9322 37.9764 66.1001 37.5769C66.1577 37.442 66.1892 37.2967 66.1892 37.1462C66.1892 36.534 65.6858 36.0358 65.0617 36.0358C64.9726 36.0358 64.8887 36.0462 64.8048 36.067ZM62.0832 39.6939H62.0622C62.0465 39.6939 62.0307 39.6887 62.015 39.6887H62.0098C61.9993 39.6887 61.9888 39.6835 61.9783 39.6835H61.9731C61.9626 39.6835 61.9573 39.6835 61.9468 39.6783H61.9416C61.9259 39.6731 61.9101 39.6731 61.8944 39.6679C61.8892 39.6679 61.8839 39.668 61.8787 39.6628H61.8734C61.8682 39.6628 61.8629 39.6628 61.8577 39.6576H61.8525C61.8472 39.6576 61.842 39.6524 61.8367 39.6524H61.8315C61.8262 39.6524 61.821 39.6472 61.8157 39.6472C61.7895 39.642 61.7633 39.6316 61.7423 39.6212H61.7371L61.7266 39.6161L61.7161 39.6109C61.7056 39.6057 61.7004 39.6057 61.6899 39.6005C61.6794 39.5953 61.6689 39.5901 61.6532 39.5849L61.6427 39.5797L61.6322 39.5746L61.6217 39.5694H61.6165L61.6112 39.5642H61.606C61.585 39.5538 61.5693 39.5434 61.5483 39.533C61.5378 39.5279 61.5326 39.5227 61.5221 39.5175C61.5116 39.5123 61.5063 39.5071 61.4959 39.5019C61.4906 39.4967 61.4854 39.4967 61.4801 39.4915C61.4592 39.4812 61.4382 39.4656 61.4224 39.45C61.4172 39.4448 61.4067 39.4396 61.4015 39.4345C61.3962 39.4293 61.391 39.4241 61.3805 39.4189C61.3595 39.4033 61.3385 39.3878 61.3176 39.367L61.3123 39.3618L61.3071 39.3566L61.3018 39.3514C61.2756 39.3255 61.2494 39.3047 61.2284 39.2788L61.2232 39.2736L61.2179 39.2684L61.2127 39.2632C61.197 39.2425 61.176 39.2217 61.1603 39.2061C61.155 39.201 61.1498 39.1958 61.1445 39.1854C61.1393 39.1802 61.134 39.175 61.1288 39.1646C61.1183 39.1543 61.113 39.1439 61.1026 39.1283C61.0973 39.1231 61.0973 39.1179 61.0921 39.1128C61.0868 39.1076 61.0816 39.0972 61.0763 39.0868C61.0711 39.0816 61.0711 39.0764 61.0659 39.0712L61.0606 39.0609C61.0554 39.0505 61.0501 39.0453 61.0449 39.0349C61.0291 39.009 61.0187 38.983 61.0029 38.9571V38.9519L60.9977 38.9467L60.9924 38.9363L60.9872 38.926C60.982 38.9156 60.982 38.9104 60.9767 38.9C60.9715 38.8948 60.9715 38.8844 60.9662 38.8741L60.961 38.8637V38.8585L60.9557 38.8481L60.9505 38.8326L60.9452 38.817L60.94 38.8014L60.9348 38.7859C60.9348 38.7807 60.9295 38.7755 60.9295 38.7703V38.7651C60.9295 38.7599 60.9243 38.7547 60.9243 38.7495V38.7599C60.9243 38.7547 60.9243 38.7495 60.919 38.7444C60.919 38.7392 60.9138 38.734 60.9138 38.7236C60.9085 38.708 60.9085 38.6925 60.9033 38.6821C60.9033 38.6717 60.8981 38.6665 60.8981 38.6561V38.651C60.8981 38.6406 60.8928 38.6354 60.8928 38.625V38.6146C60.8928 38.6043 60.8928 38.5991 60.8876 38.5887V38.5835C60.8876 38.5679 60.8823 38.5524 60.8823 38.5368V38.516C60.8823 38.4901 60.8771 38.459 60.8771 38.4278V34.7542H64.7996V35.5533C64.81 35.5533 64.8258 35.5481 64.8363 35.5481H64.8415C64.852 35.5481 64.8677 35.5429 64.8782 35.5429H64.8887C64.9044 35.5429 64.9202 35.5377 64.9359 35.5377H64.9464C64.9831 35.5377 65.0198 35.5325 65.0565 35.5325C65.088 35.5325 65.1194 35.5325 65.1457 35.5325H65.1719C65.2033 35.5325 65.2296 35.5377 65.261 35.5429H65.2715C65.282 35.5429 65.2872 35.5429 65.2977 35.5481H65.3082C65.3187 35.5481 65.324 35.5533 65.3344 35.5533H65.3397C65.3502 35.5533 65.3554 35.5585 65.3659 35.5585C65.3816 35.5637 65.3974 35.5637 65.4131 35.5688C65.4183 35.5688 65.4288 35.574 65.4341 35.574L65.4498 35.5792H65.455L65.4655 35.5844H65.4708L65.4865 35.5896H65.4918L65.5075 35.5948C65.518 35.6 65.5285 35.6 65.539 35.6052C65.5442 35.6052 65.5494 35.6104 65.5547 35.6104C65.5599 35.6104 65.5652 35.6155 65.5704 35.6155C65.5757 35.6155 65.5809 35.6207 65.5861 35.6207L65.5966 35.6259H65.6019L65.6124 35.6311H65.6176L65.6281 35.6363L65.6438 35.6415L65.6543 35.6467H65.6596L65.6701 35.6519C65.6805 35.6571 65.6963 35.6622 65.7068 35.6674L65.7172 35.6726L65.7277 35.6778H65.733C65.7435 35.683 65.754 35.6882 65.7644 35.6934C65.7697 35.6934 65.7697 35.6986 65.7749 35.6986L65.7854 35.7038L65.7959 35.7089L65.8064 35.7141C65.8221 35.7245 65.8379 35.7297 65.8536 35.7401L65.8641 35.7453C65.8693 35.7505 65.8746 35.7504 65.8798 35.7556H65.8851L65.8903 35.7608C65.8955 35.766 65.9008 35.766 65.906 35.7712H65.9113L65.9165 35.7764L65.9323 35.7868C65.9375 35.792 65.948 35.7971 65.9532 35.8023C65.969 35.8127 65.9847 35.8231 66.0057 35.8387C66.0109 35.8438 66.0162 35.8438 66.0214 35.849L66.0266 35.8542L66.0424 35.8646L66.0476 35.8698C66.0529 35.875 66.0581 35.875 66.0634 35.8802L66.0686 35.8854C66.0738 35.8905 66.0791 35.8957 66.0896 35.9009C66.1001 35.9113 66.1105 35.9165 66.121 35.9269L66.1263 35.9321L66.1315 35.9372C66.142 35.9476 66.1525 35.958 66.163 35.9684L66.1682 35.9736L66.1735 35.9788L66.1787 35.9839L66.184 35.9891C66.2049 36.0047 66.2207 36.0255 66.2364 36.041L66.2416 36.0462L66.2469 36.0514L66.2521 36.0566L66.2574 36.0618L66.2626 36.067C66.2731 36.0773 66.2836 36.0877 66.2941 36.1033L66.2993 36.1085C66.3098 36.1189 66.3151 36.1292 66.3255 36.1396C66.3308 36.1448 66.336 36.15 66.3413 36.1604L66.3465 36.1655L66.357 36.1759L66.3623 36.1811C66.3675 36.1863 66.3675 36.1915 66.3727 36.1915L66.378 36.1967C66.3832 36.2019 66.3832 36.2071 66.3885 36.2122C66.3937 36.2174 66.399 36.2278 66.4042 36.233C66.4095 36.2434 66.4199 36.2538 66.4252 36.2641C66.4304 36.2693 66.4304 36.2745 66.4357 36.2797L66.4409 36.2849V36.2901L66.4514 36.3056C66.4566 36.3108 66.4566 36.316 66.4619 36.3212L66.4671 36.3316C66.4724 36.3368 66.4724 36.342 66.4776 36.3472L66.4829 36.3575C66.4934 36.3731 66.4986 36.3887 66.5091 36.4042L66.5143 36.4146L66.5196 36.425L66.5248 36.4354L66.5301 36.4457L66.5353 36.4561L66.5405 36.4665C66.5458 36.4821 66.5563 36.4976 66.5615 36.508L66.5668 36.5184C66.572 36.5288 66.572 36.5339 66.5773 36.5443C66.5773 36.5495 66.5825 36.5495 66.5825 36.5547V36.5599L66.5877 36.5703L66.593 36.5806V36.5858C66.593 36.591 66.5982 36.591 66.5982 36.5962V36.6014L66.6035 36.6118L66.6087 36.6273L66.614 36.6429L66.6192 36.6585C66.6245 36.674 66.6297 36.6896 66.6349 36.7052V36.7104C66.6349 36.7156 66.6402 36.7207 66.6402 36.7259V36.7311L66.6454 36.7467V36.7519C66.6454 36.7571 66.6454 36.7623 66.6507 36.7674V36.7726L66.6559 36.7882V36.7934C66.6612 36.8141 66.6664 36.8349 66.6716 36.8557V36.8608C66.6716 36.866 66.6769 36.8764 66.6769 36.8816V36.8868C66.6769 36.8972 66.6769 36.9024 66.6821 36.9127V36.9231C66.6821 36.9335 66.6821 36.9387 66.6874 36.949V36.9542C66.6874 36.9698 66.6926 36.9802 66.6926 36.9957V37.0009C66.6926 37.0217 66.6979 37.0424 66.6979 37.0632V37.0995C66.6979 37.1151 66.6979 37.1307 66.6979 37.1514C66.6979 37.167 66.6979 37.1825 66.6979 37.2033V37.2448C66.6979 37.2656 66.6926 37.2863 66.6926 37.3071V37.3123C66.6926 37.3278 66.6874 37.3382 66.6874 37.3538V37.359C66.6874 37.3693 66.6874 37.3745 66.6821 37.3849V37.3953C66.6821 37.4057 66.6821 37.4108 66.6769 37.4212V37.4264C66.6769 37.4316 66.6769 37.442 66.6716 37.4472V37.4524C66.6664 37.4731 66.6612 37.4939 66.6559 37.5146V37.5198C66.6559 37.525 66.6559 37.5302 66.6507 37.5354V37.5406C66.6507 37.5458 66.6507 37.5509 66.6454 37.5561V37.5613L66.6402 37.5769V37.5821C66.6402 37.5873 66.6349 37.5925 66.6349 37.5976V37.6028C66.6297 37.6184 66.6245 37.634 66.6192 37.6495L66.614 37.6651L66.6087 37.6807L66.6035 37.6962L66.5982 37.7066V37.7118C66.5982 37.717 66.593 37.717 66.593 37.7222V37.7274L66.5877 37.7377L66.5825 37.7481V37.7533C66.5825 37.7585 66.5773 37.7585 66.5773 37.7637C66.572 37.7741 66.572 37.7792 66.5668 37.7896C66.5563 37.8104 66.551 37.8259 66.5405 37.8467L66.5353 37.8571L66.5301 37.8675L66.5248 37.8778L66.5196 37.8882L66.5143 37.8986L66.5091 37.909C66.4986 37.9245 66.4934 37.9401 66.4829 37.9557C66.4829 37.9609 66.4776 37.9609 66.4776 37.966C66.4724 37.9712 66.4724 37.9764 66.4671 37.9816L66.4619 37.992L66.4514 38.0076L66.4409 38.0231V38.0283L66.4357 38.0335C66.4304 38.0387 66.4304 38.0439 66.4252 38.0491C66.4199 38.0594 66.4095 38.0698 66.4042 38.0802C66.399 38.0854 66.3937 38.0958 66.3885 38.1009C66.3832 38.1061 66.3832 38.1113 66.378 38.1165L66.3727 38.1217C66.3675 38.1269 66.3675 38.1321 66.3623 38.1321L66.357 38.1373L66.3465 38.1476L66.3413 38.1528C66.336 38.158 66.3308 38.1632 66.3255 38.1736C66.3151 38.184 66.3098 38.1943 66.2993 38.2047L66.2941 38.2099C66.2836 38.2203 66.2731 38.2307 66.2626 38.2462L66.2574 38.2514L66.2521 38.2566L66.2469 38.2618L66.2416 38.267L66.2364 38.2722C66.2207 38.2929 66.1997 38.3085 66.184 38.3241L66.1787 38.3293L66.1735 38.3344L66.1682 38.3396L66.163 38.3448C66.1525 38.3552 66.142 38.3656 66.1315 38.376L66.1263 38.3811L66.121 38.3863C66.1105 38.3967 66.1001 38.4019 66.0896 38.4123C66.0843 38.4175 66.0791 38.4227 66.0686 38.4278L66.0634 38.433C66.0581 38.4382 66.0529 38.4382 66.0476 38.4434L66.0424 38.4486L66.0266 38.459L66.0214 38.4642L66.0057 38.4745C65.9899 38.4849 65.9742 38.4953 65.9532 38.5109C65.948 38.516 65.9427 38.516 65.9375 38.5212L65.927 38.5264L65.9113 38.5368L65.906 38.542H65.9008C65.8955 38.5472 65.8903 38.5472 65.8851 38.5524L65.8798 38.5576H65.8746C65.8693 38.5627 65.8641 38.5627 65.8588 38.5679L65.8483 38.5731C65.8326 38.5835 65.8169 38.5887 65.8012 38.5991L65.7907 38.6043L65.7802 38.6094L65.7697 38.6146L65.7592 38.6198C65.7487 38.625 65.7382 38.6302 65.7277 38.6354H65.7225L65.712 38.6406L65.7015 38.6458C65.691 38.651 65.6805 38.6561 65.6648 38.6613L65.6543 38.6665H65.6491L65.6386 38.6717L65.6229 38.6769L65.6124 38.6821H65.6071L65.5966 38.6873H65.5914L65.5809 38.6925C65.5757 38.6925 65.5704 38.6977 65.5652 38.6977C65.5599 38.6977 65.5547 38.7028 65.5494 38.7028L65.5337 38.708C65.5232 38.7132 65.5127 38.7132 65.5022 38.7184H65.497L65.4813 38.7236H65.476L65.4603 38.7288H65.455L65.4446 38.734H65.4393C65.4341 38.734 65.4288 38.7392 65.4236 38.7392C65.4183 38.7392 65.4131 38.7444 65.4026 38.7444C65.3869 38.7495 65.3711 38.7495 65.3554 38.7547H65.3502C65.3397 38.7547 65.3344 38.7599 65.3239 38.7599H65.3187C65.3082 38.7599 65.303 38.7651 65.2925 38.7651H65.282C65.2715 38.7651 65.2663 38.7651 65.2558 38.7703H65.2453C65.2138 38.7755 65.1876 38.7755 65.1561 38.7807H65.1247C65.0932 38.7807 65.0617 38.7807 65.0355 38.7807C65.0041 38.7807 64.9726 38.7807 64.9411 38.7755H64.9149C64.8992 38.7755 64.8782 38.7703 64.8625 38.7703H64.8572C64.8468 38.7703 64.8363 38.7703 64.8258 38.7651H64.8153C64.8048 38.7651 64.7996 38.7651 64.7891 38.7599H64.7786C64.7628 38.7599 64.7471 38.7547 64.7366 38.7547C64.7314 38.7703 64.7314 38.7807 64.7261 38.7962L64.7209 38.8118V38.817C64.7156 38.8429 64.7052 38.8637 64.6947 38.8896C64.6894 38.9 64.6894 38.9052 64.6842 38.9156C64.6789 38.926 64.6789 38.9311 64.6737 38.9415C64.6685 38.9571 64.658 38.9727 64.6527 38.9882L64.6475 38.9986L64.6422 39.009L64.637 39.0194L64.6317 39.0297L64.6265 39.0401C64.616 39.0557 64.6108 39.0712 64.6003 39.0868C64.595 39.0972 64.5898 39.1024 64.5846 39.1128C64.5741 39.1335 64.5636 39.1491 64.5478 39.1698C64.5426 39.175 64.5374 39.1854 64.5321 39.1906C64.5269 39.1958 64.5269 39.201 64.5216 39.2061C64.5164 39.2113 64.5111 39.2217 64.5059 39.2269C64.4954 39.2425 64.4797 39.258 64.4639 39.2788L64.4587 39.284C64.4115 39.3359 64.3643 39.3878 64.3066 39.4345C64.2856 39.4552 64.2594 39.4708 64.2385 39.4915C64.2332 39.4967 64.2227 39.5019 64.2175 39.5071C64.2017 39.5175 64.186 39.5279 64.1703 39.5382C64.165 39.5434 64.1598 39.5434 64.1545 39.5486C64.1441 39.5538 64.1388 39.559 64.1283 39.5642C64.0759 39.5953 64.0235 39.6213 63.9658 39.642C63.9605 39.6472 63.95 39.6472 63.9448 39.6524C63.9343 39.6576 63.9291 39.6576 63.9186 39.6628C63.8976 39.668 63.8819 39.6783 63.8609 39.6835L63.8452 39.6887C63.8189 39.6939 63.798 39.7043 63.7717 39.7095C63.7665 39.7095 63.756 39.7146 63.7508 39.7146H63.7455C63.7403 39.7146 63.7298 39.7198 63.7245 39.7198C63.7036 39.725 63.6878 39.725 63.6669 39.7302H63.6616C63.6511 39.7302 63.6406 39.7354 63.6302 39.7354H63.6249C63.6092 39.7354 63.5934 39.7406 63.5777 39.7406H63.5725C63.541 39.7406 63.5095 39.7458 63.4781 39.7458H62.1356C62.1356 39.6991 62.1094 39.6939 62.0832 39.6939Z" fill="white"/>
</g>
</mask>
<g mask="url(#mask4_5_1177)">
<path id="Vector_99" d="M66.6979 34.7594H60.8823V39.6939H66.6979V34.7594Z" fill="url(#paint2_linear_5_1177)"/>
</g>
</g>
</g>
<g id="Group_6">
<g id="Clip path group_6">
<mask id="mask5_5_1177" style="mask-type:luminance" maskUnits="userSpaceOnUse" x="60" y="34" width="4" height="6">
<g id="SVGID_17_">
<path id="Vector_100" d="M63.8084 39.0764L63.8032 39.0868C63.798 39.092 63.798 39.0972 63.7927 39.1024C63.7822 39.1179 63.7717 39.1335 63.7613 39.1439L63.7508 39.1595L63.7455 39.1646C63.7403 39.1698 63.7403 39.175 63.735 39.1802L63.7298 39.1854C63.7245 39.1906 63.7193 39.1958 63.7141 39.201C63.6983 39.2217 63.6826 39.2425 63.6616 39.258L63.6564 39.2632L63.6511 39.2684L63.6459 39.2736C63.6197 39.2996 63.5987 39.3255 63.5725 39.3462L63.5672 39.3514L63.562 39.3566C63.541 39.3774 63.52 39.3929 63.4938 39.4137C63.4886 39.4189 63.4833 39.4189 63.4833 39.4241L63.4781 39.4293C63.4728 39.4345 63.4676 39.4345 63.4676 39.4396L63.4623 39.4448C63.4571 39.45 63.4519 39.45 63.4466 39.4552C63.4309 39.4656 63.4151 39.476 63.4047 39.4863C63.3994 39.4915 63.3942 39.4915 63.3889 39.4967C63.3784 39.5019 63.3732 39.5071 63.3627 39.5123C63.3522 39.5175 63.347 39.5227 63.3365 39.5279C63.3103 39.5434 63.2788 39.559 63.2473 39.5746H63.2421L63.2316 39.5797L63.2211 39.5849C63.2106 39.5901 63.2001 39.5953 63.1844 39.6005C63.1792 39.6005 63.1739 39.6057 63.1739 39.6057H63.1687L63.1582 39.6109C63.153 39.6109 63.1477 39.6161 63.1425 39.6161C63.1372 39.6161 63.132 39.6212 63.132 39.6212H63.1267C63.1058 39.6264 63.09 39.6368 63.069 39.642C63.0638 39.642 63.0586 39.6472 63.0533 39.6472C63.0481 39.6472 63.0428 39.6524 63.0376 39.6524C63.0323 39.6524 63.0271 39.6576 63.0219 39.6576H63.0166C63.0114 39.6576 63.0061 39.6628 63.0009 39.6628C62.9956 39.6628 62.9851 39.6679 62.9799 39.6679C62.9694 39.6679 62.9642 39.6731 62.9537 39.6731C62.9432 39.6731 62.9379 39.6783 62.9275 39.6783H62.917C62.9117 39.6783 62.9012 39.6783 62.896 39.6835H62.8908C62.8803 39.6835 62.8698 39.6887 62.8593 39.6887H62.854C62.8383 39.6887 62.8226 39.6939 62.8068 39.6939H62.7806C62.7544 39.6939 62.7282 39.6939 62.7072 39.6939H62.1723C62.1461 39.6939 62.1199 39.6939 62.0937 39.6939M62.0832 39.6939H62.0622C62.0465 39.6939 62.0307 39.6887 62.015 39.6887H62.0098C61.9993 39.6887 61.9888 39.6835 61.9783 39.6835H61.9731C61.9626 39.6835 61.9573 39.6835 61.9468 39.6783H61.9416C61.9259 39.6731 61.9101 39.6731 61.8944 39.6679C61.8892 39.6679 61.8839 39.668 61.8787 39.6628H61.8734C61.8682 39.6628 61.8629 39.6628 61.8577 39.6576H61.8525C61.8472 39.6576 61.842 39.6524 61.8367 39.6524H61.8315C61.8262 39.6524 61.821 39.6472 61.8157 39.6472C61.7895 39.642 61.7633 39.6316 61.7423 39.6212H61.7371L61.7266 39.6161L61.7161 39.6109C61.7056 39.6057 61.7004 39.6057 61.6899 39.6005C61.6794 39.5953 61.6689 39.5901 61.6532 39.5849L61.6427 39.5797L61.6322 39.5746L61.6217 39.5694H61.6165L61.6112 39.5642H61.606C61.585 39.5538 61.5693 39.5434 61.5483 39.533C61.5378 39.5279 61.5326 39.5227 61.5221 39.5175C61.5116 39.5123 61.5063 39.5071 61.4959 39.5019C61.4906 39.4967 61.4854 39.4967 61.4801 39.4915C61.4592 39.4812 61.4382 39.4656 61.4224 39.45C61.4172 39.4448 61.4067 39.4396 61.4015 39.4345C61.3962 39.4293 61.391 39.4241 61.3805 39.4189C61.3595 39.4033 61.3385 39.3878 61.3176 39.367L61.3123 39.3618L61.3071 39.3566L61.3018 39.3514C61.2756 39.3255 61.2494 39.3047 61.2284 39.2788L61.2232 39.2736L61.2179 39.2684L61.2127 39.2632C61.197 39.2425 61.176 39.2217 61.1603 39.2062C61.155 39.201 61.1498 39.1958 61.1445 39.1854C61.1393 39.1802 61.134 39.175 61.1288 39.1646C61.1183 39.1543 61.113 39.1439 61.1026 39.1283C61.0973 39.1231 61.0973 39.1179 61.0921 39.1128C61.0868 39.1076 61.0816 39.0972 61.0763 39.0868C61.0711 39.0816 61.0711 39.0764 61.0659 39.0712L61.0606 39.0609C61.0554 39.0505 61.0501 39.0453 61.0449 39.0349C61.0291 39.009 61.0187 38.983 61.0029 38.9571V38.9519L60.9977 38.9467L60.9924 38.9363L60.9872 38.926C60.982 38.9156 60.982 38.9104 60.9767 38.9C60.9715 38.8948 60.9715 38.8844 60.9662 38.8741L60.961 38.8637V38.8585L60.9557 38.8481L60.9505 38.8326L60.9452 38.817L60.94 38.8014L60.9348 38.7859C60.9348 38.7807 60.9295 38.7755 60.9295 38.7703V38.7651C60.9295 38.7599 60.9243 38.7547 60.9243 38.7495V38.7599C60.9243 38.7547 60.9243 38.7495 60.919 38.7444C60.919 38.7392 60.9138 38.734 60.9138 38.7236C60.9085 38.708 60.9085 38.6925 60.9033 38.6821C60.9033 38.6717 60.8981 38.6665 60.8981 38.6561V38.651C60.8981 38.6406 60.8928 38.6354 60.8928 38.625V38.6146C60.8928 38.6043 60.8928 38.5991 60.8876 38.5887V38.5835C60.8876 38.5679 60.8823 38.5524 60.8823 38.5368V38.516C60.8823 38.4901 60.8771 38.459 60.8771 38.4278V34.7542H63.992V38.4019C63.992 38.4227 63.992 38.4434 63.992 38.459V38.4849C63.992 38.516 63.9867 38.542 63.9815 38.5731V38.5835C63.9815 38.5939 63.9763 38.6043 63.9763 38.6094V38.6146C63.9763 38.625 63.971 38.6302 63.971 38.6406C63.9658 38.6561 63.9658 38.6717 63.9605 38.6873C63.9605 38.6925 63.9605 38.6977 63.9553 38.7028V38.708C63.9553 38.7132 63.9553 38.7184 63.95 38.7236V38.7288C63.95 38.734 63.9448 38.7392 63.9448 38.7444V38.7495C63.9448 38.7547 63.9395 38.7599 63.9395 38.7651C63.9343 38.7807 63.9291 38.7962 63.9238 38.8118C63.9238 38.817 63.9186 38.8222 63.9186 38.8222C63.9186 38.8274 63.9133 38.8326 63.9133 38.8378L63.9081 38.8481V38.8533L63.9028 38.8637C63.8976 38.8844 63.8871 38.9052 63.8766 38.9208L63.8714 38.9311L63.8661 38.9415V38.9467L63.8609 38.9519V38.9571L63.8556 38.9623V38.9675C63.8399 38.9934 63.8242 39.0245 63.8084 39.0505L62.0832 39.6939Z" fill="white"/>
</g>
</mask>
<g mask="url(#mask5_5_1177)">
<path id="Vector_101" d="M63.9972 34.7594H60.8823V39.6939H63.9972V34.7594Z" fill="#001C49"/>
</g>
</g>
</g>
<path id="Vector_102" fill-rule="evenodd" clip-rule="evenodd" d="M61.5168 35.3716C61.6794 35.3716 61.8105 35.5014 61.8105 35.6622V38.049C61.8105 38.2099 61.6794 38.3396 61.5168 38.3396C61.3542 38.3396 61.2231 38.2099 61.2231 38.049V35.6622C61.2231 35.5014 61.3542 35.3716 61.5168 35.3716Z" fill="#F5FAFF"/>
<path id="Vector_103" fill-rule="evenodd" clip-rule="evenodd" d="M62.3297 31.0183C61.9155 33.1924 62.8646 33.4882 62.8803 34.5155C62.5342 34.5155 62.1881 34.5155 61.8368 34.5155C62.2773 33.1976 61.5169 32.3103 62.3297 31.0183Z" fill="#F5FAFF"/>
<path id="Vector_104" fill-rule="evenodd" clip-rule="evenodd" d="M63.2317 32.6943C63.132 33.7009 63.8505 33.8929 63.7351 34.5155C63.5358 34.5155 63.3313 34.5155 63.132 34.5155C63.2736 33.758 62.8961 33.2443 63.2317 32.6943Z" fill="#F5FAFF"/>
<path id="Vector_105" fill-rule="evenodd" clip-rule="evenodd" d="M30.1894 7.09821H36.5451C36.7706 7.09821 36.9489 7.27981 36.9489 7.49774C36.9489 7.72085 36.7654 7.89727 36.5451 7.89727H30.1894C29.9639 7.89727 29.7856 7.71567 29.7856 7.49774C29.7856 7.27981 29.9692 7.09821 30.1894 7.09821Z" fill="white"/>
<path id="Vector_106" fill-rule="evenodd" clip-rule="evenodd" d="M37.5782 7.10858C37.7985 7.10858 37.9715 7.285 37.9715 7.49774C37.9715 7.71566 37.7932 7.88689 37.5782 7.88689C37.358 7.88689 37.1849 7.71048 37.1849 7.49774C37.1849 7.285 37.3632 7.10858 37.5782 7.10858Z" fill="white"/>
<path id="Vector_107" fill-rule="evenodd" clip-rule="evenodd" d="M12.2919 38.1528C12.5121 38.1528 12.6852 38.3708 12.6852 38.6406C12.6852 38.9104 12.5069 39.1283 12.2919 39.1283C12.0716 39.1283 11.8986 38.9104 11.8986 38.6406C11.8986 38.3708 12.0769 38.1528 12.2919 38.1528Z" fill="#102B6E"/>
</g>
<defs>
<linearGradient id="paint0_linear_5_1177" x1="21.1666" y1="43.6673" x2="29.1583" y2="-2.39544" gradientUnits="userSpaceOnUse">
<stop stop-color="#2490FF"/>
<stop offset="1" stop-color="#FCFCFC"/>
</linearGradient>
<linearGradient id="paint1_linear_5_1177" x1="29.5498" y1="40.1465" x2="29.616" y2="35.7776" gradientUnits="userSpaceOnUse">
<stop stop-color="#2490FF"/>
<stop offset="1" stop-color="#FCFCFC"/>
</linearGradient>
<linearGradient id="paint2_linear_5_1177" x1="62.9253" y1="40.6523" x2="65.5665" y2="29.9452" gradientUnits="userSpaceOnUse">
<stop stop-color="#B8E3FF"/>
<stop offset="1" stop-color="#FCFCFC"/>
</linearGradient>
<clipPath id="clip0_5_1177">
<rect width="69" height="40" fill="white"/>
</clipPath>
</defs>
</svg>
