<svg width="26" height="26" viewBox="0 0 26 26" fill="none" xmlns="http://www.w3.org/2000/svg">
<g id="Frame">
<g id="Group">
<path id="Vector" d="M23.9688 8.78732L13.2884 4.27388C13.2062 4.23879 13.1178 4.2207 13.0284 4.2207C12.9391 4.2207 12.8506 4.23879 12.7684 4.27388L2.03125 8.77107C1.91066 8.82471 1.8082 8.91217 1.7363 9.02284C1.6644 9.13352 1.62613 9.26268 1.62613 9.39466C1.62613 9.52665 1.6644 9.6558 1.7363 9.76648C1.8082 9.87716 1.91066 9.96462 2.03125 10.0183C2.665 10.2904 6.37813 11.8464 6.90625 12.0739L12.7725 14.5479C12.8549 14.5821 12.9433 14.5997 13.0325 14.5997C13.1217 14.5997 13.2101 14.5821 13.2925 14.5479L21.8522 10.9283V16.2867C21.0397 16.4898 20.7188 17.867 21.1697 18.6104L20.5725 21.2917C20.5569 21.3718 20.5657 21.4547 20.5979 21.5297C20.6301 21.6047 20.6841 21.6683 20.753 21.7121C20.8218 21.756 20.9023 21.7781 20.9838 21.7755C21.0654 21.773 21.1443 21.746 21.2103 21.6979C21.4991 21.4846 21.8467 21.3654 22.2056 21.3567C22.5876 21.351 22.9606 21.4725 23.2659 21.702C23.3342 21.7532 23.4167 21.7816 23.502 21.7832C23.5872 21.7848 23.6708 21.7596 23.7409 21.711C23.811 21.6625 23.8641 21.5931 23.8926 21.5128C23.9211 21.4324 23.9236 21.3451 23.8997 21.2633L23.1562 18.5942C23.5625 17.9239 23.335 16.7214 22.6809 16.3842V10.5829L23.9688 10.0304C24.0896 9.97758 24.1924 9.89062 24.2646 9.78023C24.3368 9.66984 24.3753 9.54079 24.3753 9.40888C24.3753 9.27697 24.3368 9.14793 24.2646 9.03753C24.1924 8.92714 24.0896 8.84019 23.9688 8.78732Z" fill="#30B9CC"/>
<path id="Vector_2" d="M12.4516 15.2953L6.09375 12.5938V16.5506C6.09652 16.7631 6.15084 16.9717 6.25203 17.1585C6.35322 17.3453 6.49826 17.5047 6.67469 17.6231C8.46075 18.8373 10.5568 19.5153 12.7156 19.5772C15.0814 19.6255 17.4052 18.9478 19.3741 17.6353C19.555 17.5165 19.7041 17.3551 19.8082 17.1653C19.9123 16.9755 19.9683 16.763 19.9713 16.5466V12.5938L13.6053 15.2953C13.2354 15.4457 12.8214 15.4457 12.4516 15.2953Z" fill="#ACE3EB"/>
</g>
</g>
</svg>
