<svg width="25" height="24" viewBox="0 0 25 24" fill="none" xmlns="http://www.w3.org/2000/svg">
<g id="Frame">
<g id="Group 49">
<g id="Group">
<path id="Vector" d="M16.2812 1H6.90625C5.87025 1 4.87668 1.37592 4.14411 2.04507C3.41155 2.71422 3 3.62178 3 4.5681V16.6996C3 17.6459 3.41155 18.5535 4.14411 19.2226C4.87668 19.8918 5.87025 20.2677 6.90625 20.2677H15.5V18.0476C14.4986 17.1168 13.9375 15.8639 13.9375 14.5588C13.9375 11.8042 16.3914 9.56343 19.4062 9.56343C19.6719 9.56343 19.9312 9.58698 20.1875 9.62052V4.5681C20.1875 4.09953 20.0865 3.63555 19.8902 3.20264C19.6938 2.76974 19.4061 2.3764 19.0434 2.04507C18.6807 1.71374 18.25 1.45092 17.7761 1.27161C17.3022 1.09229 16.7942 1 16.2812 1ZM10.9531 16.6996H6.90625C6.69905 16.6996 6.50034 16.6244 6.35382 16.4906C6.20731 16.3568 6.125 16.1753 6.125 15.986C6.125 15.7967 6.20731 15.6152 6.35382 15.4814C6.50034 15.3476 6.69905 15.2724 6.90625 15.2724H10.9531C11.1603 15.2724 11.359 15.3476 11.5056 15.4814C11.6521 15.6152 11.7344 15.7967 11.7344 15.986C11.7344 16.1753 11.6521 16.3568 11.5056 16.4906C11.359 16.6244 11.1603 16.6996 10.9531 16.6996ZM11.1406 13.1315H6.90625C6.69905 13.1315 6.50034 13.0563 6.35382 12.9225C6.20731 12.7887 6.125 12.6072 6.125 12.4179C6.125 12.2286 6.20731 12.0471 6.35382 11.9133C6.50034 11.7795 6.69905 11.7043 6.90625 11.7043H11.1406C11.3478 11.7043 11.5465 11.7795 11.6931 11.9133C11.8396 12.0471 11.9219 12.2286 11.9219 12.4179C11.9219 12.6072 11.8396 12.7887 11.6931 12.9225C11.5465 13.0563 11.3478 13.1315 11.1406 13.1315ZM13.5078 9.56343H6.90625C6.69905 9.56343 6.50034 9.48825 6.35382 9.35441C6.20731 9.22059 6.125 9.03907 6.125 8.84981C6.125 8.66055 6.20731 8.47903 6.35382 8.34521C6.50034 8.21138 6.69905 8.13619 6.90625 8.13619H13.5078C13.715 8.13619 13.9137 8.21138 14.0602 8.34521C14.2068 8.47903 14.2891 8.66055 14.2891 8.84981C14.2891 9.03907 14.2068 9.22059 14.0602 9.35441C13.9137 9.48825 13.715 9.56343 13.5078 9.56343ZM16.2812 5.99533H6.90625C6.69905 5.99533 6.50034 5.92015 6.35382 5.78632C6.20731 5.65249 6.125 5.47098 6.125 5.28171C6.125 5.09245 6.20731 4.91094 6.35382 4.77711C6.50034 4.64328 6.69905 4.5681 6.90625 4.5681H16.2812C16.4885 4.5681 16.6872 4.64328 16.8337 4.77711C16.9802 4.91094 17.0625 5.09245 17.0625 5.28171C17.0625 5.47098 16.9802 5.65249 16.8337 5.78632C16.6872 5.92015 16.4885 5.99533 16.2812 5.99533ZM19.4062 19.5541C18.5664 19.5541 17.7734 19.3757 17.0625 19.0667V21.6935C17.0625 21.8227 17.1009 21.9495 17.1735 22.0603C17.2462 22.1712 17.3505 22.2619 17.4752 22.3228C17.5999 22.3838 17.7404 22.4127 17.8817 22.4064C18.0229 22.4001 18.1597 22.359 18.2773 22.2873L19.4062 21.5993L20.5352 22.2873C20.6528 22.359 20.7896 22.4001 20.9308 22.4064C21.0721 22.4127 21.2126 22.3838 21.3373 22.3228C21.462 22.2619 21.5663 22.1712 21.639 22.0603C21.7116 21.9495 21.75 21.8227 21.75 21.6935V19.0667C21.0183 19.3868 20.2175 19.5533 19.4062 19.5541Z" fill="#A7CDD1"/>
<path id="Vector_2" d="M19.4062 18.1269C21.5636 18.1269 23.3125 16.5294 23.3125 14.5588C23.3125 12.5882 21.5636 10.9907 19.4062 10.9907C17.2489 10.9907 15.5 12.5882 15.5 14.5588C15.5 16.5294 17.2489 18.1269 19.4062 18.1269Z" fill="#BDDEE3"/>
</g>
<path id="Vector_3" d="M19.4062 19.3279C18.5664 19.3279 17.7734 19.1495 17.0625 18.8405V21.9314C17.0625 22.0606 17.1009 22.1874 17.1735 22.2982C17.2462 22.409 17.3505 22.4998 17.4752 22.5607C17.5999 22.6217 17.7404 22.6506 17.8817 22.6443C18.0229 22.638 18.1597 22.5968 18.2773 22.5251L19.4062 21.8372L20.5352 22.5251C20.6528 22.5968 20.7896 22.638 20.9308 22.6443C21.0721 22.6506 21.2126 22.6217 21.3373 22.5607C21.462 22.4998 21.5663 22.409 21.639 22.2982C21.7116 22.1874 21.75 22.0606 21.75 21.9314V18.8405C21.0183 19.1606 20.2175 19.3271 19.4062 19.3279Z" fill="#BDDEE3"/>
</g>
</g>
</svg>
