<svg width="20" height="20" viewBox="0 0 20 20" fill="none" xmlns="http://www.w3.org/2000/svg">
<g id="Frame" clip-path="url(#clip0_22_2010)">
<g id="Group">
<path id="Vector" d="M14.9102 5.21094C16.3491 5.21094 17.5156 4.04443 17.5156 2.60547C17.5156 1.16651 16.3491 0 14.9102 0C13.4712 0 12.3047 1.16651 12.3047 2.60547C12.3047 4.04443 13.4712 5.21094 14.9102 5.21094Z" fill="#30B9CC"/>
<path id="Vector_2" d="M13.7305 15.1289L12.6328 10.8242C12.4375 10.0586 11.7461 9.51953 10.9531 9.51953H9.04688C8.25391 9.51953 7.5625 10.0586 7.36719 10.8242L6.26953 15.1289C6.10547 15.7695 6.58984 16.3906 7.25 16.3906H8.07422V19.1328C8.07422 19.6094 8.46094 20 8.94141 20H11.0625C11.5391 20 11.9297 19.6133 11.9297 19.1328V16.3906H12.7539C13.4102 16.3906 13.8945 15.7695 13.7305 15.1289Z" fill="#ACE3EB"/>
<path id="Vector_3" d="M10 9.06641C11.0636 9.06641 11.9258 8.2042 11.9258 7.14063C11.9258 6.07705 11.0636 5.21484 10 5.21484C8.93642 5.21484 8.07422 6.07705 8.07422 7.14063C8.07422 8.2042 8.93642 9.06641 10 9.06641Z" fill="#ACE3EB"/>
<path id="Vector_4" d="M19.957 13.4141L18.4727 7.58984C18.207 6.55078 17.2734 5.82422 16.2031 5.82422H13.625C13.2227 5.82422 12.8437 5.92578 12.5078 6.10937C12.6406 6.42578 12.7109 6.77344 12.7109 7.14062C12.7109 7.84375 12.4414 8.48438 12 8.96875C12.6758 9.27734 13.1992 9.87891 13.3906 10.6328L14.2422 13.9727L14.4883 14.9375C14.5039 14.9961 14.5156 15.0586 14.5234 15.1172C14.5977 15.6016 14.4687 16.0859 14.1641 16.4766C13.8242 16.918 13.3047 17.168 12.75 17.168H12.707V19.1289C12.707 19.3047 12.6797 19.4727 12.6289 19.6328C12.8398 19.8555 13.1445 19.9961 13.4766 19.9961H16.3477C16.9961 19.9961 17.5195 19.4727 17.5195 18.8242V15.1133H18.6328C19.5234 15.1172 20.1758 14.2773 19.957 13.4141ZM5.51172 14.9375L5.75781 13.9727L6.60937 10.6328C6.80078 9.875 7.32422 9.27734 8 8.96875C7.54202 8.47017 7.28826 7.81762 7.28906 7.14062C7.28906 6.77734 7.35937 6.42969 7.49219 6.10937C7.15625 5.92578 6.77734 5.82422 6.375 5.82422H3.79687C2.72656 5.82422 1.78906 6.55078 1.52734 7.58984L0.0429682 13.4141C-0.175782 14.2773 0.476562 15.1172 1.36719 15.1172H2.48047V18.8281C2.48047 19.4766 3.00391 20 3.65234 20H6.52344C6.85547 20 7.15625 19.8594 7.37109 19.6367C7.32031 19.4766 7.29297 19.3086 7.29297 19.1328V17.1719H7.25C6.69141 17.1719 6.17578 16.918 5.83594 16.4805C5.53125 16.0898 5.40625 15.6016 5.47656 15.1211C5.48437 15.0586 5.49609 14.9961 5.51172 14.9375Z" fill="#30B9CC"/>
<path id="Vector_5" d="M7.69339 2.61059C7.69616 1.17164 6.53189 0.00289156 5.09293 0.000128954C3.65397 -0.00263365 2.48523 1.16163 2.48247 2.60059C2.4797 4.03955 3.64397 5.20829 5.08293 5.21106C6.52189 5.21382 7.69063 4.04955 7.69339 2.61059Z" fill="#30B9CC"/>
</g>
</g>
<defs>
<clipPath id="clip0_22_2010">
<rect width="20" height="20" fill="white"/>
</clipPath>
</defs>
</svg>
