<svg width="72" height="72" viewBox="0 0 72 72" fill="none" xmlns="http://www.w3.org/2000/svg">
<g id="Frame">
<g id="Group">
<g id="Group_2">
<path id="Vector" opacity="0.3" d="M36.544 58.976C52.6972 58.976 65.792 55.8098 65.792 51.904C65.792 47.9983 52.6972 44.832 36.544 44.832C20.3908 44.832 7.29602 47.9983 7.29602 51.904C7.29602 55.8098 20.3908 58.976 36.544 58.976Z" fill="#47CCE2"/>
<path id="Vector_2" opacity="0.3" d="M36.8 55.68C49.8075 55.68 60.3521 53.7029 60.3521 51.264C60.3521 48.8251 49.8075 46.848 36.8 46.848C23.7926 46.848 13.248 48.8251 13.248 51.264C13.248 53.7029 23.7926 55.68 36.8 55.68Z" fill="#47CCE2"/>
</g>
</g>
<g id="Group_3">
<g id="Group_4">
<path id="Vector_3" d="M18.6562 21.28C18.6562 21.248 18.6882 21.184 18.7202 21.184H18.8802L18.4002 20.672C18.3682 20.64 18.3682 20.576 18.4002 20.544C18.4322 20.512 18.4642 20.512 18.4962 20.544L19.1042 21.184C19.1362 21.216 19.1362 21.248 19.1042 21.28C19.1042 21.312 19.0722 21.344 19.0402 21.344H18.6882C18.6882 21.344 18.6562 21.312 18.6562 21.28ZM16.7682 21.344C16.7362 21.344 16.7042 21.312 16.7042 21.28C16.7042 21.248 16.7362 21.184 16.7682 21.184H17.9842C18.0162 21.184 18.0482 21.216 18.0482 21.28C18.0482 21.312 18.0162 21.344 17.9842 21.344H16.7682ZM14.8162 21.344C14.7842 21.344 14.7522 21.312 14.7522 21.28C14.7522 21.248 14.7842 21.184 14.8162 21.184H16.0322C16.0642 21.184 16.0962 21.216 16.0962 21.28C16.0962 21.312 16.0642 21.344 16.0322 21.344H14.8162ZM12.8642 21.344C12.8322 21.344 12.8002 21.312 12.8002 21.28C12.8002 21.248 12.8322 21.184 12.8642 21.184H14.0802C14.1122 21.184 14.1442 21.216 14.1442 21.28C14.1442 21.312 14.1122 21.344 14.0802 21.344H12.8642ZM10.9122 21.344C10.8802 21.344 10.8482 21.312 10.8482 21.28C10.8482 21.248 10.8802 21.184 10.9122 21.184H12.1282C12.1602 21.184 12.1922 21.216 12.1922 21.28C12.1922 21.312 12.1602 21.344 12.1282 21.344H10.9122ZM8.92817 21.344C8.89617 21.344 8.86417 21.312 8.86417 21.28C8.86417 21.248 8.89617 21.184 8.92817 21.184H10.1442C10.1762 21.184 10.2082 21.216 10.2082 21.28C10.2082 21.312 10.1762 21.344 10.1442 21.344H8.92817ZM6.97617 21.344C6.94417 21.344 6.91217 21.312 6.91217 21.28C6.91217 21.248 6.94417 21.184 6.97617 21.184H8.19217C8.22417 21.184 8.25617 21.216 8.25617 21.28C8.25617 21.312 8.22417 21.344 8.19217 21.344H6.97617ZM5.02417 21.344C4.99217 21.344 4.96017 21.312 4.96017 21.28C4.96017 21.248 4.99217 21.184 5.02417 21.184H6.24017C6.27217 21.184 6.30417 21.216 6.30417 21.28C6.30417 21.312 6.27217 21.344 6.24017 21.344H5.02417ZM3.07217 21.344C3.04017 21.344 3.00817 21.312 3.00817 21.28C3.00817 21.248 3.04017 21.184 3.07217 21.184H4.28817C4.32017 21.184 4.35217 21.216 4.35217 21.28C4.35217 21.312 4.32017 21.344 4.28817 21.344H3.07217ZM1.08817 21.344C1.05617 21.344 1.02417 21.312 1.02417 21.28C1.02417 21.248 1.05617 21.184 1.08817 21.184H2.30417C2.33617 21.184 2.36817 21.216 2.36817 21.28C2.36817 21.312 2.33617 21.344 2.30417 21.344H1.08817ZM17.9202 20.096L17.0562 19.2C17.0242 19.168 17.0242 19.104 17.0562 19.072C17.0882 19.04 17.1202 19.04 17.1522 19.072L17.9842 20C18.0162 20.032 18.0162 20.096 17.9842 20.128C17.9842 20.128 17.9522 20.16 17.9202 20.16C17.9522 20.128 17.9202 20.128 17.9202 20.096ZM16.5442 18.624L15.6802 17.696C15.6482 17.664 15.6482 17.6 15.6802 17.568C15.7122 17.536 15.7442 17.536 15.7762 17.568L16.6082 18.496C16.6402 18.528 16.6402 18.592 16.6082 18.624C16.6082 18.624 16.5762 18.656 16.5442 18.656C16.5762 18.656 16.5442 18.624 16.5442 18.624ZM15.1682 17.152L14.3362 16.224C14.3042 16.192 14.3042 16.128 14.3362 16.096C14.3682 16.064 14.4002 16.064 14.4322 16.096L15.2642 16.992C15.2962 17.024 15.2962 17.088 15.2642 17.12C15.2642 17.12 15.2322 17.152 15.2002 17.152H15.1682ZM13.7602 15.648L12.9282 14.72C12.8962 14.688 12.8962 14.624 12.9282 14.592C12.9602 14.56 12.9922 14.56 13.0242 14.592L13.8562 15.52C13.8882 15.552 13.8882 15.616 13.8562 15.648C13.8562 15.648 13.8242 15.68 13.7922 15.68C13.8242 15.68 13.7922 15.68 13.7602 15.648ZM12.3842 14.176L11.5522 13.248C11.5202 13.216 11.5202 13.152 11.5522 13.12C11.5842 13.088 11.6162 13.088 11.6482 13.12L12.4802 14.048C12.5122 14.08 12.5122 14.144 12.4802 14.176C12.4802 14.176 12.4482 14.208 12.4162 14.208C12.4482 14.208 12.4162 14.176 12.3842 14.176ZM56.4802 12.832C56.4802 12.8 56.5122 12.768 56.5442 12.768H57.0562L56.9602 12.704C56.9282 12.672 56.8962 12.64 56.9282 12.608C56.9602 12.576 56.9922 12.544 57.0242 12.576L57.3762 12.768C57.4082 12.8 57.4082 12.832 57.4082 12.864C57.4082 12.896 57.3762 12.928 57.3442 12.928H56.5442C56.5122 12.896 56.4802 12.864 56.4802 12.832ZM54.5922 12.896C54.5602 12.896 54.5282 12.864 54.5282 12.8C54.5282 12.768 54.5602 12.736 54.5922 12.736H55.8082C55.8402 12.736 55.8722 12.768 55.8722 12.8C55.8722 12.832 55.8402 12.896 55.8082 12.896H54.5922ZM52.6402 12.896C52.6082 12.896 52.5762 12.864 52.5762 12.8C52.5762 12.768 52.6082 12.736 52.6402 12.736H53.8562C53.8882 12.736 53.9202 12.768 53.9202 12.8C53.9202 12.832 53.8882 12.896 53.8562 12.896H52.6402ZM50.6882 12.896C50.6562 12.896 50.6242 12.864 50.6242 12.8C50.6242 12.768 50.6562 12.736 50.6882 12.736H51.9042C51.9362 12.736 51.9682 12.768 51.9682 12.8C51.9682 12.832 51.9362 12.896 51.9042 12.896H50.6882ZM48.7362 12.896C48.7042 12.896 48.6722 12.864 48.6722 12.8C48.6722 12.768 48.7042 12.736 48.7362 12.736H49.9522C49.9842 12.736 50.0162 12.768 50.0162 12.8C50.0162 12.832 49.9842 12.896 49.9522 12.896H48.7362ZM46.7842 12.896C46.7522 12.896 46.7202 12.864 46.7202 12.8C46.7202 12.768 46.7522 12.736 46.7842 12.736H48.0002C48.0322 12.736 48.0642 12.768 48.0642 12.8C48.0642 12.832 48.0322 12.896 48.0002 12.896H46.7842ZM44.8002 12.896C44.7682 12.896 44.7362 12.864 44.7362 12.8C44.7362 12.768 44.7682 12.736 44.8002 12.736H46.0162C46.0482 12.736 46.0802 12.768 46.0802 12.8C46.0802 12.832 46.0482 12.896 46.0162 12.896H44.8002ZM42.8482 12.896C42.8162 12.896 42.7842 12.864 42.7842 12.8C42.7842 12.768 42.8162 12.736 42.8482 12.736H44.0642C44.0962 12.736 44.1282 12.768 44.1282 12.8C44.1282 12.832 44.0962 12.896 44.0642 12.896H42.8482ZM40.8962 12.896C40.8642 12.896 40.8322 12.864 40.8322 12.8C40.8322 12.768 40.8642 12.736 40.8962 12.736H42.1122C42.1442 12.736 42.1762 12.768 42.1762 12.8C42.1762 12.832 42.1442 12.896 42.1122 12.896H40.8962ZM38.9442 12.896C38.9122 12.896 38.8802 12.864 38.8802 12.8C38.8802 12.768 38.9122 12.736 38.9442 12.736H40.1602C40.1922 12.736 40.2242 12.768 40.2242 12.8C40.2242 12.832 40.1922 12.896 40.1602 12.896H38.9442ZM36.9602 12.896C36.9282 12.896 36.8962 12.864 36.8962 12.8C36.8962 12.768 36.9282 12.736 36.9602 12.736H38.1762C38.2082 12.736 38.2402 12.768 38.2402 12.8C38.2402 12.832 38.2082 12.896 38.1762 12.896H36.9602ZM35.0082 12.896C34.9762 12.896 34.9442 12.864 34.9442 12.8C34.9442 12.768 34.9762 12.736 35.0082 12.736H36.2242C36.2562 12.736 36.2882 12.768 36.2882 12.8C36.2882 12.832 36.2562 12.896 36.2242 12.896H35.0082ZM33.0562 12.896C33.0242 12.896 32.9922 12.864 32.9922 12.8C32.9922 12.768 33.0242 12.736 33.0562 12.736H34.2722C34.3042 12.736 34.3362 12.768 34.3362 12.8C34.3362 12.832 34.3042 12.896 34.2722 12.896H33.0562ZM31.1042 12.896C31.0722 12.896 31.0402 12.864 31.0402 12.8C31.0402 12.768 31.0722 12.736 31.1042 12.736H32.3202C32.3522 12.736 32.3842 12.768 32.3842 12.8C32.3842 12.832 32.3522 12.896 32.3202 12.896H31.1042ZM29.1202 12.896C29.0882 12.896 29.0562 12.864 29.0562 12.8C29.0562 12.768 29.0882 12.736 29.1202 12.736H30.3362C30.3682 12.736 30.4002 12.768 30.4002 12.8C30.4002 12.832 30.3682 12.896 30.3362 12.896H29.1202ZM27.1682 12.896C27.1362 12.896 27.1042 12.864 27.1042 12.8C27.1042 12.768 27.1362 12.736 27.1682 12.736H28.3842C28.4162 12.736 28.4482 12.768 28.4482 12.8C28.4482 12.832 28.4162 12.896 28.3842 12.896H27.1682ZM25.2162 12.896C25.1842 12.896 25.1522 12.864 25.1522 12.8C25.1522 12.768 25.1842 12.736 25.2162 12.736H26.4322C26.4642 12.736 26.4962 12.768 26.4962 12.8C26.4962 12.832 26.4642 12.896 26.4322 12.896H25.2162ZM23.2642 12.896C23.2322 12.896 23.2002 12.864 23.2002 12.8C23.2002 12.768 23.2322 12.736 23.2642 12.736H24.4802C24.5122 12.736 24.5442 12.768 24.5442 12.8C24.5442 12.832 24.5122 12.896 24.4802 12.896H23.2642ZM21.3122 12.896C21.2802 12.896 21.2482 12.864 21.2482 12.8C21.2482 12.768 21.2802 12.736 21.3122 12.736H22.5282C22.5602 12.736 22.5922 12.768 22.5922 12.8C22.5922 12.832 22.5602 12.896 22.5282 12.896H21.3122ZM19.3282 12.896C19.2962 12.896 19.2642 12.864 19.2642 12.8C19.2642 12.768 19.2962 12.736 19.3282 12.736H20.5442C20.5762 12.736 20.6082 12.768 20.6082 12.8C20.6082 12.832 20.5762 12.896 20.5442 12.896H19.3282ZM17.3762 12.896C17.3442 12.896 17.3122 12.864 17.3122 12.8C17.3122 12.768 17.3442 12.736 17.3762 12.736H18.5922C18.6242 12.736 18.6562 12.768 18.6562 12.8C18.6562 12.832 18.6242 12.896 18.5922 12.896H17.3762ZM15.4242 12.896C15.3922 12.896 15.3602 12.864 15.3602 12.8C15.3602 12.768 15.3922 12.736 15.4242 12.736H16.6402C16.6722 12.736 16.7042 12.768 16.7042 12.8C16.7042 12.832 16.6722 12.896 16.6402 12.896H15.4242ZM13.4722 12.896C13.4402 12.896 13.4082 12.864 13.4082 12.8C13.4082 12.768 13.4402 12.736 13.4722 12.736H14.6882C14.7202 12.736 14.7522 12.768 14.7522 12.8C14.7522 12.832 14.7202 12.896 14.6882 12.896H13.4722ZM11.4882 12.896C11.4562 12.896 11.4242 12.864 11.4242 12.8C11.4242 12.768 11.4562 12.736 11.4882 12.736H12.7042C12.7362 12.736 12.7682 12.768 12.7682 12.8C12.7682 12.832 12.7362 12.896 12.7042 12.896H11.4882ZM56.3202 12.288L55.2642 11.68C55.2322 11.648 55.2002 11.616 55.2322 11.584C55.2642 11.552 55.2962 11.52 55.3282 11.552L56.3842 12.16C56.4162 12.192 56.4482 12.224 56.4162 12.256C56.4162 12.288 56.3842 12.288 56.3522 12.288C56.3522 12.32 56.3202 12.32 56.3202 12.288ZM54.5922 11.296L53.5362 10.688C53.5042 10.656 53.4722 10.624 53.5042 10.592C53.5362 10.56 53.5682 10.528 53.6002 10.56L54.6562 11.168C54.6882 11.2 54.7202 11.232 54.6882 11.264C54.6882 11.296 54.6562 11.296 54.6242 11.296C54.6242 11.296 54.6242 11.296 54.5922 11.296ZM52.8962 10.304L51.8402 9.69602C51.8082 9.66402 51.7762 9.63202 51.8082 9.60002C51.8402 9.56802 51.8722 9.53602 51.9042 9.56802L52.9602 10.176C52.9922 10.208 53.0242 10.24 52.9922 10.272C52.9922 10.304 52.9602 10.304 52.9282 10.304H52.8962ZM51.1682 9.28002L50.1122 8.67202C50.0802 8.64002 50.0482 8.60802 50.0802 8.57602C50.1122 8.54402 50.1442 8.51202 50.1762 8.54402L51.2322 9.15202C51.2642 9.18402 51.2962 9.21602 51.2642 9.24802C51.2642 9.28002 51.2322 9.28002 51.2002 9.28002C51.2002 9.28002 51.2002 9.28002 51.1682 9.28002ZM49.4722 8.28802L48.4162 7.68002C48.3842 7.64802 48.3522 7.61602 48.3842 7.58402C48.4162 7.55202 48.4482 7.52002 48.4802 7.55202L49.5362 8.16002C49.5682 8.19202 49.6002 8.22402 49.5682 8.25602C49.5682 8.28802 49.5362 8.28802 49.5042 8.28802C49.4722 8.28802 49.4722 8.28802 49.4722 8.28802ZM47.7442 7.26402L47.4882 7.10402C47.4562 7.07202 47.4242 7.04002 47.4562 7.00802C47.4882 6.97602 47.5202 6.94402 47.5522 6.97602L47.8082 7.13602C47.8402 7.16802 47.8722 7.20002 47.8402 7.23202C47.8402 7.26402 47.8082 7.26402 47.7762 7.26402C47.7762 7.29602 47.7442 7.26402 47.7442 7.26402Z" fill="white"/>
<path id="Vector_4" opacity="0.56" d="M0.640051 19.328C0.480051 19.328 0.352051 19.2 0.352051 19.008C0.352051 18.816 0.480051 18.688 0.640051 18.688H13.4721L6.72005 11.104C6.62405 11.008 6.62405 10.88 6.65605 10.752C6.68805 10.624 6.81605 10.56 6.94405 10.56H48.8321L42.048 6.624C41.888 6.528 42.848 6.592 42.848 6.592L50.176 10.592C50.3041 10.656 50.368 10.816 50.336 10.944C50.3041 11.072 50.176 11.2 50.048 11.2H7.64805L14.4001 18.784C14.4961 18.88 14.4961 19.008 14.4641 19.136C14.4321 19.264 14.3041 19.328 14.1761 19.328H0.640051Z" fill="white"/>
</g>
<g id="Group_5">
<g id="Group_6">
<path id="Vector_5" d="M69.28 6.496C69.28 6.464 69.312 6.432 69.376 6.432H69.568L69.056 6.016C69.024 5.984 69.024 5.952 69.056 5.92C69.088 5.888 69.152 5.888 69.184 5.92L69.824 6.432C69.856 6.464 69.856 6.464 69.856 6.496C69.856 6.528 69.824 6.528 69.792 6.528H69.408C69.312 6.56 69.28 6.528 69.28 6.496ZM67.264 6.56C67.232 6.56 67.168 6.528 67.168 6.496C67.168 6.464 67.2 6.432 67.264 6.432H68.544C68.576 6.432 68.608 6.464 68.608 6.496C68.608 6.528 68.576 6.56 68.544 6.56H67.264ZM65.184 6.56C65.152 6.56 65.12 6.528 65.12 6.496C65.12 6.464 65.152 6.432 65.184 6.432H66.464C66.496 6.432 66.56 6.464 66.56 6.496C66.56 6.528 66.528 6.56 66.464 6.56H65.184ZM63.136 6.56C63.104 6.56 63.04 6.528 63.04 6.496C63.04 6.464 63.072 6.432 63.136 6.432H64.416C64.448 6.432 64.512 6.464 64.512 6.496C64.512 6.528 64.48 6.56 64.416 6.56H63.136ZM61.056 6.56C61.024 6.56 60.96 6.528 60.96 6.496C60.96 6.464 60.992 6.432 61.056 6.432H62.336C62.368 6.432 62.4 6.464 62.4 6.496C62.4 6.528 62.368 6.56 62.336 6.56H61.056ZM58.976 6.56C58.944 6.56 58.88 6.528 58.88 6.496C58.88 6.464 58.912 6.432 58.976 6.432H60.256C60.288 6.432 60.32 6.464 60.32 6.496C60.32 6.528 60.288 6.56 60.256 6.56H58.976ZM56.896 6.56C56.864 6.56 56.8 6.528 56.8 6.496C56.8 6.464 56.832 6.432 56.896 6.432H58.176C58.208 6.432 58.272 6.464 58.272 6.496C58.272 6.528 58.24 6.56 58.176 6.56H56.896ZM54.816 6.56C54.784 6.56 54.72 6.528 54.72 6.496C54.72 6.464 54.752 6.432 54.816 6.432H56.096C56.128 6.432 56.16 6.464 56.16 6.496C56.16 6.528 56.128 6.56 56.096 6.56H54.816ZM52.736 6.56C52.704 6.56 52.672 6.528 52.672 6.496C52.672 6.464 52.704 6.432 52.736 6.432H54.016C54.048 6.432 54.112 6.464 54.112 6.496C54.112 6.528 54.08 6.56 54.016 6.56H52.736ZM50.656 6.56C50.624 6.56 50.56 6.528 50.56 6.496C50.56 6.464 50.592 6.432 50.656 6.432H51.936C51.968 6.432 52 6.464 52 6.496C52 6.528 51.968 6.56 51.936 6.56H50.656ZM48.608 6.56C48.576 6.56 48.544 6.528 48.544 6.496C48.544 6.464 48.576 6.432 48.608 6.432H49.888C49.92 6.432 49.952 6.464 49.952 6.496C49.952 6.528 49.92 6.56 49.888 6.56H48.608ZM46.528 6.56C46.496 6.56 46.432 6.528 46.432 6.496C46.432 6.464 46.464 6.432 46.528 6.432H47.808C47.84 6.432 47.904 6.464 47.904 6.496C47.904 6.528 47.872 6.56 47.808 6.56H46.528ZM44.448 6.56C44.416 6.56 44.352 6.528 44.352 6.496C44.352 6.464 44.384 6.432 44.448 6.432H45.728C45.76 6.432 45.792 6.464 45.792 6.496C45.792 6.528 45.76 6.56 45.728 6.56H44.448ZM42.368 6.56C42.336 6.56 42.304 6.528 42.304 6.496C42.304 6.464 42.336 6.432 42.368 6.432H43.648C43.68 6.432 43.744 6.464 43.744 6.496C43.744 6.528 43.712 6.56 43.648 6.56H42.368ZM68.448 5.536L67.552 4.8C67.52 4.768 67.52 4.736 67.552 4.704C67.584 4.672 67.648 4.672 67.68 4.704L68.576 5.44C68.608 5.472 68.608 5.504 68.576 5.536C68.576 5.536 68.544 5.568 68.512 5.568C68.512 5.568 68.48 5.536 68.448 5.536ZM67.008 4.32L66.112 3.584C66.08 3.552 66.08 3.52 66.112 3.488C66.144 3.456 66.208 3.456 66.24 3.488L67.136 4.224C67.168 4.256 67.168 4.288 67.136 4.32C67.136 4.32 67.104 4.352 67.072 4.352C67.04 4.352 67.008 4.352 67.008 4.32ZM65.536 3.104L64.64 2.368C64.608 2.336 64.608 2.304 64.64 2.272C64.672 2.24 64.736 2.24 64.768 2.272L65.664 3.008C65.696 3.04 65.696 3.072 65.664 3.104C65.664 3.104 65.632 3.136 65.6 3.136C65.6 3.136 65.568 3.136 65.536 3.104ZM64.096 1.92L63.2 1.184C63.168 1.152 63.168 1.12 63.2 1.088C63.232 1.056 63.296 1.056 63.328 1.088L64.224 1.824C64.256 1.856 64.256 1.888 64.224 1.92C64.224 1.92 64.192 1.952 64.16 1.952C64.128 1.92 64.096 1.92 64.096 1.92ZM62.624 0.703996L61.888 0.127996C61.856 0.0959956 61.856 0.0639956 61.888 0.0319956C61.92 -4.39491e-06 61.984 -4.39491e-06 62.016 0.0319956L62.752 0.607996C62.784 0.639996 62.784 0.671996 62.752 0.703996C62.752 0.703996 62.72 0.735996 62.688 0.735996C62.656 0.703996 62.656 0.703996 62.624 0.703996Z" fill="white"/>
<path id="Vector_6" d="M40.352 6.59199C40.32 6.59199 40.288 6.55999 40.288 6.52799C40.288 6.49599 40.32 6.46399 40.352 6.46399H41.632C41.664 6.46399 41.696 6.49599 41.696 6.52799C41.696 6.55999 41.664 6.59199 41.632 6.59199H40.352ZM38.272 6.59199C38.24 6.59199 38.208 6.55999 38.208 6.52799C38.208 6.49599 38.24 6.46399 38.272 6.46399H39.552C39.584 6.46399 39.616 6.49599 39.616 6.52799C39.616 6.55999 39.584 6.59199 39.552 6.59199H38.272ZM36.224 6.59199C36.192 6.59199 36.16 6.55999 36.16 6.52799C36.16 6.49599 36.192 6.46399 36.224 6.46399H37.504C37.536 6.46399 37.6 6.49599 37.6 6.52799C37.6 6.55999 37.568 6.59199 37.504 6.59199H36.224ZM34.144 6.59199C34.112 6.59199 34.048 6.55999 34.048 6.52799C34.048 6.49599 34.08 6.46399 34.144 6.46399H35.424C35.456 6.46399 35.488 6.49599 35.488 6.52799C35.488 6.55999 35.456 6.59199 35.424 6.59199H34.144ZM32.064 6.59199C32.032 6.59199 32 6.55999 32 6.52799C32 6.49599 32.032 6.46399 32.064 6.46399H33.344C33.376 6.46399 33.44 6.49599 33.44 6.52799C33.44 6.55999 33.408 6.59199 33.344 6.59199H32.064ZM29.984 6.59199C29.952 6.59199 29.888 6.55999 29.888 6.52799C29.888 6.49599 29.92 6.46399 29.984 6.46399H31.264C31.296 6.46399 31.36 6.49599 31.36 6.52799C31.36 6.55999 31.328 6.59199 31.264 6.59199H29.984ZM27.904 6.59199C27.872 6.59199 27.84 6.55999 27.84 6.52799C27.84 6.49599 27.872 6.46399 27.904 6.46399H29.184C29.216 6.46399 29.248 6.49599 29.248 6.52799C29.248 6.55999 29.216 6.59199 29.184 6.59199H27.904ZM25.824 6.59199C25.792 6.59199 25.76 6.55999 25.76 6.52799C25.76 6.49599 25.792 6.46399 25.824 6.46399H27.104C27.136 6.46399 27.2 6.49599 27.2 6.52799C27.2 6.55999 27.168 6.59199 27.104 6.59199H25.824ZM23.776 6.59199C23.744 6.59199 23.712 6.55999 23.712 6.52799C23.712 6.49599 23.744 6.46399 23.776 6.46399H25.056C25.088 6.46399 25.152 6.49599 25.152 6.52799C25.152 6.55999 25.12 6.59199 25.056 6.59199H23.776ZM21.696 6.59199C21.664 6.59199 21.6 6.55999 21.6 6.52799C21.6 6.49599 21.632 6.46399 21.696 6.46399H22.976C23.008 6.46399 23.04 6.49599 23.04 6.52799C23.04 6.55999 23.008 6.59199 22.976 6.59199H21.696ZM19.616 6.59199C19.584 6.59199 19.552 6.55999 19.552 6.52799C19.552 6.49599 19.584 6.46399 19.616 6.46399H20.896C20.928 6.46399 20.992 6.49599 20.992 6.52799C20.992 6.55999 20.96 6.59199 20.896 6.59199H19.616ZM17.536 6.59199C17.504 6.59199 17.472 6.55999 17.472 6.52799C17.472 6.49599 17.504 6.46399 17.536 6.46399H18.816C18.848 6.46399 18.88 6.49599 18.88 6.52799C18.88 6.55999 18.848 6.59199 18.816 6.59199H17.536ZM15.456 6.59199C15.424 6.59199 15.36 6.55999 15.36 6.52799C15.36 6.49599 15.392 6.46399 15.456 6.46399H16.736C16.768 6.46399 16.832 6.49599 16.832 6.52799C16.832 6.55999 16.8 6.59199 16.736 6.59199H15.456ZM13.376 6.59199C13.344 6.59199 13.312 6.55999 13.312 6.52799C13.312 6.49599 13.344 6.46399 13.376 6.46399H14.656C14.688 6.46399 14.752 6.49599 14.752 6.52799C14.752 6.55999 14.72 6.59199 14.656 6.59199H13.376ZM11.328 6.59199C11.296 6.59199 11.232 6.55999 11.232 6.52799C11.232 6.49599 11.264 6.46399 11.328 6.46399H12.608C12.64 6.46399 12.672 6.49599 12.672 6.52799C12.672 6.55999 12.64 6.59199 12.608 6.59199H11.328ZM9.24801 6.59199C9.21601 6.59199 9.15201 6.55999 9.15201 6.52799C9.15201 6.49599 9.18401 6.46399 9.24801 6.46399H10.528C10.56 6.46399 10.624 6.49599 10.624 6.52799C10.624 6.55999 10.592 6.59199 10.528 6.59199H9.24801ZM7.16801 6.59199C7.13601 6.59199 7.10401 6.55999 7.10401 6.52799C7.10401 6.49599 7.13601 6.46399 7.16801 6.46399H8.44801C8.48001 6.46399 8.54401 6.49599 8.54401 6.52799C8.54401 6.55999 8.51201 6.59199 8.44801 6.59199H7.16801ZM5.08801 6.59199C5.05601 6.59199 4.99201 6.55999 4.99201 6.52799C4.99201 6.49599 5.02401 6.46399 5.08801 6.46399H6.36801C6.40001 6.46399 6.43201 6.49599 6.43201 6.52799C6.43201 6.55999 6.40001 6.59199 6.36801 6.59199H5.08801ZM3.00801 6.59199C2.97601 6.59199 2.94401 6.55999 2.94401 6.52799C2.94401 6.49599 2.97601 6.46399 3.00801 6.46399H4.28801C4.32001 6.46399 4.38401 6.49599 4.38401 6.52799C4.38401 6.55999 4.35201 6.59199 4.28801 6.59199H3.00801ZM0.928014 6.59199C0.896014 6.59199 0.864014 6.55999 0.864014 6.52799C0.864014 6.49599 0.896014 6.46399 0.928014 6.46399H2.20801C2.24001 6.46399 2.30401 6.49599 2.30401 6.52799C2.30401 6.55999 2.27201 6.59199 2.20801 6.59199H0.928014Z" fill="white"/>
</g>
<path id="Vector_7" opacity="0.56" d="M59.296 0.0319824L65.376 4.47998C65.472 4.54398 65.472 4.67198 65.44 4.76798C65.376 4.86398 65.28 4.92798 65.152 4.92798H0.32C0.128 4.92798 0 4.79998 0 4.67198C0 4.51198 0.128 4.41598 0.32 4.41598H64.416L58.528 0.0319824H59.296Z" fill="white"/>
</g>
</g>
<g id="Group_7">
<g id="Group_8">
<g id="Group_9">
<path id="Vector_8" d="M20.7361 31.232C15.7761 32.352 12.0641 33.248 11.3601 35.328C11.0721 36.192 12.5761 41.472 13.8241 41.664C15.1041 41.856 21.4081 38.24 21.8241 36.128C22.3041 33.696 20.7361 31.232 20.7361 31.232Z" fill="#CCE9F2"/>
<path id="Vector_9" d="M11.296 35.84C11.392 35.392 12.032 33.376 13.952 34.688C14.336 35.328 15.296 39.264 15.136 40.064C15.008 40.832 15.232 41.856 13.824 41.664C12.416 41.472 11.36 37.216 11.296 35.84Z" fill="#CCE9F2"/>
</g>
<path id="Vector_10" d="M14.976 34.976C16.48 33.152 20.096 32.352 20.704 32.16C21.28 31.968 20.32 31.584 19.584 31.584C18.88 31.584 12.224 32.96 11.552 34.912C10.88 36.864 14.976 34.976 14.976 34.976Z" fill="white"/>
</g>
<g id="Group_10">
<g id="Group_11">
<path id="Vector_11" d="M52.32 31.04C57.28 32.16 60.992 33.056 61.696 35.136C61.984 36 60.48 41.28 59.232 41.472C57.952 41.664 51.648 38.08 51.232 35.936C50.752 33.504 52.32 31.04 52.32 31.04Z" fill="#CCE9F2"/>
<path id="Vector_12" d="M61.6959 35.168C61.5999 34.72 60.9919 33.184 59.0719 34.528C58.6879 35.168 57.7279 39.104 57.8879 39.904C58.0159 40.672 57.7919 41.696 59.1999 41.504C60.6399 41.28 62.0799 36.736 61.6959 35.168Z" fill="#CCE9F2"/>
</g>
<path id="Vector_13" d="M59.136 34.88C57.632 33.056 52.992 32.16 52.416 31.968C51.84 31.776 52.8 31.392 53.536 31.392C54.24 31.392 60.896 32.768 61.568 34.72C62.176 36.64 59.136 34.88 59.136 34.88Z" fill="white"/>
</g>
<path id="Vector_14" d="M14.848 43.136C14.304 43.392 14.176 44.832 14.176 45.888C14.176 46.944 14.176 48.544 14.72 48.544C15.264 48.544 59.136 48.384 59.136 48.384C59.136 48.384 59.744 46.752 59.04 43.232C58.592 41.088 14.848 43.136 14.848 43.136Z" fill="#CCE9F2"/>
<path id="Vector_15" d="M60 40C59.872 40.608 60.3841 43.84 59.392 43.936C58.4 44.032 36.544 45.312 36.448 43.744C36.352 42.176 35.872 40.128 36.736 39.936C37.632 39.744 60 40 60 40Z" fill="white"/>
<path id="Vector_16" d="M13.6 40.096C13.6 41.152 12.96 44.384 14.656 44.384C16.352 44.384 35.712 44.8 35.968 44.128C36.224 43.488 36.928 40.32 36 39.648C35.072 39.04 13.6 40.096 13.6 40.096Z" fill="white"/>
<path id="Vector_17" d="M18.3361 37.344C17.3761 36.96 18.6561 33.76 18.5601 32.864C18.4641 31.968 17.9201 29.28 18.2401 28.288C18.5601 27.296 26.2081 28.576 27.2641 28.8C27.2641 28.8 35.6161 27.712 36.2561 27.712C36.8961 27.712 36.7681 30.528 36.2241 33.024C36.0641 33.824 37.2161 36.768 36.6721 37.088C36.1281 37.376 30.0481 37.088 28.1281 37.184C26.3361 37.248 18.3361 37.344 18.3361 37.344Z" fill="white"/>
<path id="Vector_18" d="M37.056 37.344C36.128 36.96 36.64 33.6 36.544 32.704C36.448 31.808 36.64 29.28 36.96 28.288C37.28 27.296 46.56 28 47.584 28.224C47.584 28.224 54.048 27.36 54.656 27.36C55.264 27.36 55.008 30.4 54.496 32.896C54.336 33.696 55.104 36.672 54.592 36.96C54.08 37.248 48.448 37.056 46.592 37.152C44.864 37.248 37.056 37.344 37.056 37.344Z" fill="white"/>
<path id="Vector_19" d="M19.168 36.96C17.856 36.864 13.6 39.584 13.6 40.096C13.6 40.608 21.12 40.608 23.744 40.352C26.368 40.096 36.736 40.992 37.376 40.48C38.016 39.968 38.208 37.024 36.608 37.056C35.008 37.088 20.768 37.088 19.168 36.96Z" fill="#CCE9F2"/>
<path id="Vector_20" d="M53.1201 36.96C54.4321 36.864 58.0801 39.712 58.0801 40.224C58.0801 40.736 53.0241 40.512 49.2161 40.48C46.5921 40.448 37.2801 40.992 36.6401 40.48C36.0001 39.968 35.2001 37.024 36.8321 37.056C38.4321 37.088 51.5201 37.088 53.1201 36.96Z" fill="#CCE9F2"/>
</g>
<g id="Group_12">
<g id="Group_13">
<g id="Group_14">
<path id="Vector_21" d="M16.6721 45.376C16.7681 47.232 17.6001 48.48 17.6001 48.48C17.6001 48.48 15.3921 49.312 15.2001 49.312C15.0081 49.312 15.2001 46.88 15.2001 46.304C15.2001 45.76 16.6721 45.376 16.6721 45.376Z" fill="#1E1E1E"/>
<path id="Vector_22" d="M17.4081 48.064C17.6001 48.224 17.9201 48.544 17.8881 49.312C17.8561 49.824 17.7281 50.08 17.7281 50.08C17.7281 50.08 16.8641 50.304 16.7041 50.304C16.6401 50.304 16.8001 50.016 16.5441 50.08C16.2561 50.144 15.3601 50.528 14.8161 50.592C14.2721 50.656 12.8961 50.592 12.8001 50.432C12.7361 50.336 12.6081 49.984 12.9921 49.888C13.3761 49.792 14.6561 48.8 14.8481 48.64C15.0401 48.448 14.8161 48.256 15.0721 48.16C15.3281 48.064 16.2881 48.224 16.2241 48.384C16.1601 48.544 16.1921 48.64 16.1921 48.64C16.1921 48.64 17.0881 48.704 17.2801 48.448C17.4721 48.192 17.4081 48.064 17.4081 48.064Z" fill="black"/>
</g>
<path id="Vector_23" d="M21.76 33.344L20.288 35.584C20.288 35.584 15.744 37.184 14.816 38.944C14.4 39.712 15.168 48 15.168 48C15.168 48 17.76 48.128 18.336 48.032C18.432 48 18.944 42.496 18.688 40.352C18.656 40.224 22.144 38.784 22.592 38.688C23.04 38.592 25.056 34.144 25.056 34.144L21.76 33.344Z" fill="black"/>
</g>
<g id="Group_15">
<g id="Group_16">
<path id="Vector_24" d="M21.4401 45.728C21.6001 47.584 22.4321 48.8 22.4321 48.8C22.4321 48.8 20.2561 49.696 20.0641 49.696C19.8721 49.696 19.9681 47.264 19.9681 46.688C19.9681 46.144 21.4401 45.728 21.4401 45.728Z" fill="#1E1E1E"/>
<path id="Vector_25" d="M22.1121 48.448C22.3041 48.608 22.6561 48.896 22.6241 49.696C22.6241 50.208 22.5281 50.56 22.5281 50.56C22.5281 50.56 21.7921 50.688 21.6321 50.688C21.5681 50.688 21.5681 50.4 21.2801 50.464C21.0241 50.528 20.4161 50.88 19.8721 50.976C19.3281 51.04 17.6961 51.104 17.6001 50.944C17.5361 50.848 17.2801 50.464 17.6961 50.336C18.0801 50.24 19.4241 49.28 19.6161 49.088C19.8081 48.896 19.6801 48.832 19.9361 48.704C20.1921 48.608 21.3121 48.608 21.2481 48.768C21.1841 48.928 21.2481 49.024 21.2481 49.024C21.2481 49.024 21.9201 49.024 22.0801 48.768C22.2081 48.512 22.1121 48.448 22.1121 48.448Z" fill="black"/>
</g>
<path id="Vector_26" d="M27.872 34.496C28.832 35.424 28.704 38.08 27.424 38.72C25.28 39.808 23.552 40.416 23.328 40.736C23.008 41.184 23.392 45.376 22.848 48.256C21.28 48.544 20.192 48.32 19.36 48.448C19.36 48.448 18.784 40.576 19.136 38.656C19.296 37.792 22.08 36.128 22.528 35.936C22.976 35.744 23.84 33.824 23.84 33.824C23.84 33.824 27.424 34.016 27.872 34.496Z" fill="black"/>
<path id="Vector_27" d="M23.9361 36.032C23.4241 36.256 19.4881 38.24 19.2961 38.784C19.5521 38.624 20.9601 38.496 21.3441 39.04C22.7521 38.144 25.0241 36.448 26.3041 36.672C26.1761 36.352 24.3201 35.872 23.9361 36.032Z" fill="#1E1E1E"/>
</g>
<g id="Group_17">
<path id="Vector_28" d="M23.2001 26.08C23.3601 25.792 25.5681 25.088 26.1441 25.312C26.3361 25.408 26.4641 25.696 26.4961 25.728C26.4961 25.76 25.6001 27.488 24.3841 27.424C23.2001 27.424 23.2001 26.08 23.2001 26.08Z" fill="#30B9CC"/>
<path id="Vector_29" d="M26.7841 25.824C26.0801 25.6 26.0161 25.376 25.8881 25.216C25.8881 25.216 25.8881 25.216 25.8881 25.184C25.5041 24.544 25.2481 22.72 25.2481 22.24C25.2481 22.24 22.6241 24.704 23.0081 25.12C23.3921 25.568 23.5521 25.664 23.5521 26.176C23.3921 26.464 22.9121 26.496 22.7521 26.592C22.5601 26.688 24.1921 27.776 24.5441 27.744C24.8321 27.712 27.6161 26.08 26.7841 25.824Z" fill="#DDA794"/>
<g id="Group_18">
<path id="Vector_30" d="M21.696 22.72C21.856 24.384 22.016 25.728 22.72 25.824C24.32 25.984 25.056 24.768 25.088 23.328C25.12 21.92 24.48 20.352 23.136 20.544C21.632 20.736 21.536 21.312 21.696 22.72Z" fill="#DDA794"/>
<path id="Vector_31" d="M21.8241 20.64C21.5041 21.248 21.2481 21.824 21.5681 21.856C21.8881 21.92 22.5601 21.664 22.7841 21.856C22.9761 22.048 23.3601 22.112 23.5201 22.24C23.6801 22.368 23.4241 21.664 23.4241 21.664L23.9041 22.272V21.76L24.0001 22.016L24.3521 22.432L24.3841 22.848L24.6401 22.72L25.0241 22.624L25.1841 23.648L25.8561 24.768C25.8561 24.768 26.1761 23.936 26.2721 23.456C26.4001 22.912 26.3681 22.784 26.3681 22.464C26.3681 22.08 26.3681 21.984 26.3681 21.6C26.3361 21.184 25.9841 20.544 25.7281 20.448C25.4721 20.352 25.2161 20.16 25.0881 20.224C24.9601 20.288 24.8961 20.096 24.5121 19.968C23.5201 19.648 22.8481 19.968 22.4001 20.16C22.0801 20.32 21.8241 20.64 21.8241 20.64Z" fill="black"/>
<path id="Vector_32" d="M21.504 23.584C21.472 23.584 21.472 23.584 21.504 23.584C21.312 23.552 21.344 23.04 21.344 23.04C21.344 23.008 21.344 23.008 21.344 22.976C21.344 22.848 21.376 22.752 21.44 22.72L21.792 22.656C21.856 22.688 21.888 22.816 21.888 22.944V23.2C21.888 23.232 21.888 23.232 21.888 23.264C21.888 23.392 21.824 23.52 21.76 23.52L21.504 23.584ZM21.76 22.88L21.472 22.912L21.44 22.944V23.296L21.472 23.424H21.76C21.792 23.424 21.824 22.912 21.76 22.88Z" fill="#30B9CC"/>
<path id="Vector_33" d="M22.4641 24.288C22.6241 24.32 22.8481 24.448 22.9441 24.512C23.0081 24.576 23.4881 24.896 23.5521 25.28C23.5841 25.536 23.0721 25.888 22.6881 25.92C22.5601 25.92 22.0801 25.984 21.9841 25.664C21.9521 25.536 21.7921 24.832 21.9521 24.832C22.0801 24.832 22.4001 24.832 22.4641 24.8C22.6241 24.704 22.5281 24.736 22.4641 24.736C22.4001 24.736 22.4001 24.736 22.3681 24.736C22.3041 24.736 21.8561 24.864 21.7921 24.8C21.6321 24.544 21.8241 24.32 21.8241 24.32L22.4641 24.288Z" fill="black"/>
<path id="Vector_34" d="M21.92 23.008C21.76 23.52 21.6 23.872 21.632 24C21.664 24.128 22.368 24.16 22.368 24.16L22.208 23.104L21.92 23.008Z" fill="#DDA794"/>
<g id="Group_19">
<path id="Vector_35" d="M22.1761 23.008L21.8881 22.976L21.8561 23.232L22.1761 23.2V23.008Z" fill="#30B9CC"/>
<path id="Vector_36" d="M22.3681 23.616C22.2081 23.616 22.1121 23.488 22.1121 23.328L22.0801 23.04V23.008C22.0801 22.848 22.1761 22.72 22.3041 22.688L22.8481 22.656H22.8801C23.0081 22.656 23.1041 22.816 23.1041 22.976V23.072V23.264V23.296C23.1041 23.456 22.9761 23.584 22.8481 23.584L22.3681 23.616ZM22.9761 22.976C22.9761 22.912 22.9441 22.848 22.8801 22.848L22.3361 22.88C22.2721 22.88 22.2401 22.944 22.2401 23.008C22.2401 23.008 22.2401 23.008 22.2401 23.04L22.2721 23.296C22.2721 23.36 22.3361 23.424 22.3681 23.424C22.3681 23.424 22.3681 23.424 22.4001 23.424L22.9121 23.392C22.9441 23.392 23.0081 23.328 23.0081 23.264V23.072L22.9761 22.976Z" fill="#30B9CC"/>
<path id="Vector_37" d="M23.1361 22.8801C23.1361 22.8801 25.3441 22.4641 25.3761 22.5281C25.4401 22.6241 25.5041 22.7201 25.5041 22.7201L25.2801 22.6561L23.1041 23.2001L23.1361 22.8801Z" fill="#30B9CC"/>
<path id="Vector_38" d="M24.6401 22.624C24.8001 22.304 25.1841 22.304 25.3121 22.56C25.4081 22.816 25.3441 23.744 24.8641 23.872C24.3841 23.968 24.6401 22.624 24.6401 22.624Z" fill="#DDA794"/>
</g>
</g>
<path id="Vector_39" d="M28.32 29.696C28.448 28.064 29.152 26.688 28.896 26.56C28.64 26.432 26.752 25.856 26.592 25.664C26.592 25.664 26.432 26.912 24.928 27.36C24.832 27.392 23.936 27.648 23.488 27.2C22.976 26.752 23.36 26.016 23.36 26.016C23.168 26.176 21.856 26.944 21.664 26.976C21.664 26.976 20.8 28.224 21.056 30.464C21.408 33.728 19.808 34.944 20.608 35.104C23.808 33.792 29.312 37.28 28.608 36.864C28.608 36.864 29.088 36.416 28.992 35.232C28.896 34.08 28.16 31.296 28.32 29.696Z" fill="#30B9CC"/>
<path id="Vector_40" d="M24.1281 31.552C23.9041 31.328 23.5521 31.136 23.3921 30.976C23.2321 30.848 22.5281 30.528 22.3681 30.496C22.2081 30.464 21.5681 30.432 21.4401 30.56C21.3121 30.688 21.0561 30.752 21.0241 30.912C20.9921 31.072 21.4721 30.816 21.5681 30.784C21.6641 30.784 22.0161 30.816 22.0161 30.816C22.0161 30.816 21.6641 30.816 21.5361 30.88C21.4081 30.944 20.9601 31.136 20.8961 31.296C20.8321 31.456 21.3121 31.2 21.5041 31.168C21.6641 31.168 22.0801 31.168 22.0801 31.168C22.0801 31.168 21.6001 31.168 21.4721 31.232C21.2801 31.328 20.8961 31.456 20.9601 31.52C20.9921 31.552 21.1521 31.52 21.3441 31.52C21.6001 31.488 21.9201 31.488 21.9201 31.488L21.1841 31.68C21.1841 31.68 21.0881 31.872 22.0161 31.744C22.2081 31.712 22.9441 32.032 23.2001 32.064C23.4561 32.096 24.0001 32.64 24.0001 32.64L24.1281 31.552Z" fill="#DDA794"/>
<path id="Vector_41" d="M28.4481 26.656C28.9921 26.368 29.5041 26.72 29.9201 28.128C30.3681 29.664 30.0801 32.672 29.1201 33.792C28.8321 34.144 24.2561 33.664 23.6481 33.728C23.6481 33.728 23.3601 31.424 23.5521 30.912C24.6401 30.944 27.6481 31.872 27.6161 31.68C27.5841 31.488 28.1921 30.4 27.9681 29.024C27.6161 26.976 28.4481 26.656 28.4481 26.656Z" fill="#1A2A2D"/>
<path id="Vector_42" d="M25.8241 31.424C25.9841 31.264 26.7521 30.464 26.9121 30.4C27.0721 30.336 27.7121 30.24 27.8401 30.368C27.9681 30.464 28.2561 30.528 28.2881 30.688C28.3201 30.848 27.8401 30.656 27.7441 30.656C27.6481 30.656 27.3281 30.752 27.3281 30.752C27.3281 30.752 27.6801 30.688 27.8401 30.752C28.0001 30.816 28.4481 30.912 28.5121 31.072C28.5761 31.232 28.0641 31.04 27.9041 31.04C27.7441 31.04 27.3281 31.136 27.3281 31.136C27.3281 31.136 27.8081 31.072 27.9361 31.136C28.1281 31.2 28.5441 31.264 28.4801 31.36C28.4481 31.392 28.2881 31.392 28.1281 31.392C27.8721 31.392 27.5521 31.424 27.5521 31.424L28.2881 31.52C28.2881 31.52 28.4161 31.712 27.4881 31.712C27.2961 31.712 27.2001 31.808 26.9441 31.872C26.6561 31.84 25.6961 31.552 25.8241 31.424Z" fill="#DDA794"/>
<path id="Vector_43" d="M21.6641 27.008C20.6401 27.328 20.6081 28.832 20.4481 29.6C20.3201 30.208 19.3281 32.416 20.1281 33.152C20.8961 33.888 22.4001 33.696 24.2561 33.248C26.1121 32.8 24.0961 31.744 24.0961 31.744C24.0961 31.744 21.3121 30.72 21.2801 30.464C21.1841 28.832 21.6641 27.008 21.6641 27.008Z" fill="#1A2A2D"/>
<path id="Vector_44" d="M26.2081 25.376C26.2081 25.376 26.6561 25.664 26.0801 26.368C25.3761 27.2 24.1921 27.2 24.1921 27.2C23.3281 27.104 23.3601 26.144 23.3601 25.952C23.3601 25.952 23.1041 26.016 22.9121 26.336C22.9121 27.584 24.0961 27.744 24.0961 27.744C26.5921 27.84 26.8481 25.76 26.8481 25.76L26.2081 25.376Z" fill="#1A2A2D"/>
</g>
<path id="Vector_45" d="M20.448 35.616C19.968 35.68 15.872 37.216 15.04 38.688C15.776 38.432 16.608 38.56 16.736 38.72C18.784 37.248 22.24 35.968 22.496 35.968C22.144 35.648 20.736 35.552 20.448 35.616Z" fill="#1E1E1E"/>
</g>
<g id="Group_20">
<g id="Group_21">
<g id="Group_22">
<g id="Group_23">
<g id="Group_24">
<path id="Vector_46" d="M54.432 35.936C56.512 35.168 57.824 34.432 58.688 36.352C58.88 36.768 60.256 42.464 60.96 43.168C61.6 43.808 62.24 44.576 63.136 45.152C62.72 45.728 62.016 45.76 61.152 45.12C60.672 44.768 60.064 44.96 59.84 44.672C59.296 44.032 59.872 44.096 59.424 43.008C58.976 41.92 57.152 39.936 57.184 37.92C57.216 36.672 54.176 38.4 54.144 37.984C54.112 37.568 54.432 35.936 54.432 35.936Z" fill="#DDA794"/>
</g>
<path id="Vector_47" d="M59.584 43.84C59.424 44.064 59.424 44.448 59.68 44.832C59.904 45.216 60.512 45.792 60.512 46.144C60.736 46.144 60.736 46.08 60.736 46.08C60.736 46.08 60.288 44.992 60.512 45.024C60.736 45.056 61.28 45.6 61.76 45.92C62.24 46.24 63.424 45.856 63.552 45.792C63.808 45.664 63.712 45.312 63.296 45.216C62.944 45.12 62.752 44.864 62.752 44.864C62.752 44.864 61.952 45.408 61.408 44.992C60.864 44.544 59.584 43.84 59.584 43.84Z" fill="#1E1E1E"/>
</g>
<g id="Group_25">
<g id="Group_26">
<g id="Group_27">
<path id="Vector_48" d="M55.456 36.192C57.888 36.608 58.08 36.736 58.496 37.184C58.784 37.504 58.816 38.944 58.656 40C58.592 40.512 58.144 45.536 58.272 46.272C58.432 47.232 59.136 48.448 60.288 48.896C59.712 49.344 58.304 48.928 57.632 48C57.28 47.488 57.056 47.488 56.832 47.168C56.448 46.624 56.96 47.072 56.864 45.824C56.768 44.576 55.296 42.112 56.288 39.072C56.384 38.816 50.944 40.64 49.472 38.88C49.248 38.56 55.456 36.192 55.456 36.192Z" fill="#EDC0B4"/>
</g>
<path id="Vector_49" d="M56.864 46.464C56.64 46.624 56.512 47.232 56.64 47.648C56.768 48.096 57.088 49.024 56.992 49.376C57.216 49.44 57.216 49.376 57.216 49.376C57.216 49.376 57.152 47.936 57.376 48.032C57.6 48.128 57.952 48.896 58.336 49.344C58.72 49.792 60.32 49.568 60.416 49.44C60.512 49.312 60.544 48.96 60.192 48.832C59.84 48.704 59.52 48.48 59.52 48.48C59.52 48.48 58.592 48.832 58.208 48.288C57.824 47.712 56.864 46.464 56.864 46.464Z" fill="black"/>
</g>
</g>
<g id="Group_28">
<path id="Vector_50" d="M47.488 35.104C46.752 36.416 46.944 38.56 47.84 38.976C49.536 39.744 52.544 40.192 55.168 41.152C56 41.472 56.48 36.992 57.472 35.424C57.632 35.2 51.136 36.256 50.624 34.656C50.144 33.12 48.16 33.92 47.488 35.104Z" fill="black"/>
</g>
<path id="Vector_51" d="M52.32 34.048L52.736 35.2C52.736 35.2 55.68 34.72 57.856 35.136C57.632 35.264 57.664 34.976 57.312 35.648C57.024 35.744 52.32 36.128 49.952 36.416C49.6 36.448 49.472 34.368 49.472 34.368L52.32 34.048Z" fill="#1E1E1E"/>
</g>
<path id="Vector_52" d="M51.3279 26.688C51.4559 26.752 51.8399 26.656 51.9359 26.624C51.9679 26.912 52.0959 27.488 52.0959 27.488C52.0959 27.488 51.7119 27.808 51.5199 27.776C51.2639 27.712 51.3279 26.688 51.3279 26.688Z" fill="#CE1111"/>
<path id="Vector_53" d="M52.672 27.744C52.832 27.968 54.624 31.68 53.984 33.536C53.984 33.536 51.872 34.112 50.816 33.696C49.728 33.248 50.752 32.576 50.752 32.576L52.672 27.744Z" fill="#990000"/>
<path id="Vector_54" d="M50.144 21.536C49.088 20.16 47.808 21.472 47.584 22.752C47.36 24.032 47.104 29.696 45.824 30.304C46.784 32.032 49.248 31.072 49.248 31.072C49.248 31.072 51.68 30.56 52.064 30.208C52.416 29.888 50.144 21.536 50.144 21.536Z" fill="black"/>
<path id="Vector_55" d="M52.128 28C51.968 27.968 51.808 27.776 51.52 27.296C51.456 26.496 52.096 25.696 52.736 25.44C52.736 25.44 50.624 22.016 50.464 23.072C50.08 25.952 48.864 26.72 48.832 26.688C48.64 26.816 48.864 27.104 48.608 27.36C48.128 28.064 52.096 28.096 52.128 28Z" fill="#EDC0B4"/>
<path id="Vector_56" d="M52.096 25.952L49.472 27.712L48.736 26.656C48.736 26.656 49.12 26.368 49.376 26.048C49.888 25.408 50.176 24.256 50.176 24.256C50.176 24.256 51.264 25.44 52.096 25.952Z" fill="url(#paint0_linear_5_804)"/>
<g id="Group_29">
<path id="Vector_57" d="M49.44 23.584C49.248 22.112 49.728 21.152 50.912 20.992C52.096 20.832 52.864 21.664 53.088 23.136C53.12 23.36 53.376 25.088 52.544 25.952C52.352 26.176 52.064 26.112 51.808 26.08C50.592 26.08 49.632 25.056 49.44 23.584Z" fill="#EDC0B4"/>
<path id="Vector_58" d="M51.52 21.92C52.256 21.696 52.672 21.92 52.864 22.368C53.024 21.792 52.352 21.056 51.648 20.896C50.944 20.736 50.208 20.864 50.208 21.088C50.208 21.312 51.52 21.92 51.52 21.92Z" fill="#232121"/>
<path id="Vector_59" d="M52.224 21.824C51.616 22.048 50.368 22.368 50.4 23.744C50.4 23.744 50.048 23.456 49.856 23.776C49.632 24.192 50.208 24.736 50.208 24.736L49.952 25.12C49.952 25.12 48.416 24.928 48.416 23.392C48.416 21.856 49.568 20.672 50.976 20.8C51.616 20.864 52.224 21.824 52.224 21.824Z" fill="black"/>
</g>
<path id="Vector_60" d="M49.4399 26.208C49.5359 26.368 51.4559 27.808 51.4559 27.008C51.4559 26.752 52.6399 27.648 52.6719 27.744C52.7039 27.84 52.7039 28.832 53.4079 30.08C53.6639 30.528 53.4079 31.36 53.1199 31.584C52.9599 31.744 53.3439 34.432 52.6399 35.008C52.0959 35.456 46.9439 36.544 47.0719 36.032C48.0639 32.256 47.1679 27.552 47.1679 27.552L49.4399 26.208Z" fill="#CE1111"/>
<path id="Vector_61" d="M51.712 26.688C50.592 26.752 49.472 25.856 49.44 25.696C49.28 25.92 48.928 26.496 48.928 26.496C48.928 26.496 49.856 28 51.744 27.712C51.808 27.008 51.712 26.688 51.712 26.688Z" fill="#990000"/>
<path id="Vector_62" d="M52.704 31.68C52.928 31.552 53.312 31.296 53.44 31.36C53.568 31.424 53.728 32.032 53.6 32.288C53.472 32.544 53.024 32.608 52.864 32.608C52.704 32.64 52.704 31.68 52.704 31.68Z" fill="#EDC0B4"/>
<path id="Vector_63" d="M47.328 27.488C46.816 27.712 46.208 28.192 46.688 30.08C47.168 31.968 48.736 34.72 49.632 34.304C50.56 33.92 52.896 33.696 53.088 33.376C53.28 33.056 53.184 31.648 52.864 31.456C52.544 31.264 50.144 31.936 50.144 31.936C50.144 31.936 49.12 29.504 48.736 28.704C48.384 28 47.744 27.328 47.328 27.488Z" fill="#990000"/>
<path id="Vector_64" d="M50.8799 31.808C50.7199 31.712 50.0159 30.816 49.7599 30.784C49.6959 30.784 49.5039 30.784 49.3119 30.816C49.0879 30.848 48.8319 30.944 48.8319 30.976C48.7999 31.072 49.0559 31.008 49.2799 31.008C49.5039 31.008 49.6959 31.04 49.6959 31.04C49.6959 31.04 48.8319 31.072 48.7999 31.2C48.7679 31.296 48.9919 31.296 49.2799 31.296C49.5999 31.296 49.6959 31.36 49.6959 31.36C49.6959 31.36 49.4719 31.328 49.2799 31.328C49.0559 31.328 48.8639 31.36 48.8959 31.424C48.9279 31.488 49.1199 31.456 49.3119 31.488C49.5359 31.52 49.6959 31.52 49.6959 31.52C49.6959 31.52 49.0239 31.456 49.0239 31.584C49.0239 31.68 49.3759 31.712 49.6959 31.776C49.8239 31.808 50.2719 32 50.3359 32C50.4639 31.968 50.8799 31.808 50.8799 31.808Z" fill="#EDC0B4"/>
</g>
</g>
<g id="Group_30">
<g id="Group_31">
<g id="Group_32">
<g id="Group_33">
<g id="Group_34">
<path id="Vector_65" d="M37.8881 46.816C38.4001 46.272 40.0001 42.496 40.3201 41.28C42.4641 33.568 43.1681 41.024 42.3681 41.952C40.5121 44.16 40.0961 47.424 39.8081 48.032C39.2641 49.312 37.8881 46.816 37.8881 46.816Z" fill="#DDA794"/>
</g>
</g>
<g id="Group_35">
<path id="Vector_66" d="M38.1761 46.112C38.8801 46.176 39.8081 46.432 40.0641 47.008C40.3201 47.584 39.6481 48.992 38.8481 48.8C38.0481 48.608 37.1201 48.224 37.4721 47.168C37.6961 46.496 38.1761 46.112 38.1761 46.112Z" fill="black"/>
<path id="Vector_67" d="M39.3601 48.416C38.7201 48.736 37.7281 49.984 37.6321 50.624C37.1841 50.56 37.3121 50.56 37.3121 50.56C37.3121 50.56 38.0801 48.768 37.6641 47.552C37.5041 47.136 39.3601 48.416 39.3601 48.416Z" fill="black"/>
</g>
</g>
<path id="Vector_68" d="M42.7841 43.584L41.6961 47.072L38.0161 45.376L38.6241 43.296L42.7841 43.584Z" fill="#001C49"/>
</g>
<g id="Group_36">
<g id="Group_37">
<path id="Vector_69" d="M45.1841 51.104C45.0561 51.328 45.4721 53.952 45.7601 54.4C46.0481 54.848 42.7841 51.552 42.7841 51.552L43.2321 49.472L45.1841 51.104Z" fill="#EDC0B4"/>
<path id="Vector_70" d="M44.9921 54.048C45.1521 54.08 46.1761 53.472 46.4321 53.728C46.5921 53.888 46.7521 55.296 46.0801 55.264C45.5041 55.264 44.9921 54.048 44.9921 54.048Z" fill="#1E1E1E"/>
<g id="Group_38">
<path id="Vector_71" d="M42.432 53.056C43.136 54.112 43.136 55.232 43.136 55.488C43.328 55.52 43.392 55.52 43.392 55.52C43.392 55.52 43.456 53.792 43.648 53.12L42.432 53.056Z" fill="black"/>
</g>
<path id="Vector_72" d="M42.688 51.2C41.952 51.68 42.144 53.216 42.592 53.248C43.328 53.312 44.192 53.248 44.448 52.96C44.672 52.672 44.608 52.096 44.256 51.712C43.744 51.168 42.88 51.104 42.688 51.2Z" fill="black"/>
<path id="Vector_73" d="M44.2561 51.744C44.9281 52.768 45.7281 54.24 46.3041 54.56C46.7521 54.816 46.3681 55.36 46.3681 55.36C46.3681 55.36 44.9921 55.648 44.4161 55.424C44.0321 55.264 43.9041 53.952 43.3921 53.184C42.8481 52.384 44.2561 51.744 44.2561 51.744Z" fill="black"/>
</g>
<path id="Vector_74" d="M43.328 37.696C44.928 36.768 48.704 36.512 47.488 40.704C47.072 42.176 45.856 51.68 45.856 51.68L42.144 50.656C42.144 50.656 42.176 39.904 42.912 38.656C43.616 37.376 43.328 37.696 43.328 37.696Z" fill="#0D3B7F"/>
</g>
<path id="Vector_75" d="M48.7681 55.968L49.1521 56.032L47.6161 42.848C47.6481 42.816 47.6481 42.816 47.6481 42.816V40.64L40.5121 41.664L39.5841 41.536C38.5601 41.408 37.1521 41.504 36.2561 41.76L31.7441 41.792L31.6801 43.808L30.7201 56.736L31.2641 56.768L33.2161 44.448C34.5281 44.64 37.9201 45.056 39.6161 45.216L41.3121 57.984L41.8881 58.016L41.1201 45.152L46.2081 43.424L48.7681 55.968Z" fill="#6A7B9B"/>
<g id="Group_39">
<path id="Vector_76" d="M40.096 21.76C39.552 22.496 40.192 26.592 39.904 26.784C39.616 26.976 33.184 25.024 33.184 25.024C33.184 25.024 32.768 22.048 34.016 19.648C35.104 17.504 38.368 18.08 39.552 19.456C40.736 20.832 40.096 21.76 40.096 21.76Z" fill="black"/>
</g>
<path id="Vector_77" d="M40.896 42.784C40.032 43.072 32.608 42.24 32.608 42.24C31.584 42.144 31.36 41.792 32.096 41.504C32.096 41.504 38.656 39.968 39.808 40.096L46.624 40.288C47.84 40.416 47.968 40.8 46.944 41.12L40.896 42.784Z" fill="#97A8C1"/>
<path id="Vector_78" d="M38.144 40.32C39.712 41.344 41.248 42.208 43.584 41.024C45.92 39.872 48.384 36.192 48.384 35.488C48.384 34.784 47.328 32.48 45.12 34.496C43.456 36.032 41.888 35.904 41.536 35.552C41.12 35.2 38.144 40.32 38.144 40.32Z" fill="#001C49"/>
<g id="Group_40">
<path id="Vector_79" d="M45.1201 36.096L39.4561 35.584L44.4161 30.88L50.4321 31.104L45.1201 36.096Z" fill="black"/>
<path id="Vector_80" d="M44.736 35.232L40.576 34.848L44.3521 31.328L48.9921 31.52L44.736 35.232Z" fill="white"/>
</g>
<path id="Vector_81" d="M33.76 25.376C33.504 26.176 32.384 26.752 31.776 27.008C31.168 27.264 30.592 27.296 30.848 28.512C31.104 29.728 37.024 40.192 37.6 40.256C38.144 40.32 42.592 37.728 42.688 37.088C42.784 36.48 42.432 34.464 42.432 34.464C42.432 34.464 40.032 27.104 39.808 27.072C37.76 26.944 37.92 25.504 37.92 25.504L33.76 25.376Z" fill="#001C49"/>
<g id="Group_41">
<g id="Group_42">
<path id="Vector_82" d="M46.7521 31.4239C46.7521 31.4239 46.4001 30.9439 46.3681 30.9439C46.3361 30.9439 46.0801 31.2959 46.0801 31.3599C46.0801 31.3919 46.1441 31.6159 46.2721 31.5839C46.4001 31.5519 46.7521 31.4239 46.7521 31.4239Z" fill="#DDA794"/>
<g id="Group_43">
<g id="Group_44">
<g id="Group_45">
<path id="Vector_83" d="M44.704 32.7679C44.704 32.7679 44.672 32.8639 44.704 32.8639L44.8 32.8319L44.704 32.7679Z" fill="black"/>
<path id="Vector_84" d="M44.7041 32.7679C44.7361 32.6719 44.8641 32.4479 44.8961 32.3839L45.0881 32.5439C45.0241 32.6079 44.8321 32.7999 44.7681 32.8319C44.7361 32.7999 44.7041 32.7679 44.7041 32.7679Z" fill="#7AA7D6"/>
<path id="Vector_85" d="M44.896 32.3839C44.96 32.2559 46.08 30.7839 46.08 30.7839L46.4 31.0399C46.4 31.0399 45.184 32.4479 45.088 32.5119C44.992 32.4479 44.928 32.4159 44.896 32.3839Z" fill="#6A7B9B"/>
<path id="Vector_86" d="M47.1681 29.7919L47.0081 29.6639C47.0081 29.6639 47.1681 29.4399 47.3281 29.5679C47.4881 29.6959 47.3281 29.8879 47.3281 29.9199L47.1681 29.7919Z" fill="#8FA4BC"/>
<path id="Vector_87" d="M46.0801 31.0399C46.0801 31.0399 46.9761 29.6319 47.0401 29.5999C47.1041 29.6639 47.1681 29.6959 47.2001 29.7279C47.2321 29.7599 47.2961 29.7919 47.3601 29.8559C47.3281 29.9199 46.3681 31.0719 46.3681 31.1039L46.0801 31.0399Z" fill="#6A7B9B"/>
<g id="Group_46">
<path id="Vector_88" d="M46.08 30.8159L46.24 30.9439L44.992 32.4799C44.928 32.4479 44.896 32.4159 44.896 32.4159C44.96 32.2879 46.08 30.8159 46.08 30.8159Z" fill="#97A8C1"/>
<path id="Vector_89" d="M46.144 30.9439L46.016 30.8799C46.016 30.8799 46.976 29.6639 47.04 29.5999C47.104 29.6639 47.136 29.6959 47.2 29.7279L46.176 31.0079H46.144V30.9439Z" fill="#97A8C1"/>
</g>
<g id="Group_47">
<g id="Group_48">
<path id="Vector_90" d="M47.36 29.5359L47.232 29.7279L47.072 29.5999C47.072 29.5679 47.2 29.4399 47.36 29.5359Z" fill="#8FA4BC"/>
</g>
</g>
</g>
</g>
<path id="Vector_91" d="M45.6001 33.3119C45.9521 33.1519 46.5281 32.9919 46.6881 32.6079C46.8481 32.2239 46.9441 31.6159 46.6881 31.3279C46.4641 31.0399 46.4001 31.2639 46.1761 31.3599C45.8561 31.4879 45.6321 31.4239 45.6321 31.4239C45.6321 31.4239 46.1121 30.9439 45.9521 30.8799C45.7921 30.8479 45.7601 30.9759 45.5361 31.1359C45.3761 31.2639 45.2161 31.4239 44.8961 31.7119C44.6081 31.9999 44.3201 32.6719 44.3201 32.6719L45.6001 33.3119Z" fill="#EDC0B4"/>
</g>
</g>
<path id="Vector_92" d="M45.5041 32.128C45.2801 32 45.0881 32.064 44.9281 32.16L44.4161 32.2239C44.4161 32.2239 43.8721 32.064 43.7761 31.904C43.4881 31.424 41.4401 29.12 40.9601 28.256C40.4481 27.296 39.9681 27.104 39.9681 27.104C38.8161 26.976 37.9201 27.744 38.2721 29.504C38.8801 32.352 42.4001 34.72 42.8801 34.912C43.9681 35.392 46.0801 33.568 46.0801 33.568C46.0161 33.248 45.9841 32.384 45.5041 32.128Z" fill="#001C49"/>
<g id="Group_49">
<g id="Group_50">
<g id="Group_51">
<path id="Vector_93" d="M43.6481 31.744C43.1681 30.944 41.1841 28.576 40.7041 27.68C39.7441 26.56 39.4881 27.488 39.4881 27.488C39.2001 30.304 43.2961 32.704 43.5521 33.056C43.7121 33.28 44.9601 32.672 45.6321 32.288C45.7281 32.224 45.3441 31.872 44.9281 31.776C44.4801 31.712 44.4481 31.872 43.9041 31.968C43.9041 31.936 43.7121 31.872 43.6481 31.744Z" fill="#0D3B7F"/>
</g>
</g>
</g>
</g>
<path id="Vector_94" d="M41.056 41.536C41.152 42.304 40.224 42.656 38.88 42.496L33.28 41.952C31.936 41.792 31.712 41.376 31.456 40.576L28.704 29.792C28.288 28.544 28.96 27.52 30.752 27.68L36.928 27.872C38.72 28.032 39.328 29.504 39.456 30.752L41.056 41.536Z" fill="#97A8C1"/>
</g>
</g>
<defs>
<linearGradient id="paint0_linear_5_804" x1="49.097" y1="27.623" x2="51.4204" y2="24.78" gradientUnits="userSpaceOnUse">
<stop stop-color="white"/>
<stop offset="0.1275" stop-color="#FBFAFA"/>
<stop offset="0.2889" stop-color="#EEEBEA"/>
<stop offset="0.4687" stop-color="#D9D2D0"/>
<stop offset="0.6604" stop-color="#BCB0AC"/>
<stop offset="0.7125" stop-color="#B3A6A1"/>
</linearGradient>
</defs>
</svg>
