<svg width="24" height="24" viewBox="0 0 24 24" fill="none" xmlns="http://www.w3.org/2000/svg">
<path d="M4.84004 16.3399L8.14004 13.0399C7.9803 12.4474 7.95905 11.8261 8.07796 11.2241C8.19686 10.6221 8.45271 10.0555 8.82572 9.56821C9.19872 9.08092 9.67886 8.68602 10.229 8.41407C10.7791 8.14212 11.3844 8.00042 11.998 7.99994H12C12.351 7.99994 12.701 8.04694 13.04 8.13994L15.58 5.59994C14.4283 5.20267 13.2184 4.9999 12 4.99994C9.86429 4.96956 7.76979 5.58934 5.99448 6.77705C4.21917 7.96476 2.847 9.66423 2.06004 11.6499C1.97997 11.8764 1.97997 12.1235 2.06004 12.3499C2.63841 13.8915 3.59424 15.2634 4.84004 16.3399ZM19.16 7.65994C18.9139 7.43637 18.6534 7.22925 18.38 7.03994L21.71 3.70994C21.8033 3.6167 21.8772 3.50601 21.9277 3.38419C21.9782 3.26237 22.0041 3.1318 22.0041 2.99994C22.0041 2.86808 21.9782 2.73751 21.9277 2.61569C21.8772 2.49387 21.8033 2.38318 21.71 2.28994C21.6168 2.1967 21.5061 2.12274 21.3843 2.07228C21.2625 2.02182 21.1319 1.99585 21 1.99585C20.8682 1.99585 20.7376 2.02182 20.6158 2.07228C20.494 2.12274 20.3833 2.1967 20.29 2.28994L16.58 5.99994L14.02 8.55994L8.56004 14.0199L5.62004 16.9599L2.29004 20.2899C2.10269 20.4788 1.99756 20.734 1.99756 20.9999C1.99756 21.2659 2.10269 21.5211 2.29004 21.7099C2.47961 21.8959 2.73453 22 3.00004 22C3.26556 22 3.52048 21.8959 3.71004 21.7099L7.42004 17.9999C7.74404 18.1559 8.07804 18.2899 8.42004 18.3999C9.57204 18.7969 10.782 18.9999 12 18.9999C14.1358 19.0303 16.2303 18.4105 18.0056 17.2228C19.7809 16.0351 21.1531 14.3357 21.94 12.3499C22.0201 12.1235 22.0201 11.8764 21.94 11.6499C21.3617 10.1084 20.4058 8.73649 19.16 7.65994ZM12 15.9999C11.649 15.9999 11.299 15.9529 10.96 15.8599L15.86 10.9599C16.0198 11.5524 16.041 12.1738 15.9221 12.7758C15.8032 13.3778 15.5474 13.9444 15.1744 14.4317C14.8014 14.919 14.3212 15.3139 13.7711 15.5858C13.221 15.8578 12.6157 15.9995 12.002 15.9999H12Z" fill="#98C0C6"/>
</svg>
