<svg width="64" height="41" viewBox="0 0 64 41" fill="none" xmlns="http://www.w3.org/2000/svg">
<g id="Frame" clip-path="url(#clip0_5_1454)">
<path id="Vector" d="M1.22021 40.2976H62.9092L55.9208 12.7598C55.2064 9.9427 52.4447 8.15769 49.5918 8.66769L10.0377 15.7452C7.6859 16.1662 5.82795 17.9825 5.34368 20.328L1.22021 40.2976Z" fill="#DFFBFF"/>
<g id="Group">
<g id="Group_2">
<g id="Group_3">
<path id="Vector_2" d="M31.9184 27.711L29.1231 22.6663C29.1639 22.1611 29.1639 21.6391 29.1231 21.1339C27.9125 8.50889 9.10993 10.0365 9.98977 22.7409C10.3925 25.76 12.9361 33.7613 12.9409 33.9177L12.1762 40.2182H24.0359L23.8585 33.9177C27.5864 34.1173 29.3868 33.5087 29.1255 29.3445H30.9619C31.7722 29.3709 32.3356 28.4111 31.9184 27.711ZM24.127 21.8412C23.9904 21.8412 23.8609 21.8195 23.7386 21.781V23.3086C23.7386 23.7561 23.3766 24.1193 22.9307 24.1193H20.7108C21.4252 24.8988 20.8115 26.2821 19.7374 26.246C18.6658 26.2821 18.0497 24.8988 18.7641 24.1193H16.5442C16.0982 24.1193 15.7362 23.7561 15.7362 23.3086V21.781C13.5355 22.2862 13.5355 18.8196 15.7362 19.3272V17.7996C15.7362 17.3522 16.0982 16.9889 16.5442 16.9889H18.7641C18.0497 16.2095 18.6634 14.8262 19.7374 14.8623C20.8091 14.8262 21.4252 16.2095 20.7108 16.9889H22.9307C23.3766 16.9889 23.7386 17.3522 23.7386 17.7996V19.3272C25.6206 18.8076 26.0785 21.7642 24.127 21.8412Z" fill="#30B9CC"/>
<g id="Clip path group">
<mask id="mask0_5_1454" style="mask-type:luminance" maskUnits="userSpaceOnUse" x="9" y="12" width="24" height="29">
<g id="XMLID_18_">
<path id="Vector_3" d="M31.9184 27.711L29.1231 22.6663C29.1639 22.1611 29.1639 21.6391 29.1231 21.1339C27.9125 8.50889 9.10993 10.0365 9.98977 22.7409C10.3925 25.76 12.9361 33.7613 12.9409 33.9177L12.1762 40.2182H24.0359L23.8585 33.9177C27.5864 34.1173 29.3868 33.5087 29.1255 29.3445H30.9619C31.7722 29.3709 32.3356 28.4111 31.9184 27.711ZM24.127 21.8412C23.9904 21.8412 23.8609 21.8195 23.7386 21.781V23.3086C23.7386 23.7561 23.3766 24.1193 22.9307 24.1193H20.7108C21.4252 24.8988 20.8115 26.2821 19.7374 26.246C18.6658 26.2821 18.0497 24.8988 18.7641 24.1193H16.5442C16.0982 24.1193 15.7362 23.7561 15.7362 23.3086V21.781C13.5355 22.2862 13.5355 18.8196 15.7362 19.3272V17.7996C15.7362 17.3522 16.0982 16.9889 16.5442 16.9889H18.7641C18.0497 16.2095 18.6634 14.8262 19.7374 14.8623C20.8091 14.8262 21.4252 16.2095 20.7108 16.9889H22.9307C23.3766 16.9889 23.7386 17.3522 23.7386 17.7996V19.3272C25.6206 18.8076 26.0785 21.7642 24.127 21.8412Z" fill="white"/>
</g>
</mask>
<g mask="url(#mask0_5_1454)">
<path id="Vector_4" d="M23.8585 33.92H20.2385C20.2385 33.92 21.2334 36.9656 24.8798 36.9656L23.8585 33.92Z" fill="white"/>
</g>
</g>
</g>
<g id="Group_4">
<path id="Vector_5" d="M24.127 19.2671C23.9904 19.2671 23.8609 19.2887 23.7387 19.3272V17.7996C23.7387 17.3521 23.3767 16.9889 22.9308 16.9889H20.7108C21.4252 16.2094 20.8115 14.8262 19.7375 14.8623C18.6659 14.8262 18.0497 16.2094 18.7641 16.9889H16.5442C16.0983 16.9889 15.7363 17.3521 15.7363 17.7996V19.3272C13.5355 18.822 13.5355 22.2886 15.7363 21.781V23.3086C15.7363 23.7561 16.0983 24.1193 16.5442 24.1193H18.7641C18.0497 24.8988 18.6635 26.282 19.7375 26.2459C20.8091 26.282 21.4252 24.8988 20.7108 24.1193H22.9308C23.3767 24.1193 23.7387 23.7561 23.7387 23.3086V21.781C25.6206 22.3006 26.0785 19.344 24.127 19.2671Z" fill="white"/>
<g id="Clip path group_2">
<mask id="mask1_5_1454" style="mask-type:luminance" maskUnits="userSpaceOnUse" x="14" y="14" width="12" height="13">
<g id="XMLID_19_">
<path id="Vector_6" d="M24.127 19.2671C23.9904 19.2671 23.8609 19.2887 23.7387 19.3272V17.7996C23.7387 17.3521 23.3767 16.9889 22.9308 16.9889H20.7108C21.4252 16.2094 20.8115 14.8262 19.7375 14.8623C18.6659 14.8262 18.0497 16.2094 18.7641 16.9889H16.5442C16.0983 16.9889 15.7363 17.3521 15.7363 17.7996V19.3272C13.5355 18.822 13.5355 22.2886 15.7363 21.781V23.3086C15.7363 23.7561 16.0983 24.1193 16.5442 24.1193H18.7641C18.0497 24.8988 18.6635 26.282 19.7375 26.2459C20.8091 26.282 21.4252 24.8988 20.7108 24.1193H22.9308C23.3767 24.1193 23.7387 23.7561 23.7387 23.3086V21.781C25.6206 22.3006 26.0785 19.344 24.127 19.2671Z" fill="white"/>
</g>
</mask>
<g mask="url(#mask1_5_1454)">
<path id="Vector_7" d="M24.4747 19.3969C24.3381 19.3969 24.2086 19.4186 24.0863 19.4571V17.9295C24.0863 17.482 23.7243 17.1188 23.2784 17.1188H21.0585C21.7729 16.3393 21.1592 14.9561 20.0851 14.9921C19.0135 14.9561 18.3974 16.3393 19.1118 17.1188H16.8918C16.4459 17.1188 16.0839 17.482 16.0839 17.9295V19.4571C13.8832 18.9519 13.8832 22.4185 16.0839 21.9109V23.4385C16.0839 23.8859 16.4459 24.2492 16.8918 24.2492H19.1118C18.3974 25.0286 19.0111 26.4119 20.0851 26.3758C21.1568 26.4119 21.7729 25.0286 21.0585 24.2492H23.2784C23.7243 24.2492 24.0863 23.8859 24.0863 23.4385V21.9109C25.9707 22.4305 26.4286 19.4763 24.4747 19.3969Z" fill="white"/>
</g>
</g>
<g id="Clip path group_3">
<mask id="mask2_5_1454" style="mask-type:luminance" maskUnits="userSpaceOnUse" x="14" y="14" width="12" height="13">
<g id="XMLID_19__2">
<path id="Vector_8" d="M24.127 19.2671C23.9904 19.2671 23.8609 19.2887 23.7387 19.3272V17.7996C23.7387 17.3521 23.3767 16.9889 22.9308 16.9889H20.7108C21.4252 16.2094 20.8115 14.8262 19.7375 14.8623C18.6659 14.8262 18.0497 16.2094 18.7641 16.9889H16.5442C16.0983 16.9889 15.7363 17.3521 15.7363 17.7996V19.3272C13.5355 18.822 13.5355 22.2886 15.7363 21.781V23.3086C15.7363 23.7561 16.0983 24.1193 16.5442 24.1193H18.7641C18.0497 24.8988 18.6635 26.282 19.7375 26.2459C20.8091 26.282 21.4252 24.8988 20.7108 24.1193H22.9308C23.3767 24.1193 23.7387 23.7561 23.7387 23.3086V21.781C25.6206 22.3006 26.0785 19.344 24.127 19.2671Z" fill="white"/>
</g>
</mask>
<g mask="url(#mask2_5_1454)">
<path id="Vector_9" d="M16.748 19.0049C15.6716 20.85 16.7216 23.542 18.1025 26.5515H21.8879C21.8879 26.5515 22.4106 21.6824 21.8879 19.729L16.748 19.0049Z" fill="#0F3970"/>
</g>
</g>
</g>
</g>
</g>
<g id="Group_5">
<g id="Group_6">
<path id="Vector_10" d="M44.9745 11.3284C44.3968 12.014 44.8235 13.0027 44.6125 13.7966C44.5023 14.2152 44.2289 14.5736 44.0899 14.985C43.8622 15.6634 44.0491 16.4621 44.555 16.9673C45.3773 17.7756 46.6431 17.7179 47.7003 17.5158C48.2877 17.3739 49.6973 17.2247 49.798 16.5174C50.0066 15.7645 50.0426 14.8479 49.4768 14.2417C49.2778 14.03 49.0165 13.8832 48.8151 13.6715C48.1031 12.9739 48.2997 11.5786 47.3599 11.0638C47.0315 10.9026 46.6623 10.9747 46.3218 11.0445C46.1756 11.0662 46.0414 11.018 45.8975 10.9988C45.5643 10.9531 45.2023 11.0686 44.9745 11.3284Z" fill="#38385D"/>
</g>
<g id="Group_7">
<g id="Group_8">
<path id="Vector_11" d="M45.2286 39.2318L43.7734 39.7298C43.5073 39.8212 43.2987 40.0305 43.2076 40.2951H46.3985C46.5016 39.8308 46.5663 39.6408 46.2643 39.2318H45.2286Z" fill="#38385D"/>
<g id="Group_9">
<path id="Vector_12" d="M46.2618 39.2319C46.2618 39.2319 47.4629 32.0509 46.7773 29.4624L44.6268 29.5538L45.2262 39.2343C45.2286 39.2319 45.7224 39.5085 46.2618 39.2319Z" fill="#EDC0B4"/>
<g id="Clip path group_4">
<mask id="mask3_5_1454" style="mask-type:luminance" maskUnits="userSpaceOnUse" x="44" y="29" width="3" height="11">
<g id="XMLID_22_">
<path id="Vector_13" d="M46.2618 39.2319C46.2618 39.2319 47.4629 32.0509 46.7773 29.4624L44.6268 29.5538L45.2262 39.2343C45.2286 39.2319 45.7224 39.5085 46.2618 39.2319Z" fill="white"/>
</g>
</mask>
<g mask="url(#mask3_5_1454)">
<path id="Vector_14" d="M44.1785 32.2001C44.1785 32.2001 45.1614 32.3829 47.1656 31.9547L47.1128 30.4824L44.4853 30.5233L44.1785 32.2001Z" fill="#EDC0B4"/>
</g>
</g>
</g>
</g>
<g id="Group_10">
<path id="Vector_15" d="M49.1124 38.8904L47.7699 39.6385C47.5254 39.7756 47.3552 40.0186 47.312 40.2977L50.4526 39.7299C50.4717 39.2488 50.5053 39.0587 50.1313 38.7075L49.1124 38.8904Z" fill="#38385D"/>
<g id="Group_11">
<path id="Vector_16" d="M50.1313 38.7051C50.1313 38.7051 50.0426 31.4255 48.911 28.9982L46.8109 29.4697L49.1124 38.8879C49.1124 38.8903 49.647 39.0732 50.1313 38.7051Z" fill="#EDC0B4"/>
<g id="Clip path group_5">
<mask id="mask4_5_1454" style="mask-type:luminance" maskUnits="userSpaceOnUse" x="46" y="28" width="5" height="11">
<g id="XMLID_23_">
<path id="Vector_17" d="M50.1313 38.7051C50.1313 38.7051 50.0426 31.4255 48.911 28.9982L46.8109 29.4697L49.1124 38.8879C49.1124 38.8903 49.647 39.0732 50.1313 38.7051Z" fill="white"/>
</g>
</mask>
<g mask="url(#mask4_5_1454)">
<path id="Vector_18" d="M46.8348 32.1544C46.8348 32.1544 47.8345 32.1592 49.7309 31.3798L49.4168 29.9412L46.8396 30.4488L46.8348 32.1544Z" fill="#EDC0B4"/>
</g>
</g>
</g>
</g>
<g id="Group_12">
<path id="Vector_19" d="M44.8282 22.9189H49.1291C49.1291 22.9189 50.0689 24.0713 49.6637 25.6831C49.563 26.0848 49.5534 26.501 49.6325 26.9076L50.3901 30.7326C50.3901 30.7326 47.2376 31.9932 43.9364 31.1584L44.8282 22.9189Z" fill="#38385D"/>
<g id="Clip path group_6">
<mask id="mask5_5_1454" style="mask-type:luminance" maskUnits="userSpaceOnUse" x="43" y="22" width="8" height="10">
<g id="XMLID_24_">
<path id="Vector_20" d="M44.8282 22.9189H49.1291C49.1291 22.9189 50.0689 24.0713 49.6637 25.6831C49.563 26.0848 49.5534 26.501 49.6325 26.9076L50.3901 30.7326C50.3901 30.7326 47.2376 31.9932 43.9364 31.1584L44.8282 22.9189Z" fill="white"/>
</g>
</mask>
<g mask="url(#mask5_5_1454)">
<path id="Vector_21" d="M44.296 23.9028C44.296 23.9028 47.6811 23.9606 49.4216 22.777L44.5669 22.6615L44.296 23.9028Z" fill="#1A1A35"/>
</g>
</g>
</g>
<path id="Vector_22" d="M44.9074 22.0121L44.8282 22.919H49.1291C49.1291 22.919 48.8414 22.5678 48.8582 22.0121H44.9074Z" fill="#EDC0B4"/>
<path id="Vector_23" d="M47.3694 15.6947C47.3694 15.6947 49.7117 16.4645 49.9634 17.1116C50.2151 17.7588 49.1291 22.4667 49.1291 22.4667H44.6269C44.6269 22.4667 44.2049 17.8045 44.1953 17.4292C44.1762 16.6233 46.1156 15.7765 46.1156 15.7765L47.3694 15.6947Z" fill="white"/>
<g id="Group_13">
<g id="Group_14">
<path id="Vector_24" d="M45.032 13.1832C45.6553 9.71901 48.8917 12.2257 47.228 14.5737C47.2543 15.151 47.7074 16.3034 46.7964 16.4212C45.9789 16.4597 46.082 15.6033 46.0509 15.0428C45.4084 14.8816 44.9649 14.0925 45.032 13.1832Z" fill="#EDC0B4"/>
<g id="Clip path group_7">
<mask id="mask6_5_1454" style="mask-type:luminance" maskUnits="userSpaceOnUse" x="45" y="11" width="3" height="6">
<g id="XMLID_25_">
<path id="Vector_25" d="M45.032 13.1832C45.6553 9.71901 48.8917 12.2257 47.228 14.5737C47.2543 15.151 47.7074 16.3034 46.7964 16.4212C45.9789 16.4597 46.082 15.6033 46.0509 15.0428C45.4084 14.8816 44.9649 14.0925 45.032 13.1832Z" fill="white"/>
</g>
</mask>
<g mask="url(#mask6_5_1454)">
<path id="Vector_26" d="M47.2256 14.5737C47.2256 14.5737 46.8612 14.9995 46.2235 15.0404C46.2235 15.0404 46.9283 15.2978 47.4078 15.0934L47.2256 14.5737Z" fill="#EDC0B4"/>
</g>
</g>
<g id="Clip path group_8">
<mask id="mask7_5_1454" style="mask-type:luminance" maskUnits="userSpaceOnUse" x="45" y="11" width="3" height="6">
<g id="XMLID_25__2">
<path id="Vector_27" d="M45.032 13.1832C45.6553 9.71901 48.8917 12.2257 47.228 14.5737C47.2543 15.151 47.7074 16.3034 46.7964 16.4212C45.9789 16.4597 46.082 15.6033 46.0509 15.0428C45.4084 14.8816 44.9649 14.0925 45.032 13.1832Z" fill="white"/>
</g>
</mask>
<g mask="url(#mask7_5_1454)">
<path id="Vector_28" d="M45.7824 14.6074C45.7584 14.6026 46.3266 14.2369 46.3266 14.2369C46.3266 14.2369 46.2978 14.7012 45.7824 14.6074Z" fill="white"/>
</g>
</g>
<g id="Clip path group_9">
<mask id="mask8_5_1454" style="mask-type:luminance" maskUnits="userSpaceOnUse" x="45" y="11" width="3" height="6">
<g id="XMLID_25__3">
<path id="Vector_29" d="M45.032 13.1832C45.6553 9.71901 48.8917 12.2257 47.228 14.5737C47.2543 15.151 47.7074 16.3034 46.7964 16.4212C45.9789 16.4597 46.082 15.6033 46.0509 15.0428C45.4084 14.8816 44.9649 14.0925 45.032 13.1832Z" fill="white"/>
</g>
</mask>
<g mask="url(#mask8_5_1454)">
<path id="Vector_30" d="M45.1759 12.2089C45.1759 12.2089 45.02 12.933 45.6338 13.3877C45.6338 13.3877 45.6026 12.9186 45.7656 12.5216C46.0605 13.5104 47.0818 13.0798 47.5013 13.7245C47.5013 13.7245 47.3335 12.9282 46.9691 12.654C46.6047 12.3797 46.0605 11.6941 46.0605 11.6941C46.0605 11.6941 45.3868 11.7254 45.1759 12.2089Z" fill="#EDC0B4"/>
</g>
</g>
</g>
<path id="Vector_31" d="M45.1758 16.2842C45.9645 17.1863 47.8153 16.811 48.4386 16.1013C47.2039 15.5264 46.4464 15.4157 45.1758 16.2842Z" fill="#EDC0B4"/>
</g>
<g id="Group_15">
<g id="Group_16">
<path id="Vector_32" d="M45.9694 21.7113C46.1492 20.891 46.1492 20.037 45.9694 19.2166H44.893C44.7875 18.8317 44.6365 18.4637 44.4423 18.1245L45.2046 17.3595C44.7683 16.669 44.1354 16.0339 43.4474 15.5961L42.685 16.3611C42.347 16.1662 41.9826 16.0147 41.5966 15.9088V14.8287C40.7791 14.6483 39.928 14.6483 39.1105 14.8287V15.9088C38.727 16.0147 38.3602 16.1662 38.0221 16.3611L37.2598 15.5961C36.5717 16.0339 35.9388 16.669 35.5025 17.3595L36.2649 18.1245C36.0707 18.4637 35.9197 18.8293 35.8142 19.2166H34.7378C34.558 20.037 34.558 20.891 34.7378 21.7113H35.8142C35.9197 22.0962 36.0707 22.4643 36.2649 22.8035L35.5025 23.5685C35.9388 24.2589 36.5717 24.894 37.2598 25.3319L38.0221 24.5669C38.3602 24.7617 38.7246 24.9133 39.1105 25.0191V26.0993C39.928 26.2797 40.7791 26.2797 41.5966 26.0993V25.0191C41.9802 24.9133 42.347 24.7617 42.685 24.5669L43.4474 25.3319C44.1354 24.894 44.7683 24.2589 45.2046 23.5685L44.4423 22.8035C44.6365 22.4643 44.7875 22.0986 44.893 21.7113H45.9694ZM40.3524 23.4578C36.4303 23.3905 36.4303 17.5375 40.3524 17.4701C44.2745 17.5375 44.2745 23.3905 40.3524 23.4578Z" fill="#8CD3FF"/>
<g id="Clip path group_10">
<mask id="mask9_5_1454" style="mask-type:luminance" maskUnits="userSpaceOnUse" x="34" y="14" width="13" height="13">
<g id="XMLID_26_">
<path id="Vector_33" d="M45.9694 21.7113C46.1492 20.891 46.1492 20.037 45.9694 19.2166H44.893C44.7875 18.8317 44.6365 18.4637 44.4423 18.1245L45.2046 17.3595C44.7683 16.669 44.1354 16.0339 43.4474 15.5961L42.685 16.3611C42.347 16.1662 41.9826 16.0147 41.5966 15.9088V14.8287C40.7791 14.6483 39.928 14.6483 39.1105 14.8287V15.9088C38.727 16.0147 38.3602 16.1662 38.0221 16.3611L37.2598 15.5961C36.5717 16.0339 35.9388 16.669 35.5025 17.3595L36.2649 18.1245C36.0707 18.4637 35.9197 18.8293 35.8142 19.2166H34.7378C34.558 20.037 34.558 20.891 34.7378 21.7113H35.8142C35.9197 22.0962 36.0707 22.4643 36.2649 22.8035L35.5025 23.5685C35.9388 24.2589 36.5717 24.894 37.2598 25.3319L38.0221 24.5669C38.3602 24.7617 38.7246 24.9133 39.1105 25.0191V26.0993C39.928 26.2797 40.7791 26.2797 41.5966 26.0993V25.0191C41.9802 24.9133 42.347 24.7617 42.685 24.5669L43.4474 25.3319C44.1354 24.894 44.7683 24.2589 45.2046 23.5685L44.4423 22.8035C44.6365 22.4643 44.7875 22.0986 44.893 21.7113H45.9694ZM40.3524 23.4578C36.4303 23.3905 36.4303 17.5375 40.3524 17.4701C44.2745 17.5375 44.2745 23.3905 40.3524 23.4578Z" fill="white"/>
</g>
</mask>
<g mask="url(#mask9_5_1454)">
<path id="Vector_34" d="M43.4785 20.8501C43.4785 20.8501 43.5696 21.3312 43.8477 21.3673C44.1258 21.4034 45.5594 21.004 45.5594 21.004L45.5379 20.5854L43.4785 20.8501Z" fill="#8CD3FF"/>
</g>
</g>
</g>
<path id="Vector_35" d="M40.5682 17.4701C36.6461 17.5375 36.6461 23.3905 40.5682 23.4578C44.4902 23.3905 44.4902 17.5375 40.5682 17.4701ZM40.6808 21.7763C38.9619 21.7474 38.9619 19.1805 40.6808 19.1517C42.4021 19.1805 42.3997 21.7474 40.6808 21.7763Z" fill="#102B6E"/>
</g>
<path id="Vector_36" d="M49.9634 17.1117L51.0158 20.1525C51.1812 20.6288 51.047 21.1556 50.6754 21.4948C50.3973 21.7474 50.0233 21.8605 49.6541 21.8052L45.3245 21.1653L45.4156 19.8085L49.1315 20.0971C49.1291 20.0947 48.8941 17.8214 49.9634 17.1117Z" fill="#38385D"/>
<g id="Group_17">
<path id="Vector_37" d="M45.4013 19.9721C45.4013 19.9721 44.4184 19.4669 44.1738 19.5126C43.9293 19.5607 44.579 19.9167 44.5598 19.9721C44.5382 20.025 43.2652 20.0418 43.2173 20.1597C43.1693 20.28 43.5601 21.2134 43.8454 21.1677C44.1307 21.1196 45.3389 20.8958 45.3389 20.8958L45.4013 19.9721Z" fill="#EDC0B4"/>
<g id="Clip path group_11">
<mask id="mask10_5_1454" style="mask-type:luminance" maskUnits="userSpaceOnUse" x="43" y="19" width="3" height="3">
<g id="XMLID_27_">
<path id="Vector_38" d="M45.4013 19.9721C45.4013 19.9721 44.4184 19.4669 44.1738 19.5126C43.9293 19.5607 44.579 19.9167 44.5598 19.9721C44.5382 20.025 43.2652 20.0418 43.2173 20.1597C43.1693 20.28 43.5601 21.2134 43.8454 21.1677C44.1307 21.1196 45.3389 20.8958 45.3389 20.8958L45.4013 19.9721Z" fill="white"/>
</g>
</mask>
<g mask="url(#mask10_5_1454)">
<path id="Vector_39" d="M45.2119 19.7363C45.1447 20.624 45.1783 20.7467 44.3656 21.223L45.6362 20.9488L45.6961 19.948L45.2119 19.7363Z" fill="#EDC0B4"/>
</g>
</g>
</g>
</g>
<path id="Vector_40" d="M45.8352 11.9803C45.7345 12.6539 46.389 13.0894 46.9547 13.2626C46.9092 13.1687 46.8636 13.0749 46.8181 12.9787C47.4726 13.3949 47.3887 13.953 47.3671 14.6338C48.3044 14.0276 48.2613 12.5481 47.5517 11.7807C47.2448 11.4559 46.7869 11.2466 46.3386 11.2755C46.0509 11.3717 45.8807 11.6965 45.8352 11.9803Z" fill="#38385D"/>
<path id="Vector_41" d="M45.8111 11.4198C45.3149 11.7494 45.2885 12.4639 45.4348 12.9955C45.5283 12.4903 45.7632 12.0477 46.0005 11.5954C45.9406 11.5425 45.8711 11.4751 45.8111 11.4198Z" fill="#38385D"/>
</g>
<g id="Group_18">
<g id="Group_19">
<g id="Group_20">
<g id="Group_21">
<g id="Group_22">
<path id="Vector_42" d="M19.2772 10.8592L20.8259 11.196L23.3863 9.82715L24.7264 12.56L22.4681 13.8735C22.5879 15.596 22.166 20.34 22.166 20.34C19.4138 21.7401 16.3044 18.8509 16.3044 18.8509C16.6473 18.0498 16.5082 11.8118 19.2772 10.8592Z" fill="#CE1111"/>
<g id="Clip path group_12">
<mask id="mask11_5_1454" style="mask-type:luminance" maskUnits="userSpaceOnUse" x="16" y="9" width="9" height="12">
<g id="XMLID_28_">
<path id="Vector_43" d="M19.2772 10.8592L20.8259 11.196L23.3863 9.82715L24.7264 12.56L22.4681 13.8735C22.5879 15.596 22.166 20.34 22.166 20.34C19.4138 21.7401 16.3044 18.8509 16.3044 18.8509C16.6473 18.0498 16.5082 11.8118 19.2772 10.8592Z" fill="white"/>
</g>
</mask>
<g mask="url(#mask11_5_1454)">
<path id="Vector_44" d="M20.7611 10.9963C20.7611 10.9963 22.3649 13.0844 22.5112 14.3883L25.0164 12.6995L23.5972 9.46869L20.7611 10.9963Z" fill="#0F3970"/>
</g>
</g>
</g>
<g id="Group_23">
<g id="Group_24">
<g id="Group_25">
<g id="Group_26">
<path id="Vector_45" d="M20.8283 11.9057L20.9433 10.953C21.394 10.9843 21.943 11.006 21.9311 10.4021L21.7009 8.16726L19.5649 8.14801L19.2748 10.8616L20.8283 11.9057Z" fill="#EDC0B4"/>
<g id="Clip path group_13">
<mask id="mask12_5_1454" style="mask-type:luminance" maskUnits="userSpaceOnUse" x="19" y="8" width="3" height="4">
<g id="XMLID_29_">
<path id="Vector_46" d="M20.8283 11.9057L20.9433 10.953C21.394 10.9843 21.943 11.006 21.9311 10.4021L21.7009 8.16726L19.5649 8.14801L19.2748 10.8616L20.8283 11.9057Z" fill="white"/>
</g>
</mask>
<g mask="url(#mask12_5_1454)">
<path id="Vector_47" d="M20.9457 10.9507C20.9457 10.9507 20.4878 10.8593 20.3128 10.3661C20.3128 10.3661 20.2721 11.2586 20.9841 11.439L20.9457 10.9507Z" fill="#EDC0B4"/>
</g>
</g>
<g id="Clip path group_14">
<mask id="mask13_5_1454" style="mask-type:luminance" maskUnits="userSpaceOnUse" x="19" y="8" width="3" height="4">
<g id="XMLID_29__2">
<path id="Vector_48" d="M20.8283 11.9057L20.9433 10.953C21.394 10.9843 21.943 11.006 21.9311 10.4021L21.7009 8.16726L19.5649 8.14801L19.2748 10.8616L20.8283 11.9057Z" fill="white"/>
</g>
</mask>
<g mask="url(#mask13_5_1454)">
<path id="Vector_49" d="M21.5786 10.3107C21.5594 10.3107 21.0416 10.2602 20.8882 9.89935C20.8882 9.89935 20.9122 10.532 21.2646 10.5513C21.617 10.5729 21.5786 10.3107 21.5786 10.3107Z" fill="white"/>
</g>
</g>
<g id="Clip path group_15">
<mask id="mask14_5_1454" style="mask-type:luminance" maskUnits="userSpaceOnUse" x="19" y="8" width="3" height="4">
<g id="XMLID_29__3">
<path id="Vector_50" d="M20.8283 11.9057L20.9433 10.953C21.394 10.9843 21.943 11.006 21.9311 10.4021L21.7009 8.16726L19.5649 8.14801L19.2748 10.8616L20.8283 11.9057Z" fill="white"/>
</g>
</mask>
<g mask="url(#mask14_5_1454)">
<path id="Vector_51" d="M21.8784 9.10786C21.8784 9.10786 21.4277 8.96111 21.2503 8.80474L21.4828 9.14394C21.4828 9.14394 20.8044 9.07418 20.4328 8.59064L20.1283 8.8721L20.2506 8.19611L22.0126 8.66521L21.8784 9.10786Z" fill="#EDC0B4"/>
</g>
</g>
</g>
</g>
</g>
<path id="Vector_52" d="M20.2817 8.32122C20.2817 8.32122 20.5214 8.57622 21.1591 8.83604L20.8858 8.49443C20.8858 8.49443 21.4684 8.89859 22.0006 8.88175L21.6913 8.42948C21.6913 8.42948 22.2883 8.99481 22.9835 8.24905C22.9835 8.24905 21.852 6.89225 20.6101 6.96201C19.3707 7.03178 18.7066 7.87617 18.872 8.40542C18.9536 8.66283 19.3635 10.0605 19.3635 10.0605L20.0515 9.08142C20.0515 9.08142 19.8166 9.2017 19.7183 9.10307C19.62 9.00443 19.6032 8.55698 19.6824 8.48C19.994 8.17207 20.1259 8.87453 20.1259 8.87453L20.2817 8.32122Z" fill="#0F3970"/>
</g>
</g>
</g>
</g>
<path id="Vector_53" d="M20.1019 12.2833L23.9856 14.8622L22.1828 17.6456C19.0974 15.6224 18.1624 16.2214 20.1019 12.2833Z" fill="#38385D"/>
<g id="Group_27">
<g id="Group_28">
<path id="Vector_54" d="M23.6093 10.2819C23.9449 10.1159 24.5826 9.90657 24.8295 9.61308L27.7039 6.37744L28.4208 7.14485L26.1457 10.9146C25.8652 11.4655 25.0309 11.8552 24.537 12.1775L23.6093 10.2819Z" fill="#EDC0B4"/>
<g id="Clip path group_16">
<mask id="mask15_5_1454" style="mask-type:luminance" maskUnits="userSpaceOnUse" x="23" y="6" width="6" height="7">
<g id="XMLID_30_">
<path id="Vector_55" d="M23.6093 10.2819C23.9449 10.1159 24.5826 9.90657 24.8295 9.61308L27.7039 6.37744L28.4208 7.14485L26.1457 10.9146C25.8652 11.4655 25.0309 11.8552 24.537 12.1775L23.6093 10.2819Z" fill="white"/>
</g>
</mask>
<g mask="url(#mask15_5_1454)">
<path id="Vector_56" d="M23.7794 10.0244C23.7794 10.0244 24.5322 11.3355 25.5151 11.7926L24.2517 12.6971L23.1753 10.2674L23.7794 10.0244Z" fill="#EDC0B4"/>
</g>
</g>
</g>
<g id="Group_29">
<path id="Vector_57" d="M36.1331 4.2436C36.0012 4.2436 35.8766 4.26525 35.7591 4.30134V2.82906C35.7591 2.39845 35.4115 2.04962 34.9824 2.04962H32.8439C33.5319 1.29905 32.9398 -0.0361009 31.9065 -1.56946e-05C30.8733 -0.0361009 30.2811 1.29905 30.9692 2.04962H28.8307C28.4016 2.04962 28.054 2.39845 28.054 2.82906V4.30134C25.9323 3.81299 25.9347 7.15448 28.054 6.66612V8.1384C28.054 8.56902 28.4016 8.91784 28.8307 8.91784H30.9692C30.2811 9.66841 30.8733 11.0036 31.9065 10.9675C32.9398 11.0036 33.5319 9.66841 32.8439 8.91784H34.9824C35.4115 8.91784 35.7591 8.56902 35.7591 8.1384V6.66612C37.5739 7.1665 38.0126 4.31818 36.1331 4.2436Z" fill="#30B9CC"/>
<g id="Clip path group_17">
<mask id="mask16_5_1454" style="mask-type:luminance" maskUnits="userSpaceOnUse" x="26" y="-1" width="12" height="12">
<g id="XMLID_31_">
<path id="Vector_58" d="M36.1331 4.2436C36.0012 4.2436 35.8766 4.26525 35.7591 4.30134V2.82906C35.7591 2.39845 35.4115 2.04962 34.9824 2.04962H32.8439C33.5319 1.29905 32.9398 -0.0361009 31.9065 -1.56946e-05C30.8733 -0.0361009 30.2811 1.29905 30.9692 2.04962H28.8307C28.4016 2.04962 28.054 2.39845 28.054 2.82906V4.30134C25.9323 3.81299 25.9347 7.15448 28.054 6.66612V8.1384C28.054 8.56902 28.4016 8.91784 28.8307 8.91784H30.9692C30.2811 9.66841 30.8733 11.0036 31.9065 10.9675C32.9398 11.0036 33.5319 9.66841 32.8439 8.91784H34.9824C35.4115 8.91784 35.7591 8.56902 35.7591 8.1384V6.66612C37.5739 7.1665 38.0126 4.31818 36.1331 4.2436Z" fill="white"/>
</g>
</mask>
<g mask="url(#mask16_5_1454)">
<path id="Vector_59" d="M28.7228 1.70319C28.4639 5.62204 30.4561 8.27791 34.2631 9.27867L32.6377 11.4871L29.2646 10.1784L28.9194 9.1656L27.9389 8.86971L26.4405 6.69016L25.8412 4.52264L28.7228 1.70319Z" fill="#BEF5FD"/>
</g>
</g>
</g>
<path id="Vector_60" d="M27.4762 6.7094C27.4762 6.7094 28.4543 6.26916 28.531 6.33412C28.6101 6.39907 28.4783 6.67572 28.4208 6.7094C28.3632 6.74308 27.8694 7.05101 27.8694 7.05101L27.4762 6.7094Z" fill="#EDC0B4"/>
<path id="Vector_61" d="M28.0516 6.93799C28.0516 6.93799 27.5458 7.43596 28.0516 7.76073V6.93799Z" fill="#EDC0B4"/>
</g>
<g id="Group_30">
<g id="Group_31">
<path id="Vector_62" d="M23.6092 15.4445C23.9952 15.6874 24.4267 15.9063 24.887 15.9521L29.5739 16.527L29.4708 17.4676L24.5922 17.7299C23.9137 17.8068 23.1322 17.381 22.5256 17.1188L23.6092 15.4445Z" fill="#EDC0B4"/>
<g id="Clip path group_18">
<mask id="mask17_5_1454" style="mask-type:luminance" maskUnits="userSpaceOnUse" x="22" y="15" width="8" height="3">
<g id="XMLID_32_">
<path id="Vector_63" d="M23.6092 15.4445C23.9952 15.6874 24.4267 15.9063 24.887 15.9521L29.5739 16.527L29.4708 17.4676L24.5922 17.7299C23.9137 17.8068 23.1322 17.381 22.5256 17.1188L23.6092 15.4445Z" fill="white"/>
</g>
</mask>
<g mask="url(#mask17_5_1454)">
<path id="Vector_64" d="M22.449 17.499C22.238 17.3498 22.063 17.2271 22.063 17.2271L23.4175 15.1678L23.9881 15.4782C23.9881 15.4782 23.1586 17.2584 23.1897 18.0234C23.1897 18.021 22.775 17.7299 22.449 17.499Z" fill="#EDC0B4"/>
</g>
</g>
</g>
<path id="Vector_65" d="M29.4684 16.515C29.4684 16.515 30.6958 16.005 30.7534 16.1085C30.8133 16.2119 30.2859 16.4813 30.3147 16.5487C30.3434 16.6161 31.5493 16.8253 31.5565 16.9144C31.5637 17.0034 30.8804 17.6818 30.8277 17.689C30.7749 17.6962 29.4084 17.4725 29.4084 17.4725L29.4684 16.515Z" fill="#EDC0B4"/>
</g>
</g>
<path id="Vector_66" opacity="0.43" d="M62.9091 40.2975L61.0776 33.0853C61.0776 33.0853 60.7515 30.5497 56.1654 29.2675C56.1654 29.2675 56.4171 31.6563 57.8267 33.3427C56.6065 32.7076 54.8756 32.1519 52.7947 32.443C52.7947 32.443 53.5043 35.6714 56.5394 37.0378C55.24 36.7467 53.5019 36.5013 52.109 36.8261C52.109 36.8261 52.9649 38.1685 54.3745 39.1668C53.0392 39.6889 51.8309 40.2518 51.8309 40.2518H59.421L62.9091 40.2975Z" fill="white"/>
<path id="Vector_67" d="M63.9952 40.4106C63.8801 40.2976 -0.0240067 40.6295 0.00236425 40.2976C-0.155862 40.1821 64.6976 39.8718 63.9952 40.4106Z" fill="#38385C"/>
<g id="Group_32">
<path id="Vector_68" d="M19.1957 4.22198H14.2403C13.8759 4.22198 13.5811 4.51788 13.5811 4.88355C13.6386 5.46572 13.303 6.75035 14.2403 6.76479H17.7549L18.4381 7.4071C18.5412 7.50574 18.7138 7.43116 18.7138 7.28682V6.76238C19.2388 6.79125 19.8214 6.77201 19.855 6.10082C19.7974 5.52105 20.1306 4.23401 19.1957 4.22198Z" fill="#102B6E"/>
<g id="Group_33">
<path id="Vector_69" d="M15.0051 5.50901C15.0075 5.75439 14.6263 5.75439 14.6287 5.50901C14.6263 5.26604 15.0075 5.26604 15.0051 5.50901Z" fill="white"/>
<path id="Vector_70" d="M16.3523 5.50901C16.3547 5.75439 15.9736 5.75439 15.976 5.50901C15.9736 5.26604 16.3571 5.26604 16.3523 5.50901Z" fill="white"/>
<path id="Vector_71" d="M17.5798 5.50901C17.5822 5.75439 17.201 5.75439 17.2034 5.50901C17.201 5.26604 17.5822 5.26604 17.5798 5.50901Z" fill="white"/>
<path id="Vector_72" d="M18.8073 5.50901C18.8097 5.75439 18.4285 5.75439 18.4309 5.50901C18.4285 5.26604 18.8097 5.26604 18.8073 5.50901Z" fill="white"/>
</g>
</g>
<g id="Group_34">
<path id="Vector_73" d="M12.5765 26.1089H7.91606C7.65954 26.1089 7.45337 25.902 7.45337 25.6446V24.2397C7.45337 23.9823 7.65954 23.7754 7.91606 23.7754H12.5765C12.8331 23.7754 13.0392 23.9823 13.0392 24.2397V25.6446C13.0392 25.902 12.8331 26.1089 12.5765 26.1089Z" fill="white"/>
<g id="Group_35">
<path id="Vector_74" d="M12.2816 24.2061H8.2085V24.538H12.2816V24.2061Z" fill="#E3EEFD"/>
<path id="Vector_75" d="M12.2816 24.7762H8.2085V25.1082H12.2816V24.7762Z" fill="#E3EEFD"/>
<path id="Vector_76" d="M10.1456 25.344H8.2085V25.676H10.1456V25.344Z" fill="#E3EEFD"/>
</g>
</g>
<g id="Group_36">
<path id="Vector_77" d="M53.9262 29.4575H46.9979C46.6191 29.4575 46.3098 29.1496 46.3098 28.7671V26.679C46.3098 26.2989 46.6167 25.9885 46.9979 25.9885H53.9262C54.305 25.9885 54.6143 26.2965 54.6143 26.679V28.7695C54.6143 29.1496 54.3074 29.4575 53.9262 29.4575Z" fill="white"/>
<g id="Group_37">
<path id="Vector_78" d="M53.4899 26.6309H47.4365V27.124H53.4899V26.6309Z" fill="#E3EEFD"/>
<path id="Vector_79" d="M53.4899 27.4752H47.4365V27.9684H53.4899V27.4752Z" fill="#E3EEFD"/>
<path id="Vector_80" d="M50.3182 28.322H47.4365V28.8152H50.3182V28.322Z" fill="#E3EEFD"/>
</g>
</g>
<g id="Group_38" opacity="0.43">
<path id="Vector_81" d="M41.8555 34.7693H42.546V33.5208H41.7932C41.7045 33.1888 41.5558 32.8688 41.3593 32.5874L41.9274 32.0172L41.0476 31.1343L40.4483 31.7358C40.1726 31.5698 39.8657 31.4471 39.5516 31.3821V30.5137H38.3074V31.3821C37.9934 31.4495 37.6865 31.5698 37.4108 31.7358L36.8115 31.1343L35.9316 32.0172L36.4998 32.5874C36.3032 32.8688 36.1546 33.1888 36.0659 33.5208H35.3131V34.7693H36.0036C36.0611 35.1374 36.1929 35.4982 36.3847 35.8182L35.934 36.2705L36.8139 37.1533L37.2334 36.7324C37.5546 36.9585 37.9262 37.1221 38.3098 37.2039V37.7764H39.554V37.2039C39.9376 37.1221 40.3092 36.9585 40.6305 36.7324L41.05 37.1533L41.9298 36.2705L41.4791 35.8182C41.6661 35.4982 41.798 35.1374 41.8555 34.7693ZM38.9283 36.4076C36.1426 36.3234 36.145 32.2626 38.9283 32.1784C41.7141 32.265 41.7141 36.3258 38.9283 36.4076Z" fill="#A4C4FF"/>
<path id="Vector_82" d="M35.2029 32.4021H35.4474V31.9594H35.1813C35.1501 31.8415 35.0974 31.7285 35.0278 31.6299L35.2292 31.4278L34.9176 31.115L34.7042 31.3291C34.6059 31.2714 34.498 31.2281 34.3854 31.204V30.8961H33.9442V31.204C33.834 31.2281 33.7237 31.2714 33.6254 31.3291L33.412 31.115L33.1004 31.4278L33.3017 31.6299C33.2322 31.7285 33.1795 31.844 33.1483 31.9594H32.8822V32.4021H33.1267C33.1483 32.532 33.1939 32.6595 33.261 32.775L33.1004 32.9361L33.412 33.2489L33.5607 33.0997C33.6733 33.1791 33.8076 33.2368 33.9418 33.2657V33.4678H34.383V33.2657C34.5196 33.2368 34.6515 33.1791 34.7641 33.0997L34.9128 33.2489L35.2244 32.9361L35.0638 32.775C35.1357 32.6595 35.1837 32.532 35.2029 32.4021ZM34.1648 32.9818C33.1795 32.9578 33.1795 31.5072 34.1648 31.4831C35.1525 31.5072 35.1501 32.9578 34.1648 32.9818Z" fill="#A4C4FF"/>
</g>
</g>
<defs>
<clipPath id="clip0_5_1454">
<rect width="64" height="41" fill="white"/>
</clipPath>
</defs>
</svg>
