<svg width="20" height="20" viewBox="0 0 20 20" fill="none" xmlns="http://www.w3.org/2000/svg">
<g id="Frame">
<g id="Group">
<path id="Vector" d="M9.17676 8.63281C9.7161 8.63281 10.1533 8.19559 10.1533 7.65625C10.1533 7.11691 9.7161 6.67969 9.17676 6.67969C8.63742 6.67969 8.2002 7.11691 8.2002 7.65625C8.2002 8.19559 8.63742 8.63281 9.17676 8.63281Z" fill="#30B9CC"/>
<path id="Vector_2" d="M12.6952 6.30145L13.0218 6.11289L12.4358 5.09801L12.1068 5.28793C11.9989 5.35027 11.8738 5.37654 11.7499 5.36293C11.626 5.34932 11.5096 5.29655 11.4177 5.21227C11.0517 4.87641 10.6329 4.63285 10.173 4.48836C10.054 4.45098 9.95005 4.37661 9.87625 4.27608C9.80245 4.17554 9.76266 4.05409 9.76266 3.92938V3.55469H8.59078V3.92938C8.59078 4.05409 8.55098 4.17555 8.47719 4.27609C8.40339 4.37663 8.29945 4.45101 8.18047 4.4884C7.72055 4.63289 7.30172 4.87645 6.93567 5.2123C6.8438 5.29659 6.72744 5.34937 6.60351 5.36298C6.47957 5.37659 6.35453 5.35031 6.24656 5.28797L5.91758 5.09805L5.33164 6.11293L5.6582 6.30148C5.7661 6.36377 5.85133 6.45882 5.90152 6.57284C5.95172 6.68686 5.96427 6.81391 5.93735 6.93555C5.88363 7.17816 5.85641 7.42066 5.85641 7.65625C5.85641 7.89184 5.88363 8.13434 5.93735 8.37695C5.96427 8.49859 5.95173 8.62564 5.90153 8.73966C5.85133 8.85368 5.7661 8.94873 5.6582 9.01102L5.33164 9.19957L5.91758 10.2145L6.24656 10.0245C6.35453 9.96218 6.47958 9.93589 6.60351 9.94951C6.72745 9.96313 6.84381 10.0159 6.93567 10.1002C7.30176 10.4361 7.72059 10.6796 8.18043 10.8241C8.29942 10.8615 8.40338 10.9359 8.47719 11.0364C8.55099 11.137 8.59079 11.2584 8.59078 11.3832V11.7578H9.76266V11.3831C9.76266 11.2584 9.80245 11.1369 9.87625 11.0364C9.95004 10.9359 10.054 10.8615 10.173 10.8241C10.6328 10.6796 11.0516 10.4361 11.4177 10.1002C11.5096 10.0159 11.626 9.96311 11.7499 9.9495C11.8738 9.93588 11.9989 9.96216 12.1068 10.0245L12.4358 10.2144L13.0218 9.19953L12.6952 9.01098C12.5873 8.94869 12.5021 8.85362 12.4519 8.73959C12.4017 8.62555 12.3891 8.49848 12.4161 8.37684C12.4698 8.1343 12.497 7.89184 12.497 7.65621C12.497 7.42059 12.4698 7.17812 12.4161 6.93559C12.3891 6.81394 12.4017 6.68688 12.4519 6.57285C12.5021 6.45882 12.5873 6.36375 12.6952 6.30145ZM9.17676 9.80469C7.99211 9.80469 7.02832 8.8409 7.02832 7.65625C7.02832 6.4716 7.99211 5.50781 9.17676 5.50781C10.3614 5.50781 11.3252 6.4716 11.3252 7.65625C11.3252 8.8409 10.3614 9.80469 9.17676 9.80469Z" fill="#ACE3EB"/>
<path id="Vector_3" d="M18.7105 12.5955L17.2266 9.62758L17.2266 8.12207C17.2268 3.63641 13.5904 0 9.10477 0H9.10422C6.99598 0 5.01371 0.821094 3.52289 2.31184C2.03191 3.80277 1.21086 5.78512 1.2109 7.89363V7.92395C1.21098 10.2923 2.20418 12.539 3.94535 14.1312V19.4141C3.94535 19.7377 4.2077 20 4.53129 20H12.3438C12.6674 20 12.9297 19.7377 12.9297 19.4141V17.5781H14.6875C15.6584 17.5781 16.4454 16.7911 16.4454 15.8203V13.6721H18.0452C18.456 13.6721 18.7891 13.339 18.7891 12.9282C18.7891 12.8127 18.7622 12.6988 18.7105 12.5955ZM13.6689 7.65625C13.6689 7.83594 13.6575 8.01781 13.6347 8.20027L14.1152 8.4777C14.2497 8.55541 14.3479 8.68338 14.3881 8.83348C14.4283 8.98358 14.4073 9.14351 14.3296 9.27809L13.1577 11.3079C13.08 11.4424 12.9521 11.5406 12.802 11.5808C12.6519 11.6211 12.4919 11.6 12.3573 11.5223L11.8748 11.2437C11.585 11.4639 11.2693 11.6476 10.9346 11.7906V12.3438C10.9346 12.6673 10.6722 12.9297 10.3486 12.9297H8.00488C7.68129 12.9297 7.41895 12.6673 7.41895 12.3438V11.7906C7.08426 11.6476 6.76846 11.464 6.47867 11.2437L5.99613 11.5223C5.92951 11.5608 5.85594 11.5858 5.77966 11.5959C5.70337 11.6059 5.62585 11.6008 5.55152 11.5809C5.4772 11.561 5.40752 11.5266 5.34647 11.4798C5.28542 11.433 5.23421 11.3745 5.19574 11.3079L4.02387 9.27812C3.94618 9.14355 3.92513 8.98362 3.96535 8.83352C4.00557 8.68342 4.10375 8.55544 4.23832 8.47773L4.71883 8.20031C4.69606 8.01785 4.68457 7.83594 4.68457 7.65629C4.68457 7.47664 4.69606 7.29477 4.71883 7.11227L4.23832 6.83484C4.10375 6.75713 4.00557 6.62916 3.96535 6.47906C3.92513 6.32896 3.94618 6.16903 4.02387 6.03445L5.19574 4.00469C5.27345 3.87012 5.40143 3.77192 5.55152 3.73168C5.62585 3.71175 5.70337 3.70667 5.77966 3.71671C5.85594 3.72676 5.92951 3.75174 5.99613 3.79023L6.47867 4.06883C6.76844 3.8486 7.08425 3.66492 7.41895 3.52195V2.96875C7.41895 2.64516 7.68129 2.38281 8.00488 2.38281H10.3486C10.6722 2.38281 10.9346 2.64516 10.9346 2.96875V3.52191C11.2693 3.6649 11.585 3.84858 11.8748 4.06879L12.3573 3.7902C12.4919 3.71251 12.6518 3.69145 12.802 3.73164C12.8763 3.75154 12.946 3.7859 13.007 3.83274C13.0681 3.87959 13.1193 3.938 13.1577 4.00465L14.3296 6.03441C14.4073 6.16899 14.4283 6.32892 14.3881 6.47902C14.3479 6.62912 14.2497 6.75709 14.1152 6.8348L13.6347 7.11223C13.6575 7.29469 13.6689 7.47656 13.6689 7.65625Z" fill="#30B9CC"/>
</g>
</g>
</svg>
