<svg width="24" height="24" viewBox="0 0 24 24" fill="none" xmlns="http://www.w3.org/2000/svg">
<g id="vuesax-bulk-setting-5 1" clip-path="url(#clip0_5_1846)">
<g id="vuesax/bulk/setting-5">
<g id="setting-5">
<path id="Vector" opacity="0.4" d="M18.51 1.79999C18.2713 1.79999 18.0424 1.89481 17.8736 2.06359C17.7048 2.23237 17.61 2.46129 17.61 2.69999V7.34999C17.61 7.58868 17.7048 7.8176 17.8736 7.98638C18.0424 8.15517 18.2713 8.24999 18.51 8.24999C18.7487 8.24999 18.9776 8.15517 19.1464 7.98638C19.3152 7.8176 19.41 7.58868 19.41 7.34999V2.69999C19.41 2.46129 19.3152 2.23237 19.1464 2.06359C18.9776 1.89481 18.7487 1.79999 18.51 1.79999Z" fill="#3E3E3E"/>
<path id="Vector_2" d="M12 15.75C11.7613 15.75 11.5324 15.8448 11.3636 16.0136C11.1948 16.1824 11.1 16.4113 11.1 16.65V21.3C11.1 21.5387 11.1948 21.7676 11.3636 21.9364C11.5324 22.1052 11.7613 22.2 12 22.2C12.2387 22.2 12.4676 22.1052 12.6364 21.9364C12.8052 21.7676 12.9 21.5387 12.9 21.3V16.65C12.9 16.4113 12.8052 16.1824 12.6364 16.0136C12.4676 15.8448 12.2387 15.75 12 15.75Z" fill="#3E3E3E"/>
<path id="Vector_3" opacity="0.4" d="M5.49 1.79999C5.2513 1.79999 5.02238 1.89481 4.8536 2.06359C4.68482 2.23237 4.59 2.46129 4.59 2.69999V7.34999C4.59 7.58868 4.68482 7.8176 4.8536 7.98638C5.02238 8.15517 5.2513 8.24999 5.49 8.24999C5.72869 8.24999 5.95761 8.15517 6.12639 7.98638C6.29518 7.8176 6.39 7.58868 6.39 7.34999V2.69999C6.39 2.46129 6.29518 2.23237 6.12639 2.06359C5.95761 1.89481 5.72869 1.79999 5.49 1.79999Z" fill="#3E3E3E"/>
<path id="Vector_4" opacity="0.4" d="M7.35001 10.17H3.63001C3.39132 10.17 3.1624 10.2648 2.99361 10.4336C2.82483 10.6024 2.73001 10.8313 2.73001 11.07C2.73001 11.3087 2.82483 11.5376 2.99361 11.7064C3.1624 11.8752 3.39132 11.97 3.63001 11.97H4.59001V21.3C4.59001 21.4182 4.61329 21.5352 4.65852 21.6444C4.70375 21.7536 4.77004 21.8528 4.85361 21.9364C4.93719 22.02 5.0364 22.0862 5.1456 22.1315C5.25479 22.1767 5.37182 22.2 5.49001 22.2C5.6082 22.2 5.72523 22.1767 5.83443 22.1315C5.94362 22.0862 6.04283 22.02 6.12641 21.9364C6.20998 21.8528 6.27627 21.7536 6.3215 21.6444C6.36673 21.5352 6.39001 21.4182 6.39001 21.3V11.97H7.35001C7.58871 11.97 7.81762 11.8752 7.98641 11.7064C8.15519 11.5376 8.25001 11.3087 8.25001 11.07C8.25001 10.8313 8.15519 10.6024 7.98641 10.4336C7.81762 10.2648 7.58871 10.17 7.35001 10.17Z" fill="#3E3E3E"/>
<path id="Vector_5" opacity="0.4" d="M20.37 10.17H16.65C16.4113 10.17 16.1824 10.2648 16.0136 10.4336C15.8448 10.6024 15.75 10.8313 15.75 11.07C15.75 11.3087 15.8448 11.5376 16.0136 11.7064C16.1824 11.8752 16.4113 11.97 16.65 11.97H17.61V21.3C17.61 21.4182 17.6333 21.5352 17.6785 21.6444C17.7237 21.7536 17.79 21.8528 17.8736 21.9364C17.9572 22.02 18.0564 22.0862 18.1656 22.1315C18.2748 22.1767 18.3918 22.2 18.51 22.2C18.6282 22.2 18.7452 22.1767 18.8544 22.1315C18.9636 22.0862 19.0628 22.02 19.1464 21.9364C19.23 21.8528 19.2963 21.7536 19.3415 21.6444C19.3867 21.5352 19.41 21.4182 19.41 21.3V11.97H20.37C20.6087 11.97 20.8376 11.8752 21.0064 11.7064C21.1752 11.5376 21.27 11.3087 21.27 11.07C21.27 10.8313 21.1752 10.6024 21.0064 10.4336C20.8376 10.2648 20.6087 10.17 20.37 10.17Z" fill="#3E3E3E"/>
<path id="Vector_6" d="M13.86 12.03H12.9V2.69999C12.9 2.46129 12.8052 2.23237 12.6364 2.06359C12.4676 1.89481 12.2387 1.79999 12 1.79999C11.7613 1.79999 11.5324 1.89481 11.3636 2.06359C11.1948 2.23237 11.1 2.46129 11.1 2.69999V12.03H10.14C9.9013 12.03 9.67238 12.1248 9.50359 12.2936C9.33481 12.4624 9.23999 12.6913 9.23999 12.93C9.23999 13.1687 9.33481 13.3976 9.50359 13.5664C9.67238 13.7352 9.9013 13.83 10.14 13.83H13.86C14.0987 13.83 14.3276 13.7352 14.4964 13.5664C14.6652 13.3976 14.76 13.1687 14.76 12.93C14.76 12.6913 14.6652 12.4624 14.4964 12.2936C14.3276 12.1248 14.0987 12.03 13.86 12.03Z" fill="#3E3E3E"/>
</g>
</g>
</g>
<defs>
<clipPath id="clip0_5_1846">
<rect width="24" height="24" fill="white"/>
</clipPath>
</defs>
</svg>
