<svg width="24" height="24" viewBox="0 0 24 24" fill="none" xmlns="http://www.w3.org/2000/svg">
<g id="Iconly-Bulk-Home 1">
<g id="Home">
<path id="Home_2" d="M9.144 20.782V17.715C9.14479 17.3401 9.29399 16.9808 9.55897 16.7156C9.82394 16.4505 10.1831 16.301 10.558 16.3H13.432C13.8082 16.2986 14.1695 16.4467 14.4365 16.7117C14.7035 16.9767 14.8544 17.3368 14.856 17.713V20.771C14.8565 21.0964 14.9859 21.4084 15.2158 21.6387C15.4458 21.869 15.7576 21.9989 16.083 22H18.044C18.9585 22.0026 19.8368 21.643 20.487 21C20.8075 20.6832 21.062 20.3061 21.2359 19.8904C21.4098 19.4746 21.4996 19.0286 21.5 18.578V9.86597C21.4988 9.5026 21.4175 9.14396 21.262 8.81556C21.1064 8.48717 20.8804 8.19709 20.6 7.96597L13.943 2.67397C13.3773 2.22521 12.6732 1.98694 11.9513 1.99989C11.2293 2.01284 10.5343 2.27621 9.985 2.74497L3.467 7.96397C3.17411 8.18875 2.93524 8.47624 2.76791 8.80536C2.60059 9.13447 2.50905 9.49687 2.5 9.86597L2.5 18.566C2.50131 19.0184 2.59176 19.4662 2.76617 19.8836C2.94059 20.3011 3.19555 20.6801 3.5165 20.999C3.83744 21.3179 4.21808 21.5705 4.63666 21.7422C5.05524 21.914 5.50356 22.0015 5.956 22H7.872C8.19843 22.0024 8.51245 21.875 8.745 21.646C8.8596 21.5331 8.95062 21.3986 9.01277 21.2503C9.07492 21.102 9.10695 20.9428 9.107 20.782H9.144Z" fill="#30B9CC"/>
</g>
</g>
</svg>
