<svg width="28" height="28" viewBox="0 0 28 28" fill="none" xmlns="http://www.w3.org/2000/svg">
<g id="Iconly-Bulk-Search 1">
<g id="Search">
<path id="Ellipse_746" d="M12.3655 22.5237C17.9062 22.5237 22.3977 18.0039 22.3977 12.4285C22.3977 6.85313 17.9062 2.33337 12.3655 2.33337C6.82493 2.33337 2.33337 6.85313 2.33337 12.4285C2.33337 18.0039 6.82493 22.5237 12.3655 22.5237Z" fill="#8AC4CC"/>
<path id="Path_34202" opacity="0.4" d="M24.1208 25.6154C23.7307 25.6025 23.36 25.4419 23.0837 25.1663L20.7072 22.3896C20.4622 22.1648 20.3151 21.8529 20.2976 21.5208C20.2802 21.1888 20.3937 20.8632 20.6138 20.6139C20.7196 20.5066 20.8456 20.4213 20.9846 20.3631C21.1236 20.3049 21.2728 20.2749 21.4235 20.2749C21.5742 20.2749 21.7234 20.3049 21.8624 20.3631C22.0014 20.4213 22.1274 20.5066 22.2332 20.6139L25.221 23.0044C25.432 23.2207 25.5762 23.4932 25.6364 23.7892C25.6966 24.0853 25.6703 24.3924 25.5605 24.6739C25.4516 24.9548 25.2637 25.1981 25.0193 25.3744C24.775 25.5506 24.4848 25.6521 24.1838 25.6668L24.1208 25.6154Z" fill="#A5CCD1"/>
</g>
<circle id="Ellipse 154" cx="12.25" cy="12.25" r="7.58333" fill="white"/>
</g>
</svg>
