<svg width="28" height="28" viewBox="0 0 28 28" fill="none" xmlns="http://www.w3.org/2000/svg">
<g id="Frame">
<g id="Group">
<g id="Group_2">
<path id="Vector" d="M23.3333 11.48H4.66667C4.025 11.48 3.5 12.005 3.5 12.6466V19.8333C3.5 23.3333 5.25 25.6666 9.33333 25.6666H18.6667C22.75 25.6666 24.5 23.3333 24.5 19.8333V12.6466C24.5 12.005 23.975 11.48 23.3333 11.48ZM10.745 21.245C10.6867 21.2916 10.6283 21.35 10.57 21.385C10.5 21.4316 10.43 21.4666 10.36 21.49C10.29 21.525 10.22 21.5483 10.15 21.56C10.0683 21.5716 9.99833 21.5833 9.91667 21.5833C9.765 21.5833 9.61333 21.5483 9.47333 21.49C9.32167 21.4316 9.205 21.35 9.08833 21.245C8.87833 21.0233 8.75 20.72 8.75 20.4166C8.75 20.1133 8.87833 19.81 9.08833 19.5883C9.205 19.4833 9.32167 19.4016 9.47333 19.3433C9.68333 19.25 9.91667 19.2266 10.15 19.2733C10.22 19.285 10.29 19.3083 10.36 19.3433C10.43 19.3666 10.5 19.4016 10.57 19.4483L10.745 19.5883C10.955 19.81 11.0833 20.1133 11.0833 20.4166C11.0833 20.72 10.955 21.0233 10.745 21.245ZM10.745 17.1616C10.5233 17.3716 10.22 17.5 9.91667 17.5C9.61333 17.5 9.31 17.3716 9.08833 17.1616C8.87833 16.94 8.75 16.6366 8.75 16.3333C8.75 16.03 8.87833 15.7266 9.08833 15.505C9.415 15.1783 9.92833 15.0733 10.36 15.26C10.5117 15.3183 10.64 15.4 10.745 15.505C10.955 15.7266 11.0833 16.03 11.0833 16.3333C11.0833 16.6366 10.955 16.94 10.745 17.1616ZM14.8283 21.245C14.6067 21.455 14.3033 21.5833 14 21.5833C13.6967 21.5833 13.3933 21.455 13.1717 21.245C12.9617 21.0233 12.8333 20.72 12.8333 20.4166C12.8333 20.1133 12.9617 19.81 13.1717 19.5883C13.6033 19.1566 14.3967 19.1566 14.8283 19.5883C15.0383 19.81 15.1667 20.1133 15.1667 20.4166C15.1667 20.72 15.0383 21.0233 14.8283 21.245ZM14.8283 17.1616L14.6533 17.3016C14.5833 17.3483 14.5133 17.3833 14.4433 17.4066C14.3733 17.4416 14.3033 17.465 14.2333 17.4766C14.1517 17.4883 14.0817 17.5 14 17.5C13.6967 17.5 13.3933 17.3716 13.1717 17.1616C12.9617 16.94 12.8333 16.6366 12.8333 16.3333C12.8333 16.03 12.9617 15.7266 13.1717 15.505C13.2767 15.4 13.405 15.3183 13.5567 15.26C13.9883 15.0733 14.5017 15.1783 14.8283 15.505C15.0383 15.7266 15.1667 16.03 15.1667 16.3333C15.1667 16.6366 15.0383 16.94 14.8283 17.1616ZM18.9117 21.245C18.69 21.455 18.3867 21.5833 18.0833 21.5833C17.78 21.5833 17.4767 21.455 17.255 21.245C17.045 21.0233 16.9167 20.72 16.9167 20.4166C16.9167 20.1133 17.045 19.81 17.255 19.5883C17.6867 19.1566 18.48 19.1566 18.9117 19.5883C19.1217 19.81 19.25 20.1133 19.25 20.4166C19.25 20.72 19.1217 21.0233 18.9117 21.245ZM18.9117 17.1616L18.7367 17.3016C18.6667 17.3483 18.5967 17.3833 18.5267 17.4066C18.4567 17.4416 18.3867 17.465 18.3167 17.4766C18.235 17.4883 18.1533 17.5 18.0833 17.5C17.78 17.5 17.4767 17.3716 17.255 17.1616C17.045 16.94 16.9167 16.6366 16.9167 16.3333C16.9167 16.03 17.045 15.7266 17.255 15.505C17.3717 15.4 17.4883 15.3183 17.64 15.26C17.85 15.1666 18.0833 15.1433 18.3167 15.19C18.3867 15.2016 18.4567 15.225 18.5267 15.26C18.5967 15.2833 18.6667 15.3183 18.7367 15.365L18.9117 15.505C19.1217 15.7266 19.25 16.03 19.25 16.3333C19.25 16.6366 19.1217 16.94 18.9117 17.1616Z" fill="#8AC4CC"/>
</g>
</g>
<path id="Vector_2" d="M19.4964 3.86163V2.04163C19.4964 1.56329 19.0997 1.16663 18.6214 1.16663C18.143 1.16663 17.7464 1.56329 17.7464 2.04163V3.79163H10.163V2.04163C10.163 1.56329 9.76636 1.16663 9.28803 1.16663C8.80969 1.16663 8.41303 1.56329 8.41303 2.04163V3.86163C5.26303 4.15329 3.73469 6.03163 3.50136 8.81996C3.47803 9.15829 3.75803 9.43829 4.08469 9.43829H23.8247C24.163 9.43829 24.443 9.14663 24.408 8.81996C24.1747 6.03163 22.6464 4.15329 19.4964 3.86163Z" fill="#DBEBED"/>
</g>
</svg>
