<svg width="18" height="19" viewBox="0 0 18 19" fill="none" xmlns="http://www.w3.org/2000/svg">
<g id="Frame" clip-path="url(#clip0_5_1679)">
<g id="Group">
<path id="Vector" d="M17.4223 3.6904C16.5062 3.20185 15.3176 4.13233 15.0451 6.42447C14.8915 7.77321 14.8823 8.31127 14.3499 8.82494C14.3435 8.8314 14.3365 8.83785 14.3301 8.84431L9.55517 2.12142C9.15095 1.57116 8.38852 1.4284 7.81581 1.84378C7.35496 2.19173 7.18151 2.80225 7.39106 3.33385L6.95427 2.71544C6.54509 2.13505 5.71754 1.97291 5.15049 2.41843C4.57778 2.83309 4.44823 3.66673 4.85741 4.2464L5.26093 4.82177C4.82485 4.3619 4.05463 4.20049 3.53289 4.57856C2.96019 4.99323 2.83064 5.82686 3.23981 6.40654L4.05675 7.58381C3.67448 7.07732 2.97718 6.92953 2.44907 7.3277C1.90114 7.70721 1.81973 8.4691 2.19422 9.02438L3.82172 11.3194C4.7937 12.6904 5.74444 14.0764 6.66756 15.4818C7.31177 16.4632 8.35737 17.8335 9.55234 18.5351C12.5072 20.3064 18.075 16.8406 17.3296 11.026C16.8885 7.6491 18.4084 4.22918 17.4223 3.6904Z" fill="url(#paint0_linear_5_1679)"/>
<path id="Vector_2" d="M5.98862 16.1196C5.835 16.1088 5.71111 16.0945 5.55325 16.0529C5.39538 16.012 5.27149 15.9969 5.14336 15.9524C4.85807 15.8663 4.59826 15.7458 4.33491 15.5951C3.81176 15.324 3.36365 14.9193 2.99341 14.4114C2.62741 13.9336 2.36902 13.3496 2.26496 12.7757C2.19629 12.4758 2.19062 12.1982 2.18213 11.8897C2.19275 11.734 2.20691 11.6085 2.21752 11.4521C2.22814 11.2964 2.27274 11.1665 2.28336 11.0109L2.3676 11.4327C2.38743 11.5848 2.43273 11.7025 2.48229 11.8502C2.54742 12.12 2.64228 12.3854 2.7336 12.6215C2.91978 13.1229 3.16189 13.5857 3.49037 14.0061C3.81884 14.4265 4.17351 14.8132 4.61384 15.1568C4.81701 15.3153 5.05062 15.4703 5.28424 15.6253C5.38618 15.7049 5.51785 15.7802 5.64952 15.8556L5.98862 16.1196Z" fill="white"/>
<path id="Vector_3" d="M4.43685 16.7925C4.33349 16.8276 4.2089 16.8255 4.0843 16.8233C3.95971 16.8212 3.86414 16.8269 3.74733 16.7954C3.53496 16.7695 3.29356 16.7358 3.06702 16.6425C2.63661 16.494 2.19982 16.2487 1.87488 15.938C1.52022 15.6195 1.25616 15.1984 1.12378 14.75C1.0537 14.5405 0.992106 14.3016 0.958834 14.0706C0.953171 13.9738 0.955295 13.8475 0.957418 13.7212C0.98078 13.6323 0.975116 13.5354 1.00626 13.4171C1.07069 13.5297 1.10537 13.6344 1.14785 13.7098C1.21227 13.8224 1.24696 13.9271 1.28943 14.0025C1.39633 14.1904 1.4742 14.3698 1.58888 14.5283C1.81046 14.8741 2.04054 15.1905 2.34423 15.4638C2.61891 15.7286 2.95942 15.9804 3.27869 16.1942C3.43868 16.3011 3.63548 16.3864 3.82379 16.5012C3.90378 16.5543 4.02059 16.5866 4.10058 16.6397C4.24005 16.7071 4.32783 16.7308 4.43685 16.7925Z" fill="white"/>
<path id="Vector_4" d="M9.72644 0.748978C9.88077 0.742521 10.0124 0.77337 10.1738 0.796327C10.3353 0.820002 10.4669 0.850133 10.5986 0.880982C10.8988 0.96492 11.1699 1.05603 11.4481 1.17656C12.0045 1.41833 12.5008 1.80142 12.8937 2.27205C13.2866 2.74339 13.5768 3.30297 13.712 3.86901C13.7835 4.16674 13.8182 4.44223 13.831 4.75502C13.8373 4.91142 13.8366 5.03768 13.8133 5.20125C13.7899 5.36482 13.7892 5.49109 13.7588 5.62453L13.6292 5.21488C13.5938 5.06566 13.5648 4.94657 13.4997 4.80524L13.2186 4.02254C13.0091 3.53757 12.711 3.07484 12.362 2.65587C12.0123 2.2369 11.6187 1.89182 11.1727 1.59194C10.9462 1.42693 10.6977 1.29852 10.4712 1.13351C10.3614 1.06607 10.2227 1.00509 10.0832 0.944832L9.72644 0.748978Z" fill="white"/>
<path id="Vector_5" d="M12.2559 0C12.3805 0.000717414 12.476 0.00860897 12.5787 0.0466319C12.6742 0.0545235 12.8059 0.0853723 12.9086 0.123395C13.1139 0.199441 13.3184 0.27477 13.5308 0.38023C13.9258 0.598324 14.2763 0.891029 14.5226 1.27198C14.7987 1.64575 14.9651 2.07835 15.0132 2.53965C15.0337 2.75559 15.0252 2.9787 15.016 3.20182C15.0083 3.29867 14.9778 3.43211 14.97 3.52896C14.9325 3.63299 14.9247 3.72912 14.8582 3.84032L14.7152 3.24415C14.6649 3.03538 14.5927 2.86392 14.5502 2.68528C14.3987 2.31223 14.2543 1.9693 14.0285 1.67803C13.7956 1.35663 13.5478 1.10195 13.2639 0.825027C13.1103 0.705218 12.9503 0.555279 12.7967 0.434753C12.7167 0.360142 12.6431 0.314945 12.5341 0.246791C12.4385 0.112634 12.3288 0.0451971 12.2559 0Z" fill="white"/>
<path id="Vector_6" d="M5.34724 4.93651C4.9324 4.32599 4.13457 4.15883 3.53284 4.57924C3.47833 4.62013 3.40541 4.66318 3.35657 4.7342C3.896 4.48095 4.62304 4.66246 4.99186 5.18761L8.71623 10.4642L9.44044 10.7382L5.34724 4.93651Z" fill="#F7931E"/>
<path id="Vector_7" d="M6.95489 2.71544C6.64977 2.26634 6.12449 2.07622 5.63957 2.17235C5.41233 2.21755 5.20703 2.33736 5.04492 2.50524C5.02863 2.52174 5.01306 2.53752 4.9989 2.54756C5.53834 2.29432 6.22997 2.44139 6.5988 2.96653L10.8138 8.93327L11.538 9.20732L6.95489 2.71544Z" fill="#F7931E"/>
<path id="Vector_8" d="M2.44895 7.32836C2.39444 7.36925 2.364 7.38719 2.28259 7.46969C2.7923 7.22218 3.41527 7.40369 3.7487 7.90372L6.81611 12.2398L7.54032 12.5138L4.10407 7.65263C3.72463 7.06722 2.99122 6.91943 2.44895 7.32836Z" fill="#F7931E"/>
<path id="Vector_9" d="M17.4223 3.69039C17.2524 3.59641 17.0789 3.5591 16.8786 3.56484C16.8864 3.56843 16.8984 3.57273 16.9119 3.57775C17.0775 3.63586 17.2255 3.74061 17.3302 3.88337C17.8605 4.60724 17.3486 6.1131 17.1306 7.44892C16.9154 8.67139 16.7646 9.91324 17.0258 11.0496C18.145 16.0177 13.6016 19.2698 10.4641 18.9017C13.6009 19.612 18.5967 16.3097 17.44 11.1307C17.1787 9.99431 17.3097 8.81846 17.5447 7.52999C17.7663 5.99544 18.4084 4.22917 17.4223 3.69039Z" fill="#F7931E"/>
<path id="Vector_10" d="M14.2415 8.92317C14.2798 8.89017 14.3159 8.85789 14.3498 8.82489L9.58482 2.11563C9.17565 1.53524 8.41251 1.39319 7.84051 1.80786C7.786 1.84875 7.7322 1.88964 7.68335 1.96067C8.22278 1.70742 8.86628 1.87171 9.23016 2.36672L13.9605 9.02792C12.2162 9.79411 10.3331 12.7879 12.6303 15.2393C10.8046 12.6666 12.7797 10.122 14.0518 9.07311C14.1198 9.02289 14.1828 8.97339 14.2415 8.92317Z" fill="#F7931E"/>
</g>
</g>
<defs>
<linearGradient id="paint0_linear_5_1679" x1="9.89475" y1="2.29646" x2="9.75976" y2="19.4807" gradientUnits="userSpaceOnUse">
<stop stop-color="#FFE900"/>
<stop offset="0.2974" stop-color="#FFE400"/>
<stop offset="0.6296" stop-color="#FFD700"/>
<stop offset="0.9774" stop-color="#FFC100"/>
<stop offset="1" stop-color="#FFBF00"/>
</linearGradient>
<clipPath id="clip0_5_1679">
<rect width="17" height="19" fill="white" transform="translate(0.955322)"/>
</clipPath>
</defs>
</svg>
