<svg width="28" height="28" viewBox="0 0 28 28" fill="none" xmlns="http://www.w3.org/2000/svg">
<path d="M2.02637 8.82374V16.6711C2.02637 18.9001 3.83163 20.7053 6.06058 20.7053H17.7764C18.6053 20.7053 19.2869 20.0237 19.2869 19.1948V11.329C19.2869 9.10005 17.4816 7.29479 15.2527 7.29479H3.53689C2.70795 7.29479 2.02637 7.95795 2.02637 8.76847V8.82374ZM20.6316 17.5553L23.8737 20.3922C24.3895 20.8527 25.2001 20.7974 25.6606 20.2816C25.8632 20.0422 25.9737 19.7474 25.9737 19.4527V8.54742C25.9737 7.84742 25.4027 7.29479 24.7211 7.27637C24.4079 7.27637 24.1132 7.38689 23.8922 7.58953L20.6316 10.4448C20.3553 10.6843 20.2079 11.0343 20.2079 11.4027V16.6158C20.2079 16.9658 20.3737 17.3158 20.6316 17.5553Z" fill="#A9D4DA"/>
<path d="M2.02637 8.82363V16.671C2.02637 18.8999 3.83163 20.7052 6.06058 20.7052H17.7764C18.6053 20.7052 19.2869 20.0236 19.2869 19.1947V11.3289C19.2869 9.09994 17.4816 7.29468 15.2527 7.29468H3.53689C2.70795 7.29468 2.02637 7.95784 2.02637 8.76836V8.82363Z" fill="#A9D4DA"/>
</svg>
