<svg width="28" height="28" viewBox="0 0 28 28" fill="none" xmlns="http://www.w3.org/2000/svg">
<path d="M2.02637 8.82367V16.671C2.02637 18.9 3.83163 20.7053 6.06058 20.7053H17.7764C18.6053 20.7053 19.2869 20.0237 19.2869 19.1947V11.3289C19.2869 9.09999 17.4816 7.29473 15.2527 7.29473H3.53689C2.70795 7.29473 2.02637 7.95788 2.02637 8.76841V8.82367ZM20.6316 17.5553L23.8737 20.3921C24.3895 20.8526 25.2001 20.7974 25.6606 20.2816C25.8632 20.0421 25.9737 19.7474 25.9737 19.4526V8.54736C25.9737 7.84736 25.4027 7.29473 24.7211 7.27631C24.4079 7.27631 24.1132 7.38683 23.8922 7.58946L20.6316 10.4447C20.3553 10.6842 20.2079 11.0342 20.2079 11.4026V16.6158C20.2079 16.9658 20.3737 17.3158 20.6316 17.5553Z" fill="#B8E5EB"/>
<path d="M2.02637 8.82369V16.6711C2.02637 18.9 3.83163 20.7053 6.06058 20.7053H17.7764C18.6053 20.7053 19.2869 20.0237 19.2869 19.1947V11.3289C19.2869 9.1 17.4816 7.29474 15.2527 7.29474H3.53689C2.70795 7.29474 2.02637 7.9579 2.02637 8.76842V8.82369Z" fill="white"/>
</svg>
