<svg width="18" height="18" viewBox="0 0 18 18" fill="none" xmlns="http://www.w3.org/2000/svg">
<g clip-path="url(#clip0_5_2839)">
<path d="M16.992 4.84987L16.9335 4.87575C15.6217 5.45963 14.2594 5.88375 12.8621 6.16275C13.2568 8.03563 13.2561 9.9703 12.8599 11.8429C14.2571 12.1208 15.6262 12.5415 16.9324 13.1231L16.9897 13.149C17.6321 11.9059 18 10.4974 18 9C18 7.50262 17.6321 6.09412 16.992 4.84987ZM6.543 12.7676C7.04025 14.3505 7.86037 15.8501 8.99887 17.1754C10.1374 15.8501 10.9586 14.3505 11.4548 12.7676C9.82463 12.5516 8.17313 12.5527 6.543 12.7676ZM11.7473 6.33825C10.8428 6.46537 9.92925 6.552 9 6.552C8.06962 6.552 7.15613 6.46425 6.25163 6.33825C5.8725 8.0955 5.8725 9.9135 6.25387 11.6707C8.0755 11.4176 9.92338 11.4176 11.745 11.6707C12.1266 9.91381 12.1273 8.09551 11.7473 6.33825ZM8.99887 0.824625C7.86037 2.14987 7.04025 3.6495 6.543 5.2335C8.1732 5.44837 9.82455 5.44837 11.4548 5.2335C10.9575 3.65062 10.1374 2.14987 8.99887 0.824625ZM9.77513 0C11.0959 1.512 12.0364 3.23662 12.5831 5.058C13.8949 4.8015 15.1796 4.41113 16.4059 3.87C14.9209 1.71113 12.5246 0.23625 9.77513 0ZM1.593 3.87C2.82037 4.41 4.10513 4.8015 5.41575 5.058C5.9625 3.23662 6.903 1.512 8.22375 0C5.47425 0.23625 3.07912 1.71113 1.593 3.87ZM5.13788 6.16388C3.74062 5.88375 2.37937 5.46075 1.06875 4.87687L1.01025 4.851C0.367875 6.09412 0 7.50262 0 9C0 10.4974 0.367875 11.9059 1.01025 13.1501L1.06875 13.1243C2.37375 12.5415 3.74287 12.1207 5.14012 11.844C4.743 9.972 4.743 8.037 5.13788 6.16388ZM5.41575 12.9431C4.104 13.1985 2.81925 13.59 1.593 14.13C3.07912 16.2889 5.47425 17.7638 8.22375 18C6.903 16.488 5.9625 14.7634 5.41575 12.9431ZM12.5831 12.942C12.0375 14.7634 11.0959 16.488 9.77513 18C12.5246 17.7638 14.9209 16.2889 16.4059 14.13C15.1796 13.5889 13.8949 13.1985 12.5831 12.942Z" fill="#3E3E3E"/>
</g>
<defs>
<clipPath id="clip0_5_2839">
<rect width="18" height="18" fill="white"/>
</clipPath>
</defs>
</svg>
