<svg width="18" height="18" viewBox="0 0 18 18" fill="none" xmlns="http://www.w3.org/2000/svg">
<g clip-path="url(#clip0_5_2863)">
<path d="M11.2499 9.75026C10.8352 9.75026 10.4999 10.0863 10.4999 10.5002V13.5003C10.4999 13.9135 10.1639 14.2502 9.74986 14.2502H7.49988V3.00033C7.49988 2.35982 7.0919 1.78759 6.47843 1.57458L6.25638 1.50029H9.74986C10.1639 1.50029 10.4999 1.83702 10.4999 2.25038V4.50036C10.4999 4.91425 10.8352 5.2503 11.2499 5.2503C11.6646 5.2503 11.9998 4.91425 11.9998 4.50036V2.25038C11.9998 1.0099 10.9903 0.000401367 9.74986 0.000401367H1.68748C1.65894 0.000401367 1.63503 0.013163 1.60729 0.0168895C1.57115 0.0138661 1.5367 0.000366211 1.50003 0.000366211C0.672779 0.000401367 0 0.673074 0 1.50033V15.0002C0 15.6407 0.407984 16.2129 1.02146 16.4259L5.53495 17.9305C5.68795 17.9777 5.8401 18.0002 5.99995 18.0002C6.82721 18.0002 7.49985 17.3274 7.49985 16.5002V15.7502H9.74982C10.9903 15.7502 11.9998 14.7407 11.9998 13.5003V10.5002C11.9998 10.0863 11.6646 9.75026 11.2499 9.75026H11.2499Z" fill="black"/>
<path d="M17.78 6.96996L14.7799 3.97003C14.6751 3.86507 14.5415 3.79357 14.396 3.76458C14.2505 3.73559 14.0996 3.75041 13.9626 3.80716C13.6828 3.92349 13.4998 4.19718 13.4998 4.50026V6.75023H10.4998C10.0858 6.75023 9.74976 7.08615 9.74976 7.50018C9.74976 7.91421 10.0858 8.25013 10.4998 8.25013H13.4998V10.5001C13.4998 10.8032 13.6828 11.0769 13.9626 11.1932C14.0996 11.2499 14.2504 11.2648 14.3959 11.2358C14.5414 11.2068 14.6751 11.1354 14.7799 11.0304L17.78 8.0304C18.0732 7.7372 18.0732 7.26316 17.78 6.96996Z" fill="#C5C5C5"/>
</g>
<defs>
<clipPath id="clip0_5_2863">
<rect width="18" height="18" fill="white"/>
</clipPath>
</defs>
</svg>
