<svg width="41" height="37" viewBox="0 0 41 37" fill="none" xmlns="http://www.w3.org/2000/svg">
<path id="Vector" d="M8.16436 27.78C8.16225 27.7792 8.15995 27.7791 8.15778 27.7797C8.15561 27.7803 8.15369 27.7815 8.15228 27.7833C8.15087 27.785 8.15004 27.7872 8.14992 27.7894C8.14979 27.7917 8.15038 27.7939 8.15159 27.7958C8.87908 28.857 9.77542 29.7492 10.8406 30.4722C10.8425 30.4737 10.8438 30.4758 10.8444 30.4781C10.8449 30.4805 10.8446 30.4829 10.8435 30.485C10.8424 30.4872 10.8406 30.4888 10.8384 30.4898C10.8362 30.4907 10.8337 30.4908 10.8314 30.4901C9.54087 29.9994 8.25355 29.5036 6.96946 29.003C6.56061 28.8436 6.24708 28.7116 6.02887 28.6071C0.735589 26.066 -1.44381 19.7726 0.996526 14.4851C3.19482 9.72277 8.68623 7.29052 13.7135 8.817C13.9341 8.88409 14.2549 8.99767 14.676 9.15775C15.8134 9.59062 16.9501 10.0271 18.0861 10.4671C18.0901 10.4687 18.0945 10.4695 18.0989 10.4694C18.1033 10.4693 18.1076 10.4683 18.1117 10.4665C18.1157 10.4647 18.1194 10.4621 18.1224 10.4589C18.1255 10.4557 18.1279 10.4519 18.1295 10.4477C18.5608 9.31935 18.9941 8.19101 19.4295 7.06267C19.5865 6.65568 19.7175 6.34132 19.8227 6.11961C23.2323 -1.06373 33.0064 -2.18049 37.8978 4.14254C39.9735 6.82563 40.6399 10.4124 39.6595 13.6948C39.5901 13.9281 39.4769 14.2489 39.3199 14.6573C36.9094 20.9392 34.4954 27.2201 32.0781 33.4997C31.9116 33.9319 31.7751 34.2435 31.6685 34.4346C30.7376 36.1031 28.8171 36.9848 26.9415 36.6195C26.7029 36.5729 26.379 36.471 25.9698 36.314C22.6772 35.0512 19.3841 33.7857 16.0905 32.5178C16.0888 32.5174 16.0873 32.5163 16.0864 32.5148C16.0856 32.5134 16.0853 32.5116 16.0858 32.5099C16.0863 32.5082 16.0874 32.5067 16.0889 32.5057C16.0905 32.5047 16.0923 32.5042 16.0941 32.5045C24.6421 33.6662 32.4217 27.1679 33.4185 18.7391C34.0292 13.5768 31.7977 7.96231 26.8987 5.64807C26.8946 5.64613 26.89 5.6456 26.8856 5.64654C26.8812 5.64749 26.8772 5.64987 26.8743 5.65331C26.8714 5.65675 26.8697 5.66106 26.8695 5.66556C26.8693 5.67007 26.8705 5.67452 26.8731 5.67821C30.3715 10.8492 30.4747 17.393 26.9661 22.5854C23.2047 28.1514 16.2748 30.5933 9.87653 28.4303C9.29508 28.2338 8.72436 28.017 8.16436 27.78ZM25.3581 20.8051C25.3581 20.2178 25.2424 19.6362 25.0178 19.0936C24.7931 18.5511 24.4639 18.0581 24.0488 17.6428C23.6337 17.2275 23.1409 16.8981 22.5986 16.6733C22.0562 16.4486 21.475 16.3329 20.8879 16.3329C19.7024 16.3329 18.5654 16.8041 17.7271 17.6428C16.8888 18.4815 16.4178 19.619 16.4178 20.8051C16.4178 21.9911 16.8888 23.1287 17.7271 23.9674C18.5654 24.806 19.7024 25.2772 20.8879 25.2772C21.475 25.2772 22.0562 25.1615 22.5986 24.9368C23.1409 24.712 23.6337 24.3826 24.0488 23.9674C24.4639 23.5521 24.7931 23.0591 25.0178 22.5165C25.2424 21.9739 25.3581 21.3924 25.3581 20.8051Z" fill="white"/>
</svg>
