
<svg width="214" height="82" viewBox="0 0 214 82" fill="none" xmlns="http://www.w3.org/2000/svg">
<g id="Frame 48096205">
<g id="Group 48096368">
<path id="Vector" d="M18.2993 61.9303C18.2946 61.9285 18.2895 61.9283 18.2847 61.9296C18.2798 61.931 18.2755 61.9338 18.2724 61.9377C18.2692 61.9416 18.2674 61.9464 18.2671 61.9514C18.2669 61.9564 18.2682 61.9614 18.2709 61.9656C19.8926 64.3314 21.8906 66.3203 24.2651 67.9322C24.2694 67.9355 24.2723 67.9401 24.2735 67.9453C24.2747 67.9505 24.274 67.956 24.2715 67.9607C24.2691 67.9655 24.2651 67.9692 24.2601 67.9713C24.2552 67.9734 24.2498 67.9736 24.2446 67.9721C21.3678 66.878 18.4981 65.7729 15.6357 64.6568C14.7243 64.3014 14.0254 64.0072 13.539 63.7741C1.73936 58.1093 -3.11889 44.0793 2.32103 32.2918C7.2214 21.6751 19.4627 16.2529 30.6692 19.6559C31.1609 19.8054 31.8762 20.0586 32.8149 20.4155C35.3503 21.3805 37.8841 22.3535 40.4164 23.3345C40.4255 23.3381 40.4353 23.3398 40.4451 23.3396C40.4549 23.3394 40.4645 23.3372 40.4735 23.3332C40.4825 23.3291 40.4907 23.3234 40.4975 23.3162C40.5043 23.3089 40.5096 23.3005 40.5132 23.2912C41.4747 20.7758 42.4407 18.2603 43.4113 15.7449C43.7611 14.8376 44.0533 14.1368 44.2878 13.6425C51.8882 -2.37139 73.6764 -4.861 84.5801 9.23502C89.2073 15.2165 90.6928 23.2126 88.5072 30.53C88.3524 31.0501 88.1001 31.7653 87.7503 32.6756C82.3768 46.6802 76.9957 60.6821 71.6069 74.6813C71.2359 75.6448 70.9316 76.3395 70.694 76.7654C68.6189 80.4851 64.3378 82.4508 60.1568 81.6365C59.6248 81.5325 58.9028 81.3054 57.9906 80.9554C50.6509 78.1401 43.31 75.3191 35.968 72.4923C35.9641 72.4914 35.9609 72.4891 35.959 72.4858C35.957 72.4825 35.9565 72.4786 35.9576 72.4748C35.9586 72.471 35.9611 72.4676 35.9645 72.4653C35.9679 72.4631 35.972 72.4622 35.9759 72.4627C55.0311 75.0526 72.373 60.5659 74.595 41.7754C75.9564 30.2669 70.982 17.7505 60.0612 12.5913C60.0521 12.587 60.0419 12.5858 60.0321 12.5879C60.0222 12.59 60.0134 12.5953 60.0069 12.603C60.0004 12.6107 59.9966 12.6203 59.9961 12.6303C59.9957 12.6404 59.9985 12.6503 60.0043 12.6585C67.8028 24.1864 68.0327 38.7744 60.2114 50.3501C51.8267 62.7582 36.3789 68.2021 22.116 63.3801C20.8199 62.942 19.5476 62.4587 18.2993 61.9303ZM56.6269 46.381C56.6269 45.0718 56.3692 43.7753 55.8684 42.5657C55.3677 41.3561 54.6337 40.2571 53.7084 39.3313C52.7831 38.4055 51.6846 37.6711 50.4756 37.1701C49.2666 36.6691 47.9709 36.4112 46.6623 36.4112C44.0195 36.4112 41.4849 37.4616 39.6162 39.3313C37.7475 41.201 36.6976 43.7369 36.6976 46.381C36.6976 49.0252 37.7475 51.5611 39.6162 53.4308C41.4849 55.3005 44.0195 56.3509 46.6623 56.3509C47.9709 56.3509 49.2666 56.093 50.4756 55.592C51.6846 55.0909 52.7831 54.3565 53.7084 53.4308C54.6337 52.505 55.3677 51.4059 55.8684 50.1963C56.3692 48.9867 56.6269 47.6903 56.6269 46.381Z" fill="white"/>
<path id="Vector_2" d="M185.202 30.6028C184.26 31.7816 182.92 33.3783 181.224 32.7827C181.013 32.709 180.647 32.4672 180.127 32.0572C179.784 31.7877 179.307 31.5128 178.695 31.2327C173.583 28.8979 169.461 34.0127 170.009 38.7243C170.32 41.4007 172.054 43.8242 174.572 44.905C174.761 44.9863 174.974 45.0269 175.21 45.0269C177.732 45.0292 180.254 45.0299 182.777 45.0292C183.428 45.0292 183.865 45.0648 184.087 45.1362C185.697 45.651 185.798 48.0062 185.685 49.3558C185.684 49.3713 185.677 49.3858 185.665 49.3964C185.654 49.4069 185.639 49.4128 185.623 49.4127C176.953 49.4158 168.285 49.4154 159.619 49.4116C153.247 49.4082 150.267 45.2558 150.269 39.2698C150.271 33.5617 150.278 27.8528 150.29 22.1432C150.29 21.6033 150.18 20.4918 150.323 19.7253C150.73 17.5307 154.221 17.8678 155.804 17.8985C155.819 17.8988 155.833 17.9051 155.844 17.916C155.854 17.9268 155.86 17.9414 155.86 17.9566C155.861 24.9805 155.859 32.0018 155.855 39.0204C155.852 42.7548 157.294 44.9665 161.226 45.0143C163.089 45.0364 164.982 45.0386 166.906 45.0212C166.96 45.0212 166.971 44.9995 166.938 44.9563C165.039 42.4127 164.284 39.5226 164.673 36.2859C165.283 31.2201 169.408 26.9151 174.536 26.3445C177.883 25.9725 180.783 26.8476 183.238 28.9697C183.931 29.5676 184.534 30.0061 185.193 30.5231C185.199 30.5277 185.204 30.5334 185.208 30.5399C185.211 30.5464 185.214 30.5536 185.215 30.5611C185.216 30.5685 185.215 30.576 185.213 30.5832C185.211 30.5904 185.207 30.5971 185.202 30.6028Z" fill="white"/>
<path id="Vector_3" d="M117.641 45.6432C117.637 45.6358 117.631 45.6298 117.624 45.6257C117.616 45.6216 117.608 45.6197 117.6 45.6202C117.592 45.6207 117.584 45.6235 117.577 45.6284C117.57 45.6333 117.565 45.64 117.562 45.6477C116.559 48.3138 114.315 50.5244 111.486 51.1542C110.087 51.4655 108.669 51.6121 107.231 51.5938C107.036 51.5916 106.846 51.5483 106.662 51.464C105.707 51.0297 104.782 50.6 103.887 50.1748C103.871 50.1674 103.854 50.1638 103.837 50.1644C103.82 50.1649 103.803 50.1696 103.788 50.178C103.773 50.1863 103.761 50.1982 103.751 50.2125C103.742 50.2268 103.736 50.2432 103.734 50.2602C103.349 53.9001 102.142 57.204 99.5121 59.803C99.4987 59.8157 99.4813 59.8234 99.463 59.8247C99.4447 59.8259 99.4266 59.8206 99.4119 59.8098C98.334 59.0012 96.5992 57.819 96.9498 56.2052C97.0522 55.7291 97.4279 55.2485 97.7056 54.8055C97.9014 54.4935 98.0346 54.0789 98.0972 53.7213C98.4789 51.5096 98.6736 49.4543 98.6811 47.5553C98.6933 44.2366 98.6975 40.9175 98.6937 37.598C98.6846 30.431 104.85 27.5212 111.153 28.7728C114.914 29.5199 117.836 32.5152 118.234 36.3908C118.377 37.7882 118.432 39.1868 118.523 40.5876C118.533 40.7433 118.595 41.0477 118.711 41.501C119.325 43.9257 121.306 45.0122 123.683 45.0179C129.019 45.0285 134.355 45.0316 139.691 45.027C139.706 45.027 139.721 45.0209 139.732 45.01C139.743 44.9991 139.749 44.9843 139.749 44.9689C139.74 40.6787 137.75 37.9898 133.301 37.8942C131.725 37.86 130.149 37.8459 128.573 37.852C128.565 37.8522 128.557 37.8508 128.55 37.8479C128.543 37.8451 128.537 37.8408 128.531 37.8354C128.526 37.83 128.521 37.8235 128.518 37.8164C128.515 37.8093 128.514 37.8017 128.514 37.7939V34.5071C128.514 34.4703 128.526 34.4349 128.549 34.4069L141.359 18.7859C141.37 18.7724 141.386 18.7637 141.404 18.7614C141.421 18.759 141.438 18.7633 141.453 18.7733C142.782 19.6867 144.458 21.1047 143.778 22.9041C143.658 23.2215 143.378 23.6467 142.938 24.1797C140.396 27.2592 137.856 30.3422 135.317 33.4286C135.312 33.4344 135.309 33.4415 135.308 33.4491C135.307 33.4567 135.308 33.4644 135.311 33.4713C135.314 33.4783 135.319 33.4843 135.326 33.4886C135.332 33.4929 135.339 33.4954 135.347 33.4958C136.704 33.5854 138.021 33.8613 139.297 34.3237C143.613 35.8897 145.296 39.9373 145.365 44.2252C145.392 45.9358 145.398 47.6495 145.383 49.3662C145.383 49.3725 145.382 49.3787 145.38 49.3845C145.377 49.3903 145.373 49.3956 145.369 49.4C145.364 49.4044 145.359 49.408 145.353 49.4104C145.347 49.4128 145.341 49.414 145.334 49.414C138.462 49.4125 131.584 49.4129 124.7 49.4151C123.632 49.4159 122.875 49.3783 122.429 49.3024C120.269 48.9326 118.673 47.7129 117.641 45.6432ZM103.914 44.9222C105.385 45.6033 106.838 46.287 108.272 46.9734C108.439 47.0531 108.608 47.088 108.778 47.0781C111.507 46.9233 113.018 44.551 113.202 42.0386C113.325 40.3705 113.239 38.6921 112.946 37.0035C112.639 35.2303 111.91 33.7497 110.074 33.1814C109.105 32.8808 108.071 32.8994 106.97 33.2372C104.789 33.908 103.895 36.0822 103.895 38.2244C103.895 40.4529 103.897 42.6779 103.899 44.8995C103.899 44.9043 103.901 44.909 103.903 44.913C103.906 44.9171 103.91 44.9203 103.914 44.9222Z" fill="white"/>
<path id="Vector_4" d="M209.839 25.6602C211.547 25.6692 212.939 24.3216 212.948 22.6504C212.957 20.9792 211.579 19.6172 209.87 19.6082C208.162 19.5993 206.769 20.9468 206.761 22.618C206.752 24.2892 208.13 25.6513 209.839 25.6602Z" fill="white"/>
<path id="Vector_5" d="M196.837 45.0225C198.688 45.0407 200.538 45.0354 202.389 45.0065C202.543 45.0043 202.833 44.9614 203.261 44.8778C205.965 44.3494 207.05 42.0591 207.045 39.5057C207.041 37.3357 207.05 35.1662 207.071 32.997C207.077 32.3577 207.139 31.9032 207.256 31.6337C208.02 29.873 211.114 30.1509 212.632 30.1964C212.647 30.197 212.661 30.2034 212.672 30.2142C212.682 30.225 212.688 30.2394 212.689 30.2545C212.694 33.1708 212.693 36.0833 212.686 38.9921C212.677 43.2367 211.052 47.6693 206.632 48.9927C205.526 49.3241 204.411 49.4095 203.118 49.4106C201.031 49.4137 198.944 49.4159 196.857 49.4175C196.842 49.4175 196.827 49.4234 196.817 49.4341C196.806 49.4447 196.799 49.4592 196.799 49.4744C196.696 52.6644 196.031 56.1563 193.161 58.0035C190.527 59.7005 187.487 59.7438 184.461 59.6902C184.446 59.6903 184.431 59.6845 184.419 59.674C184.408 59.6635 184.4 59.649 184.399 59.6333C184.23 57.983 184.549 55.3784 186.794 55.4217C187.533 55.4353 188.185 55.2516 188.75 54.8705C190.669 53.579 191.145 51.57 191.146 49.3765C191.15 43.8608 191.13 38.3452 191.193 32.8295C191.199 32.2867 191.258 31.8873 191.368 31.6314C192.137 29.8639 195.19 30.1862 196.726 30.1623C196.737 30.1621 196.747 30.164 196.756 30.1678C196.766 30.1717 196.774 30.1774 196.781 30.1846C196.789 30.1918 196.794 30.2004 196.798 30.2099C196.802 30.2194 196.804 30.2295 196.804 30.2397L196.775 44.961C196.775 44.9773 196.782 44.9929 196.793 45.0045C196.805 45.016 196.82 45.0225 196.837 45.0225Z" fill="white"/>
<path id="Vector_6" d="M171.972 71.9469C171.956 71.9627 171.947 71.9837 171.945 72.0061C171.944 72.0284 171.95 72.0506 171.964 72.0687C173.535 74.1802 175.1 76.2917 176.658 78.4032C176.868 78.6872 176.943 78.9807 176.882 79.2836C176.875 79.3195 176.855 79.3515 176.825 79.3736C176.117 79.8975 174.434 79.7152 173.747 79.7016C173.729 79.7012 173.711 79.6967 173.695 79.6884C173.679 79.6802 173.665 79.6683 173.654 79.6537L169.533 74.1575C169.528 74.1502 169.521 74.144 169.513 74.1394C169.505 74.1348 169.497 74.1318 169.488 74.1307C169.479 74.1295 169.47 74.1302 169.461 74.1326C169.453 74.1351 169.445 74.1393 169.438 74.1449L168.628 74.8044C168.613 74.8164 168.601 74.8317 168.593 74.849C168.585 74.8664 168.581 74.8854 168.581 74.9046C168.581 75.9425 168.582 76.9785 168.582 78.0126C168.582 78.4302 168.531 78.7362 168.429 78.9305C167.958 79.8325 166.065 79.779 165.138 79.6799C165.123 79.6782 165.109 79.6709 165.098 79.6593C165.088 79.6478 165.082 79.6328 165.083 79.6173C165.081 74.0929 165.081 68.5689 165.081 63.0453C165.081 62.6232 165.134 62.3145 165.24 62.1194C165.722 61.2288 167.614 61.2789 168.526 61.3723C168.541 61.3735 168.555 61.3803 168.566 61.3915C168.576 61.4027 168.582 61.4174 168.582 61.4327V71.4822C168.581 71.4891 168.583 71.4958 168.587 71.5016C168.591 71.5073 168.596 71.5117 168.603 71.5143C168.609 71.5168 168.616 71.5172 168.623 71.5156C168.629 71.5139 168.635 71.5102 168.64 71.505L173.419 66.2672C173.432 66.2535 173.447 66.2424 173.465 66.2346C173.482 66.2268 173.5 66.2224 173.52 66.2217C174.06 66.2103 176.124 66.019 176.628 66.5098C176.641 66.5224 176.651 66.5376 176.658 66.5544C176.664 66.5712 176.667 66.5894 176.667 66.6078C176.662 66.8606 176.592 67.0592 176.459 67.2034C174.981 68.7994 173.485 70.3805 171.972 71.9469Z" fill="white"/>
<path id="Vector_7" d="M121.3 71.529C121.404 70.3434 121.233 68.9756 119.883 68.5986C118.393 68.1818 116.645 68.6283 116.302 70.3503C116.299 70.3678 116.291 70.3841 116.279 70.3978C116.268 70.4115 116.254 70.4222 116.237 70.4288C115.086 70.8981 114.11 69.2535 113.723 68.4301C113.715 68.4139 113.712 68.3962 113.713 68.3786C113.713 68.361 113.718 68.3439 113.727 68.3287C115.752 64.8813 123.517 64.9804 124.595 69.364C124.68 69.7102 124.723 70.3134 124.725 71.1737C124.73 73.5152 124.729 75.8572 124.723 78.1995C124.719 79.9089 122.582 79.7928 121.436 79.6903C121.418 79.6889 121.402 79.6808 121.39 79.6677C121.377 79.6546 121.371 79.6374 121.371 79.6197V78.0286C121.371 78.0199 121.368 78.0113 121.364 78.0041C121.359 77.9968 121.352 77.9912 121.344 77.988C121.335 77.9848 121.326 77.9841 121.318 77.9861C121.309 77.9881 121.302 77.9926 121.296 77.999C120.542 78.8133 119.649 79.4853 118.565 79.7552C116.751 80.2073 114.551 79.7598 113.36 78.261C112.444 77.1107 112.265 75.3796 112.978 74.079C113.769 72.6349 115.71 71.972 117.282 71.8342C118.087 71.7636 119.406 71.682 121.238 71.5894C121.254 71.5884 121.269 71.5817 121.28 71.5706C121.292 71.5595 121.299 71.5448 121.3 71.529ZM116.22 74.85C115.528 75.9661 116.351 77.2132 117.538 77.4228C118.953 77.671 120.524 77.0754 121.106 75.6973C121.341 75.1381 121.345 74.4218 121.307 73.7988C121.306 73.7794 121.297 73.7612 121.283 73.7482C121.268 73.7352 121.249 73.7284 121.23 73.7293C120.287 73.7772 119.364 73.8311 118.461 73.8911C117.627 73.9469 116.672 74.12 116.22 74.85Z" fill="white"/>
<path id="Vector_8" d="M144.158 69.0666C143.515 68.3992 142.193 68.3593 141.378 68.5814C140.479 68.8274 139.937 69.4174 139.751 70.3513C139.747 70.3684 139.74 70.3844 139.729 70.3979C139.718 70.4114 139.703 70.422 139.687 70.4287C138.533 70.8991 137.578 69.2636 137.169 68.4459C137.159 68.4254 137.155 68.4025 137.156 68.3794C137.157 68.3563 137.164 68.3337 137.176 68.3138C139.448 64.6796 148.154 65.0372 148.171 70.2909C148.179 72.7964 148.181 75.302 148.177 77.8076C148.175 78.3094 148.134 78.6564 148.055 78.8485C147.643 79.8348 145.829 79.7756 144.884 79.6901C144.865 79.6882 144.848 79.6795 144.835 79.6658C144.823 79.6522 144.816 79.6344 144.816 79.6161L144.828 78.0547C144.828 78.0431 144.824 78.0318 144.818 78.0222C144.811 78.0126 144.802 78.0051 144.791 78.0008C144.78 77.9965 144.769 77.9956 144.757 77.9981C144.746 78.0006 144.736 78.0064 144.728 78.0148C143.204 79.6693 141.415 80.2554 139.363 79.7733C137.322 79.2938 135.916 77.8645 136.008 75.6699C136.117 73.0481 138.626 71.9787 140.894 71.817C142.16 71.7274 143.429 71.6526 144.7 71.5926C144.716 71.5921 144.73 71.5856 144.741 71.5746C144.752 71.5636 144.758 71.5488 144.758 71.5334C144.782 70.6314 144.821 69.7556 144.158 69.0666ZM139.548 76.2575C139.915 77.6174 141.829 77.6367 142.856 77.2609C144.519 76.6527 144.81 75.4079 144.758 73.7861C144.758 73.7787 144.756 73.7713 144.753 73.7645C144.75 73.7577 144.746 73.7516 144.74 73.7465C144.735 73.7415 144.729 73.7375 144.722 73.7349C144.715 73.7324 144.708 73.7312 144.7 73.7315C143.76 73.7763 142.82 73.8218 141.881 73.8681C140.515 73.9365 139.092 74.5686 139.548 76.2575Z" fill="white"/>
<path id="Vector_9" d="M158.987 71.5289C159.011 70.9435 159.003 70.5191 158.961 70.2556C158.693 68.5837 157.04 68.2216 155.606 68.5826C154.711 68.8073 154.169 69.3969 153.98 70.3513C153.976 70.3684 153.969 70.3844 153.958 70.3979C153.946 70.4114 153.932 70.422 153.916 70.4287C152.761 70.9002 151.809 69.2614 151.398 68.4471C151.385 68.4219 151.38 68.3938 151.381 68.3655C151.383 68.3373 151.393 68.31 151.408 68.2865C152.962 66.0155 156.1 65.5862 158.597 66.1237C160.318 66.495 161.816 67.5644 162.267 69.34C162.356 69.6915 162.402 70.2913 162.403 71.1394C162.408 73.3086 162.409 75.4778 162.408 77.647C162.407 78.2438 162.362 78.6451 162.273 78.8508C161.837 79.8542 160.051 79.7631 159.115 79.6925C159.096 79.6913 159.078 79.6828 159.066 79.6688C159.053 79.6548 159.046 79.6364 159.046 79.6173L159.054 78.0547C159.054 78.0432 159.051 78.0319 159.045 78.0224C159.038 78.0128 159.029 78.0055 159.018 78.0013C159.007 77.9971 158.996 77.9962 158.984 77.9989C158.973 78.0015 158.963 78.0075 158.955 78.016C157.431 79.6704 155.642 80.2558 153.588 79.7722C151.493 79.2779 150.077 77.7814 150.247 75.5218C150.437 73.0015 152.898 71.9845 155.094 71.8273C156.371 71.7362 157.649 71.6568 158.928 71.5893C158.943 71.5887 158.958 71.5821 158.969 71.5709C158.98 71.5597 158.987 71.5447 158.987 71.5289ZM154.699 74.1814C153.122 74.8362 153.423 77.0024 155.074 77.3851C156.608 77.7393 158.31 77.0559 158.847 75.5184C159.028 75.0014 159.004 74.3556 158.987 73.785C158.987 73.7776 158.985 73.7703 158.982 73.7636C158.979 73.7568 158.974 73.7508 158.969 73.7458C158.963 73.7408 158.957 73.737 158.95 73.7345C158.943 73.7321 158.935 73.7311 158.928 73.7315C157.979 73.7771 157.03 73.8238 156.081 73.8716C155.6 73.8959 155.139 73.9991 154.699 74.1814Z" fill="white"/>
<path id="Vector_10" d="M183.673 79.8303C179.137 79.0216 177.743 74.17 178.932 70.3251C179.894 67.2125 182.566 65.7707 185.738 65.9324C188.873 66.0918 191.142 67.963 191.778 71.1098C192.881 76.5628 189.417 80.8553 183.673 79.8303ZM182.338 75.0321C183.203 78.0058 186.701 78.2723 187.959 75.556C188.949 73.416 188.696 68.6441 185.397 68.5143C181.991 68.381 181.669 72.7327 182.338 75.0321Z" fill="white"/>
<path id="Vector_11" d="M101.453 67.9756C102.895 66.2524 104.496 65.6705 106.768 66.0645C109.548 66.5474 110.496 68.7979 110.441 71.3364C110.379 74.2064 110.445 76.8179 110.385 78.5126C110.338 79.9009 107.89 79.7369 107.002 79.6925C106.987 79.6916 106.973 79.685 106.962 79.674C106.951 79.6629 106.946 79.6484 106.946 79.6333C106.946 76.985 106.943 74.3382 106.939 71.6929C106.938 70.983 106.881 70.4754 106.767 70.1702C106.35 69.0587 105.306 68.6327 104.127 68.7056C102.496 68.8047 101.428 70.0176 101.425 71.6462C101.42 73.8716 101.51 76.1494 101.392 78.3679C101.309 79.9248 99.1368 79.7642 98.1112 79.6959C98.0894 79.6944 98.0689 79.6846 98.0541 79.6685C98.0393 79.6524 98.0312 79.6312 98.0316 79.6093C98.0725 75.7728 98.0714 72 98.0281 68.2911C98.0205 67.689 98.0676 67.2767 98.1693 67.0542C98.628 66.0531 100.391 66.1648 101.339 66.2217C101.353 66.2223 101.366 66.2281 101.375 66.2378C101.384 66.2476 101.39 66.2606 101.39 66.2741L101.405 67.9585C101.406 67.964 101.407 67.9692 101.411 67.9737C101.414 67.9781 101.418 67.9814 101.424 67.9833C101.429 67.9851 101.434 67.9854 101.44 67.984C101.445 67.9826 101.45 67.9797 101.453 67.9756Z" fill="white"/>
<path id="Vector_12" d="M197.61 67.7398C197.61 67.7471 197.613 67.7541 197.617 67.76C197.621 67.7659 197.627 67.7704 197.634 67.7728C197.641 67.7753 197.648 67.7756 197.655 67.7738C197.662 67.7719 197.669 67.768 197.674 67.7626C198.861 66.2987 200.335 65.7152 202.094 66.0121C203.526 66.2535 204.532 67.012 205.093 68.332C205.095 68.3374 205.099 68.3422 205.104 68.3458C205.108 68.3493 205.114 68.3517 205.12 68.3525C205.126 68.3533 205.132 68.3525 205.137 68.3503C205.143 68.3482 205.147 68.3446 205.151 68.34C205.795 67.5428 206.137 66.9403 207.115 66.4676C209.669 65.2342 213.03 66.1932 213.779 69.1042C213.886 69.521 213.94 70.147 213.941 70.9822C213.944 73.2623 213.945 75.5427 213.943 77.8235C213.943 78.3611 213.886 78.7369 213.773 78.951C213.273 79.8849 211.429 79.7881 210.535 79.7198C210.52 79.7189 210.505 79.712 210.495 79.7006C210.484 79.6891 210.478 79.674 210.478 79.6583C210.467 76.9826 210.467 74.3074 210.477 71.6325C210.48 70.9606 210.429 70.4629 210.322 70.1394C209.615 67.979 206.533 68.3115 205.885 70.349C205.797 70.6254 205.749 71.082 205.741 71.7191C205.713 73.8169 205.707 75.9166 205.724 78.0183C205.727 78.4153 205.686 78.7016 205.602 78.877C205.114 79.8974 203.325 79.7209 202.424 79.705C202.408 79.7047 202.392 79.698 202.381 79.6865C202.37 79.675 202.363 79.6596 202.363 79.6435C202.363 76.7287 202.361 73.8275 202.357 70.9401C202.353 68.1623 198.547 67.9118 197.775 70.3866C197.651 70.7852 197.612 71.366 197.612 71.8056C197.608 73.9938 197.607 76.182 197.609 78.3702C197.611 79.9191 195.225 79.7403 194.311 79.6924C194.296 79.6916 194.281 79.6847 194.27 79.6733C194.259 79.6619 194.253 79.6468 194.253 79.6309C194.25 75.7397 194.249 71.8493 194.251 67.9596C194.251 67.523 194.29 67.2186 194.369 67.0462C194.842 66.0155 196.662 66.2034 197.554 66.2148C197.569 66.2148 197.582 66.2206 197.593 66.2308C197.603 66.2411 197.609 66.255 197.609 66.2695L197.61 67.7398Z" fill="white"/>
<path id="Vector_13" d="M130.762 67.4928C130.762 67.5012 130.765 67.5093 130.769 67.5162C130.774 67.5232 130.781 67.5286 130.788 67.5319C130.796 67.5351 130.805 67.5361 130.813 67.5346C130.821 67.5331 130.829 67.5293 130.835 67.5235C132.038 66.3448 133.154 65.8368 134.866 66.2799C134.876 66.2829 134.885 66.289 134.892 66.2973C134.898 66.3057 134.902 66.3159 134.903 66.3266C134.962 67.2684 135.116 69.0029 133.656 68.9938C132.795 68.9881 130.961 69.0622 130.854 70.2136C130.662 72.2761 130.754 74.653 130.764 77.9774C130.766 78.3669 130.716 78.6584 130.614 78.8521C130.12 79.7996 128.398 79.7074 127.465 79.6345C127.45 79.6336 127.435 79.6267 127.424 79.6153C127.413 79.6039 127.407 79.5887 127.407 79.573C127.403 75.6537 127.402 71.7348 127.405 67.8162C127.405 67.4806 127.426 67.2487 127.467 67.1204C127.813 66.0179 129.604 66.1102 130.708 66.1637C130.723 66.1643 130.736 66.1704 130.746 66.1808C130.756 66.1912 130.762 66.2051 130.762 66.2195V67.4928Z" fill="white"/>
</g>
</g>
</svg>
