<svg width="125" height="49" viewBox="0 0 125 49" fill="none" xmlns="http://www.w3.org/2000/svg">
<path d="M10.6384 36.6701C10.6357 36.669 10.6327 36.6689 10.6298 36.6697C10.627 36.6705 10.6245 36.6721 10.6227 36.6744C10.6208 36.6767 10.6198 36.6795 10.6196 36.6824C10.6194 36.6853 10.6202 36.6882 10.6218 36.6907C11.5697 38.0736 12.7377 39.2362 14.1257 40.1784C14.1281 40.1803 14.1299 40.183 14.1305 40.1861C14.1312 40.1891 14.1308 40.1923 14.1294 40.1951C14.128 40.1979 14.1256 40.2 14.1227 40.2013C14.1199 40.2025 14.1167 40.2026 14.1137 40.2017C12.4321 39.5622 10.7546 38.9162 9.08143 38.2638C8.54869 38.0561 8.14014 37.8841 7.8558 37.7479C0.958496 34.4366 -1.88134 26.2355 1.2985 19.3453C4.16296 13.1394 11.3184 9.96989 17.8691 11.9591C18.1565 12.0465 18.5746 12.1945 19.1233 12.4031C20.6053 12.9672 22.0865 13.5359 23.5667 14.1094C23.572 14.1115 23.5777 14.1125 23.5834 14.1124C23.5892 14.1122 23.5948 14.1109 23.6001 14.1086C23.6053 14.1062 23.6101 14.1029 23.6141 14.0987C23.6181 14.0944 23.6212 14.0895 23.6233 14.0841C24.1853 12.6137 24.75 11.1433 25.3173 9.67298C25.5218 9.14262 25.6926 8.73298 25.8297 8.44405C30.2724 -0.916687 43.0084 -2.37196 49.382 5.8677C52.0868 9.36408 52.9551 14.0381 51.6776 18.3154C51.5871 18.6194 51.4396 19.0375 51.2351 19.5696C48.0941 27.7558 44.9486 35.9404 41.7987 44.1235C41.5818 44.6867 41.4039 45.0928 41.2651 45.3418C40.0521 47.516 37.5496 48.6651 35.1057 48.1891C34.7947 48.1283 34.3727 47.9956 33.8395 47.791C29.5491 46.1453 25.2581 44.4963 20.9664 42.844C20.9642 42.8434 20.9623 42.8421 20.9612 42.8402C20.96 42.8382 20.9597 42.8359 20.9603 42.8337C20.9609 42.8315 20.9624 42.8295 20.9644 42.8282C20.9664 42.8269 20.9688 42.8263 20.9711 42.8267C32.1095 44.3405 42.2465 35.8725 43.5453 24.8888C44.3411 18.1616 41.4334 10.8453 35.0498 7.82959C35.0445 7.82706 35.0385 7.82636 35.0328 7.8276C35.027 7.82883 35.0219 7.83193 35.0181 7.83642C35.0143 7.8409 35.0121 7.84651 35.0118 7.85238C35.0115 7.85825 35.0132 7.86405 35.0165 7.86887C39.575 14.6073 39.7094 23.1346 35.1376 29.901C30.2365 37.154 21.2066 40.3362 12.8694 37.5175C12.1118 37.2614 11.3681 36.979 10.6384 36.6701ZM33.0424 27.5809C33.0424 26.8156 32.8917 26.0578 32.599 25.3508C32.3063 24.6437 31.8772 24.0013 31.3363 23.4601C30.7955 22.9189 30.1534 22.4897 29.4467 22.1968C28.74 21.9039 27.9826 21.7532 27.2176 21.7532C25.6728 21.7532 24.1913 22.3672 23.0989 23.4601C22.0066 24.553 21.3929 26.0353 21.3929 27.5809C21.3929 29.1266 22.0066 30.6089 23.0989 31.7018C24.1913 32.7947 25.6728 33.4087 27.2176 33.4087C27.9826 33.4087 28.74 33.2579 29.4467 32.9651C30.1534 32.6722 30.7955 32.2429 31.3363 31.7018C31.8772 31.1606 32.3063 30.5182 32.599 29.8111C32.8917 29.1041 33.0424 28.3462 33.0424 27.5809Z" fill="#30B9CC"/>
<path d="M108.199 18.358C107.648 19.047 106.865 19.9803 105.874 19.6322C105.75 19.5891 105.537 19.4478 105.232 19.2081C105.032 19.0505 104.753 18.8899 104.395 18.7261C101.407 17.3614 98.9978 20.3511 99.3185 23.1052C99.5002 24.6697 100.514 26.0864 101.985 26.7181C102.096 26.7656 102.221 26.7894 102.359 26.7894C103.833 26.7907 105.307 26.7911 106.781 26.7907C107.162 26.7907 107.418 26.8116 107.547 26.8533C108.489 27.1542 108.547 28.5309 108.481 29.3198C108.481 29.3288 108.477 29.3373 108.47 29.3435C108.463 29.3497 108.455 29.3531 108.445 29.3531C103.378 29.3548 98.3107 29.3546 93.2449 29.3524C89.5202 29.3504 87.7782 26.9232 87.7795 23.4241C87.7809 20.0875 87.7848 16.7505 87.7915 13.413C87.7915 13.0974 87.7276 12.4477 87.8108 11.9996C88.049 10.7168 90.0897 10.9139 91.0146 10.9318C91.0235 10.932 91.0319 10.9357 91.0382 10.942C91.0444 10.9484 91.0479 10.9569 91.0479 10.9658C91.0483 15.0715 91.0472 19.1757 91.0445 23.2783C91.0432 25.4612 91.8856 26.7541 94.1845 26.782C95.273 26.7949 96.3798 26.7962 97.5047 26.786C97.5362 26.786 97.5424 26.7734 97.5233 26.7481C96.413 25.2613 95.9717 23.5719 96.1992 21.6799C96.5559 18.7188 98.9672 16.2024 101.965 15.8688C103.921 15.6514 105.616 16.1629 107.051 17.4033C107.456 17.7528 107.809 18.0091 108.194 18.3114C108.197 18.314 108.2 18.3174 108.203 18.3212C108.205 18.325 108.206 18.3292 108.207 18.3335C108.207 18.3379 108.207 18.3423 108.205 18.3465C108.204 18.3507 108.202 18.3546 108.199 18.358Z" fill="#3E3E3E"/>
<path d="M68.7074 27.1496C68.7051 27.1453 68.7017 27.1417 68.6975 27.1394C68.6932 27.137 68.6884 27.1359 68.6836 27.1362C68.6788 27.1364 68.6741 27.1381 68.6702 27.1409C68.6663 27.1438 68.6632 27.1477 68.6615 27.1522C68.0753 28.7107 66.7632 30.0029 65.1097 30.371C64.2922 30.553 63.4631 30.6386 62.6225 30.628C62.5085 30.6266 62.3976 30.6013 62.2898 30.5521C61.7318 30.2982 61.1911 30.047 60.6676 29.7985C60.6586 29.7942 60.6487 29.7921 60.6387 29.7924C60.6286 29.7927 60.6189 29.7955 60.6101 29.8003C60.6014 29.8052 60.594 29.8122 60.5884 29.8205C60.5829 29.8289 60.5795 29.8385 60.5785 29.8484C60.3536 31.9761 59.6476 33.9073 58.1106 35.4265C58.1028 35.434 58.0926 35.4385 58.0819 35.4392C58.0712 35.4399 58.0606 35.4369 58.052 35.4305C57.4219 34.9578 56.4079 34.2668 56.6128 33.3235C56.6727 33.0452 56.8923 32.7643 57.0546 32.5053C57.1691 32.3229 57.2469 32.0806 57.2835 31.8715C57.5066 30.5787 57.6204 29.3773 57.6249 28.2673C57.632 26.3274 57.6344 24.3873 57.6322 22.4469C57.6269 18.2575 61.2305 16.5566 64.9154 17.2882C67.1138 17.7249 68.8218 19.4758 69.0541 21.7412C69.1379 22.5581 69.1698 23.3756 69.2231 24.1944C69.2288 24.2854 69.2654 24.4634 69.3329 24.7283C69.6922 26.1457 70.8499 26.7808 72.2392 26.7841C75.3585 26.7903 78.4776 26.7921 81.5964 26.7894C81.6054 26.7894 81.6141 26.7858 81.6204 26.7795C81.6268 26.7731 81.6304 26.7645 81.6304 26.7555C81.625 24.2477 80.462 22.6759 77.8617 22.62C76.9403 22.6 76.019 22.5918 75.0977 22.5954C75.0932 22.5954 75.0887 22.5946 75.0845 22.593C75.0803 22.5913 75.0765 22.5888 75.0733 22.5857C75.07 22.5825 75.0675 22.5787 75.0657 22.5746C75.064 22.5704 75.0631 22.5659 75.0631 22.5614V20.6401C75.0631 20.6186 75.0704 20.5979 75.0837 20.5815L82.5719 11.4505C82.5784 11.4426 82.5876 11.4375 82.5977 11.4362C82.6078 11.4348 82.6181 11.4373 82.6264 11.4432C83.4036 11.9771 84.383 12.8059 83.9858 13.8577C83.9157 14.0433 83.752 14.2918 83.4948 14.6033C82.0087 16.4035 80.5238 18.2056 79.0401 20.0097C79.0372 20.0131 79.0354 20.0173 79.0347 20.0217C79.0341 20.0261 79.0347 20.0306 79.0365 20.0347C79.0383 20.0388 79.0412 20.0423 79.0449 20.0448C79.0486 20.0473 79.0529 20.0488 79.0574 20.049C79.8509 20.1013 80.6205 20.2627 81.3662 20.5329C83.8893 21.4483 84.8728 23.8143 84.9133 26.3207C84.9293 27.3207 84.9329 28.3224 84.924 29.3258C84.924 29.3295 84.9232 29.3331 84.9218 29.3365C84.9204 29.3399 84.9183 29.343 84.9156 29.3456C84.913 29.3482 84.9098 29.3502 84.9063 29.3517C84.9029 29.3531 84.8991 29.3538 84.8954 29.3538C80.8783 29.3529 76.8578 29.3531 72.8341 29.3544C72.2095 29.3549 71.767 29.3329 71.5066 29.2885C70.2438 29.0724 69.3107 28.3594 68.7074 27.1496ZM60.6836 26.7282C61.5437 27.1263 62.393 27.5259 63.2313 27.9271C63.3289 27.9737 63.4274 27.9942 63.5268 27.9884C65.1223 27.8978 66.0053 26.5111 66.1131 25.0426C66.1845 24.0675 66.1346 23.0864 65.9634 22.0994C65.7837 21.0629 65.3579 20.1974 64.2846 19.8652C63.7182 19.6895 63.1133 19.7003 62.4701 19.8978C61.1953 20.29 60.6723 21.5608 60.6723 22.8131C60.6727 24.1156 60.6736 25.4162 60.675 26.7149C60.675 26.7177 60.6758 26.7204 60.6773 26.7228C60.6788 26.7251 60.681 26.727 60.6836 26.7282Z" fill="#3E3E3E"/>
<path d="M122.601 15.4688C123.599 15.4741 124.413 14.6864 124.418 13.7095C124.423 12.7326 123.618 11.9365 122.619 11.9312C121.62 11.926 120.806 12.7137 120.801 13.6906C120.796 14.6674 121.602 15.4636 122.601 15.4688Z" fill="#3E3E3E"/>
<path d="M115 26.7868C116.082 26.7975 117.164 26.7943 118.246 26.7775C118.336 26.7761 118.506 26.7511 118.756 26.7023C120.336 26.3934 120.97 25.0546 120.968 23.562C120.965 22.2936 120.97 21.0254 120.983 19.7574C120.986 19.3837 121.022 19.1181 121.091 18.9606C121.538 17.9313 123.346 18.0938 124.233 18.1204C124.242 18.1208 124.25 18.1245 124.257 18.1308C124.263 18.1371 124.266 18.1455 124.266 18.1544C124.27 19.8591 124.269 21.5615 124.265 23.2618C124.26 25.7429 123.31 28.3339 120.726 29.1075C120.08 29.3012 119.428 29.3512 118.672 29.3518C117.452 29.3536 116.232 29.3549 115.012 29.3558C115.004 29.3558 114.995 29.3593 114.989 29.3655C114.982 29.3718 114.979 29.3802 114.978 29.3891C114.918 31.2538 114.529 33.2949 112.852 34.3747C111.312 35.3666 109.535 35.3919 107.766 35.3607C107.757 35.3607 107.749 35.3573 107.742 35.3512C107.735 35.345 107.731 35.3365 107.73 35.3274C107.631 34.3627 107.818 32.8402 109.13 32.8655C109.562 32.8735 109.943 32.7661 110.274 32.5433C111.395 31.7884 111.674 30.614 111.674 29.3319C111.676 26.1078 111.665 22.8837 111.701 19.6596C111.705 19.3422 111.739 19.1088 111.804 18.9592C112.253 17.926 114.038 18.1144 114.936 18.1004C114.942 18.1004 114.948 18.1015 114.953 18.1037C114.959 18.1059 114.964 18.1093 114.968 18.1135C114.972 18.1177 114.976 18.1227 114.978 18.1283C114.98 18.1338 114.981 18.1397 114.981 18.1457L114.964 26.7509C114.964 26.7604 114.968 26.7695 114.975 26.7763C114.982 26.783 114.991 26.7868 115 26.7868Z" fill="#3E3E3E"/>
<path d="M100.466 42.5252C100.457 42.5345 100.451 42.5467 100.45 42.5598C100.449 42.5728 100.453 42.5858 100.461 42.5964C101.38 43.8307 102.294 45.0649 103.205 46.2992C103.328 46.4652 103.372 46.6367 103.336 46.8138C103.332 46.8348 103.32 46.8535 103.303 46.8664C102.889 47.1726 101.905 47.0661 101.504 47.0581C101.493 47.0579 101.483 47.0553 101.473 47.0504C101.464 47.0456 101.456 47.0386 101.449 47.0301L99.0405 43.8174C99.0373 43.8131 99.0333 43.8095 99.0288 43.8068C99.0242 43.8041 99.0191 43.8024 99.0139 43.8017C99.0087 43.801 99.0034 43.8014 98.9984 43.8028C98.9933 43.8043 98.9886 43.8067 98.9846 43.81L98.5115 44.1955C98.5028 44.2025 98.4958 44.2115 98.4909 44.2216C98.4861 44.2317 98.4836 44.2428 98.4836 44.2541C98.484 44.8608 98.4842 45.4663 98.4842 46.0708C98.4842 46.3149 98.4545 46.4938 98.3951 46.6074C98.1196 47.1347 97.0131 47.1034 96.4715 47.0454C96.4625 47.0445 96.4542 47.0402 96.4481 47.0334C96.4421 47.0266 96.4388 47.0179 96.4389 47.0088C96.438 43.7796 96.4378 40.5506 96.4382 37.3219C96.4382 37.0751 96.469 36.8947 96.5307 36.7807C96.8128 36.2601 97.9187 36.2894 98.4516 36.3439C98.4605 36.3446 98.4688 36.3486 98.4749 36.3552C98.4809 36.3617 98.4843 36.3703 98.4842 36.3792V42.2536C98.4841 42.2576 98.4852 42.2615 98.4874 42.2649C98.4896 42.2682 98.4928 42.2708 98.4965 42.2723C98.5002 42.2738 98.5043 42.274 98.5082 42.2731C98.5121 42.2721 98.5156 42.2699 98.5182 42.2669L101.312 39.2052C101.319 39.1972 101.328 39.1907 101.338 39.1862C101.349 39.1816 101.359 39.179 101.371 39.1786C101.687 39.1719 102.893 39.0601 103.188 39.347C103.195 39.3544 103.201 39.3632 103.205 39.3731C103.209 39.3829 103.211 39.3935 103.21 39.4043C103.207 39.5521 103.167 39.6681 103.089 39.7524C102.225 40.6853 101.351 41.6096 100.466 42.5252Z" fill="#3E3E3E"/>
<path d="M70.8463 42.2809C70.9069 41.5879 70.8071 40.7883 70.0179 40.568C69.1469 40.3243 68.1249 40.5853 67.9246 41.5919C67.9226 41.6021 67.918 41.6117 67.9114 41.6197C67.9048 41.6277 67.8963 41.6339 67.8867 41.6378C67.214 41.9121 66.6431 40.9508 66.4169 40.4695C66.4126 40.46 66.4106 40.4497 66.411 40.4394C66.4115 40.429 66.4144 40.4191 66.4195 40.4102C67.6033 38.3951 72.1418 38.453 72.7719 41.0153C72.8216 41.2177 72.8471 41.5703 72.8484 42.0732C72.8511 43.4419 72.8506 44.8109 72.8471 46.18C72.8444 47.1793 71.5955 47.1114 70.9255 47.0515C70.9151 47.0506 70.9055 47.0459 70.8984 47.0383C70.8914 47.0306 70.8875 47.0206 70.8876 47.0102V46.0802C70.8876 46.0751 70.8861 46.07 70.8832 46.0658C70.8804 46.0616 70.8763 46.0583 70.8715 46.0564C70.8668 46.0546 70.8616 46.0542 70.8566 46.0553C70.8516 46.0565 70.8471 46.0591 70.8436 46.0629C70.4032 46.5389 69.8808 46.9316 69.2474 47.0894C68.1868 47.3537 66.9013 47.0921 66.2046 46.216C65.6697 45.5436 65.5645 44.5317 65.9817 43.7714C66.4442 42.9273 67.5786 42.5399 68.4975 42.4593C68.9682 42.418 69.7389 42.3703 70.8097 42.3162C70.8191 42.3156 70.828 42.3117 70.8347 42.3052C70.8414 42.2987 70.8455 42.2901 70.8463 42.2809ZM67.8767 44.2221C67.4722 44.8745 67.9532 45.6035 68.6472 45.726C69.4743 45.8711 70.3925 45.523 70.7325 44.7174C70.8703 44.3906 70.8723 43.9718 70.8503 43.6077C70.8496 43.5963 70.8445 43.5857 70.836 43.5781C70.8275 43.5705 70.8164 43.5665 70.8051 43.5671C70.2541 43.595 69.7147 43.6265 69.1869 43.6616C68.6991 43.6942 68.1409 43.7954 67.8767 44.2221Z" fill="#3E3E3E"/>
<path d="M84.208 40.8415C83.8321 40.4514 83.0589 40.4281 82.5825 40.5579C82.0573 40.7017 81.7404 41.0466 81.6317 41.5924C81.6296 41.6025 81.6252 41.6118 81.6187 41.6197C81.6122 41.6276 81.6039 41.6338 81.5944 41.6377C80.9197 41.9127 80.3615 40.9567 80.1226 40.4787C80.1167 40.4667 80.114 40.4533 80.1147 40.4398C80.1154 40.4263 80.1195 40.4131 80.1266 40.4015C81.4547 38.2771 86.5435 38.4862 86.5535 41.5572C86.5584 43.0218 86.5595 44.4863 86.5568 45.9509C86.5559 46.2443 86.5322 46.4471 86.4856 46.5594C86.2447 47.1359 85.1848 47.1013 84.6319 47.0514C84.6211 47.0502 84.6111 47.0452 84.6038 47.0372C84.5966 47.0292 84.5926 47.0188 84.5926 47.0081L84.5993 46.0954C84.5992 46.0886 84.5972 46.082 84.5934 46.0764C84.5896 46.0708 84.5842 46.0664 84.5779 46.0639C84.5716 46.0614 84.5647 46.0608 84.558 46.0623C84.5514 46.0638 84.5454 46.0672 84.5407 46.0721C83.65 47.0392 82.6047 47.3818 81.4048 47.1C80.2118 46.8197 79.39 45.9842 79.4439 44.7014C79.5078 43.1689 80.9743 42.5438 82.2997 42.4492C83.0401 42.3969 83.7817 42.3531 84.5247 42.3181C84.5337 42.3177 84.5423 42.314 84.5486 42.3075C84.5549 42.3011 84.5585 42.2925 84.5587 42.2835C84.5726 41.7562 84.5953 41.2443 84.208 40.8415ZM81.5132 45.0449C81.7275 45.8398 82.8467 45.8511 83.4468 45.6314C84.4189 45.2759 84.5886 44.5483 84.5587 43.6003C84.5585 43.5959 84.5575 43.5916 84.5557 43.5876C84.5539 43.5837 84.5513 43.5801 84.5482 43.5771C84.545 43.5742 84.5413 43.5718 84.5373 43.5703C84.5333 43.5688 84.529 43.5681 84.5247 43.5683C83.9751 43.5945 83.4258 43.6211 82.8766 43.6482C82.0781 43.6881 81.2464 44.0576 81.5132 45.0449Z" fill="#3E3E3E"/>
<path d="M92.8757 42.2809C92.8899 41.9387 92.8848 41.6906 92.8604 41.5366C92.704 40.5593 91.7372 40.3476 90.8995 40.5586C90.3761 40.69 90.0591 41.0346 89.9487 41.5925C89.9467 41.6025 89.9422 41.6119 89.9357 41.6198C89.9292 41.6277 89.9209 41.6338 89.9114 41.6378C89.2361 41.9134 88.6798 40.9554 88.4396 40.4794C88.4322 40.4647 88.4288 40.4483 88.4299 40.4318C88.4309 40.4153 88.4363 40.3993 88.4456 40.3855C89.3539 39.0581 91.1883 38.8071 92.6475 39.1213C93.6535 39.3384 94.5292 39.9635 94.7927 41.0013C94.845 41.2068 94.8716 41.5574 94.8725 42.0532C94.8752 43.3212 94.876 44.5891 94.8752 45.8571C94.8747 46.206 94.8485 46.4405 94.7966 46.5608C94.5418 47.1473 93.4978 47.094 92.9502 47.0528C92.9393 47.0521 92.929 47.0471 92.9216 47.039C92.9141 47.0308 92.9101 47.02 92.9103 47.0088L92.915 46.0955C92.915 46.0887 92.913 46.0821 92.9092 46.0765C92.9055 46.071 92.9001 46.0667 92.8938 46.0642C92.8875 46.0618 92.8807 46.0613 92.8741 46.0628C92.8675 46.0643 92.8616 46.0678 92.8571 46.0728C91.9664 47.0399 90.9206 47.3821 89.7198 47.0994C88.4949 46.8104 87.6671 45.9357 87.7669 44.6149C87.878 43.1416 89.3166 42.5472 90.6001 42.4553C91.3462 42.402 92.0932 42.3556 92.8411 42.3161C92.8502 42.3158 92.8588 42.312 92.8652 42.3054C92.8716 42.2989 92.8754 42.2901 92.8757 42.2809ZM90.3692 43.8313C89.447 44.2141 89.6233 45.4803 90.5881 45.704C91.4851 45.9111 92.4798 45.5116 92.7939 44.6129C92.8996 44.3107 92.8857 43.9332 92.8757 43.5997C92.8755 43.5953 92.8745 43.5911 92.8726 43.5871C92.8708 43.5832 92.8682 43.5796 92.865 43.5767C92.8618 43.5738 92.858 43.5716 92.8539 43.5701C92.8498 43.5687 92.8454 43.5681 92.8411 43.5684C92.2862 43.595 91.7315 43.6223 91.177 43.6503C90.8958 43.6645 90.6265 43.7248 90.3692 43.8313Z" fill="#3E3E3E"/>
<path d="M107.306 47.1333C104.654 46.6606 103.839 43.8246 104.535 41.5772C105.097 39.7577 106.658 38.9149 108.513 39.0095C110.345 39.1027 111.671 40.1965 112.043 42.0358C112.688 45.2233 110.663 47.7324 107.306 47.1333ZM106.525 44.3286C107.031 46.0668 109.076 46.2226 109.811 44.6348C110.39 43.3839 110.242 40.5946 108.313 40.5187C106.322 40.4408 106.134 42.9845 106.525 44.3286Z" fill="#3E3E3E"/>
<path d="M59.2448 40.2038C60.0878 39.1965 61.0233 38.8563 62.3514 39.0867C63.9763 39.3689 64.5305 40.6844 64.4986 42.1683C64.462 43.8459 64.5006 45.3724 64.466 46.363C64.438 47.1745 63.0075 47.0787 62.4885 47.0527C62.4795 47.0522 62.471 47.0483 62.4648 47.0419C62.4587 47.0355 62.4552 47.0269 62.4552 47.0181C62.4552 45.4701 62.4539 43.9229 62.4512 42.3767C62.4508 41.9617 62.4173 41.665 62.3508 41.4866C62.1072 40.8369 61.4971 40.5879 60.8077 40.6305C59.8543 40.6884 59.2301 41.3974 59.2281 42.3494C59.2255 43.6502 59.278 44.9817 59.2088 46.2785C59.1603 47.1885 57.8907 47.0947 57.2912 47.0547C57.2785 47.0539 57.2665 47.0481 57.2578 47.0387C57.2492 47.0293 57.2444 47.0169 57.2446 47.0041C57.2686 44.7615 57.2679 42.5562 57.2426 40.3882C57.2382 40.0362 57.2657 39.7952 57.3252 39.6652C57.5933 39.08 58.624 39.1453 59.1782 39.1785C59.1861 39.1789 59.1936 39.1823 59.199 39.188C59.2045 39.1937 59.2075 39.2013 59.2075 39.2092L59.2168 40.1938C59.2169 40.197 59.218 40.2001 59.2199 40.2026C59.2218 40.2052 59.2244 40.2072 59.2274 40.2082C59.2304 40.2093 59.2337 40.2095 59.2368 40.2087C59.2399 40.2079 59.2427 40.2062 59.2448 40.2038Z" fill="#3E3E3E"/>
<path d="M115.452 40.066C115.452 40.0703 115.454 40.0744 115.456 40.0778C115.459 40.0813 115.462 40.0839 115.466 40.0853C115.47 40.0867 115.475 40.0869 115.479 40.0859C115.483 40.0848 115.487 40.0825 115.49 40.0793C116.184 39.2236 117.045 38.8826 118.073 39.0561C118.91 39.1972 119.498 39.6406 119.826 40.4122C119.828 40.4153 119.83 40.4181 119.833 40.4202C119.835 40.4223 119.839 40.4237 119.842 40.4241C119.846 40.4246 119.849 40.4242 119.852 40.4229C119.855 40.4216 119.858 40.4195 119.86 40.4168C120.237 39.9508 120.437 39.5987 121.008 39.3224C122.501 38.6014 124.466 39.1619 124.904 40.8635C124.966 41.1072 124.998 41.4731 124.998 41.9613C125 43.2941 125.001 44.6271 125 45.9603C125 46.2745 124.966 46.4942 124.9 46.6194C124.608 47.1653 123.53 47.1087 123.008 47.0687C122.999 47.0682 122.99 47.0642 122.984 47.0575C122.978 47.0508 122.974 47.042 122.974 47.0328C122.968 45.4688 122.967 43.905 122.974 42.3414C122.975 41.9487 122.945 41.6577 122.883 41.4687C122.47 40.2058 120.668 40.4002 120.29 41.5912C120.238 41.7527 120.21 42.0197 120.205 42.392C120.189 43.6183 120.185 44.8457 120.195 46.0742C120.197 46.3063 120.173 46.4736 120.124 46.5761C119.838 47.1726 118.793 47.0694 118.266 47.0601C118.257 47.0599 118.248 47.0561 118.241 47.0493C118.235 47.0426 118.231 47.0336 118.231 47.0241C118.231 45.3203 118.23 43.6245 118.227 41.9367C118.225 40.313 116 40.1665 115.549 41.6131C115.476 41.8461 115.454 42.1857 115.454 42.4426C115.451 43.7217 115.451 45.0008 115.452 46.2799C115.453 47.1852 114.058 47.0807 113.524 47.0528C113.515 47.0523 113.506 47.0483 113.5 47.0416C113.494 47.0349 113.49 47.0261 113.49 47.0168C113.488 44.7423 113.488 42.4682 113.489 40.1945C113.489 39.9393 113.512 39.7613 113.558 39.6606C113.834 39.0581 114.898 39.1679 115.42 39.1746C115.428 39.1746 115.436 39.178 115.442 39.184C115.448 39.1899 115.452 39.1981 115.452 39.2065L115.452 40.066Z" fill="#3E3E3E"/>
<path d="M76.3768 39.9215C76.3769 39.9264 76.3784 39.9312 76.3812 39.9352C76.3839 39.9393 76.3878 39.9425 76.3923 39.9444C76.3968 39.9463 76.4018 39.9468 76.4066 39.946C76.4114 39.9451 76.4159 39.9429 76.4194 39.9395C77.1227 39.2505 77.7748 38.9536 78.7755 39.2125C78.7815 39.2143 78.7869 39.2179 78.7908 39.2227C78.7947 39.2276 78.7971 39.2336 78.7975 39.2398C78.8321 39.7904 78.9219 40.8043 78.0682 40.799C77.5652 40.7956 76.4933 40.8389 76.4307 41.5119C76.3183 42.7176 76.3722 44.1069 76.3782 46.0502C76.3791 46.2779 76.3498 46.4483 76.2903 46.5615C76.0016 47.1153 74.9948 47.0614 74.4499 47.0188C74.4407 47.0183 74.4321 47.0143 74.4258 47.0076C74.4195 47.0009 74.416 46.9921 74.416 46.9829C74.4133 44.6919 74.4129 42.4011 74.4146 40.1106C74.4146 39.9144 74.4266 39.7788 74.4506 39.7038C74.6528 39.0594 75.7002 39.1133 76.3456 39.1446C76.354 39.145 76.3619 39.1486 76.3678 39.1546C76.3736 39.1607 76.3768 39.1688 76.3768 39.1773V39.9215Z" fill="#3E3E3E"/>
</svg>
