<svg width="32" height="32" viewBox="0 0 32 32" fill="none" xmlns="http://www.w3.org/2000/svg">
<g clip-path="url(#clip0_22_2029)">
<path d="M7.97002 8.01022C7.74121 7.90458 7.46966 8.00375 7.36271 8.23253L7.00623 8.99607L10.1057 8.99604L7.97002 8.01022ZM4.45894 14.4548L2.82558 17.9549C2.79996 18.0094 2.78545 18.0685 2.78288 18.1287C2.78032 18.1889 2.78977 18.249 2.81066 18.3055C2.83355 18.3683 2.86981 18.4254 2.91694 18.4728C2.95519 18.511 2.99925 18.5421 3.04917 18.5648L4.45891 19.215L4.45894 14.4548ZM20.508 26.1211L22.3766 22.1161L17.2497 22.1161L18.9881 22.9185C19.2182 23.0216 19.3193 23.2964 19.2123 23.5265C19.1067 23.7566 18.8338 23.8571 18.6044 23.7507L16.3954 22.7318C16.3462 22.7092 16.3015 22.6781 16.2632 22.6398C16.1316 22.5082 16.0882 22.3027 16.1712 22.1239C16.1725 22.1213 16.1751 22.12 16.1764 22.1174L10.7435 22.1174L19.9007 26.3434C20.1301 26.4497 20.4017 26.3505 20.508 26.1211ZM25.7373 20.7413L25.7373 10.3708C25.7373 10.118 25.5319 9.91252 25.2791 9.91252L5.83432 9.91252C5.58154 9.91252 5.37606 10.118 5.37606 10.3708L5.37606 20.7413C5.37572 20.8015 5.38735 20.8612 5.41027 20.9168C5.43319 20.9724 5.46696 21.023 5.50959 21.0654C5.59257 21.1484 5.70726 21.1996 5.83368 21.2002L25.2784 21.2002C25.4001 21.2 25.5167 21.1516 25.6027 21.0656C25.6887 20.9796 25.7371 20.863 25.7373 20.7413ZM10.3708 12.7742L7.77816 12.7742C7.65658 12.7737 7.54009 12.7253 7.45412 12.6393C7.36815 12.5533 7.31967 12.4368 7.31926 12.3153C7.31926 12.0625 7.52474 11.857 7.77752 11.857L10.3702 11.857C10.623 11.857 10.8284 12.0625 10.8284 12.3153C10.8284 12.5681 10.6242 12.7735 10.3708 12.7742ZM15.5561 18.7826C15.0972 18.7826 14.6752 18.581 14.3284 18.2342C13.7554 17.6613 13.386 16.6916 13.3867 15.5709C13.3867 14.7517 13.5889 13.9739 13.9564 13.3821C14.3667 12.723 14.9345 12.36 15.556 12.3593C16.1776 12.3587 16.7454 12.7217 17.1557 13.3821C17.5232 13.9739 17.7261 14.751 17.7254 15.5709C17.7261 17.3709 16.7733 18.7826 15.5561 18.7826ZM23.334 19.2558L20.7413 19.2558C20.6197 19.2554 20.5032 19.2069 20.4173 19.1209C20.3313 19.0349 20.2828 18.9184 20.2824 18.7969C20.2824 18.5441 20.4879 18.3386 20.7407 18.3386L23.3333 18.3386C23.5861 18.3386 23.7916 18.5441 23.7916 18.7969C23.7916 19.0496 23.5874 19.2551 23.334 19.2558Z" fill="#A7CDD1"/>
<g clip-path="url(#clip1_22_2029)">
<path d="M7.97 8.01061C7.74119 7.90497 7.46963 8.00414 7.36268 8.23292L7.00621 8.99646L10.1057 8.99643L7.97 8.01061ZM4.45891 14.4552L2.82555 17.9553C2.79993 18.0098 2.78542 18.0689 2.78286 18.1291C2.7803 18.1893 2.78974 18.2494 2.81064 18.3059C2.83352 18.3687 2.86979 18.4258 2.91691 18.4732C2.95516 18.5114 2.99922 18.5425 3.04914 18.5652L4.45888 19.2153L4.45891 14.4552ZM20.508 26.1215L22.3766 22.1165L17.2497 22.1165L18.9881 22.9189C19.2182 23.022 19.3193 23.2968 19.2123 23.5269C19.1067 23.757 18.8338 23.8574 18.6043 23.7511L16.3954 22.7322C16.3462 22.7096 16.3014 22.6785 16.2632 22.6402C16.1316 22.5086 16.0882 22.3031 16.1712 22.1243C16.1725 22.1217 16.175 22.1204 16.1764 22.1178L10.7435 22.1178L19.9007 26.3438C20.1301 26.4501 20.4017 26.3509 20.508 26.1215Z" fill="#D1EAEE"/>
</g>
</g>
<defs>
<clipPath id="clip0_22_2029">
<rect width="22" height="22" fill="white" transform="translate(15.5564) rotate(45)"/>
</clipPath>
<clipPath id="clip1_22_2029">
<rect width="22" height="22" fill="white" transform="translate(15.5564) rotate(45)"/>
</clipPath>
</defs>
</svg>
