<svg width="25" height="25" viewBox="0 0 25 25" fill="none" xmlns="http://www.w3.org/2000/svg">
<g id="vuesax/bold/notification">
<g id="notification">
<path id="Vector" d="M19.9444 14.943L18.9132 13.2311C18.6711 12.7566 18.5306 12.2367 18.5007 11.7049V9.09579C18.4996 7.94492 18.1726 6.8179 17.5575 5.84516C16.9425 4.87242 16.0646 4.09373 15.0254 3.59923C14.7602 3.1283 14.3733 2.73725 13.9053 2.46695C13.4372 2.19665 12.9052 2.05703 12.3648 2.06266C11.8202 2.06206 11.2854 2.20707 10.8158 2.48268C10.3462 2.75829 9.95881 3.15447 9.69381 3.63016C8.67426 4.13441 7.8156 4.91309 7.2144 5.87866C6.6132 6.84422 6.29331 7.95836 6.29069 9.09579V11.7049C6.26209 12.2337 6.12149 12.7504 5.87819 13.2208L4.83663 14.943C4.62909 15.2588 4.49876 15.6191 4.45616 15.9946C4.41355 16.3702 4.45987 16.7505 4.59136 17.1048C4.72286 17.4592 4.93585 17.7776 5.21313 18.0344C5.49041 18.2913 5.82421 18.4793 6.18756 18.5833C8.18769 19.2576 10.285 19.5991 12.3957 19.5939C14.5055 19.5974 16.6019 19.2596 18.6038 18.5936C18.9584 18.4757 19.2819 18.2795 19.5502 18.0194C19.8185 17.7593 20.0248 17.442 20.1536 17.0913C20.2824 16.7405 20.3305 16.3652 20.2943 15.9932C20.2581 15.6213 20.1385 15.2623 19.9444 14.943Z" fill="#30B9CC"/>
<path id="Vector_2" d="M15.2934 20.6353C15.0765 21.2357 14.6801 21.7547 14.1579 22.1218C13.6358 22.489 13.0132 22.6865 12.3749 22.6875C11.9678 22.6878 11.5646 22.6067 11.1892 22.4491C10.8138 22.2915 10.4736 22.0605 10.1887 21.7697C9.85955 21.4517 9.61193 21.059 9.4668 20.625C9.60086 20.6456 9.73492 20.6559 9.8793 20.6766C10.1165 20.7075 10.364 20.7384 10.6115 20.7591C11.1993 20.8106 11.7974 20.8416 12.3955 20.8416C12.9937 20.8416 13.5712 20.8106 14.1487 20.7591C14.3652 20.7384 14.5818 20.7281 14.788 20.6972L15.2934 20.6353Z" fill="#30B9CC"/>
</g>
</g>
</svg>
