<svg width="22" height="22" viewBox="0 0 22 22" fill="none" xmlns="http://www.w3.org/2000/svg">
<g id="Frame" clip-path="url(#clip0_5_3435)">
<g id="Group">
<path id="Vector" d="M19.6229 17.2115H16.2763C14.1674 17.2115 12.4516 15.4957 12.4516 13.3868C12.4516 11.2779 14.1674 9.56213 16.2763 9.56213H19.6229C19.6857 9.56217 19.7479 9.54984 19.8059 9.52582C19.864 9.50181 19.9167 9.4666 19.9611 9.42219C20.0055 9.37779 20.0407 9.32506 20.0647 9.26704C20.0887 9.20901 20.1011 9.14683 20.101 9.08403V7.64976C20.101 6.64721 19.3234 5.83187 18.3409 5.7528L15.5951 0.956968C15.3407 0.513421 14.9298 0.196402 14.4382 0.0647633C13.9489 -0.0659793 13.4372 0.00268634 12.9992 0.257583L3.58671 5.73739H1.93358C0.878903 5.73739 0.0212097 6.59503 0.0212097 7.64976V19.1239C0.0212097 20.1786 0.878858 21.0363 1.93358 21.0363H18.1886C19.2433 21.0363 20.101 20.1786 20.101 19.1239V17.6896C20.1011 17.6268 20.0887 17.5647 20.0647 17.5066C20.0407 17.4486 20.0055 17.3959 19.9611 17.3515C19.9167 17.3071 19.864 17.2719 19.8059 17.2478C19.7479 17.2238 19.6857 17.2115 19.6229 17.2115ZM16.1881 3.91784L17.2298 5.73739H13.0627L16.1881 3.91784ZM5.48712 5.73739L13.4806 1.08395C13.6967 0.957416 13.9493 0.923801 14.1907 0.988253C14.4349 1.0536 14.6385 1.21142 14.765 1.43225L14.766 1.434L7.37457 5.73739H5.48712Z" fill="#C8D7D9"/>
<path id="Vector_2" d="M19.6227 10.5183H16.2761C14.6943 10.5183 13.4076 11.805 13.4076 13.3868C13.4076 14.9687 14.6943 16.2554 16.2761 16.2554H19.6227C20.4137 16.2554 21.057 15.612 21.057 14.8211V11.9526C21.057 11.1617 20.4137 10.5183 19.6227 10.5183ZM16.2761 14.343C15.749 14.343 15.3199 13.9139 15.3199 13.3868C15.3199 12.8598 15.749 12.4307 16.2761 12.4307C16.8032 12.4307 17.2323 12.8598 17.2323 13.3868C17.2323 13.9139 16.8032 14.343 16.2761 14.343Z" fill="#C8D7D9"/>
</g>
</g>
<defs>
<clipPath id="clip0_5_3435">
<rect width="21.0363" height="21.0363" fill="white" transform="translate(0.0209045)"/>
</clipPath>
</defs>
</svg>
