<svg width="22" height="22" viewBox="0 0 22 22" fill="none" xmlns="http://www.w3.org/2000/svg">
<path d="M16.0485 13.964C15.3589 13.2832 14.4979 13.2832 13.8127 13.964C13.2899 14.4824 12.7672 15.0007 12.2533 15.5278C12.1127 15.6728 11.9941 15.7035 11.8228 15.6069C11.4846 15.4224 11.1244 15.273 10.7993 15.071C9.2839 14.1178 8.01444 12.8922 6.88994 11.513C6.33208 10.8277 5.83572 10.0942 5.48871 9.26836C5.41843 9.10144 5.4316 8.99163 5.56777 8.85546C6.09049 8.35031 6.60003 7.83198 7.11396 7.31366C7.82996 6.59328 7.82996 5.7499 7.10957 5.02512C6.70106 4.61222 6.29255 4.2081 5.88404 3.7952C5.46235 3.37351 5.04506 2.94743 4.61897 2.53013C3.92934 1.85806 3.06839 1.85806 2.38315 2.53452C1.85604 3.05285 1.35089 3.58435 0.814993 4.09389C0.31863 4.5639 0.0682529 5.13933 0.0155419 5.81139C-0.0679173 6.90515 0.200031 7.93741 0.577793 8.94331C1.35089 11.0254 2.5281 12.8747 3.95569 14.5702C5.88404 16.8631 8.18576 18.6773 10.8784 19.9863C12.0908 20.5749 13.347 21.0273 14.7131 21.102C15.6532 21.1547 16.4702 20.9175 17.1247 20.1839C17.5727 19.6832 18.0779 19.2264 18.5523 18.7476C19.2551 18.036 19.2595 17.175 18.561 16.4722C17.7265 15.6332 16.8875 14.7986 16.0485 13.964ZM15.0126 9.66618C15.1532 10.0978 15.572 10.4013 16.0194 10.3249C16.4672 10.2484 16.7729 9.82131 16.6463 9.38497C16.3066 8.2137 15.6777 7.15294 14.8054 6.27701C13.8729 5.34456 12.7367 4.69681 11.4833 4.37584C11.043 4.26309 10.6252 4.58165 10.5621 5.03176C10.4991 5.48183 10.8154 5.89181 11.2517 6.01909C12.1513 6.28157 12.9684 6.76373 13.6457 7.44104C14.2763 8.07164 14.7404 8.8303 15.0126 9.66618ZM17.744 3.41743C16.0682 1.74156 13.9941 0.61883 11.7019 0.140764C11.2571 0.0480062 10.8405 0.364589 10.7774 0.814525C10.7143 1.2647 11.0292 1.67747 11.4731 1.77531C13.41 2.20222 15.1635 3.16445 16.5844 4.58147C17.9224 5.91945 18.8588 7.56527 19.3178 9.37875C19.4291 9.8185 19.8503 10.1201 20.2974 10.0438C20.7453 9.96734 21.0488 9.54095 20.9416 9.09947C20.4193 6.94952 19.3235 5.0008 17.744 3.41743Z" fill="#30B9CC"/>
</svg>
