<svg width="18" height="18" viewBox="0 0 18 18" fill="none" xmlns="http://www.w3.org/2000/svg">
<g id="Group">
<path id="Vector" d="M15.1389 11.261C14.4883 10.6187 13.6762 10.6187 13.0297 11.261C12.5366 11.7499 12.0435 12.2389 11.5587 12.7361C11.4261 12.8729 11.3143 12.9019 11.1526 12.8107C10.8336 12.6367 10.4938 12.4958 10.1872 12.3052C8.7576 11.406 7.56008 10.2499 6.49929 8.9488C5.97305 8.30239 5.50481 7.61039 5.17746 6.83138C5.11116 6.67392 5.12359 6.57033 5.25205 6.44187C5.74514 5.96535 6.22581 5.4764 6.71062 4.98744C7.38604 4.30788 7.38604 3.51229 6.70648 2.82858C6.32112 2.43908 5.93575 2.05786 5.55039 1.66835C5.1526 1.27056 4.75895 0.868621 4.35701 0.474971C3.70645 -0.159013 2.89429 -0.159012 2.24788 0.479115C1.75063 0.968069 1.27411 1.46945 0.768581 1.95012C0.300345 2.3935 0.0641551 2.93632 0.0144309 3.5703C-0.0642991 4.60208 0.188466 5.57584 0.544822 6.52475C1.27411 8.48885 2.38462 10.2333 3.73131 11.8328C5.55039 13.9958 7.72168 15.7071 10.2618 16.942C11.4054 17.4972 12.5905 17.924 13.8792 17.9945C14.7659 18.0442 15.5367 17.8204 16.1541 17.1284C16.5767 16.6561 17.0533 16.2251 17.5008 15.7734C18.1638 15.1022 18.1679 14.29 17.5091 13.627C16.7218 12.8356 15.9303 12.0483 15.1389 11.261Z" fill="#C1C1C1"/>
</g>
</svg>
