<svg width="18" height="18" viewBox="0 0 18 18" fill="none" xmlns="http://www.w3.org/2000/svg">
<path d="M15.1365 3.13646C14.131 3.0294 13.1413 2.80565 12.1875 2.46971C11.3122 2.16039 10.4727 1.75809 9.68325 1.26971C9.47727 1.14471 9.24094 1.07861 9 1.07861C8.75906 1.07861 8.52273 1.14471 8.31675 1.26971L8.316 1.27046C7.52671 1.75845 6.68742 2.16049 5.8125 2.46971C4.85918 2.80551 3.87003 3.02926 2.865 3.13646C2.54215 3.16934 2.243 3.32086 2.02546 3.56167C1.80793 3.80248 1.6875 4.11544 1.6875 4.43996V8.33621C1.68805 9.77397 2.07284 11.1855 2.80204 12.4246C3.53124 13.6637 4.57835 14.6854 5.835 15.384L8.3625 16.7887C8.55714 16.8982 8.77669 16.9557 9 16.9557C9.22331 16.9557 9.44286 16.8982 9.6375 16.7887L12.165 15.384C13.4216 14.6854 14.4688 13.6637 15.198 12.4246C15.9272 11.1855 16.312 9.77397 16.3125 8.33621V4.44071C16.3129 4.11617 16.1929 3.80303 15.9756 3.56194C15.7583 3.32084 15.4593 3.16971 15.1365 3.13646ZM11.9843 7.63796L9.17175 10.638C9.03814 10.7805 8.85414 10.8652 8.65898 10.874C8.46382 10.8828 8.27293 10.8151 8.127 10.6852L6.4395 9.18521C6.36216 9.12091 6.29853 9.04171 6.25242 8.95233C6.20631 8.86294 6.17864 8.76519 6.17108 8.6649C6.16351 8.5646 6.17619 8.46381 6.20837 8.36851C6.24055 8.27322 6.29157 8.18537 6.35839 8.1102C6.42522 8.03502 6.50648 7.97406 6.59734 7.93093C6.6882 7.8878 6.78681 7.86338 6.8873 7.85914C6.9878 7.8549 7.08811 7.87091 7.18229 7.90622C7.27647 7.94154 7.36258 7.99544 7.4355 8.06471L8.57775 9.07946L10.8907 6.61196C10.9609 6.5373 11.0456 6.47777 11.1397 6.43701C11.2337 6.39626 11.335 6.37514 11.4375 6.37496C11.5838 6.37488 11.727 6.41761 11.8493 6.49787C11.9716 6.57813 12.0678 6.69242 12.126 6.82666C12.1842 6.96091 12.2019 7.10924 12.1768 7.2534C12.1518 7.39755 12.0843 7.53123 11.9843 7.63796Z" fill="#3E3E3E"/>
</svg>
