<svg width="61" height="61" viewBox="0 0 61 61" fill="none" xmlns="http://www.w3.org/2000/svg">
<mask id="mask0_476_10392" style="mask-type:luminance" maskUnits="userSpaceOnUse" x="0" y="0" width="61" height="61">
<path d="M30.4709 60.9417C47.2995 60.9417 60.9417 47.2995 60.9417 30.4709C60.9417 13.6423 47.2995 0 30.4709 0C13.6423 0 0 13.6423 0 30.4709C0 47.2995 13.6423 60.9417 30.4709 60.9417Z" fill="white"/>
</mask>
<g mask="url(#mask0_476_10392)">
<path d="M21.1492 28.7813C21.0327 28.956 20.6831 44.8032 23.6545 48.0659L40.3173 47.9494C40.3173 47.9494 44.8035 35.7727 41.6574 28.6647L21.0327 28.7813" fill="black"/>
<path d="M37.2051 38.7086L25.5527 38.7816L25.602 46.6469L37.2543 46.5739L37.2051 38.7086Z" fill="#FBBCA0"/>
<path d="M28.432 44.4536C30.1798 45.1528 32.1025 45.5606 34.0251 45.5606C35.1321 45.5606 36.239 45.4441 37.2878 45.211L37.2295 38.6857L25.5771 38.744V42.8223C26.4511 43.5797 27.4998 44.1041 28.432 44.4536Z" fill="#E99E7C"/>
<path d="M44.3375 24.8195C44.3375 28.1404 43.8132 31.4613 42.2984 34.3161C40.9583 36.8214 38.9192 38.8023 36.7635 40.4336C35.0157 41.7153 33.093 43.2302 30.8791 43.1136C28.5486 42.9388 26.6842 40.9579 24.9946 39.3849C22.5477 37.2292 20.6833 34.4909 19.4598 31.2865C18.7024 29.3056 18.3528 27.0917 18.3528 24.9942C18.2363 14.3323 24.0042 7.57399 31.2286 7.57399C38.3948 7.51573 44.2793 14.1576 44.3375 24.8195Z" fill="#FBBCA0"/>
<path d="M49.2311 50.105L36.5301 46.3763H31.4613L26.3926 46.4345L13.7498 50.3381C13.7498 50.3381 7.86533 52.8433 7.28271 60.7669L31.5778 60.5921L55.873 60.4173C55.1156 52.552 49.2311 50.105 49.2311 50.105Z" fill="#FBBCA0"/>
<path d="M49.2313 50.105L42.1816 48.0659L31.5197 58.8443L20.6831 48.1824L13.6917 50.3381C13.6917 50.3381 7.6907 52.9016 7.22461 60.7669L42.7642 60.5339L56.1062 60.4756C54.8827 52.2607 49.2313 50.105 49.2313 50.105Z" fill="#0B454D"/>
<path d="M19.0518 18.702C22.1396 21.6733 31.9276 20.9742 30.7041 20.9159L31.8693 14.915L32.6267 20.9742C32.6267 20.9742 34.4911 21.6733 38.6277 20.9742L39.6181 16.8376L40.3755 20.6829C40.3755 20.6829 43.2304 19.9255 43.8712 18.5272C43.8712 18.5272 43.2886 7.98184 32.3937 6.99139C32.3937 6.99139 21.4405 7.16618 19.0518 18.702Z" fill="black"/>
<path d="M40.317 10.4871C40.317 10.4871 45.1528 41.1328 38.8022 49.5225C38.8022 49.5225 45.2693 46.9589 46.085 41.7154C46.085 41.7154 51.212 19.2846 40.317 10.4871Z" fill="black"/>
<path d="M24.2369 10.3705C24.2369 10.3705 19.0516 41.3075 25.4604 49.5807C25.4604 49.5807 18.9351 47.0754 18.0611 41.8319C18.0611 41.8901 13.4002 19.2846 24.2369 10.3705Z" fill="black"/>
<path d="M20.4502 48.2407L31.6364 59.66L43.6966 48.4737L40.1427 47.0755L31.4617 48.8233L24.4703 46.4346L20.4502 48.2407Z" fill="#E2E3E4"/>
<path d="M20.4502 48.2407L25.8685 45.8519L31.4034 47.9494L36.88 45.7354L42.7062 48.1241L34.5495 53.3094L31.4034 49.1146L28.0242 53.3677L20.4502 48.2407Z" fill="#CDCFD0"/>
</g>
</svg>
