<svg width="20" height="18" viewBox="0 0 20 18" fill="none" xmlns="http://www.w3.org/2000/svg">
<g id="Frame 2">
<g id="Group">
<path id="Vector" d="M8.0236 13.1819C8.0236 13.4985 8.2802 13.7551 8.59672 13.7551H11.042C11.3585 13.7551 11.6151 13.4985 11.6151 13.1819V12.1121C11.8019 12.1121 11.2394 12.2283 18.6454 10.5273V15.2452C18.6454 16.2354 17.8398 17.0409 16.8496 17.0409H2.78914C1.79894 17.0409 0.993371 16.2354 0.993371 15.2452V10.5298L8.0236 12.0163V13.1819Z" fill="#ACE3EB"/>
<path id="Vector_2" d="M1.22265 3.01855H18.3779C19.0532 3.01855 19.6006 3.56596 19.6006 4.2412V8.21898C19.6006 8.75316 19.2316 9.21654 18.7109 9.33613L11.6152 10.9658V9.51388C11.6152 9.19736 11.3586 8.94076 11.042 8.94076H8.59675C8.28024 8.94076 8.02363 9.19736 8.02363 9.51388V10.8446L0.889668 9.33613C0.369011 9.21654 0 8.75316 0 8.21898V4.2412C0 3.56596 0.547403 3.01855 1.22265 3.01855Z" fill="#30B9CC"/>
<path id="Vector_3" d="M10.469 10.0869H9.16995V12.6086H10.469V10.0869ZM11.386 1.14623H8.25296V1.87218H7.10673V0.573117C7.10673 0.256603 7.36334 0 7.67985 0H11.9591C12.2756 0 12.5322 0.256603 12.5322 0.573117V1.87218H11.386V1.14623Z" fill="#ACE3EB"/>
</g>
</g>
</svg>
