<svg width="96" height="55" viewBox="0 0 96 55" fill="none" xmlns="http://www.w3.org/2000/svg">
<g id="Frame">
<path id="Vector" d="M19.2979 45.6972H31.1164C31.9623 45.6972 32.6472 45.0109 32.6472 44.1633V12.621C32.6472 11.7735 31.9623 11.0872 31.1164 11.0872H19.2979C18.452 11.0872 17.7671 11.7735 17.7671 12.621V44.1633C17.7671 45.0109 18.4554 45.6972 19.2979 45.6972Z" fill="#587AA3"/>
<path id="Vector_2" d="M34.7534 12.4632V44.3761C34.7534 45.306 34 46.061 33.0719 46.061H18.8528C17.9247 46.061 17.1747 45.306 17.1747 44.3761V12.4632C17.1747 12.4357 17.1747 12.4083 17.1781 12.3808C17.2192 11.4886 17.9555 10.7783 18.8562 10.7783H33.0754C34 10.7783 34.7534 11.5332 34.7534 12.4632Z" fill="#27828E"/>
<path id="Vector_3" opacity="0.98" d="M20.0001 45.6972H32.9042C33.7843 45.6972 34.4966 44.9835 34.4966 44.1016V12.6828C34.4966 11.8009 33.7843 11.0872 32.9042 11.0872H20.0001C19.1199 11.0872 18.4076 11.8009 18.4076 12.6828V44.1016C18.4076 44.9835 19.1199 45.6972 20.0001 45.6972Z" fill="#A3CDFF"/>
<path id="Vector_4" opacity="0.73" d="M33.2877 12.621V44.1633C33.2877 45.0109 32.6028 45.6972 31.7569 45.6972H19.9384C19.0925 45.6972 18.4076 45.0109 18.4076 44.1633V12.621C18.4076 11.7735 19.0925 11.0872 19.9384 11.0872H31.7569C32.6028 11.0906 33.2877 11.7769 33.2877 12.621Z" fill="#30B9CC"/>
<path id="Vector_5" d="M32.1233 48.9674C37.7047 48.9674 42.2294 48.588 42.2294 48.1199C42.2294 47.6518 37.7047 47.2723 32.1233 47.2723C26.5418 47.2723 22.0171 47.6518 22.0171 48.1199C22.0171 48.588 26.5418 48.9674 32.1233 48.9674Z" fill="url(#paint0_linear_5_956)"/>
<path id="Vector_6" d="M68.7089 40.6117C68.7089 40.6117 68.702 40.0352 69.4931 39.9941C70.4006 39.946 76.3048 39.9083 76.3048 39.9083L76.2671 40.5225L68.7089 40.6117Z" fill="#D6985E"/>
<g id="Group">
<g id="Group_2">
<g id="Group_3">
<path id="Vector_7" d="M64.8081 37.7636C64.7876 37.6744 64.7979 37.5371 65.0753 37.3793C65.3527 37.2214 65.976 36.7719 66.1883 36.7616C66.4006 36.7479 66.726 36.8302 66.8116 36.8268C66.8972 36.8234 67.065 37.3999 67.065 37.3999L64.8081 37.7636Z" fill="#EEA886"/>
</g>
<g id="Group_4">
<path id="Vector_8" d="M72.2432 32.088L70.3836 35.7494L66.5616 36.7342L66.9315 37.7019L71.0377 37.4102L73.0514 34.0508L72.2432 32.088Z" fill="#001C49"/>
</g>
<g id="Group_5">
<g id="Group_6">
<g id="Group_7">
<path id="Vector_9" d="M60.9281 46.9566C60.9281 46.9566 60.0753 47.3169 59.6918 47.4405C59.3116 47.564 57.9144 47.4233 57.7568 47.5365C57.6027 47.6498 57.5959 48.0718 57.8185 48.1473C58.0445 48.2228 59.7123 48.6072 60.2945 48.5523C60.8767 48.4974 61.9007 48.8645 62.1438 48.8165C62.387 48.7684 62.4109 47.4885 62.3596 47.19C62.3116 46.8948 60.9281 46.9566 60.9281 46.9566Z" fill="#202338"/>
</g>
</g>
</g>
<g id="Group_8">
<g id="Group_9">
<g id="Group_10">
<path id="Vector_10" d="M61.1267 46.4419L60.9315 46.9566C60.9315 46.9566 61.9623 47.2998 62.3665 47.19L62.5 46.6649L61.1267 46.4419Z" fill="#292C47"/>
</g>
</g>
</g>
<g id="Group_11">
<g id="Group_12">
<g id="Group_13">
<path id="Vector_11" d="M63.2328 47.413C63.2328 47.413 62.428 47.8728 62.0616 48.0409C61.6986 48.2091 60.2945 48.2365 60.1541 48.3669C60.0136 48.4973 60.0582 48.916 60.2876 48.964C60.5205 49.0121 62.2225 49.1939 62.7945 49.0704C63.3664 48.9469 64.4246 49.1905 64.6643 49.115C64.9006 49.0395 64.7705 47.763 64.6849 47.4747C64.5958 47.1899 63.2328 47.413 63.2328 47.413Z" fill="#292C47"/>
</g>
</g>
</g>
<g id="Group_14">
<g id="Group_15">
<g id="Group_16">
<path id="Vector_12" d="M63.3528 46.8811L63.2329 47.4164C63.2329 47.4164 64.2946 47.636 64.685 47.4782L64.7569 46.9429L63.3528 46.8811Z" fill="#3D416B"/>
</g>
</g>
</g>
<g id="Group_17">
<path id="Vector_13" d="M71.4281 37.2661C71.4281 37.2661 67.7534 37.2969 67.3048 37.3553C66.815 37.4205 64.9692 37.4376 64.7397 37.767C62.4109 41.0681 60.8253 46.5139 60.8253 46.5139L62.6678 46.8537C62.6678 46.8537 64.4486 43.6315 65.1952 41.9569C65.8664 40.4539 66.4383 40.0662 67.8424 40.1005C69.25 40.1348 73.7466 39.8431 76.339 39.5446L71.4281 37.2661Z" fill="#55657C"/>
</g>
<g id="Group_18">
<path id="Vector_14" d="M70.6336 29.7374C70.6336 29.7374 70.274 31.3227 70.3631 32.1943C70.4521 33.0659 71.8425 35.2552 71.9076 35.7425C71.9726 36.2298 71.5925 37.2352 71.5925 37.2352L76.4076 39.4691C76.4076 39.4691 76.4007 38.0725 76.2021 36.4151C76.0035 34.7576 75.3802 33.4468 75.1644 32.51C74.4213 29.3119 71.6952 28.8692 71.6952 28.8692L70.6336 29.7374Z" fill="#CFBEB6"/>
</g>
<g id="Group_19">
<path id="Vector_15" d="M71.6096 37.1906C71.6096 37.1906 67.8254 37.2214 67.3767 37.2798C66.887 37.345 64.935 37.3759 64.7466 37.7293C63.411 40.248 63.113 46.9669 63.113 46.9669L64.8288 47.1625C64.8288 47.1625 65.6713 43.7516 65.9384 42.1285C66.2021 40.5054 66.5343 40.2686 67.9418 40.2995C69.3493 40.3338 74.8562 41.8025 76.411 39.4691L71.6096 37.1906Z" fill="#425068"/>
</g>
<g id="Group_20">
<path id="Vector_16" d="M66.9931 27.1912C66.9931 27.1912 67.0376 28.1623 67.3013 28.1588C67.5205 28.1554 67.5993 29.0853 67.6232 29.2329C67.6472 29.377 68.0376 29.2604 68.1541 29.2912C68.2705 29.3221 69.0445 30.1251 69.339 29.9878C69.6335 29.8471 70.6301 28.653 70.7568 28.0902C70.8869 27.5274 70.202 25.7465 69.565 25.2043C68.9315 24.6621 66.9212 25.4891 66.9931 27.1912Z" fill="#EEA886"/>
</g>
<g id="Group_21">
<path id="Vector_17" d="M69.8253 29.2123C69.8253 29.2123 69.8698 29.2912 69.9383 29.4113C69.9897 29.5006 70.0513 29.6138 70.1164 29.7373C70.2945 30.0702 70.4966 30.4785 70.5411 30.6879C70.6267 31.0756 71.5103 28.8932 71.5103 28.8932C71.5103 28.8932 70.8698 27.778 70.363 26.4328C69.8561 25.0877 69.8253 29.2123 69.8253 29.2123Z" fill="#EEA886"/>
</g>
<g id="Group_22">
<path id="Vector_18" d="M67.0102 27.3971C67.0102 27.3971 66.1335 26.848 66.5137 25.8186C66.8938 24.7891 68.863 25.0087 69.0376 24.9573C69.2123 24.9058 70.0993 24.4494 70.5856 26.2269C71.0719 28.0044 70.9178 27.7539 70.9178 27.7539C70.9178 27.7539 70.3287 27.1363 70.0137 27.2358C69.6746 27.3456 69.1438 27.5755 69.1438 27.5755C69.1438 27.5755 68.9897 26.7314 68.5274 26.8789C68.065 27.023 67.3253 26.999 67.0102 27.3971Z" fill="#754836"/>
</g>
<g id="Group_23">
<path id="Vector_19" d="M69.3356 26.9201C69.315 26.8034 69.1883 26.3299 69.6781 26.3608C70.1678 26.3882 70.0616 27.4932 70.0068 27.5378C69.952 27.5824 69.5103 27.8946 69.3356 26.9201Z" fill="#EEA886"/>
</g>
<g id="Group_24">
<path id="Vector_20" d="M69.9418 29.4114C69.9931 29.5006 70.0548 29.6138 70.1199 29.7374C70.4589 29.1266 70.6575 28.4677 70.7123 28.2653C70.589 28.6153 69.9418 29.4114 69.9418 29.4114Z" fill="#A77860"/>
</g>
<g id="Group_25">
<path id="Vector_21" d="M69.613 29.5452C69.613 29.5452 69.6199 29.2226 69.6336 29.1231C69.6473 29.0236 69.4383 29.0922 69.3973 29.2055C69.3596 29.3221 69.613 29.5452 69.613 29.5452Z" fill="#C98462"/>
</g>
<g id="Group_26">
<path id="Vector_22" d="M68.0684 29.3702C68.0684 29.3702 68.0342 29.5109 68.0513 29.5795C68.0513 29.5795 68.089 29.7031 68.1095 29.7923C68.1164 29.8197 68.1232 29.8472 68.1232 29.8609C68.1301 29.9295 68.1266 30.0805 68.1917 30.2418C68.2568 30.3996 68.5787 31.0962 68.5787 31.0962L69.0342 30.9624L69.3938 30.8423C69.3938 30.8423 69.6746 29.7477 69.6335 29.5898C69.6301 29.5761 69.6232 29.5589 69.6198 29.5452C69.5719 29.4182 69.4828 29.3427 69.4486 29.2775C69.4349 29.2535 69.2979 29.027 69.2191 29.0168C69.1095 28.9996 69.0273 29.0339 68.9794 29.0922C68.9794 29.0922 68.7671 29.0717 68.6438 29.1506C68.6438 29.1506 68.4486 29.1231 68.3253 29.2673C68.3253 29.2673 68.1232 29.2638 68.0684 29.3702Z" fill="#DE9D7D"/>
</g>
<g id="Group_27">
<path id="Vector_23" d="M71.4144 28.7148C71.4144 28.7148 70.8561 30.0153 70.3835 30.458L70.6096 31.2301L71.6952 28.8623L71.4144 28.7148Z" fill="#EDDAD3"/>
</g>
<g id="Group_28">
<path id="Vector_24" d="M71.6096 37.1905C71.6096 37.1905 71.6781 37.0052 71.7329 36.8234C71.7877 36.6415 73.2124 37.393 73.2124 37.393L72.8699 37.7911L71.6096 37.1905Z" fill="#323657"/>
</g>
<g id="Group_29">
<path id="Vector_25" d="M70.7774 32.7879C70.9144 33.0659 71.0445 33.3507 71.1678 33.6355C71.4383 34.2635 71.6815 34.9017 71.8938 35.5263C71.9692 35.7493 72.0411 35.9689 72.1096 36.1885C72.9281 38.7896 73.2568 40.9926 73.2568 40.9926C73.2568 40.9926 76.3219 40.1759 76.7808 39.771C76.7808 39.771 76.0342 28.8932 71.6952 28.8657C71.6644 28.9069 70.0616 31.3227 70.7774 32.7879Z" fill="#001C49"/>
</g>
<g id="Group_30">
<path id="Vector_26" d="M71.8904 35.5263C71.9657 35.7494 72.0376 35.969 72.1061 36.1886C72.7808 35.118 73.9726 32.5478 73.9897 32.5066L71.8904 35.5263Z" fill="#EDDAD3"/>
</g>
<g id="Group_31">
<path id="Vector_27" d="M69.5513 30.657L68.387 31.0447L69.4589 36.7067C69.5787 37.242 70.2534 37.4205 70.6198 37.0087C71.6198 35.8831 73.2089 34.0061 73.9041 32.6816C74.9589 30.6707 73.1986 29.9707 72.7774 30.4785C72.3561 30.9864 70.4931 34.4007 70.4931 34.4007L69.5513 30.657Z" fill="#001C49"/>
</g>
</g>
<path id="Vector_28" d="M78.3664 27.9221L76.565 33.2134C76.5513 33.2546 76.5445 33.2958 76.5411 33.337L76.1095 40.296L68.5787 40.4642L66.3835 48.4699C66.3185 48.7135 66.3596 48.9708 66.5034 49.1767C66.5993 49.314 66.7363 49.4307 66.9246 49.4547C67.4006 49.513 77.0719 49.4547 77.0719 49.4547V49.0532C77.0719 48.8542 76.9075 48.6929 76.7054 48.6929H67.6678C67.5171 48.6929 67.3767 48.6277 67.2842 48.511C67.2294 48.4424 67.1917 48.36 67.2089 48.264C67.25 48.01 69.178 41.4868 69.178 41.4868L76.4589 41.3564C76.7911 41.3495 77.0582 41.0921 77.0753 40.7661L77.3904 33.2786C77.3938 33.2306 77.4006 33.1825 77.4143 33.1379L78.887 28.0765C78.887 28.0765 79.0411 27.723 78.7568 27.6887C78.4726 27.6613 78.3972 27.8294 78.3664 27.9221Z" fill="#424240"/>
<path id="Vector_29" d="M64.6335 35.6533V35.9278H51.5685V35.6533C51.5685 35.3959 51.7397 35.19 51.952 35.19H64.25C64.4623 35.19 64.6335 35.3959 64.6335 35.6533Z" fill="#D6985E"/>
<path id="Vector_30" d="M56.2569 49.3174H52.3082V48.686H55.8699C56.0856 48.686 56.2569 48.861 56.2569 49.0738V49.3174Z" fill="#807066"/>
<path id="Vector_31" d="M53.0788 35.9278H52.5582V49.3209H53.0788V35.9278Z" fill="#807066"/>
<path id="Vector_32" d="M54.1302 35.9278H53.6096V49.3209H54.1302V35.9278Z" fill="#807066"/>
<path id="Vector_33" d="M57.9417 25.0294H57.5239V34.3081H57.9417V25.0294Z" fill="#6E6760"/>
<g id="Group_32">
<path id="Vector_34" d="M57.0787 35.19H54.7808V35.0493H57.0787C57.1986 35.0493 57.2842 35.0218 57.3356 34.9635C57.3972 34.8949 57.3869 34.8057 57.3869 34.8022V34.7988V34.7954V31.8203H57.5273V34.7919C57.5308 34.8194 57.5342 34.9498 57.4417 35.0562C57.363 35.1419 57.2431 35.19 57.0787 35.19Z" fill="#918880"/>
</g>
<path id="Vector_35" d="M60.1472 34.9429H57.7842V35.1866H60.3698V35.166C60.3698 35.0459 60.2705 34.9429 60.1472 34.9429Z" fill="#6E6760"/>
<path id="Vector_36" d="M59.089 35.9278H51.5685V35.6533C51.5685 35.3959 51.7466 35.19 51.9623 35.19H57.9109L59.089 35.9278Z" fill="#BC8551"/>
<g id="Group_33">
<g id="Group_34">
<path id="Vector_37" d="M52.3287 32.5203C52.3287 32.5203 53.0513 32.6301 54.1027 33.1894C55.1541 33.7487 53.2774 33.3575 52.3287 32.5203Z" fill="#757D28"/>
<path id="Vector_38" d="M54.2465 33.2684C54.2465 33.2684 53.7225 32.2698 52.9109 31.8134C52.9109 31.8134 53.1472 32.5066 54.0068 33.2512C54.8595 33.9958 54.2465 33.2684 54.2465 33.2684Z" fill="#5C9E33"/>
<path id="Vector_39" d="M54.6643 32.5855C54.6643 32.5855 55.2054 31.9232 55.4212 31.6213C55.6369 31.3193 54.9691 33.0282 54.9109 33.21C54.8561 33.3919 54.6266 33.5463 54.6643 32.5855Z" fill="#4D8B33"/>
<path id="Vector_40" d="M54.1472 33.6081C53.9074 33.2477 53.7396 31.6212 53.7396 31.6212C54.1609 31.9712 54.5547 33.5394 54.5547 33.5394C54.5547 33.5394 54.3869 33.9684 54.1472 33.6081Z" fill="#B1C265"/>
<path id="Vector_41" d="M54.202 33.4434C54.13 33.289 54.2259 31.2987 54.2842 31.4771C54.3424 31.659 54.6677 32.4036 54.6677 32.4036C54.7157 32.86 54.2739 33.5978 54.202 33.4434Z" fill="#92A05B"/>
<path id="Vector_42" d="M54.7534 33.0041C54.8801 32.7708 56.1404 31.5286 56.1404 31.5286C56.1267 31.9129 55.3493 32.8291 55.3493 32.8291C55.3493 32.8291 54.6267 33.234 54.7534 33.0041Z" fill="#C7CA7F"/>
<path id="Vector_43" d="M54.1472 33.5806C55.5993 33.0453 56.9691 33.3232 56.9691 33.3232C56.7705 33.5978 54.8664 33.5806 54.8664 33.5806H54.1472Z" fill="#5C9E33"/>
<path id="Vector_44" d="M54.452 33.6287C55.1917 32.8223 56.9314 32.4345 56.9314 32.4345C56.4177 32.9595 55.678 33.4228 55.678 33.4228C55.678 33.4228 53.7122 34.4351 54.452 33.6287Z" fill="#518330"/>
<path id="Vector_45" d="M54.3048 33.5394C54.7363 32.7364 56.3835 31.9472 56.3835 31.9472C56.3835 32.2011 55.0514 33.3747 55.0514 33.3747C55.0514 33.3747 53.8698 34.3424 54.3048 33.5394Z" fill="#6C9F44"/>
<path id="Vector_46" d="M54.315 33.6183C53.9896 33.56 52.791 32.3796 52.791 32.3796C53.1027 32.4413 54.315 33.21 54.315 33.21C54.315 33.21 54.6403 33.6801 54.315 33.6183Z" fill="#4A8A33"/>
<path id="Vector_47" d="M53.7397 33.6252C53.3321 33.6424 52.0239 32.8257 52.0239 32.8257C52.4143 32.8257 53.315 33.0625 53.7534 33.186C53.9178 33.234 54.0582 33.3438 54.1438 33.4914C54.3767 33.91 54.0958 33.6115 53.7397 33.6252Z" fill="#689C2F"/>
<path id="Vector_48" d="M52.226 33.2718C52.3493 33.2615 53.1335 33.2958 53.4726 33.313C53.6061 33.3198 53.7363 33.3679 53.8356 33.4571C53.9829 33.5841 53.9383 33.6767 53.7397 33.7179C53.476 33.7694 52.0685 33.2821 52.226 33.2718Z" fill="#478B33"/>
<path id="Vector_49" d="M54.3492 33.4845C54.3218 33.361 54.315 33.234 54.3321 33.1071C54.3903 32.6781 54.5889 31.3501 54.88 31.1511C54.88 31.1511 55.0102 32.8703 54.7362 33.4502C54.5273 33.8826 54.404 33.7213 54.3492 33.4845Z" fill="#61A23E"/>
<path id="Vector_50" d="M54.3527 33.7213C54.1883 33.5635 53.5137 32.033 53.5137 32.033C54.1438 32.4036 54.4246 33.1517 54.4246 33.1517C54.4246 33.1517 54.5171 33.8757 54.3527 33.7213Z" fill="#5C9B3B"/>
</g>
<path id="Vector_51" d="M55.9006 33.8345L55.6951 35.19H53.2431L53.0376 33.8345H55.9006Z" fill="#31535F"/>
<path id="Vector_52" d="M53.0376 33.8345H55.904L55.6951 35.1865H55.178C55.178 35.1865 54.7362 34.3218 53.0958 34.2257L53.0376 33.8345Z" fill="#27434C"/>
<path id="Vector_53" d="M56.0136 33.5463H52.9211V33.9993H56.0136V33.5463Z" fill="#31535F"/>
</g>
</g>
<path id="Vector_54" d="M62.2774 16.4917C62.2774 15.349 61.3527 14.426 60.2157 14.426C60.1164 14.426 60.0171 14.4363 59.9178 14.45C59.6301 13.2902 58.5856 12.4254 57.3356 12.4254C56.1404 12.4254 55.1301 13.2147 54.7911 14.3024C54.75 14.3024 54.7123 14.299 54.6712 14.299C53.0925 14.299 51.8151 15.579 51.8151 17.1609C51.8151 18.5712 52.8356 19.7448 54.1781 19.9781C54.274 20.486 54.7192 20.8669 55.25 20.8669C55.4726 20.8669 55.6781 20.8017 55.8493 20.6885C56.3562 21.1448 57.024 21.4228 57.7568 21.4228C59.3356 21.4228 60.613 20.1428 60.613 18.5609C60.613 18.5472 60.613 18.5335 60.613 18.5197C61.5616 18.331 62.2774 17.4937 62.2774 16.4917Z" fill="url(#paint1_linear_5_956)"/>
<path id="Vector_55" d="M62.2774 23.1489C63.0491 23.1489 63.6747 22.522 63.6747 21.7488C63.6747 20.9756 63.0491 20.3488 62.2774 20.3488C61.5057 20.3488 60.8801 20.9756 60.8801 21.7488C60.8801 22.522 61.5057 23.1489 62.2774 23.1489Z" fill="url(#paint2_linear_5_956)"/>
<path id="Vector_56" d="M64.7397 25.1426C65.118 25.1426 65.4247 24.8353 65.4247 24.4563C65.4247 24.0772 65.118 23.77 64.7397 23.77C64.3615 23.77 64.0548 24.0772 64.0548 24.4563C64.0548 24.8353 64.3615 25.1426 64.7397 25.1426Z" fill="url(#paint3_linear_5_956)"/>
<g id="Group_35">
<path id="Vector_57" d="M56.3699 17.6276C56.3699 17.4423 56.4007 17.2776 56.4589 17.13C56.5206 16.9825 56.6438 16.8555 56.8288 16.7457C56.8836 16.7114 56.9555 16.6736 57.0377 16.629C57.1199 16.5844 57.2021 16.5329 57.2808 16.4746C57.3596 16.4128 57.4247 16.3442 57.4795 16.2618C57.5343 16.1795 57.5616 16.0868 57.5616 15.9839C57.5616 15.905 57.5479 15.8363 57.5171 15.7746C57.4863 15.7128 57.4486 15.6648 57.3973 15.6236C57.3493 15.5824 57.2911 15.5515 57.226 15.5309C57.161 15.5103 57.0925 15.5001 57.0274 15.5001C56.9452 15.5001 56.8699 15.5138 56.8014 15.5412C56.7329 15.5687 56.6712 15.6064 56.6199 15.6476C56.5651 15.6922 56.5171 15.7403 56.4726 15.7952C56.4281 15.8501 56.3938 15.9015 56.363 15.9496L55.8733 15.6099C55.9212 15.4932 55.9863 15.3902 56.0685 15.301C56.1507 15.2118 56.2397 15.1363 56.3425 15.0711C56.4452 15.0094 56.5582 14.9613 56.6781 14.9304C56.7979 14.8995 56.9212 14.8824 57.048 14.8824C57.1918 14.8824 57.3322 14.903 57.4692 14.9442C57.6096 14.9853 57.7329 15.0505 57.8425 15.1432C57.9521 15.2324 58.0445 15.3491 58.113 15.4898C58.1815 15.6305 58.2158 15.7986 58.2158 15.9942C58.2158 16.1143 58.2021 16.2207 58.1747 16.3133C58.1473 16.406 58.1062 16.4883 58.0548 16.5638C58.0034 16.6393 57.9418 16.7079 57.8699 16.7663C57.798 16.828 57.7192 16.8864 57.6267 16.9413C57.5514 16.9859 57.476 17.0305 57.4007 17.0717C57.3253 17.1129 57.2569 17.1575 57.1952 17.2089C57.1336 17.2604 57.0822 17.3187 57.0445 17.3839C57.0034 17.4491 56.9863 17.5281 56.9863 17.6241H56.3699V17.6276ZM56.3801 18.9418V18.1629H57.0034V18.9418H56.3801Z" fill="white"/>
</g>
<g id="Group_36">
<g id="Group_37">
<path id="Vector_58" d="M48.8186 32.8718H34.1816C33.5069 32.8718 32.9624 32.3227 32.9624 31.6502V14.2216C32.9624 13.5456 33.5103 13 34.1816 13H48.8186C49.4932 13 50.0377 13.549 50.0377 14.2216V31.6502C50.0377 32.3262 49.4932 32.8718 48.8186 32.8718Z" fill="url(#paint4_linear_5_956)"/>
</g>
<g id="Group_38">
<g id="Group_39">
<g id="Group_40">
<path id="Vector_59" d="M43.3289 21.2425C42.6748 19.4135 40.9282 18.288 39.0892 18.3429C38.644 18.3566 38.1919 18.4389 37.7501 18.5968C36.4111 19.0772 35.4488 20.1478 35.0549 21.4106C34.781 22.2857 34.781 23.2568 35.1131 24.1867C35.1474 24.2793 35.1816 24.372 35.2193 24.4578C35.394 24.8627 35.6234 25.2264 35.8974 25.5456C37.0378 26.8907 38.9351 27.4603 40.6919 26.8289C42.959 26.0191 44.1405 23.5176 43.3289 21.2425ZM40.3221 25.8029C39.0036 26.2765 37.5823 25.8475 36.7262 24.8421C36.5207 24.6019 36.3494 24.3274 36.2193 24.0254C36.1919 23.9602 36.1645 23.8916 36.1371 23.8195C35.8871 23.1229 35.8905 22.3955 36.096 21.74C36.3905 20.793 37.1131 19.99 38.1166 19.6297C38.4488 19.5096 38.7878 19.4478 39.12 19.4375C40.5001 19.3963 41.8084 20.2405 42.2981 21.6096C42.9111 23.3151 42.0241 25.1921 40.3221 25.8029Z" fill="white"/>
</g>
</g>
<g id="Group_41">
<g id="Group_42">
<path id="Vector_60" d="M36.096 21.7401L35.0549 21.4141C35.4488 20.1513 36.4111 19.0807 37.7501 18.6002C38.1919 18.4424 38.644 18.36 39.0892 18.3463L39.1234 19.441C38.7878 19.4513 38.4522 19.513 38.12 19.6331C37.1132 19.99 36.394 20.7895 36.096 21.7401Z" fill="#1A598C"/>
</g>
</g>
<g id="Group_43">
<g id="Group_44">
<path id="Vector_61" d="M36.2193 24.0254L35.2193 24.4612C35.1816 24.372 35.144 24.2828 35.1131 24.1901C34.781 23.2602 34.781 22.2891 35.0549 21.4141L36.096 21.7401C35.8905 22.3955 35.8905 23.1229 36.1371 23.8195C36.1645 23.8882 36.1919 23.9568 36.2193 24.0254Z" fill="#2273B5"/>
</g>
</g>
<g id="Group_45">
<g id="Group_46">
<path id="Vector_62" d="M35.894 25.549C35.62 25.2298 35.394 24.8627 35.2159 24.4612L36.2159 24.0254C36.3461 24.3274 36.5173 24.6019 36.7228 24.8421L35.894 25.549Z" fill="#3788CC"/>
</g>
</g>
</g>
<g id="Group_47">
<g id="Group_48">
<g id="Group_49">
<path id="Vector_63" d="M47.1133 23.9156C46.3873 23.5724 45.5483 23.7543 45.0277 24.3102C44.901 24.444 44.7948 24.6019 44.7092 24.7769C44.4558 25.3088 44.49 25.9059 44.7435 26.3897C44.9181 26.726 45.2024 27.0108 45.5688 27.1858C45.6065 27.203 45.6441 27.2201 45.6784 27.2338C45.8462 27.299 46.0209 27.3402 46.1955 27.3539C46.9215 27.4123 47.6441 27.0245 47.9729 26.3245C48.401 25.4186 48.014 24.3411 47.1133 23.9156ZM47.5654 26.1289C47.3188 26.6539 46.7777 26.9456 46.2332 26.901C46.103 26.8907 45.9729 26.8598 45.8462 26.8118C45.8188 26.8015 45.7914 26.7878 45.764 26.774C45.4866 26.6436 45.2743 26.4309 45.1441 26.1769C44.9558 25.8132 44.9318 25.3671 45.1202 24.9691C45.1818 24.8387 45.264 24.7186 45.3565 24.619C45.7469 24.2038 46.377 24.0666 46.9215 24.3239C47.5962 24.6431 47.8839 25.4529 47.5654 26.1289Z" fill="white"/>
</g>
</g>
<g id="Group_50">
<g id="Group_51">
<path id="Vector_64" d="M45.1405 26.1804L44.7398 26.3897C44.4864 25.9059 44.4555 25.3088 44.7055 24.7769C44.7877 24.6019 44.8973 24.4441 45.024 24.3102L45.3528 24.6191C45.2569 24.7186 45.1781 24.8387 45.1165 24.9691C44.9281 25.3706 44.9521 25.8132 45.1405 26.1804Z" fill="#1A598C"/>
</g>
</g>
<g id="Group_52">
<g id="Group_53">
<path id="Vector_65" d="M45.8459 26.8118L45.6815 27.2338C45.6438 27.2201 45.6062 27.2029 45.5719 27.1858C45.2021 27.0108 44.9212 26.726 44.7466 26.3897L45.1473 26.1804C45.2774 26.4309 45.4897 26.647 45.7671 26.7774C45.7911 26.7877 45.8185 26.8015 45.8459 26.8118Z" fill="#2273B5"/>
</g>
</g>
</g>
<g id="Group_54">
<g id="Group_55">
<g id="Group_56">
<path id="Vector_66" d="M47.9727 20.8135C48.3151 20.0861 48.1336 19.2453 47.5788 18.7238C47.4453 18.5968 47.2877 18.4904 47.1131 18.4046C46.5822 18.1507 45.9864 18.185 45.5035 18.4389C45.1679 18.6139 44.8836 18.8988 44.709 19.2659C44.6918 19.3037 44.6747 19.3414 44.661 19.3757C44.5959 19.5439 44.5548 19.7189 44.5411 19.8939C44.4829 20.6214 44.8699 21.3454 45.5685 21.6748C46.4692 22.1038 47.5446 21.716 47.9727 20.8135ZM45.7638 21.2665C45.2398 21.0194 44.9487 20.4772 44.9932 19.9316C45.0035 19.8012 45.0343 19.6708 45.0822 19.5439C45.0925 19.5164 45.1062 19.489 45.1199 19.4615C45.2501 19.1836 45.4624 18.9708 45.7158 18.8404C46.0788 18.6517 46.524 18.6277 46.9247 18.8164C47.0548 18.8782 47.1747 18.9605 47.274 19.0532C47.6884 19.4444 47.8254 20.0758 47.5685 20.6214C47.2432 21.2974 46.4384 21.5856 45.7638 21.2665Z" fill="white"/>
</g>
</g>
<g id="Group_57">
<g id="Group_58">
<path id="Vector_67" d="M45.7123 18.8404L45.5034 18.4389C45.9863 18.185 46.5822 18.1541 47.113 18.4046C47.2877 18.487 47.4452 18.5968 47.5788 18.7237L47.2705 19.0532C47.1712 18.9571 47.0514 18.8781 46.9212 18.8164C46.5205 18.6242 46.0753 18.6482 45.7123 18.8404Z" fill="#4AAFFF"/>
</g>
</g>
<g id="Group_59">
<g id="Group_60">
<path id="Vector_68" d="M45.0822 19.5439L44.661 19.3792C44.6747 19.3414 44.6918 19.3037 44.709 19.2694C44.8836 18.8988 45.1679 18.6174 45.5035 18.4424L45.7124 18.8439C45.4624 18.9743 45.2466 19.187 45.1165 19.465C45.1028 19.489 45.0925 19.5164 45.0822 19.5439Z" fill="#2273B5"/>
</g>
</g>
<g id="Group_61">
<g id="Group_62">
<path id="Vector_69" d="M44.5411 19.8939C44.5548 19.7189 44.5959 19.5473 44.661 19.3757L45.0822 19.5404C45.0309 19.6674 45.0035 19.7978 44.9932 19.9282L44.5411 19.8939Z" fill="#3788CC"/>
</g>
</g>
</g>
<g id="Group_63">
<path id="Vector_70" d="M45.7877 28.5447H42.4144V28.476H45.7192V27.2029H45.7877V28.5447Z" fill="white"/>
</g>
<g id="Group_64">
<path id="Vector_71" d="M39.4384 28.5447H35.0548V28.4761H39.3699V26.3897H39.4384V28.5447Z" fill="white"/>
</g>
<g id="Group_65">
<path id="Vector_72" d="M38.0719 27.7794H35.0548V28.1809H38.0719V27.7794Z" fill="url(#paint5_linear_5_956)"/>
</g>
<g id="Group_66">
<path id="Vector_73" d="M44.1884 27.7794H42.4144V28.1809H44.1884V27.7794Z" fill="url(#paint6_linear_5_956)"/>
</g>
<g id="Group_67">
<path id="Vector_74" d="M35.8152 14.7054H34.37V15.0143H35.8152V14.7054Z" fill="#4AAFFF"/>
</g>
<g id="Group_68">
<path id="Vector_75" d="M42.6302 15.8687H40.3905V16.1775H42.6302V15.8687Z" fill="white"/>
</g>
<g id="Group_69">
<path id="Vector_76" d="M38.8597 15.8687H37.4933V16.1775H38.8597V15.8687Z" fill="white"/>
</g>
<g id="Group_70">
<path id="Vector_77" d="M37.0789 15.8687H34.37V16.1775H37.0789V15.8687Z" fill="white"/>
</g>
<g id="Group_71">
<path id="Vector_78" d="M38.394 14.7054H36.2535V15.0143H38.394V14.7054Z" fill="#4AAFFF"/>
</g>
<g id="Group_72">
<path id="Vector_79" d="M39.8768 15.8687H39.2877V16.1775H39.8768V15.8687Z" fill="white"/>
</g>
<g id="Group_73">
<path id="Vector_80" d="M42.6302 14.7226H41.0309V15.0314H42.6302V14.7226Z" fill="white"/>
</g>
<g id="Group_74">
<path id="Vector_81" d="M44.5617 15.8687H43.1987V16.1775H44.5617V15.8687Z" fill="white"/>
</g>
<g id="Group_75">
<path id="Vector_82" d="M40.6131 14.7226H38.9178V15.0314H40.6131V14.7226Z" fill="white"/>
</g>
</g>
<g id="Group_76">
<g id="Group_77">
<path id="Vector_83" d="M38.3938 27.7882C38.3938 27.7882 38.8253 27.7814 38.9794 27.6167C39.1335 27.4485 39.4041 27.301 39.4931 27.2564C39.6095 27.198 39.9315 26.8858 39.9725 27.0402C40.0136 27.1946 39.4589 27.5824 39.3527 27.6887C39.2465 27.7951 39.8116 27.8397 39.8938 27.9427C39.976 28.0456 39.6883 29.1162 39.3116 29.0339C38.9349 28.9515 38.6267 28.5706 38.5547 28.5706C38.4828 28.5706 38.2773 28.5226 38.2773 28.5226L38.3938 27.7882Z" fill="#EEA886"/>
</g>
<g id="Group_78">
<path id="Vector_84" d="M39.815 27.8946C39.815 27.8946 40.9383 28.2377 40.9863 28.3373C41.0342 28.4333 41 28.5054 40.8938 28.4779C40.7876 28.4505 39.7945 28.1828 39.7945 28.1828C39.7945 28.1828 41.0239 28.8554 41.0787 28.924C41.1096 28.9618 41.0582 29.1059 40.9965 29.0956C40.9383 29.0888 39.6712 28.5054 39.6712 28.5054C39.6712 28.5054 40.8185 29.1368 40.8459 29.2123C40.8698 29.2775 40.7945 29.3976 40.7054 29.3598C40.6164 29.3187 39.5137 28.8074 39.5137 28.8074C39.5137 28.8074 40.3116 29.3324 40.2979 29.4182C40.2911 29.4696 40.25 29.5932 40.0479 29.4491C39.8459 29.3049 39.3322 29.0304 39.3322 29.0304L39.815 27.8946Z" fill="#EEA886"/>
</g>
<g id="Group_79">
<path id="Vector_85" d="M36.0274 46.7884C36.0274 46.7884 36.387 47.3306 36.8938 47.4473C37.4007 47.564 37.8973 47.7493 37.9007 48.0684C37.9041 48.3875 36.4384 48.5797 35.8596 48.2571C34.9966 47.7767 34.9075 47.9208 34.8117 47.6806C34.7158 47.4404 34.9281 46.7953 34.9212 46.7198C34.9144 46.6272 36.0274 46.7884 36.0274 46.7884Z" fill="#353A3D"/>
</g>
<g id="Group_80">
<path id="Vector_86" d="M35.9727 46.5242C35.9727 46.5242 36.0377 46.785 36.0275 46.7918C36.0172 46.7987 34.887 46.9325 34.9213 46.7232C34.9487 46.5516 34.9898 46.3698 34.9898 46.3698L35.9727 46.5242Z" fill="#81807E"/>
</g>
<g id="Group_81">
<path id="Vector_87" d="M28.9315 46.7541C28.9315 46.7541 29.1883 47.2722 29.6267 47.4472C30.0958 47.636 30.4725 47.8522 30.4657 48.1644C30.4554 48.4767 29.3184 48.7924 28.4897 48.1953C27.9657 47.8178 27.8013 47.8144 27.7157 47.5776C27.6301 47.3409 27.863 46.7198 27.8595 46.6477C27.8527 46.5516 28.9315 46.7541 28.9315 46.7541Z" fill="#353A3D"/>
</g>
<g id="Group_82">
<path id="Vector_88" d="M28.9453 46.4865C28.9453 46.4865 28.9418 46.7507 28.9316 46.7541C28.9213 46.7575 27.8288 46.8502 27.8562 46.6443C27.8768 46.483 27.9624 46.284 27.9624 46.284L28.9453 46.4865Z" fill="#81807E"/>
</g>
<g id="Group_83">
<path id="Vector_89" d="M32.9487 30.6879C32.9487 30.6879 34.3836 36.1954 34.9281 37.4685C35.435 38.6489 35.6028 40.296 35.6713 41.1265C35.7603 42.1696 36.2809 46.2257 36.3425 46.5311C36.4042 46.8365 34.6542 46.6992 34.6542 46.6992C34.6542 46.6992 33.4487 39.6818 32.9487 38.6592C32.6131 37.9764 30.6747 33.0762 30.4555 33.3576C30.2329 33.6389 29.959 38.5494 29.7946 39.3661C29.6302 40.1828 29.1268 46.6203 29.1268 46.6203C29.1268 46.6203 28 46.7884 27.6987 46.5311C27.6987 46.5311 27.5617 41.0338 27.6679 39.5034C27.709 38.92 26.9864 32.5203 27.911 29.9432C28.3939 28.5844 32.9487 30.6879 32.9487 30.6879Z" fill="#2D3133"/>
</g>
<g id="Group_84">
<path id="Vector_90" d="M24.9589 26.7382C24.9589 26.8 25.0787 27.0539 25.2671 27.4142C25.5445 26.8583 25.7602 26.4019 25.8321 26.2338C26.065 25.6813 27.2671 24.4151 27.2671 24.4151C27.2671 24.4151 27.2671 24.4151 27.2671 24.4185C27.2671 24.4219 27.2671 24.4219 27.2671 24.4254C27.2671 24.4288 27.2705 24.4322 27.2705 24.4356C27.2705 24.4391 27.2705 24.4391 27.2739 24.4425C27.2739 24.4459 27.2739 24.4459 27.2739 24.4459C27.339 24.6896 27.7431 26.22 27.7568 26.9715C27.7739 27.7917 27.9863 29.3084 27.9863 29.3084L28.2363 29.3427L28.7911 29.4216L28.8561 29.4319L29.0171 29.4559L30.4897 29.6652L31.0137 29.7373L31.0856 29.7476L31.3835 29.7888L32.2089 29.9055L32.4178 29.9363H32.4212L32.5787 29.9569L32.7979 29.9878C32.8048 29.9809 33.0102 29.6961 32.9794 29.0682C32.9589 28.6633 32.9109 27.9015 32.9315 27.1946C32.9315 27.1911 32.9315 27.1877 32.9315 27.1843C32.9315 27.174 32.9315 27.1671 32.9315 27.1568C32.9315 27.1534 32.9315 27.15 32.9315 27.1465C32.9452 26.7588 32.9794 26.3916 33.0513 26.1102C33.0993 25.9215 33.1335 25.7328 33.1541 25.5577C33.1541 25.5475 33.1575 25.5406 33.1575 25.5337C33.1609 25.4994 33.1643 25.4685 33.1678 25.4376C33.2157 24.9469 33.178 24.5763 33.1746 24.5523V24.5558C33.1883 24.5866 33.2979 24.9847 33.4383 25.472C33.678 26.2955 34.0102 27.3867 34.1541 27.4382C34.3595 27.5137 37.7089 28.5088 38.4315 28.6118C38.5137 28.6221 38.565 28.6221 38.5684 28.6083C38.5719 28.5981 38.5753 28.5878 38.5787 28.574C38.6678 28.2824 38.7876 27.7917 38.8082 27.7093C38.8116 27.7024 38.8116 27.699 38.8116 27.699L38.6815 27.6613L35.0376 26.5666L33.3732 21.7522C33.339 21.7248 32.928 21.5257 32.6301 21.3851C32.3253 21.2409 31.9589 21.0247 31.6267 20.8429C31.4554 20.7502 31.2979 20.6644 31.1575 20.6027L31.1369 20.5924C30.9075 20.486 30.7568 20.4174 30.7568 20.4174C30.75 20.4174 30.7157 20.4139 30.6575 20.4071C30.339 20.3762 29.3424 20.2835 29.0102 20.263C28.9828 20.2595 28.9589 20.2595 28.9417 20.2595C28.928 20.2595 28.9143 20.2595 28.9075 20.2595C28.8664 20.263 28.6609 20.335 28.3904 20.438C28.3801 20.4414 28.3698 20.4448 28.3595 20.4483C28.3458 20.4517 28.3356 20.4585 28.3219 20.462C28.2979 20.4723 28.2739 20.4791 28.25 20.4894C28.202 20.5066 28.1506 20.5272 28.1027 20.5478C28.0856 20.5546 28.0685 20.5615 28.0513 20.5684C27.5137 20.7811 26.8938 21.0488 26.7465 21.1517C26.6506 21.2203 26.3493 21.79 25.9965 22.4969C25.5479 23.9518 24.976 26.1686 24.9589 26.7142C24.9589 26.7245 24.9589 26.7313 24.9589 26.7382Z" fill="#DECBC4"/>
</g>
<g id="Group_85">
<path id="Vector_91" d="M32.8048 29.9947C32.8048 29.9947 32.9143 30.1285 32.9486 30.6913C32.9486 30.6913 28.387 30.1594 27.9075 29.9467C27.9075 29.9467 27.8904 29.3256 27.9897 29.3153C28.1027 29.3015 32.8048 29.9947 32.8048 29.9947Z" fill="#495055"/>
</g>
<g id="Group_86">
<path id="Vector_92" d="M28.9178 20.112C28.9315 20.8291 30.3185 21.2203 30.3185 21.2203C30.3185 21.2203 30.8973 20.4929 30.7603 20.4208C30.7055 20.3933 30.685 20.2835 30.6781 20.1634C30.6713 20.0468 30.6781 19.9198 30.685 19.8374C30.6884 19.786 30.6918 19.7551 30.6918 19.7551C30.6918 19.7551 30.4932 19.5458 30.2432 19.2953C29.8014 18.8595 29.1987 18.3001 29.1987 18.5232C29.1987 18.5335 29.1987 18.5506 29.2021 18.5644C29.3048 19.0688 28.9178 20.112 28.9178 20.112Z" fill="#EEA886"/>
</g>
<g id="Group_87">
<path id="Vector_93" d="M29.0308 29.4251C29.0308 29.4251 28.9315 30.053 28.9212 30.2178L28.7089 30.1766C28.7089 30.1766 28.7671 29.5109 28.8013 29.4011L29.0308 29.4251Z" fill="#353A3D"/>
</g>
<g id="Group_88">
<path id="Vector_94" d="M32.4246 29.9192C32.4246 29.9192 32.5034 30.4922 32.5068 30.7084L32.2842 30.681C32.2842 30.681 32.2397 29.9672 32.2123 29.8917L32.4246 29.9192Z" fill="#353A3D"/>
</g>
<g id="Group_89">
<path id="Vector_95" d="M29.452 19.062C29.4555 19.0654 29.5137 19.1546 29.613 19.2816C29.8253 19.5492 30.226 19.9885 30.6746 20.1669C30.6678 20.0502 30.6746 19.9233 30.6815 19.8409C30.726 19.8409 30.7739 19.834 30.8185 19.8237C30.6952 19.6076 30.5171 19.3811 30.5171 19.3811L30.2397 19.2987L29.452 19.062Z" fill="#A77860"/>
</g>
<g id="Group_90">
<path id="Vector_96" d="M29.185 18.5335C29.3048 18.7943 29.4178 18.983 29.4521 19.0585C29.4726 19.1066 29.5309 19.1855 29.613 19.2782C29.8425 19.5252 30.2672 19.8512 30.6815 19.8375C30.7261 19.8375 30.774 19.8306 30.8185 19.8203C30.9863 19.7826 31.185 19.7037 31.2946 19.4909C32.1576 17.7957 31.5343 16.4094 31.5343 16.4094C31.5343 16.4094 29.1713 15.7403 28.8014 16.454C28.5446 16.955 28.9041 17.9227 29.185 18.5335Z" fill="#EEA886"/>
</g>
<g id="Group_91">
<path id="Vector_97" d="M31.5342 16.4094C31.5342 16.4094 31.7534 16.3957 31.8082 15.9805C31.863 15.5687 31.7534 15.4554 31.7534 15.4554C31.7534 15.4554 30.7774 15.0471 30.4281 14.9922C30.0787 14.9373 29.2157 14.8892 29.0137 15.1192C29.0137 15.1192 28.5239 15.0059 28.3904 15.8226C28.1781 17.1163 29.113 18.3756 29.113 18.3756C29.113 18.3756 29.1061 17.5281 29.2911 17.4183C29.476 17.305 29.637 17.5727 29.637 17.5727L30.0171 17.6413C30.0171 17.6413 29.4383 16.3888 30.1335 16.3442C30.8287 16.2927 31.1404 16.4815 31.5342 16.4094Z" fill="#252E3B"/>
</g>
<g id="Group_92">
<path id="Vector_98" d="M29.6267 17.233C29.589 16.8589 28.9178 16.7182 28.9623 17.1094C29.0068 17.5006 29.339 17.8746 29.4931 17.8609C29.6473 17.8472 29.6541 17.5178 29.6267 17.233Z" fill="#EEA886"/>
</g>
<g id="Group_93">
<path id="Vector_99" d="M25.2672 27.4176C25.5617 27.977 26.024 28.8005 26.4795 29.6001C26.4179 29.7133 26.3597 29.8231 26.3049 29.9329C26.1679 30.2006 26.0446 30.4614 25.959 30.705C25.8562 30.9967 25.709 31.7447 25.9864 31.8854L27.4453 32.6918C27.4453 32.6918 27.4555 32.6644 27.4761 32.6095C27.524 32.4791 27.6302 32.1977 27.774 31.834C27.7775 31.8237 27.7946 31.7859 27.8151 31.7379C27.8425 31.6693 27.887 31.5697 27.935 31.4599C27.9555 31.4085 27.9795 31.357 28.0035 31.3021C28.0309 31.2403 28.0583 31.1751 28.0857 31.1134C28.1268 31.0207 28.1644 30.9281 28.2021 30.8423C28.3014 30.6089 28.3802 30.4305 28.3802 30.4305C28.3836 30.4202 28.3905 30.4099 28.3939 30.3996C28.4418 30.2967 28.4898 30.1937 28.5412 30.0908C28.6165 29.9329 28.6953 29.7716 28.7775 29.6172C28.7843 29.6001 28.7946 29.5863 28.8014 29.5692C28.8151 29.5417 28.8288 29.5143 28.846 29.4868C28.8562 29.4697 28.8631 29.4525 28.8733 29.4388C28.8768 29.4354 28.8768 29.4319 28.8802 29.4285C28.8836 29.4216 28.887 29.4148 28.8905 29.4079C29.3117 28.6358 29.7877 27.9941 29.9384 27.047C29.9521 26.9544 29.9658 26.8652 29.9795 26.7759C30.0001 26.625 30.0206 26.4774 30.0412 26.3333C30.048 26.2784 30.0549 26.2235 30.0617 26.1686C30.137 25.5372 30.1816 24.9744 30.2192 24.5832C30.3323 23.365 29.5891 22.0439 29.0172 21.2272C28.7124 20.7914 28.4555 20.4997 28.4042 20.4448L28.4007 20.4414C28.3905 20.4448 28.3802 20.4483 28.3699 20.4517C28.3562 20.4551 28.346 20.462 28.3323 20.4654C28.3083 20.4757 28.2843 20.4826 28.2603 20.4929C28.2124 20.51 28.161 20.5306 28.1131 20.5512C28.096 20.5581 28.0788 20.5649 28.0617 20.5718C27.5069 20.788 26.3391 21.1105 26.1953 21.2169C26.1097 21.2787 25.9213 21.8346 25.7021 22.538C25.2501 23.9861 24.9829 26.1686 24.9692 26.7142C24.9692 26.7245 24.9692 26.7313 24.9692 26.7382C24.959 26.8034 25.0788 27.0539 25.2672 27.4176ZM27.4829 27.1431C27.4829 27.4142 27.3939 27.7265 27.2603 28.0593C27.2569 28.0662 27.2535 28.0765 27.2501 28.0833C27.1576 27.8843 27.0686 27.6922 26.9898 27.5137C26.774 27.0264 26.6234 26.6455 26.6165 26.498C26.5617 25.5337 27.274 24.4219 27.274 24.4219C27.274 24.4254 27.274 24.4254 27.274 24.4288C27.274 24.4322 27.2775 24.4357 27.2775 24.4391C27.2775 24.4425 27.2775 24.4425 27.2809 24.446C27.2809 24.4494 27.2809 24.4494 27.2809 24.4494C27.4247 25.0259 27.4829 27.1431 27.4829 27.1431Z" fill="#3C4145"/>
</g>
<path id="Vector_100" d="M30.2534 30.7839L26.0959 32.6369C25.8596 32.7433 25.5856 32.6369 25.4795 32.4002L24.3425 29.8368C24.2363 29.6001 24.3425 29.3256 24.5788 29.2192L28.7363 27.3662C28.9726 27.2598 29.2466 27.3662 29.3527 27.6029L30.4897 30.1663C30.5959 30.403 30.4897 30.6776 30.2534 30.7839Z" fill="#B3A5A0"/>
<g id="Group_94">
<path id="Vector_101" d="M31.1506 20.6164C31.1506 20.6164 31.3458 21.2684 31.5993 22.8915C31.6095 22.9464 31.6164 23.0013 31.6232 23.0597C31.6232 23.0665 31.6267 23.0734 31.6267 23.0802C31.6335 23.118 31.6369 23.1557 31.6438 23.1935C31.6438 23.1969 31.6438 23.2038 31.6472 23.2072C31.6506 23.2347 31.6541 23.2587 31.6575 23.2861C31.6678 23.3513 31.678 23.4165 31.6849 23.4817C31.7979 24.271 31.9554 25.6161 32.1061 26.975C32.226 28.0456 32.5 29.1437 32.5856 29.9638C32.6027 30.1251 32.6438 30.3379 32.6986 30.5815C32.7054 30.6089 32.7123 30.6364 32.7191 30.6639C32.9623 31.6967 33.4383 33.162 33.4383 33.162L33.5753 33.035L33.9828 32.6576C34.0787 32.5718 34.113 32.4379 34.0753 32.3144C33.8493 31.5801 33.0753 28.9859 32.9349 27.1603C33.0034 26.5186 33.1815 25.6573 33.1541 25.5338C33.1575 25.5372 33.1575 25.5441 33.1575 25.5475C33.2397 25.774 33.3287 26.021 33.4178 26.2578C33.6609 26.8995 33.9109 27.4966 34.0136 27.5343C34.2431 27.6201 38.3904 28.8452 38.4212 28.6736C38.4246 28.6564 38.428 28.6393 38.4315 28.6187C38.4349 28.5981 38.4383 28.5809 38.4452 28.5569C38.4965 28.3236 38.589 27.9873 38.6541 27.7608C38.6643 27.7265 38.6712 27.6956 38.6815 27.6682C38.7089 27.5755 38.726 27.5137 38.726 27.5137L35.2191 26.3608L33.4589 21.7248C33.4246 21.6974 32.9726 21.4537 32.6746 21.3096C32.363 21.162 31.9691 20.9767 31.6198 20.8155C31.452 20.7365 31.2945 20.6645 31.1643 20.6061L31.1506 20.6164Z" fill="#3C4145"/>
</g>
<g id="Group_95">
<path id="Vector_102" d="M28.7774 22.2224L29.4521 22.6032L29.1644 22.8984L29.9315 27.047C30.0891 26.0759 30.1576 25.1494 30.2124 24.5832C30.387 22.6993 28.5103 20.5718 28.3939 20.4414C28.3048 20.4757 28.2055 20.5135 28.1062 20.5546L28.7774 22.2224Z" fill="#51565C"/>
</g>
<g id="Group_96">
<path id="Vector_103" d="M31.1404 20.5958C31.1404 20.5958 31.3938 21.4194 31.6849 23.4783C31.7979 24.2675 31.9554 25.6127 32.1061 26.9715L32.2637 23.0871L31.9418 22.7371L32.226 22.3802L31.6164 20.8189C31.4486 20.7399 31.2911 20.6679 31.1609 20.6095L31.1404 20.5958Z" fill="#51565C"/>
</g>
<g id="Group_97">
<path id="Vector_104" d="M28.3562 20.4586L28.9178 20.112C28.9178 20.112 28.935 20.4208 30.3185 21.2204L29.9247 22.3287L28.3562 20.4586Z" fill="#F5E2D9"/>
</g>
<g id="Group_98">
<path id="Vector_105" d="M30.6849 20.2664C30.6849 20.2664 30.6644 20.5993 30.3151 21.2204L31.0822 22.2224L31.137 20.5958L30.6849 20.2664Z" fill="#F5E2D9"/>
</g>
<g id="Group_99">
<path id="Vector_106" d="M30.315 21.2203C30.315 21.2203 30.1678 21.8174 30.2191 21.9821C30.2191 21.9821 30.5445 22.1022 30.7808 21.9512C30.7808 21.9547 30.6164 21.536 30.315 21.2203Z" fill="#4754CC"/>
</g>
<g id="Group_100">
<g id="Group_101">
<path id="Vector_107" d="M31.0822 29.8162C31.1644 29.3941 31.0856 28.1348 31.0822 28.0833L31.0103 28.0867C31.0103 28.1005 31.0924 29.3907 31.0103 29.8025L31.0822 29.8162Z" fill="#AD9F99"/>
</g>
</g>
<g id="Group_102">
<path id="Vector_108" d="M30.5 29.6207C30.5 29.6207 31.1713 29.6996 31.3939 29.7579L31.3665 30.5129L30.4863 30.4202L30.5 29.6207Z" fill="#69737A"/>
</g>
<g id="Group_103">
<path id="Vector_109" d="M30.6472 21.8998C30.6472 21.8998 31.3972 23.794 31.2739 25.9112C31.1472 28.1074 30.9383 28.9069 30.9383 28.9069L30.4794 29.4868L30.2773 28.7731C30.2773 28.7731 30.8972 25.973 30.4965 23.245C30.4246 22.7508 30.315 21.814 30.315 21.814L30.6472 21.8998Z" fill="#4754CC"/>
</g>
<g id="Group_104">
<path id="Vector_110" d="M28.4007 30.8423C28.4007 30.8423 28.5616 31.1648 28.7226 31.2163C28.8835 31.2712 29.1164 31.532 29.1164 31.532L27.9863 32.1291C27.9863 32.1291 27.6849 31.5389 27.6712 31.1648C27.6575 30.7874 28.4007 30.8423 28.4007 30.8423Z" fill="#EEA886"/>
</g>
<g id="Group_105">
<path id="Vector_111" d="M28.5069 30.8732L28.5822 31.0242C28.5822 31.0242 27.8631 31.5492 27.6713 31.5835L27.6062 31.381L28.5069 30.8732Z" fill="#DECBC4"/>
</g>
<g id="Group_106">
<path id="Vector_112" d="M28.5822 30.88C28.5822 30.88 28.0445 31.3261 27.589 31.532L25.5582 27.9633L26.8562 27.2529C26.8562 27.2495 28.5445 30.6124 28.5822 30.88Z" fill="#3C4145"/>
</g>
<g id="Group_107">
<path id="Vector_113" d="M33.1369 24.5661C33.1609 25.0739 33.1575 25.5269 33.1575 25.5269C33.1575 25.5303 33.1575 25.5441 33.1609 25.5646C33.1609 25.5543 33.1643 25.5475 33.1643 25.5406C33.2465 25.7671 33.3356 26.0142 33.4246 26.2509C33.4452 25.973 33.452 25.7156 33.4452 25.4754C33.4075 24.0479 32.9623 23.3033 32.9623 23.3033C33.065 23.5538 33.113 24.0857 33.1369 24.5661Z" fill="#2D3133"/>
</g>
</g>
</g>
<defs>
<linearGradient id="paint0_linear_5_956" x1="32.1238" y1="42.6383" x2="32.1238" y2="55.4398" gradientUnits="userSpaceOnUse">
<stop stop-color="#7DCDFF"/>
<stop offset="1" stop-color="white"/>
</linearGradient>
<linearGradient id="paint1_linear_5_956" x1="55.9563" y1="15.8193" x2="75.2393" y2="36.2742" gradientUnits="userSpaceOnUse">
<stop stop-color="#7DCDFF"/>
<stop offset="0.1477" stop-color="#90D4FF"/>
<stop offset="1" stop-color="white"/>
</linearGradient>
<linearGradient id="paint2_linear_5_956" x1="56.3574" y1="15.4411" x2="75.6403" y2="35.8961" gradientUnits="userSpaceOnUse">
<stop stop-color="#7DCDFF"/>
<stop offset="1" stop-color="white"/>
</linearGradient>
<linearGradient id="paint3_linear_5_956" x1="56.3141" y1="15.4818" x2="75.5973" y2="35.937" gradientUnits="userSpaceOnUse">
<stop stop-color="#7DCDFF"/>
<stop offset="1" stop-color="white"/>
</linearGradient>
<linearGradient id="paint4_linear_5_956" x1="41.5007" y1="38.52" x2="41.5007" y2="26.4928" gradientUnits="userSpaceOnUse">
<stop stop-color="white"/>
<stop offset="1" stop-color="#E3EAF0"/>
</linearGradient>
<linearGradient id="paint5_linear_5_956" x1="35.0541" y1="27.9802" x2="38.0707" y2="27.9802" gradientUnits="userSpaceOnUse">
<stop stop-color="#D5E4FF"/>
<stop offset="1" stop-color="#B5C2D9"/>
</linearGradient>
<linearGradient id="paint6_linear_5_956" x1="42.4154" y1="27.9802" x2="44.1897" y2="27.9802" gradientUnits="userSpaceOnUse">
<stop stop-color="#D5E4FF"/>
<stop offset="1" stop-color="#B5C2D9"/>
</linearGradient>
</defs>
</svg>
