<svg width="18" height="20" viewBox="0 0 18 20" fill="none" xmlns="http://www.w3.org/2000/svg">
<g id="Frame 3">
<g id="Group 32">
<g id="Group">
<path id="Vector" d="M0 9.61308H3.65238C3.90203 8.91659 4.57521 8.41643 5.36551 8.41643C6.15581 8.41643 6.829 8.91659 7.07865 9.61308H8.39425V7.21978H9C9.33365 7.21978 9.60575 6.95158 9.60575 6.62146C9.60575 6.29134 9.33365 6.02314 9 6.02314H8.39425V0.656921C7.88619 0.276825 7.26158 0 6.57701 0C4.7997 0 3.45842 1.56278 3.54944 3.0917C2.16761 3.36925 1.12528 4.57814 1.12528 6.02314C1.12534 6.56454 1.27551 7.09559 1.55948 7.55868C0.755247 7.96586 0.18754 8.72649 0 9.61308ZM9.60575 4.92872C10.3109 5.17587 10.8172 5.8414 10.8172 6.62146C10.8172 7.40152 10.3109 8.06701 9.60575 8.3142V9.61308H12.0287V10.2114C12.0287 10.5415 12.3008 10.8097 12.6345 10.8097C12.9681 10.8097 13.2402 10.5415 13.2402 10.2114V9.61308H18C17.8125 8.72649 17.2448 7.96586 16.4405 7.55868C16.7245 7.09559 16.8747 6.56454 16.8747 6.02314C16.8747 4.59745 15.8596 3.4008 14.4506 3.11041C14.524 1.51496 13.1775 0 11.423 0C10.7384 0 10.1138 0.276825 9.60575 0.656921V4.92872Z" fill="#30B9CC"/>
</g>
<g id="Group_2">
<path id="Vector_2" d="M18 10.3871H14.3476C14.098 11.0836 13.4248 11.5837 12.6345 11.5837C11.8442 11.5837 11.171 11.0836 10.9214 10.3871H9.60575V12.7804H9C8.66636 12.7804 8.39425 13.0486 8.39425 13.3787C8.39425 13.7088 8.66636 13.977 9 13.977H9.60575V19.3432C10.1138 19.7233 10.7384 20.0002 11.423 20.0002C13.2003 20.0002 14.5416 18.4374 14.4506 16.9085C15.8324 16.6309 16.8747 15.422 16.8747 13.977C16.8747 13.4307 16.7221 12.9019 16.4405 12.4415C17.2448 12.0347 17.8125 11.2738 18 10.3871ZM8.39425 15.0714C7.68912 14.8243 7.18276 14.1588 7.18276 13.3787C7.18276 12.5986 7.68912 11.9331 8.39425 11.686V10.3871H5.97126V9.78875C5.97126 9.45864 5.69916 9.19043 5.36551 9.19043C5.03187 9.19043 4.75977 9.45864 4.75977 9.78875V10.3871H0C0.18754 11.2738 0.755247 12.0347 1.55948 12.4415C1.27789 12.9019 1.12528 13.4307 1.12528 13.977C1.12528 15.4027 2.14039 16.5994 3.54944 16.8898C3.47602 18.4852 4.82252 20.0002 6.57701 20.0002C7.26158 20.0002 7.88619 19.7233 8.39425 19.3432V15.0714Z" fill="#ACE3EB"/>
</g>
<g id="Group_3">
<path id="Vector_3" d="M0 9.61308H3.65238C3.90203 8.91659 4.57521 8.41643 5.36551 8.41643C6.15581 8.41643 6.829 8.91659 7.07865 9.61308H8.39425V7.21978H9C9.33365 7.21978 9.60575 6.95158 9.60575 6.62146C9.60575 6.29134 9.33365 6.02314 9 6.02314H8.39425V0.656921C7.88619 0.276825 7.26158 0 6.57701 0C4.7997 0 3.45842 1.56278 3.54944 3.0917C2.16761 3.36925 1.12528 4.57814 1.12528 6.02314C1.12534 6.56454 1.27551 7.09559 1.55948 7.55868C0.755247 7.96586 0.18754 8.72649 0 9.61308Z" fill="#30B9CC"/>
</g>
</g>
</g>
</svg>
