<svg version="1.2" xmlns="http://www.w3.org/2000/svg" viewBox="0 0 1499 1501" width="1499" height="1501">
	<title>QIBK</title>
	<defs>
		<clipPath clipPathUnits="userSpaceOnUse" id="cp1">
			<path d="m-795.4-1253.26h13124.16v18572.86h-13124.16z"/>
		</clipPath>
	</defs>
	<style>
		.s0 { fill: #1275b0 } 
	</style>
	<g id="Clip-Path: Clip-Path: Page 1" clip-path="url(#cp1)">
		<g id="Clip-Path: Page 1">
			<g id="Page 1">
				<path id="Path 5" fill-rule="evenodd" class="s0" d="m749.4 1501c-414.3 0-749.3-335.3-749.3-750.1 0-414.8 335-750.1 749.3-750.1 414.4 0 749.4 335.3 749.4 750.1 0 414.8-335 750.1-749.4 750.1zm622.8-668.4c-20.9-109.2-120.2-122.4-120.2-122.4 0 0 68.5-28.7 68.5-105 0-142.1-154.4-134.4-154.4-134.4h-158.6c-13.5 0-26.6 0.9-37.7 2.1-10.8 1.2-28.4 4.5-34.1 7.8-1.2 1.2 0 1.2 1.2 1.2 3.3 0 6.6 0.9 11.1 0.9 18.5 4.5 49.3 11.1 47.2 97.3v327.3c0 32-2.1 81.7 32.1 105.9 20.9 14.4 45.1 16.8 71.5 16.8h100.2c27.5 0 71.8-4.5 109.2-26.7 60.7-35.3 76-112.5 64-170.8zm-1017.3 174.1c78.4 0 146.7-38.6 188.5-98.1q1.8-1.5 0 0c-37.4 32-85.8 50.8-138.8 50.8-116.7 0-211.5-94.8-211.5-213 0-94.8 62.8-175.3 148.7-201.7 1.2-1.2 1.2-1.2 0-1.2-122.4 6.6-219.3 108.1-219.3 231.6 0 128.1 104.7 231.6 232.4 231.6zm136.8 24.3c122.4-32.1 211.5-143.4 211.5-274.7 0-157.7-126.5-284.6-284.2-284.6-73.9 0-141.2 27.9-191.8 73.9 0 1.2 0 1.2 1.2 1.2 38.6-22.1 82.6-35.3 129.8-35.3 144.6 0 261.2 118.2 261.2 262.4 0 135.9-103.5 248.4-235.7 260.3 0 0-18.9 1.2-27.6 0-2 0-1.2 1.2 0 1.2 3.3 3.3 15.6 5.4 18.9 6.6 9.9 2.4 18.5 5.7 27.5 11.1 15.3 11.1 28.4 26.3 41.9 40.7q17.7 17.6 34.1 35.3l7.8 7.8c45.2 45.1 122.1 46.3 167.3 1.2 0 0 16.7-17.7 25.4-32 1.2-1.2 0-2.1-1.2-1.2-21.9 17.6-68.2 25.4-94.6-0.9l-43-43.1c-14.4-14.4-30.9-24.3-48.5-29.9zm445.2-12h-9c-26.3-5.7-50.5-17.7-50.5-89.5v-350.6c0 0 5.3-71.9-35.3-94.9-35.4-20.9-88.3-15.6-111.4-7.8-3.2 1.2-4.4 1.2-6.5 2.4-1.2 0.9-1.2 2.1 1.2 0.9q4.2 0 8.6 1.2c26.7 5.4 49.7 17.7 49.7 89.2v349.7c0 0-7.8 69.5 35.3 96.1 35.3 21.8 89.2 15.3 112.2 7.5 2.4-0.9 4.5-0.9 5.7-2.1 2.1-1.2 2.1-2.1 0-2.1zm342.6-132.6c-4.2 100.6-73.9 121.5-114.6 121.5h-27.5c-26.4 0-47.3-9-47.3-71.8 0-2.1-1.2-5.4-1.2-8.7v-193h103.5c0 0 96.1 0.9 87.1 152zm-190.6-308.7c0-53.9-12-72.7-26.3-85.9h81.3c0 0 87.1-3.3 87.1 109.2 0 113.4-77.2 111.3-94.8 111.3h-47.3z"/>
			</g>
		</g>
	</g>
</svg>