<svg version="1.2" xmlns="http://www.w3.org/2000/svg" viewBox="0 0 893 246" width="24" height="7">
	<title>Qatar_National_Bank_Logo-svg</title>
	<style>
		.s0 { fill: #00295b } 
		.s1 { fill: #c60751 } 
	</style>
	<g id="layer1">
		<g id="g19205">
			<g id="g18010">
				<path id="path18012" class="s0" d="m248.9 138.4c1.1-6.4 1.8-13 1.8-19.6 0-6-0.6-11.8-1.4-17.5h-46.8c6.3-6.3 21.1-21.2 35.9-35.9-5.3-11.1-12.2-21.3-20.4-30.2l-71.1 71.1c-3.4 3.4-5.3 7.6-5.3 12.5 0 4.8 1.9 9.6 5.3 12.9l70.8 70.9c8.3-8.9 15.2-19.1 20.5-30.2-13.9-13.8-29.6-28-35.7-34z"/>
			</g>
			<g id="g18014">
				<path id="path18016" class="s0" d="m112.7 118.8c0-4.9-1.9-9.1-5.3-12.5l-71.1-71.1c-8.2 8.9-15.2 19.1-20.5 30.2 14.8 14.8 29.7 29.6 36 35.9h-46.9c-0.8 5.7-1.4 11.5-1.4 17.5 0 6.6 0.7 13.2 1.8 19.6h46.5c-6 6-21.9 20.2-35.8 34 5.4 11.1 12.3 21.3 20.5 30.2l70.9-70.9c3.4-3.3 5.3-8.1 5.3-12.9z"/>
			</g>
			<g id="g18018">
				<path id="path18020" class="s0" d="m127.1 133.5c-4.8 0-9.3 1.8-12.7 5.3l-70.8 70.7c8.9 8.3 19 15.2 30.1 20.5 14.7-14.7 29.4-29.3 35.6-35.6v46.5c5.8 0.8 11.7 1.4 17.8 1.4 6.6 0 13.1-0.7 19.3-1.7v-46.2c6.1 5.9 20.2 21.8 34 35.6 11.2-5.3 21.3-12.2 30.2-20.5l-70.9-70.7c-3.3-3.5-7.7-5.3-12.6-5.3z"/>
			</g>
			<g id="g18022">
				<path id="path18024" class="s1" d="m127.1 104.6c5 0 9.6-1.9 12.9-5.5l71-70.9c-9.1-8.3-19.4-15.4-30.7-20.9-10.4 10.4-25.6 26.8-34 35.2v-20.4c0-10.2-8.7-18.5-19.1-18.5-10.4 0-18 8.1-18.2 18.3v20.6c-9.6-9.6-25.4-25.4-35.1-35.2-11.3 5.5-21.6 12.6-30.7 20.9l71 71c3.4 3.5 8 5.4 12.9 5.4z"/>
			</g>
			<g id="g18026">
				<path id="path18028" fill-rule="evenodd" class="s0" d="m411.3 12.8c59.7 0 98.2 41.9 98.2 99 0 32.3-8.8 56.4-21.8 69.9l23.3 20.6-23.5 22.4-24.5-21.6c-14.1 8-26.4 13.3-52.6 13.3-60 0-98.8-38.9-98.8-101.9 0-59.5 36.5-101.7 99.7-101.7zm-1.1 168.7c8.3 0 17.5-1.9 23.5-5.1l-21-18.7 23-22.2 20.4 18.5c4.9-10.2 8.1-18.2 8.9-39 0-41.2-16.9-66.7-54.3-66.7-33.3 0-54.6 22.4-54.6 66.2 0 44.6 22.5 67 54.1 67z"/>
			</g>
			<g id="g18030">
				<path id="path18032" class="s0" d="m576.3 18.9l80.4 132.2v-132.2h41.4v192.2h-44.2l-82.2-134.5v134.5h-41.7v-192.2z"/>
			</g>
			<g id="g18042">
				<path id="path18044" fill-rule="evenodd" class="s0" d="m812.4 18.9c48.6 0 70.7 18.2 70.7 50.2 0 15.8-4.4 28.6-25 39 18.1 5.8 31.3 20.8 31.3 44.8 0 28-15.8 58.2-77.3 58.2h-94.3v-192.2zm-52.2 75.2h50.8c20.7 0 29.3-6.5 29.3-20.7 0-13.3-8.1-20.1-35.3-20.1h-44.8zm0 82.5h49.9c23.1 0 34.3-7.2 34.3-26.7 0-14.9-10.1-23-33.1-23h-51.1z"/>
			</g>
		</g>
	</g>
</svg>