<svg width="13" height="13" viewBox="0 0 13 13" fill="none" xmlns="http://www.w3.org/2000/svg">
<g id="Frame" clip-path="url(#clip0_5_1643)">
<g id="Group">
<path id="Vector" d="M12.9661 4.73277C12.9245 4.60394 12.846 4.4902 12.7402 4.40572C12.6344 4.32125 12.5061 4.26976 12.3713 4.2577L8.61914 3.91697L7.13545 0.444209C7.02601 0.189712 6.77687 0.0250244 6.50006 0.0250244C6.22324 0.0250244 5.97408 0.189738 5.86469 0.444844L4.38098 3.917L0.628225 4.2577C0.493554 4.27003 0.365464 4.32162 0.259838 4.40607C0.154211 4.49052 0.0756932 4.60412 0.0340184 4.73277C-0.0515755 4.99603 0.0274675 5.28475 0.236057 5.46675L3.07226 7.95408L2.23592 11.6381C2.17473 11.909 2.27985 12.189 2.50461 12.3514C2.6254 12.4387 2.76675 12.4832 2.90928 12.4832C3.03217 12.4832 3.15405 12.45 3.26348 12.3846L6.50006 10.4502L9.73546 12.3846C9.97221 12.527 10.2707 12.514 10.4949 12.3514C10.6047 12.272 10.6887 12.162 10.7365 12.0352C10.7843 11.9083 10.7937 11.7703 10.7636 11.6381L9.92729 7.95408L12.7635 5.46726C12.8655 5.37815 12.9391 5.26103 12.9751 5.13045C13.0111 4.99987 13.008 4.86158 12.9661 4.73277Z" fill="#FFC107"/>
</g>
</g>
<defs>
<clipPath id="clip0_5_1643">
<rect width="13" height="13" fill="white"/>
</clipPath>
</defs>
</svg>
