<svg width="235" height="235" viewBox="0 0 235 235" fill="none" xmlns="http://www.w3.org/2000/svg">
<path fill-rule="evenodd" clip-rule="evenodd" d="M92.2376 180.617C61.146 182.734 27.9114 157.603 27.9114 127.018C27.9114 96.4306 77.1924 109.466 93.1786 85.1903C131.482 27.0662 208.809 120.598 181.624 131.037C127.154 151.939 166.82 175.535 92.2376 180.617Z" fill="#DFF7FB"/>
<path d="M177.192 125.788C177.209 125.869 177.251 125.945 177.268 126.027C177.406 126.791 177.493 127.311 177.402 127.979C177.185 129.406 176.187 130.79 176.764 132.598C177.385 135.161 180.524 136.719 181.368 134.179C181.852 132.501 181.028 130.458 180.107 128.605C179.593 127.612 179.002 126.66 178.339 125.76C179.065 125.712 179.779 125.552 180.456 125.286C180.599 125.23 180.716 125.179 180.859 125.122C180.899 125.142 180.966 125.157 181.006 125.178C182.251 124.65 183.271 124.138 184.537 123.804C186.714 123.178 189.472 122.55 189.678 120.22C189.7 119.481 189.023 118.738 188.314 118.199C187.357 117.557 186.188 117.311 185.053 117.513C183.098 117.757 181.748 118.927 181.017 120.371C180.566 121.279 180.359 122.309 180.218 123.354C180.186 123.869 180.065 124.43 180.193 124.97C179.362 125.303 178.444 125.427 177.469 125.45C177.421 125.437 177.371 125.437 177.324 125.45C176.975 125.458 176.626 125.442 176.279 125.401C176.2 123.806 176.85 122.321 177.42 120.796C177.606 120.194 177.858 119.608 177.923 118.945C178.424 119.097 178.941 119.185 179.464 119.207C180.43 119.271 181.251 118.713 180.883 117.797C180.225 116.57 177.944 115.973 176.707 115.736C175.654 115.576 174.584 115.549 173.524 115.656C173.378 115.661 173.233 115.68 173.091 115.713C173.713 115.111 174.308 114.513 174.889 113.89C175.408 113.364 175.898 112.787 176.403 112.235C178.054 112.588 179.557 113.508 181.086 114.422C182.942 115.611 184.883 116.896 186.784 116.296C188.383 115.727 188.299 113.708 186.48 112.484C184.636 111.264 182.423 110.739 180.465 110.616C179.67 110.564 178.872 110.58 178.079 110.661C178.001 110.677 177.908 110.667 177.804 110.688L179.168 109.232C179.939 108.43 180.725 107.654 181.496 106.852C181.589 106.862 181.707 106.867 181.826 106.872C182.331 106.942 182.543 106.957 183.061 107.052C184.352 107.335 185.663 107.755 186.952 107.982C188.188 108.187 189.444 108.234 190.692 108.122C191.598 108.028 192.557 107.924 193.306 107.55C194.663 106.859 194.795 105.279 192.862 104.162C191.173 103.289 189.259 102.947 187.372 103.18C186.875 103.278 186.282 103.309 185.842 103.509L185.471 103.158L185.524 103.147C186.595 102.569 187.777 102.139 188.986 101.702C190.573 101.164 192.267 100.661 193.985 100.096C194.701 100.492 195.321 100.822 196.059 101.412C198.037 102.973 199.448 105.493 201.371 107.319C202.69 108.585 206.148 110.815 207.811 110.516C211.242 109.897 204.717 104.992 203.165 103.828C201.382 102.512 199.463 101.42 197.522 100.446C196.88 100.117 196.215 99.8322 195.534 99.5938C197.811 98.8345 200.06 98.0245 202.144 97.0771C202.52 96.9182 202.882 96.734 203.218 96.5549L203.258 96.5751C203.513 96.6664 203.807 96.7779 204.076 96.8945C204.504 97.0363 205.382 97.5136 205.558 97.6203C208.979 99.6314 211.118 103.139 214.837 105.006C216.402 105.829 218.376 106.345 219.625 105.618C221.689 103.856 217.119 100.572 215.017 99.2057C213.027 97.9866 210.87 97.1965 208.722 96.6298C207.647 96.3303 206.548 96.1212 205.438 96.0048C205.091 95.9606 204.742 95.9443 204.393 95.956C206.973 94.6043 209.384 92.9534 211.576 91.0373C211.683 91.0726 211.802 91.0777 211.909 91.1131C212.524 91.2866 213.128 91.4981 213.717 91.7465C215.234 92.3802 216.385 93.086 217.759 94.0875C219.459 95.3072 221.168 96.751 223.194 97.2565C223.899 97.3722 224.707 97.4673 225.181 97.1197C225.588 96.757 225.679 96.089 225.258 95.4936C224.678 94.5621 223.646 93.8604 222.669 93.2055C221.779 92.609 220.848 92.0745 219.885 91.6058C218.716 91.0159 217.489 90.5471 216.225 90.2069C215.214 89.9212 214.187 89.6987 213.149 89.5406C213.528 89.1269 213.906 88.7133 214.271 88.2742L214.297 88.269C215.87 87.394 217.716 86.7479 218.766 85.3542C219.19 84.762 219.559 84.1241 219.512 83.3138C219.53 82.1516 217.851 81.1256 216.645 80.9957C215.385 80.8194 214.53 81.5251 214.225 82.4331C213.903 83.5705 214.195 84.8695 214.113 86.0726C214.095 86.6393 214.021 87.2028 213.893 87.7551C213.881 87.7818 213.875 87.8108 213.877 87.84C213.878 87.8692 213.886 87.8977 213.9 87.9232C213.459 88.4339 213.019 88.9446 212.526 89.4654C212.165 89.8435 211.783 90.2016 211.383 90.5383C211.603 89.7886 211.527 88.9273 211.083 88.0826C210.808 87.4867 210.13 87.0549 209.462 86.8474C207.954 86.4378 207.537 87.5091 208.152 88.6596C208.613 89.5863 209.623 90.7159 209.584 91.3739C209.592 91.5542 209.586 91.7348 209.567 91.9144C209.55 91.9445 209.541 91.9784 209.54 92.0131C209.539 92.0478 209.547 92.0821 209.562 92.1131C208.493 92.9522 207.371 93.7208 206.202 94.4139C206.626 93.5108 206.941 92.5162 206.656 91.3854C206.402 90.3614 205.354 89.2678 204.117 89.3417C202.958 89.4004 202.18 90.034 201.549 90.7234C200.271 92.0208 200.057 94.1823 199.569 95.7482C199.349 96.4979 198.982 97.1919 198.601 97.8603C198.566 97.9522 198.425 98.0647 198.444 98.2023C195.455 99.2994 192.393 100.213 189.269 101.224C187.929 101.686 186.604 102.173 185.39 102.807C185.919 102.194 186.421 101.587 186.909 100.954C187.532 101.029 188.096 100.946 188.453 100.65C188.849 100.317 188.675 99.6452 188.169 99.2078C188.429 98.7893 188.714 98.3657 188.96 97.9217C190.325 98.6987 191.64 99.231 192.677 98.8007C193.555 98.3451 192.883 97.0927 191.961 96.4831C191.572 96.2174 191.16 95.9863 190.731 95.7925C191.184 95.4505 191.666 95.1479 192.171 94.8877C194.418 93.7106 197.094 93.043 199.022 91.5037C199.993 90.7472 201.081 89.9395 201.346 88.7004C201.432 88.2313 201.461 87.6604 201.045 87.1771C199.464 85.6514 197.315 86.6397 196.099 87.2182C195.054 87.737 194.159 88.5166 193.503 89.4818C192.855 90.4005 192.438 91.4719 191.94 92.5025C191.728 92.9278 191.495 93.3418 191.24 93.7425C191.301 93.6456 191.349 93.5232 191.411 93.4261C191.871 92.4313 192.25 91.3957 192.629 90.3603C192.681 90.35 192.693 90.3193 192.745 90.3091C192.767 90.2948 192.784 90.2759 192.797 90.2538C192.81 90.2317 192.817 90.207 192.819 90.1815C192.812 90.1249 192.792 90.0709 192.76 90.0236C192.772 89.993 192.783 89.9623 192.81 89.9572C192.846 89.9648 192.884 89.9599 192.917 89.9431C192.95 89.9263 192.976 89.8988 192.991 89.8651C193.672 88.1765 195.804 85.1851 194.142 82.9969C193.918 82.7936 193.627 82.68 193.324 82.6776C192.532 82.6639 192.12 83.2255 191.865 83.7561C191.289 85.1132 191.249 86.7036 191.648 88.3491C191.751 88.811 191.88 89.2668 192.035 89.7142C192.092 89.8161 192.096 89.9281 192.18 90.0248C191.92 90.1324 191.675 90.2655 191.416 90.373C191.163 89.5688 190.983 88.7436 190.878 87.9073C190.726 86.8066 190.561 85.0587 189.258 84.1847C189.058 84.0716 188.822 84.039 188.599 84.0936C188.376 84.1482 188.182 84.2858 188.056 84.4785C187.509 85.2646 187.767 86.4007 188.166 87.4242C188.519 88.3141 188.989 89.153 189.563 89.9189C189.802 90.2482 190.071 90.5548 190.366 90.8345L190.381 90.86C189.981 91.0801 189.582 91.3001 189.222 91.5404C187.86 92.4302 186.706 93.5336 185.563 94.6064C185.449 94.7137 185.346 94.7904 185.232 94.8977C185.078 94.6737 184.949 94.4446 184.821 94.2155C184.405 93.4663 184.046 92.6867 183.747 91.8833C183.23 90.5438 182.503 88.313 180.768 87.1852C180.211 86.8143 179.597 86.9634 179.362 87.3207C178.978 87.9331 179.372 88.8447 179.681 89.6035C180.237 90.9072 181.121 92.1744 182.107 93.365C182.69 94.0417 183.258 94.6928 183.904 95.3286C184.054 95.4404 184.18 95.6135 184.342 95.6947C183.58 96.4099 182.792 97.1302 182.004 97.8506C181.299 96.4352 180.85 95.1669 180.287 93.6951C179.743 92.3609 179.183 90.9456 177.987 89.7957C177.015 88.9415 175.928 89.1273 175.646 89.974C175.124 91.3768 175.782 93.2255 176.666 94.8032C177.244 95.7652 177.937 96.6537 178.729 97.4492C179.202 97.9336 179.701 98.392 180.224 98.8222C180.36 98.9086 180.483 99.0256 180.619 99.1119C180.25 99.4389 179.869 99.7965 179.5 100.124L178.393 101.105C178.367 101.11 178.341 101.115 178.355 101.14C178.329 101.145 178.343 101.17 178.343 101.17C178.062 101.395 177.77 101.651 177.489 101.875L177.462 101.88C176.519 99.8335 175.391 97.7666 173.677 95.8997C172.888 95.0094 172.006 94.1091 170.924 93.4743C169.721 92.7786 167.875 92.1811 167.708 93.5423C167.645 94.883 168.66 96.1245 169.892 97.182C169.069 96.7505 168.186 96.4721 167.354 96.4382C166.859 96.4129 166.374 96.5778 165.997 96.899C165.62 97.2201 165.381 97.6733 165.328 98.1655C165.25 100.103 167.231 102.03 168.635 103.76C169.398 104.655 170.099 105.648 170.094 106.469C170.082 106.726 170.039 106.981 169.967 107.228C169.932 107.32 169.855 107.392 169.912 107.493C169.928 107.527 169.951 107.557 169.98 107.58C170.008 107.604 170.041 107.621 170.077 107.631C170.012 107.693 169.953 107.762 169.901 107.835C169.382 108.05 168.946 108.362 168.877 108.913C168.883 108.971 168.877 109.03 168.858 109.086C168.829 109.145 168.791 109.2 168.746 109.249C168.504 109.582 168.281 109.928 168.077 110.285C168.178 108.909 168.331 107.522 167.754 106.025C166.845 103.519 164.272 101.002 163.515 98.6638C163.133 97.4108 163.25 96.4267 163.149 95.2598C163.282 95.29 163.399 95.2389 163.42 95.1215C163.487 94.8258 163.542 94.5607 163.623 94.2903C163.871 93.2805 164.076 92.5054 164.391 91.5109C164.565 90.9396 164.765 90.3632 164.966 89.7868L164.992 89.7816C165.36 89.7089 165.733 89.6639 166.108 89.6467C166.817 89.5637 168.52 89.5957 169.331 89.747C171.016 89.9524 173.125 90.8653 174.341 89.9759C175.248 89.2603 174.485 87.7433 173.292 86.9607C171.891 85.9646 170.143 85.4892 168.685 85.635C167.607 85.7342 166.798 86.2609 166.041 86.7773C165.907 86.8648 165.769 86.9484 165.63 87.0279C165.785 86.3191 165.914 85.6154 166.088 85.0443C166.558 83.3405 167.311 81.7795 167.983 80.1776C168.116 80.208 168.233 80.1567 168.352 80.1615C168.668 80.1558 168.984 80.1498 169.289 80.1748C170.208 80.2468 171.119 80.3983 172.012 80.6278C173.092 80.8956 174.191 81.3011 175.278 81.4268C176.817 81.6324 178.337 81.3897 179.211 80.5111C180.018 79.6174 178.972 78.2689 177.691 77.5886C176.38 76.8574 174.929 76.5496 173.595 76.5015C171.64 76.4343 170.497 77.1962 169.775 78.5536C169.578 78.875 169.094 79.3093 168.702 79.3866C168.562 79.4379 168.418 79.4758 168.271 79.4997C168.393 79.2497 168.474 78.9794 168.581 78.704C169.184 77.0308 169.311 75.3383 170.345 73.863C170.895 73.1329 172.068 72.1671 172.65 71.2331C172.935 70.8095 173.221 70.3858 173.466 69.9419C175.275 69.6424 177.56 70.0401 179.568 69.7861C180.315 69.6673 181.058 69.4364 181.458 68.9048C182.27 67.8121 181.507 66.6059 179.807 66.0081C177.997 65.3188 176.509 66.0356 175.338 66.7465C174.963 66.9992 174.625 67.3038 174.334 67.6512C174.43 67.3008 174.548 66.9567 174.686 66.6208C174.975 65.9423 175.327 65.5337 175.927 65.0483C176.595 64.5944 177.223 64.0833 177.803 63.5208C178.246 63.2729 178.675 62.9997 179.088 62.7026C179.626 62.3141 180.164 61.9255 180.457 61.3592C180.874 60.5989 181.074 59.4006 179.983 58.5415C179.381 58.0383 178.478 57.8771 177.906 58.1026C176.538 58.8241 176.377 60.9754 176.759 62.5394C176.851 62.8605 176.944 63.1815 177.037 63.5022L177.051 63.5275C176.796 63.7473 176.542 63.967 176.273 64.1612C175.796 64.4703 175.355 64.832 174.959 65.2395C174.935 64.368 175.267 63.4549 175.201 62.507C175.152 61.0188 174.04 59.3443 172.428 58.3333C170.414 57.1756 168.815 58.0557 169.246 59.8641C169.426 60.7048 169.949 61.5345 170.458 62.3388C171.061 63.209 171.705 64.0996 172.504 64.9032C172.904 65.3051 173.341 65.6711 173.793 66.0626C173.928 66.1787 174.073 66.2825 174.227 66.3727C173.949 66.9645 173.805 67.6426 173.607 68.2751C173.292 69.2167 172.825 70.1008 172.226 70.8928C171.695 71.7604 170.533 72.6957 169.833 73.6248C169.699 73.805 169.583 73.9982 169.488 74.2016C169.46 74.1456 169.422 74.0954 169.376 74.054C169.075 72.8415 169.078 71.654 168.936 70.4666C168.714 68.3059 167.828 66.0499 165.186 64.7048C164 64.0906 162.456 63.7728 161.668 64.4933C160.78 65.3463 160.924 66.9006 161.73 68.1828C162.863 70.051 164.853 71.5809 166.831 72.8305C167.63 73.3233 168.353 73.5766 168.876 74.0954L168.905 74.1462C168.943 74.3096 168.993 74.4697 169.056 74.6251C169.076 74.6553 169.101 74.6807 169.132 74.6993C169.163 74.7178 169.197 74.7289 169.233 74.7318C168.716 75.9357 168.496 77.3072 168.069 78.4652C167.428 80.1741 166.625 81.8022 165.984 83.5105C165.911 83.3272 165.818 83.0063 165.744 82.823C165.448 81.9059 165.207 80.9722 165.021 80.0265C164.497 77.5862 163.764 74.5651 160.73 72.9865C156.761 71.1397 153.569 73.379 156.147 76.9974C157.561 78.9516 159.796 80.3486 162.022 81.5211C163.145 82.1762 164.367 82.6986 165.137 83.4513C165.265 83.6151 165.374 83.7927 165.463 83.9808C165.52 84.0825 165.51 84.1688 165.605 84.2353L165.727 84.2961C165.681 84.4747 165.61 84.6583 165.564 84.8366C165.193 86.0403 164.996 87.3511 164.705 88.5949C164.635 88.9023 164.542 89.2041 164.426 89.4976C164.4 89.5028 164.415 89.5283 164.403 89.5588C164.331 89.7425 164.286 89.921 164.215 90.1046C162.941 88.6594 162.245 86.8468 161.005 85.2541C159.785 83.8549 157.891 82.3911 156.042 82.3594C153.325 82.3855 155.173 85.8934 156.671 87.3225C157.895 88.5227 159.462 89.4012 161.07 89.989C161.255 90.6309 161.493 91.2624 161.744 91.9194C161.564 91.7006 161.357 91.4869 161.176 91.2681C160.665 90.7188 159.441 89.2075 158.689 89.5252C157.982 89.9753 159.135 91.3592 159.841 91.8419C160.511 92.3425 161.264 92.7204 162.065 92.9581L162.091 92.9529C162.281 93.5247 162.416 94.1132 162.494 94.7106C162.553 95.1823 162.587 95.657 162.593 96.1324C162.538 96.0867 162.469 96.0149 162.415 95.9698C162.153 95.7103 161.918 95.4458 161.683 95.1812C161.143 94.5809 160.656 93.971 159.976 93.4825C158.709 92.5168 157.597 93.0747 158.455 94.3471C159.116 95.3192 160.362 95.7806 161.43 96.0788C161.644 96.1493 162.179 96.327 162.426 96.5605L162.44 96.586C162.495 96.6318 162.524 96.6828 162.578 96.7285C162.637 97.8191 162.803 98.9452 163.496 100.08C164.808 102.422 166.935 104.716 167.4 106.999C167.694 108.665 167.288 110.327 167.375 112.091C167.407 114.119 167.879 116.259 167.977 118.303C168.017 118.634 168.057 118.965 168.11 119.266C167.404 118.472 166.66 117.715 165.877 116.993C164.261 115.559 162.618 114.13 161.092 112.65C161.099 112.509 161.129 112.369 161.18 112.237C161.322 111.724 161.537 111.234 161.818 110.783C162.523 109.655 164.163 108.484 164.467 106.898C164.948 104.854 162.366 103.355 160.458 104.099C158.789 104.907 158.8 107.053 158.966 108.801C159.052 109.518 159.197 110.227 159.397 110.921L159.19 110.707C158.113 109.562 157.087 108.352 156.022 107.176C156.017 107.064 155.905 106.917 155.86 106.784C155.71 106.519 155.583 106.242 155.483 105.954C155.114 105.038 154.801 103.545 154.816 102.638C154.785 100.609 156.027 99.0924 155.513 96.8764C155.259 95.5415 153.691 93.6743 152.22 94.4726C151.756 94.7334 151.538 95.2283 151.346 95.662C151.034 96.4023 150.924 97.243 150.946 98.1145C150.994 99.3802 151.261 100.628 151.734 101.803C152.023 102.549 152.362 103.275 152.748 103.977C150.834 102.375 148.744 100.978 146.847 99.4582C146.859 99.4267 146.864 99.3925 146.86 99.3587C146.857 99.325 146.845 99.2926 146.825 99.2646C146.788 99.102 146.763 98.9367 146.752 98.7703C146.719 98.2964 146.786 97.3787 147.017 96.9093C147.87 95.2153 148.842 93.5261 148.741 91.4264C148.679 88.9799 147.98 84.8783 144.567 83.4023C142.232 82.4492 141.172 84.2404 141.161 85.8816C140.991 88.7413 142.57 91.8217 143.867 94.7599C144.392 95.9566 144.788 96.9241 145.204 98.0293C144.713 97.5723 144.248 97.0883 143.811 96.5796C142.604 95.15 141.753 93.7348 140.736 92.1263C139.857 90.6603 138.873 89.2148 137.994 87.7488C137.823 87.4433 137.664 87.1072 137.493 86.8017C137.51 86.7848 137.523 86.7644 137.531 86.7418C137.539 86.7193 137.542 86.6952 137.54 86.6713C137.538 86.6474 137.53 86.6243 137.518 86.6037C137.506 86.5831 137.489 86.5654 137.469 86.552C136.226 85.2142 135.461 83.9517 134.346 82.532C132.647 80.3796 130.669 78.1972 128.166 76.6837C127.055 75.9979 125.849 75.868 125.44 76.7965C125.194 77.5514 125.629 78.4832 126.047 79.3335C126.489 80.1227 126.971 80.9315 127.608 81.6544C128.647 82.8347 129.916 83.8566 131.236 84.812C132.76 85.8877 134.375 86.8274 136.063 87.6202L137.718 88.3965C137.76 88.4171 137.805 88.4275 137.851 88.4268C138.419 89.3889 139.08 90.361 139.674 91.3181C139.503 91.2863 139.334 91.2441 139.167 91.1916C138.349 90.9875 137.555 90.6988 136.796 90.3302C134.064 89.0313 131.515 87.0743 128.523 86.1942C127.95 86.0532 127.353 85.9725 126.913 86.1723C126.665 86.299 126.472 86.5124 126.371 86.7719C126.27 87.0315 126.267 87.3191 126.364 87.5801C126.756 88.7466 127.997 89.7175 129.162 90.4489C131.871 92.1201 135.005 93.2552 137.838 93.1777C138.788 93.1603 139.72 93.0615 140.513 92.7642L140.539 92.7591C141.401 94.1437 142.29 95.523 143.386 96.8052C144.329 97.9194 145.466 98.9109 146.638 99.8106C146.818 99.9606 147.005 100.103 147.197 100.237C145.839 99.9397 144.576 99.397 143.151 98.7731C141.686 98.1289 140.224 97.5407 138.711 97.019C136.906 96.4418 134.923 95.7019 133.245 95.9755C132.225 96.1766 132.015 97.1505 132.739 98.0817C133.397 98.9982 134.494 99.6581 135.483 100.283C137.155 101.268 138.97 101.989 140.863 102.417C142.768 102.862 144.664 103.082 146.467 102.981C147.704 102.907 148.979 102.798 150.071 102.413C150.097 102.408 150.083 102.382 150.083 102.382C151.555 103.506 153 104.634 154.239 105.86C154.997 106.644 155.729 107.432 156.435 108.226C154.568 108.117 152.716 107.819 150.91 107.335C148.353 106.765 145.18 105.666 143.459 107.107C142.397 107.909 142.82 109.493 144.223 110.545C145.571 111.552 147.21 111.936 148.706 112.065C151.025 112.315 152.948 111.597 154.626 110.702C155.349 110.333 156.265 109.842 156.891 109.662C157.068 109.599 157.253 109.563 157.441 109.554L157.598 109.523C158.068 110.052 158.579 110.602 159.076 111.126C159.269 111.314 159.435 111.507 159.613 111.67L159.642 111.721C159.67 111.772 159.711 111.792 159.792 111.833L160.576 112.611C160.573 112.64 160.577 112.669 160.587 112.697C160.597 112.724 160.614 112.749 160.635 112.769C160.694 112.817 160.763 112.851 160.837 112.87C162.102 114.091 163.431 115.271 164.786 116.445C165.945 117.446 167.035 118.525 168.047 119.675C168.102 119.72 168.145 119.797 168.214 119.868C168.225 119.934 168.223 120.001 168.209 120.067C168.043 121.795 168.33 123.604 168.631 125.438C167.529 126.22 165.592 125.98 164.094 126.416C163.051 126.735 162.214 127.521 162.272 128.612C162.309 129.82 163.262 131.158 164.613 131.91C166.465 132.986 168.248 132.07 168.573 130.678C168.873 129.658 168.948 128.598 169.034 127.507C169.309 128.724 169.572 129.972 169.688 131.165C169.873 132.429 169.688 133.708 169.719 135.059C169.754 135.278 169.697 135.487 169.785 135.696C169.925 135.894 170.28 135.853 170.244 135.634C170.159 134.859 170.26 133.794 170.274 132.886C170.257 131.992 170.193 131.099 170.084 130.211C169.906 128.805 169.503 127.358 169.218 125.916L169.247 125.656C169.251 125.642 169.252 125.627 169.249 125.613C169.246 125.599 169.24 125.586 169.231 125.574C169.466 125.528 169.464 125.472 169.621 125.441C170.494 125.184 171.403 125.147 172.369 125.211C172.333 125.303 172.364 125.41 172.314 125.476C172.283 125.68 172.235 125.803 172.214 125.92C171.994 126.67 171.639 127.333 171.298 128.022C170.665 129.277 169.95 130.803 171.01 132.487C172.78 135.388 176.177 134.917 175.451 132.064C175.108 130.465 173.769 128.75 173.261 127.324C173.091 126.707 173.048 126.32 173.196 125.754C173.221 125.607 173.268 125.464 173.337 125.331C174.186 125.447 175.023 125.592 175.898 125.703C176.327 125.759 176.76 125.787 177.192 125.788ZM161.859 90.9363C161.755 90.6461 161.677 90.3506 161.586 90.0857C161.8 90.1562 162.041 90.2224 162.24 90.2678C162.735 90.4248 163.068 90.5005 163.462 90.7902L163.477 90.8156L163.517 90.836C163.627 90.9275 163.698 91.0547 163.819 91.1156C163.807 91.1463 163.821 91.1718 163.796 91.1768C163.456 92.1883 163.169 93.2164 162.935 94.2573C162.923 94.2879 162.937 94.3134 162.911 94.3185C162.759 93.2179 162.289 92.067 161.859 90.9363ZM171.532 117.548C171.82 117.491 172.916 117.529 173.183 117.59C173.439 117.628 173.692 117.682 173.941 117.751C173.557 118.391 173.334 119.113 173.29 119.858C173.013 119.583 172.697 119.35 172.351 119.167C171.716 118.784 171.017 118.519 170.287 118.386L170.273 118.361C170.487 118.121 170.701 117.881 170.93 117.666L170.956 117.661C171.142 117.596 171.335 117.558 171.532 117.548ZM179.334 108.183C179.146 107.052 178.821 105.949 178.366 104.897C178.069 104.202 177.737 103.522 177.37 102.861C177.305 102.738 177.229 102.62 177.144 102.509L177.566 102.172C178.562 102.654 179.444 103.244 180.438 103.981C180.983 104.382 181.57 104.86 182.195 105.302C181.26 106.278 180.284 107.233 179.334 108.183L179.334 108.183ZM189.004 92.0353C189.745 91.514 190.529 91.057 191.348 90.6693C191.517 90.6079 191.646 90.526 191.814 90.4645C191.517 91.2297 191.233 92.0204 190.895 92.7652C190.556 93.51 190.178 94.2346 189.799 94.9593C189.778 94.9736 189.76 94.9925 189.747 95.0146C189.734 95.0367 189.727 95.0614 189.725 95.0869C189.701 95.1481 189.663 95.1838 189.639 95.245C188.792 94.9927 187.917 94.8423 187.035 94.797C186.612 94.7673 186.214 94.7325 185.805 94.7283C186.874 93.7832 187.916 92.8432 189.004 92.0355V92.0353ZM184.967 95.5157C185.932 95.8909 187.143 96.7548 188.4 97.4963C188.141 97.9147 187.907 98.3281 187.634 98.7211C187.17 98.4667 186.668 98.2888 186.147 98.1943C184.885 97.9488 183.592 97.8982 182.315 98.0445C183.191 97.2214 184.105 96.3632 184.967 95.5157ZM180.649 99.5312C180.742 99.453 180.831 99.3695 180.915 99.2809C181.089 99.3315 181.286 99.3209 181.46 99.3715C182.126 99.523 182.82 99.7254 183.489 99.9329C184.224 100.156 185.242 100.52 186.186 100.702C185.698 101.335 185.169 101.947 184.641 102.561C183.975 102.098 183.223 101.794 182.474 101.546C181.792 101.309 181.086 101.145 180.369 101.056C179.905 101.006 179.456 100.981 179.006 100.957C179.58 100.476 180.127 100.001 180.649 99.5306V99.5312ZM171.495 105.601C171.941 104.891 172.384 104.126 172.627 103.315C172.869 103.748 173.112 104.18 173.394 104.634C172.555 105.227 171.749 105.867 170.981 106.55C171.152 106.233 171.324 105.917 171.495 105.6L171.495 105.601ZM170.728 107.447C171.651 106.572 172.636 105.764 173.674 105.03C174.528 106.295 175.5 107.476 176.579 108.556C176.95 108.907 177.361 109.278 177.744 109.598C177.79 109.64 177.84 109.678 177.894 109.71C177.275 110.369 176.67 111.053 176.065 111.738C176.039 111.729 176.01 111.727 175.983 111.732C175.955 111.738 175.93 111.75 175.908 111.768C175.889 111.777 175.873 111.79 175.859 111.805C175.846 111.821 175.836 111.84 175.831 111.86C175.825 111.88 175.824 111.9 175.828 111.921C175.831 111.941 175.839 111.961 175.851 111.978C175.51 112.355 175.196 112.728 174.842 113.081C174.585 112.001 174.382 110.91 173.862 109.826C173.211 108.456 172.134 107.312 170.728 107.447ZM168.486 118.232C168.35 115.913 167.821 113.672 167.875 111.485C167.882 111.342 167.875 111.174 167.883 111.031C168.161 111.061 168.197 110.658 168.335 110.49C168.494 110.204 168.668 109.944 168.842 109.684C169.082 110.371 169.574 111.094 170.113 111.694C170.86 112.508 171.918 112.893 172.862 113.386C173.043 113.489 173.215 113.606 173.378 113.736C173.392 113.762 173.447 113.807 173.461 113.833C173.502 113.853 173.573 113.98 173.613 114.001C173.667 114.071 173.71 114.148 173.742 114.23C172.78 115.211 171.737 116.151 170.749 117.136C170.837 116.414 170.837 115.683 170.751 114.96C170.678 114.466 170.561 113.895 170.145 113.412C169.841 113.076 169.27 112.991 169.03 113.236C168.775 113.455 168.777 113.822 168.765 114.164C168.805 114.806 169.005 115.473 169.242 116.105C169.442 116.635 169.602 117.18 169.719 117.735C169.751 117.87 169.77 118.008 169.776 118.148C169.385 118.592 169.009 119.062 168.648 119.557C168.602 119.114 168.531 118.675 168.486 118.232H168.486ZM169.573 124.998C169.396 125.038 169.221 125.091 169.052 125.158L169.026 125.163C168.832 123.986 168.671 122.661 168.605 121.713C168.586 121.525 168.586 121.335 168.608 121.147C168.622 121.171 168.642 121.191 168.665 121.206C168.689 121.221 168.715 121.231 168.743 121.234C168.957 121.304 169.11 121.161 168.996 120.958C168.95 120.825 168.932 120.688 168.886 120.555C168.991 120.535 169.067 120.463 169.036 120.356C169.063 120.351 169.063 120.351 169.103 120.371C169.364 120.386 169.623 120.43 169.874 120.502C170.368 120.659 171.258 121.106 171.952 121.308C172.421 121.47 172.951 121.536 173.329 121.433C173.365 121.755 173.427 122.074 173.514 122.386C173.776 123.343 174.212 124.244 174.799 125.043C174.828 125.094 174.883 125.14 174.911 125.191C173.211 124.904 171.113 124.582 169.573 124.998H169.573Z" fill="#EAEAEA"/>
<path fill-rule="evenodd" clip-rule="evenodd" d="M65.798 94.1484C55.0789 96.6801 38.9781 105.881 35.2687 88.8417C32.7275 77.1668 62.9047 78.1637 69.1722 71.695C82.9594 57.465 104.18 70.3388 95.1062 74.9133C76.9235 84.075 91.5117 88.0741 65.798 94.1484Z" fill="#DFF7FB"/>
<path fill-rule="evenodd" clip-rule="evenodd" d="M147.664 113.176C143.622 119.232 102.915 122.553 97.6241 115.111C89.4461 103.62 112.998 70.7786 112.998 70.7786C112.694 69.2089 112.638 65.4144 113.874 63.9337C115.748 61.6829 112.961 59.5454 114.695 59.0599C116.922 58.4382 118.707 60.5427 122.589 61.5952C124.888 62.2123 124.567 68.2479 122.393 71.6261C121.619 72.8246 120.141 72.9341 120.141 72.9341C120.141 72.9341 111.056 95.2898 112.985 99.5714C115.379 104.867 126.773 98.7698 144.28 96.2986C152.652 95.1152 149.892 109.838 147.664 113.176Z" fill="#EDC0B4"/>
<mask id="mask0_5_440" style="mask-type:luminance" maskUnits="userSpaceOnUse" x="95" y="58" width="55" height="62">
<path d="M147.664 113.176C143.622 119.232 102.915 122.553 97.6241 115.111C89.4461 103.62 112.998 70.7786 112.998 70.7786C112.694 69.2089 112.638 65.4144 113.874 63.9337C115.748 61.6829 112.961 59.5454 114.695 59.0599C116.922 58.4382 118.707 60.5427 122.589 61.5952C124.888 62.2123 124.567 68.2479 122.393 71.6261C121.619 72.8246 120.141 72.9341 120.141 72.9341C120.141 72.9341 111.056 95.2898 112.985 99.5714C115.379 104.867 126.773 98.7698 144.28 96.2986C152.652 95.1152 149.892 109.838 147.664 113.176Z" fill="white"/>
</mask>
<g mask="url(#mask0_5_440)">
<path fill-rule="evenodd" clip-rule="evenodd" d="M125.144 96.8142C126.676 97.9892 127.038 100.772 127.298 102.513C127.574 104.353 127.49 106.242 126.875 108.015C125.95 110.685 124.033 112.868 123.245 115.586C122.659 117.608 122.799 119.887 123.485 121.872C123.805 122.8 124.288 123.663 124.913 124.42C128.616 128.884 136.242 127.218 140.919 125.648C146.181 123.882 151.38 120.517 154.095 115.526C158.308 107.788 154.487 98.243 147.229 93.9522C144.35 92.2702 141.108 91.3074 137.778 91.1456C133.823 90.938 129.762 91.6883 126.344 93.7346L125.144 96.8142Z" fill="#30B9CC"/>
<path fill-rule="evenodd" clip-rule="evenodd" d="M109.747 72.2227C107.117 77.1846 103.725 88.0343 101.956 93.3295C99.6976 100.128 98.7983 105.282 102.269 111.37C106.374 118.593 120.079 115.77 126.785 113.914C128.265 113.504 129.726 113.029 131.164 112.491C133.193 111.749 135.164 110.856 137.059 109.819C140.969 107.633 144.234 104.63 147.157 101.262C147.997 100.296 148.75 99.2412 149.64 98.3227C149.904 98.0481 150.304 97.6433 150.735 97.6933C151.458 97.7763 151.624 99.1107 151.722 99.6298C152.093 101.78 152.064 104.027 151.917 106.196C151.34 114.769 148.554 123.333 140.891 128.016C136.159 130.908 130.265 131.807 124.869 132.599C119.483 133.389 113.813 134.103 108.358 133.606C98.622 132.718 88.3481 128.488 83.0207 119.853C76.8625 109.851 79.6973 96.4831 84.7512 86.6445C86.0122 84.1918 87.4687 81.833 89.199 79.6834C92.5713 75.4947 97.0876 71.6817 102.415 70.4027L109.747 72.2227Z" fill="#3E3E3E"/>
</g>
<path fill-rule="evenodd" clip-rule="evenodd" d="M60.3648 60.2703C59.885 59.5153 58.9733 58.9732 57.9276 58.8205C56.8974 58.6549 55.843 58.8923 54.9831 59.4833L10.6042 91.428C9.45376 92.2562 9.13698 93.6011 9.8354 94.7005L65.6855 182.614C66.1722 183.38 67.0764 183.911 68.1295 184.075C69.1597 184.241 70.2141 184.003 71.0739 183.412L115.453 151.467C116.603 150.639 116.92 149.294 116.221 148.195L60.3648 60.2703ZM59.6978 60.5406L115.555 148.466C116.098 149.321 115.853 150.371 114.948 151.023L70.5694 182.968C69.8956 183.428 69.0721 183.616 68.2651 183.493C67.4387 183.376 66.7334 182.945 66.3524 182.346L10.5025 94.4308C9.95208 93.5645 10.197 92.5141 11.1017 91.8626L55.4802 59.9178C56.154 59.4571 56.9775 59.2693 57.7845 59.3923C58.6186 59.5204 59.3169 59.9404 59.6978 60.54V60.5406Z" fill="#30B9CC"/>
<path fill-rule="evenodd" clip-rule="evenodd" d="M68.953 59.4681C68.8718 59.3384 68.7645 59.2271 68.6378 59.1413C68.5111 59.0555 68.3679 58.9971 68.2173 58.9699C68.0694 58.9419 67.9174 58.9435 67.7702 58.9747C67.6229 59.0059 67.4833 59.0661 67.3595 59.1517L20.0618 93.1975C19.8302 93.3656 19.6717 93.616 19.6189 93.8973C19.566 94.1786 19.6228 94.4694 19.7776 94.7102L75.0812 181.764C75.1613 181.892 75.2677 182.002 75.3932 182.086C75.5188 182.17 75.6607 182.226 75.8097 182.252C75.9575 182.283 76.1102 182.283 76.258 182.251C76.4058 182.22 76.5455 182.158 76.668 182.07L123.965 148.024C124.197 147.859 124.357 147.611 124.411 147.332C124.465 147.052 124.41 146.762 124.256 146.522L68.953 59.4681Z" fill="white"/>
<path fill-rule="evenodd" clip-rule="evenodd" d="M104.822 127.925C104.034 126.686 102.571 125.807 100.855 125.554C99.1387 125.302 97.3774 125.698 96.0805 126.631L71.3687 144.419C68.2197 146.686 67.371 150.344 69.2854 153.357C70.0726 154.596 71.5355 155.474 73.2515 155.726C74.9674 155.978 76.7289 155.583 78.0197 154.654L102.737 136.861C105.88 134.599 106.736 130.938 104.822 127.925ZM104.289 128.137L104.289 128.138C106.082 130.959 105.28 134.388 102.337 136.507L77.6189 154.3C76.4674 155.129 74.8908 155.484 73.3586 155.259C71.8326 155.029 70.5202 154.25 69.8175 153.144C68.0253 150.323 68.8268 146.894 71.7702 144.775L96.488 126.982C97.6395 126.153 99.2161 125.798 100.742 126.026C102.273 126.252 103.586 127.031 104.289 128.137H104.289Z" fill="white"/>
<path fill-rule="evenodd" clip-rule="evenodd" d="M124.544 120.153C124.047 119.371 123.395 118.699 122.63 118.178C121.864 117.657 120.999 117.298 120.09 117.123C119.18 116.948 118.244 116.96 117.34 117.159C116.435 117.359 115.581 117.741 114.829 118.282L83.2055 141.045C81.6084 142.194 80.5113 143.91 80.1392 145.842C79.767 147.774 80.1479 149.775 81.2038 151.436C81.7004 152.218 82.3517 152.89 83.1176 153.411C83.8835 153.933 84.7478 154.292 85.6576 154.467C86.5674 154.642 87.5034 154.63 88.4081 154.43C89.3128 154.231 90.1672 153.848 90.9188 153.306L122.542 130.543C124.138 129.394 125.234 127.678 125.606 125.746C125.978 123.815 125.599 121.815 124.545 120.154L124.544 120.153Z" fill="#30B9CC"/>
<path fill-rule="evenodd" clip-rule="evenodd" d="M88.1516 102.531C87.9509 102.215 87.6877 101.944 87.3782 101.733C87.0688 101.523 86.7195 101.378 86.352 101.307C85.9845 101.237 85.6064 101.242 85.2409 101.323C84.8755 101.404 84.5305 101.559 84.2271 101.778L53.3107 124.032C52.6694 124.493 52.2288 125.182 52.079 125.957C51.9293 126.733 52.0819 127.536 52.5055 128.203C52.7059 128.518 52.9685 128.789 53.2773 128.999C53.5861 129.209 53.9346 129.354 54.3014 129.425C54.6681 129.496 55.0455 129.492 55.4105 129.412C55.7754 129.332 56.1201 129.178 56.4236 128.96L87.3463 106.702C87.9876 106.241 88.4283 105.552 88.5781 104.777C88.7279 104.002 88.5754 103.198 88.1519 102.532L88.1516 102.531ZM94.7299 112.884C94.5292 112.568 94.266 112.296 93.9566 112.086C93.6471 111.875 93.2979 111.73 92.9304 111.66C92.5628 111.589 92.1847 111.594 91.8193 111.675C91.4539 111.756 91.1089 111.911 90.8054 112.13L59.8889 134.385C59.2477 134.846 58.807 135.535 58.6573 136.31C58.5076 137.085 58.6601 137.889 59.0837 138.555C59.2841 138.871 59.5468 139.142 59.8556 139.352C60.1643 139.562 60.5128 139.707 60.8796 139.778C61.2464 139.849 61.6238 139.844 61.9887 139.764C62.3536 139.684 62.6983 139.531 63.0018 139.313L93.9243 117.054C94.5656 116.593 95.0064 115.905 95.1561 115.129C95.3059 114.354 95.1534 113.551 94.7299 112.884V112.884Z" fill="#ECF5F7"/>
<path d="M66.2657 105.694C72.1741 100.146 73.2344 91.6763 68.634 86.7773C64.0335 81.8784 55.5144 82.4048 49.606 87.9531C43.6977 93.5014 42.6374 101.971 47.2378 106.87C51.8383 111.769 60.3574 111.242 66.2657 105.694Z" fill="white"/>
<path fill-rule="evenodd" clip-rule="evenodd" d="M56.7077 102.921C54.9933 102.895 53.4478 102.142 52.5393 100.712C50.8923 98.1199 51.9675 94.2747 54.9459 92.1307C57.9243 89.9866 61.6904 90.3489 63.3371 92.9414C64.4023 94.6183 64.3153 96.8229 63.3319 98.7459C67.3696 97.3874 70.9826 98.0605 71.8935 100.569C72.9596 103.514 69.8899 107.884 65.048 110.318C60.2061 112.752 55.3946 112.342 54.3286 109.396C53.6635 107.524 54.6492 105.08 56.7077 102.921Z" fill="#B7D9DE"/>
<path fill-rule="evenodd" clip-rule="evenodd" d="M144.003 162.519C145.039 142.968 138.167 125.953 138.793 114.776C139.193 107.686 136.124 97.1626 147.776 95.4578C157.766 93.9963 170.113 96.6368 172.547 99.325C177.474 104.748 175.685 134.154 171.002 138.165C161.618 144.157 151.334 156.532 144.003 162.519Z" fill="#30B9CC"/>
<mask id="mask1_5_440" style="mask-type:luminance" maskUnits="userSpaceOnUse" x="138" y="95" width="38" height="68">
<path d="M144.003 162.519C145.039 142.968 138.167 125.953 138.793 114.776C139.193 107.686 136.124 97.1626 147.776 95.4578C157.766 93.9963 170.113 96.6368 172.547 99.325C177.474 104.748 175.685 134.154 171.002 138.165C161.618 144.157 151.334 156.532 144.003 162.519Z" fill="white"/>
</mask>
<g mask="url(#mask1_5_440)">
<path fill-rule="evenodd" clip-rule="evenodd" d="M164.207 110.068C163.396 111.151 162.936 112.491 162.555 113.774C161.548 117.081 161.509 120.381 161.969 123.784C162.418 127.144 163.308 130.625 162.702 134.024C162.243 136.539 160.893 138.618 159.574 140.753C156.26 146.123 154.305 147.886 149.818 151.867C147.267 154.123 142.291 163.397 143.044 167.006C143.562 169.523 147.54 167.08 149.036 166.31C153.093 164.219 156.72 161.28 160.679 158.984C166.329 155.698 172.683 152.86 176.915 147.689C182.536 140.816 183.211 130.422 181.05 122.089C180.024 118.122 178.216 113.97 174.648 111.695L164.207 110.068Z" fill="#3E3E3E"/>
</g>
<path fill-rule="evenodd" clip-rule="evenodd" d="M171.392 99.6791C178.109 102.514 191.785 141.103 183.923 148.292C176.062 155.481 124.231 142.817 124.231 142.817C122.746 143.41 119.039 144.177 117.343 143.24C114.791 141.824 116.362 138.661 115.559 137.05C114.531 134.979 107.184 139.64 107.48 135.628C107.664 133.255 119.575 131.927 123.301 133.43C124.634 133.966 125.018 135.398 125.018 135.398C125.018 135.398 161.934 138.817 165.778 136.118C170.531 132.774 158.617 120.716 160.471 107.087C161.612 98.7095 167.705 98.1192 171.392 99.6791Z" fill="#EDC0B4"/>
<path fill-rule="evenodd" clip-rule="evenodd" d="M149.363 95.1937C149.363 95.1937 153.302 92.2797 152.384 89.2121C152.149 88.4066 150.37 90.6764 148.767 89.6939C146.577 88.3426 146.049 80.5549 148.522 76.5031C150.057 73.9917 155.453 72.4854 157.213 74.1961C158.972 75.9068 159.666 83.1982 159.06 86.7686C158.102 92.4638 163.293 95.89 163.293 95.89C163.293 95.89 154.671 102.79 152.501 108.518C151.865 110.2 149.363 95.1937 149.363 95.1937Z" fill="#EDC0B4"/>
<mask id="mask2_5_440" style="mask-type:luminance" maskUnits="userSpaceOnUse" x="146" y="73" width="18" height="36">
<path d="M149.363 95.1937C149.363 95.1937 153.302 92.2797 152.384 89.2121C152.149 88.4066 150.37 90.6764 148.767 89.6939C146.577 88.3426 146.049 80.5549 148.522 76.5031C150.057 73.9917 155.453 72.4854 157.213 74.1961C158.972 75.9068 159.666 83.1982 159.06 86.7686C158.102 92.4638 163.293 95.89 163.293 95.89C163.293 95.89 154.671 102.79 152.501 108.518C151.865 110.2 149.363 95.1937 149.363 95.1937Z" fill="white"/>
</mask>
<g mask="url(#mask2_5_440)">
<path fill-rule="evenodd" clip-rule="evenodd" d="M151.356 89.6313C151.669 89.4622 151.923 89.1171 152.158 88.8591C152.697 88.2814 153.193 87.6656 153.643 87.0165C153.81 86.758 153.976 86.4944 154.162 86.2392C154.201 86.1747 154.308 85.9871 154.406 85.9871C154.504 85.9871 154.445 86.3097 154.435 86.3513C154.37 86.8027 154.265 87.2475 154.122 87.6807C153.585 89.4539 152.48 90.7814 151.297 92.1607L151.356 89.6313Z" fill="#3E3E3E"/>
</g>
<path fill-rule="evenodd" clip-rule="evenodd" d="M149.725 79.7935C148.991 79.7496 148.307 79.3214 147.74 78.8835C145.56 77.2041 145.707 74.2822 147.603 72.4405C148.747 71.3349 151.093 70.5969 152.188 72.1532C152.54 71.6547 153.273 71.4434 153.83 71.3134C154.282 71.1934 154.752 71.1523 155.218 71.1922C158.405 71.6214 157.662 75.6263 160.086 76.9069C160.878 76.3975 161.748 78.0623 161.905 78.5696C162.442 80.3341 162.208 83.3498 160.174 84.0536C159.998 84.5277 159.549 84.8611 159.148 85.1346C158.043 85.8942 156.264 86.4377 155.033 85.6528C154.884 85.557 154.75 85.4419 154.632 85.3106C153.752 84.3321 154.681 83.2168 154.974 82.2002C155.13 81.6644 155.257 80.9938 154.788 80.5726C154.407 80.2421 154.026 80.4298 153.723 80.7488C153.263 81.2347 153.009 82.0001 152.276 82.137C151.22 82.3325 150.194 81.3177 149.861 80.606C149.793 80.4553 149.725 79.7935 149.725 79.7935Z" fill="#3E3E3E"/>
<path fill-rule="evenodd" clip-rule="evenodd" d="M142.985 72.0255C142.985 71.6819 142.889 71.345 142.707 71.0533C142.526 70.7615 142.266 70.5264 141.958 70.3749L102.695 51.0655C102.414 50.9285 102.104 50.8651 101.792 50.8811C101.48 50.8971 101.177 50.9921 100.912 51.1571C100.647 51.3222 100.428 51.5519 100.276 51.8246C100.124 52.0974 100.044 52.4044 100.043 52.7166V59.2144C100.044 59.5578 100.14 59.8941 100.321 60.1857C100.503 60.4773 100.762 60.7125 101.069 60.865L140.34 80.178C140.62 80.3156 140.931 80.3794 141.243 80.3633C141.555 80.3472 141.858 80.2517 142.123 80.086C142.387 79.9202 142.605 79.6896 142.756 79.4161C142.907 79.1425 142.986 78.835 142.984 78.5226L142.985 72.0255Z" fill="#30B9CC"/>
<path fill-rule="evenodd" clip-rule="evenodd" d="M105.581 60.6873L104.746 59.7421L105.833 58.6376L103.911 57.1835L104.168 56.3648L106.09 57.8186L105.988 55.8141L106.982 56.2529L107.084 58.2573L108.943 58.4725L109.296 59.5608L107.437 59.3455L108.689 61.4827L107.913 61.7169L106.668 59.5817L105.581 60.6873ZM112.497 64.0845L111.662 63.1391L112.749 62.0346L110.827 60.5809L111.084 59.7621L113.006 61.2159L112.904 59.2115L113.898 59.6503L113.999 61.6546L115.858 61.8699L116.212 62.958L114.353 62.7429L115.605 64.8801L114.829 65.1142L113.584 62.9791L112.497 64.0845ZM119.907 67.3895L119.072 66.4443L120.159 65.3398L118.237 63.886L118.494 63.0673L120.416 64.5211L120.314 62.5167L121.308 62.9554L121.41 64.9599L123.269 65.175L123.622 66.2633L121.763 66.048L123.015 68.1853L122.239 68.4194L120.994 66.2842L119.907 67.3895ZM127.143 71.2878L126.308 70.3424L127.395 69.2379L125.473 67.7841L125.73 66.9655L127.652 68.4192L127.55 66.4149L128.544 66.8536L128.646 68.8579L130.505 69.0732L130.858 70.1614L128.999 69.9462L130.251 72.0833L129.475 72.3175L128.23 70.1824L127.143 71.2878ZM134.779 75.043L133.944 74.0977L135.031 72.9932L133.109 71.5395L133.366 70.7208L135.288 72.1746L135.186 70.1702L136.18 70.6089L136.281 72.6134L138.14 72.8285L138.494 73.9168L136.635 73.7015L137.887 75.8387L137.111 76.0729L135.866 73.9377L134.779 75.043Z" fill="white"/>
<path fill-rule="evenodd" clip-rule="evenodd" d="M118.3 71.9261C118.911 71.2329 122.58 69.5627 123.543 69.4287C125.079 69.2031 126.524 70.2091 125.992 71.6695C125.781 72.2314 121.134 73.5223 119.855 73.5682C119.332 73.5847 118.056 72.2008 118.3 71.9261Z" fill="#EDC0B4"/>
<path d="M98.1722 141.638C97.9056 141.836 97.6285 141.989 97.3407 142.098C97.0562 142.205 96.7924 142.259 96.5491 142.26L96.3295 141.511C96.5592 141.505 96.793 141.461 97.031 141.379C97.2722 141.295 97.4988 141.174 97.7107 141.016C97.942 140.845 98.0811 140.686 98.1282 140.542C98.1762 140.392 98.1596 140.262 98.0785 140.153C98.0094 140.06 97.9192 140.012 97.808 140.01C97.6968 140.008 97.5386 140.053 97.3333 140.146L96.7031 140.434C96.0008 140.756 95.4636 140.667 95.0916 140.166C94.9318 139.951 94.8502 139.72 94.8465 139.474C94.8406 139.224 94.9069 138.978 95.0457 138.735C95.1877 138.49 95.3952 138.267 95.6682 138.064C95.9026 137.89 96.1476 137.76 96.4032 137.675C96.6588 137.59 96.8994 137.558 97.1249 137.58L97.3159 138.29C96.8975 138.277 96.5005 138.41 96.1247 138.689C95.9224 138.839 95.7949 138.996 95.7421 139.16C95.6901 139.318 95.7106 139.46 95.8036 139.585C95.8728 139.678 95.9625 139.729 96.0729 139.736C96.1833 139.744 96.3351 139.704 96.5283 139.615L97.1585 139.326C97.8817 138.999 98.4197 139.072 98.7726 139.548C98.93 139.76 99.0105 139.989 99.0141 140.235C99.0186 140.476 98.9498 140.719 98.8078 140.964C98.6667 141.203 98.4548 141.428 98.1722 141.638ZM97.8174 137.44L97.3131 136.76L98.0983 136.177L98.6026 136.857L97.8174 137.44ZM99.9423 140.241L98.1861 137.876L98.9135 137.336L100.67 139.701L99.9423 140.241ZM103.051 139.36C102.823 139.529 102.592 139.664 102.357 139.764C102.125 139.861 101.897 139.913 101.673 139.92L101.503 139.277C101.691 139.262 101.88 139.216 102.072 139.138C102.269 139.061 102.44 138.969 102.585 138.862C102.996 138.557 103.06 138.215 102.779 137.836L102.579 137.566C102.605 137.736 102.577 137.909 102.494 138.085C102.41 138.262 102.287 138.411 102.123 138.532C101.911 138.69 101.691 138.779 101.462 138.799C101.23 138.816 101.006 138.769 100.788 138.657C100.57 138.544 100.373 138.37 100.196 138.132C100.022 137.897 99.9131 137.66 99.8687 137.419C99.8242 137.178 99.8449 136.951 99.9308 136.737C100.014 136.521 100.162 136.334 100.374 136.177C100.544 136.05 100.724 135.974 100.914 135.948C101.104 135.921 101.276 135.945 101.431 136.02L101.166 135.663L101.874 135.138L103.426 137.228C103.722 137.626 103.836 138.005 103.769 138.364C103.702 138.723 103.462 139.055 103.051 139.36ZM101.936 137.827C102.096 137.708 102.183 137.556 102.196 137.372C102.212 137.186 102.146 136.993 101.998 136.794C101.85 136.595 101.686 136.478 101.505 136.443C101.326 136.402 101.155 136.441 100.995 136.56C100.831 136.682 100.743 136.834 100.73 137.018C100.715 137.199 100.781 137.389 100.929 137.588C101.077 137.787 101.24 137.907 101.42 137.948C101.6 137.989 101.772 137.949 101.936 137.827ZM104.195 137.083L102.439 134.718L103.152 134.189L103.409 134.536C103.394 134.348 103.429 134.17 103.514 134.002C103.599 133.835 103.725 133.689 103.892 133.565C104.171 133.357 104.441 133.284 104.7 133.345C104.958 133.404 105.211 133.601 105.462 133.938L106.517 135.359L105.79 135.9L104.759 134.512C104.638 134.348 104.52 134.254 104.407 134.228C104.291 134.2 104.174 134.23 104.055 134.318C103.901 134.432 103.813 134.572 103.791 134.738C103.773 134.901 103.823 135.063 103.942 135.223L104.922 136.543L104.195 137.083ZM108.463 133.914L105.942 130.518L106.688 129.964L109.21 133.36L108.463 133.914ZM109.826 132.902L108.07 130.537L108.783 130.008L109.04 130.355C109.025 130.166 109.06 129.989 109.145 129.821C109.23 129.653 109.356 129.508 109.523 129.384C109.802 129.176 110.072 129.103 110.331 129.164C110.589 129.222 110.843 129.42 111.093 129.757L112.148 131.178L111.421 131.718L110.391 130.331C110.269 130.167 110.151 130.073 110.038 130.047C109.922 130.019 109.805 130.049 109.686 130.137C109.532 130.251 109.444 130.391 109.422 130.557C109.404 130.72 109.454 130.882 109.574 131.042L110.554 132.362L109.826 132.902Z" fill="white"/>
<mask id="mask3_5_440" style="mask-type:luminance" maskUnits="userSpaceOnUse" x="107" y="98" width="80" height="53">
<path d="M171.392 99.6791C178.109 102.514 191.785 141.103 183.923 148.292C176.062 155.481 124.231 142.817 124.231 142.817C122.746 143.41 119.039 144.177 117.343 143.24C114.791 141.824 116.362 138.661 115.559 137.05C114.531 134.979 107.184 139.64 107.48 135.628C107.664 133.255 119.575 131.927 123.301 133.43C124.634 133.966 125.018 135.398 125.018 135.398C125.018 135.398 161.934 138.817 165.778 136.118C170.531 132.774 158.617 120.716 160.471 107.087C161.612 98.7095 167.705 98.1192 171.392 99.6791Z" fill="white"/>
</mask>
<g mask="url(#mask3_5_440)">
<path fill-rule="evenodd" clip-rule="evenodd" d="M160.788 124.694C161.655 122.968 164.321 122.091 165.982 121.509C167.737 120.893 169.608 120.621 171.465 120.892C174.261 121.299 176.765 122.773 179.583 123.037C181.679 123.232 183.891 122.668 185.712 121.622C186.564 121.134 187.321 120.497 187.948 119.741C191.637 115.266 188.57 108.088 186.151 103.789C183.429 98.9511 179.148 94.4765 173.737 92.7452C165.346 90.0586 156.687 95.6031 153.834 103.537C152.722 106.68 152.384 110.045 152.85 113.347C153.388 117.271 154.887 121.119 157.539 124.092L160.788 124.694Z" fill="#30B9CC"/>
</g>
</svg>
