<svg width="188" height="142" viewBox="0 0 188 142" fill="none" xmlns="http://www.w3.org/2000/svg">
<g id="Frame" clip-path="url(#clip0_5_521)">
<g id="Group">
<path id="Vector" d="M188 129.067H0V129.18H188V129.067Z" fill="#E7FCFF"/>
<path id="Vector_2" d="M136.112 132.029H123.667V132.141H136.112V132.029Z" fill="#E7FCFF"/>
<path id="Vector_3" d="M165.778 132.066H150.325V132.179H165.778V132.066Z" fill="#E7FCFF"/>
<path id="Vector_4" d="M141.376 134.54H134.157V134.653H141.376V134.54Z" fill="#E7FCFF"/>
<path id="Vector_5" d="M84.8633 133.828H65.4241V133.94H84.8633V133.828Z" fill="#E7FCFF"/>
<path id="Vector_6" d="M62.0777 133.828H49.1433V133.94H62.0777V133.828Z" fill="#E7FCFF"/>
<path id="Vector_7" d="M41.3976 132.216H23.8008V132.328H41.3976V132.216Z" fill="#E7FCFF"/>
<path id="Vector_8" d="M89.1121 112.348H16.5065C15.3409 112.348 14.3633 111.373 14.3633 110.211V8.43454C14.3633 7.27245 15.3409 6.29779 16.5065 6.29779H89.1121C90.2777 6.29779 91.2553 7.27245 91.2553 8.43454V110.174C91.2553 111.373 90.3153 112.348 89.1121 112.348ZM16.5065 6.41025C15.3785 6.41025 14.4385 7.30993 14.4385 8.47203V110.211C14.4385 111.336 15.3409 112.273 16.5065 112.273H89.1121C90.2401 112.273 91.1801 111.373 91.1801 110.211V8.43454C91.1801 7.30993 90.2777 6.37276 89.1121 6.37276H16.5065V6.41025Z" fill="#E7FCFF"/>
<path id="Vector_9" d="M170.441 112.348H97.8351C96.6695 112.348 95.6919 111.373 95.6919 110.211V8.43454C95.6919 7.27245 96.6695 6.29779 97.8351 6.29779H170.441C171.606 6.29779 172.584 7.27245 172.584 8.43454V110.174C172.584 111.373 171.644 112.348 170.441 112.348ZM97.8351 6.41025C96.7071 6.41025 95.7671 7.30993 95.7671 8.47203V110.211C95.7671 111.336 96.6695 112.273 97.8351 112.273H170.441C171.569 112.273 172.509 111.373 172.509 110.211V8.43454C172.509 7.30993 171.606 6.37276 170.441 6.37276H97.8351V6.41025Z" fill="#E7FCFF"/>
</g>
<g id="Group_2">
<g id="Group_3">
<g id="Group_4">
<path id="Vector_10" d="M58.4615 0H20.0847C16.2187 0 13.0847 3.13401 13.0847 7.00001V94.8516C13.0847 98.7176 16.2187 101.852 20.0847 101.852H58.4615C62.3275 101.852 65.4615 98.7176 65.4615 94.8516V7C65.4615 3.13401 62.3275 0 58.4615 0Z" fill="#F5F5F5"/>
<path id="Vector_11" d="M38.3519 101.852H24.7031V41.0106L38.3519 36.5496V101.852Z" fill="#E7FCFF"/>
<path id="Vector_12" d="M49.7447 101.852H36.0959V55.593L49.7447 51.132V101.852Z" fill="#E0FBFF"/>
<path id="Vector_13" d="M48.1279 54.2809H44.8567V43.2598L48.1279 42.1727V54.2809Z" fill="#E0FBFF"/>
<path id="Vector_14" d="M120.094 0H67.7175V101.852H120.094V0Z" fill="#F5F5F5"/>
<path id="Vector_15" d="M83.0959 65.6769H67.7175V101.852H83.0959V65.6769Z" fill="#E0FBFF"/>
<path id="Vector_16" d="M167.915 0H129.538C125.672 0 122.538 3.13401 122.538 7.00001V94.8516C122.538 98.7176 125.672 101.852 129.538 101.852H167.915C171.781 101.852 174.915 98.7176 174.915 94.8516V7C174.915 3.13401 171.781 0 167.915 0Z" fill="#F5F5F5"/>
<path id="Vector_17" d="M163.522 101.852H152.393V28.6399L163.522 24.179V101.852Z" fill="#E7FCFF"/>
<path id="Vector_18" d="M174.915 101.852H161.266V55.593L174.915 51.132V101.852Z" fill="#E0FBFF"/>
<path id="Vector_19" d="M125.96 101.852H153.295V65.8643L125.96 62.4155V101.852Z" fill="#E0FBFF"/>
<path id="Vector_20" d="M173.298 54.2809H171.682V43.2598L173.298 42.1727V54.2809Z" fill="#E0FBFF"/>
<path id="Vector_21" d="M167.959 56.9425H166.342V45.9213L167.959 44.8342V56.9425Z" fill="#E0FBFF"/>
<path id="Vector_22" d="M27.4855 71.6373H21.2815C19.0255 71.6373 17.2207 73.4366 17.2207 75.6858V101.889H27.4855V71.6373Z" fill="#E7FCFF"/>
<path id="Vector_23" d="M65.4615 72.6869H51.8127V101.852H65.4615V72.6869Z" fill="#E7FCFF"/>
<path id="Vector_24" d="M96.7447 77.2228L83.0583 72.6869V101.852H96.7447V77.2228Z" fill="#E7FCFF"/>
<path id="Vector_25" d="M101.896 77.2228L88.2471 72.6869V101.852H101.896V77.2228Z" fill="#E0FBFF"/>
<path id="Vector_26" d="M101.896 72.5745L115.545 68.076V101.852H101.896V72.5745Z" fill="#F0F0F0"/>
</g>
<g id="Group_5">
<path id="Vector_27" opacity="0.5" d="M41.6984 101.852H27.5984L56.6256 0H70.688L41.6984 101.852Z" fill="white"/>
<path id="Vector_28" opacity="0.5" d="M83.848 101.852H69.7856L98.8128 0H112.875L83.848 101.852Z" fill="white"/>
<path id="Vector_29" opacity="0.5" d="M101.482 101.852H87.4199L116.41 0H130.51L101.482 101.852Z" fill="white"/>
<path id="Vector_30" opacity="0.5" d="M135.36 101.852H128.329L157.318 0H164.387L135.36 101.852Z" fill="white"/>
</g>
</g>
<g id="Group_6">
<path id="Vector_31" d="M41.6606 110.511C45.7214 88.8062 56.4374 78.6098 65.5366 73.4366C56.8134 81.6463 50.8726 110.136 41.6606 110.511Z" fill="#FAFAFA"/>
<path id="Vector_32" d="M32.7872 108.824C29.7792 92.4425 22.56 86.0697 16.4312 83.3332C22.3344 88.4689 26.6584 109.836 32.7872 108.824Z" fill="#FAFAFA"/>
<path id="Vector_33" d="M38.0136 113.173C36.848 89.631 27.8616 79.2846 19.7776 74.3364C27.1472 82.6584 29.2152 113.473 38.0136 113.173Z" fill="#FAFAFA"/>
<path id="Vector_34" d="M38.0137 111.148C39.8937 87.4943 49.9329 76.4356 58.8441 70.8126C50.6849 79.7345 47.5641 110.736 38.0137 111.148Z" fill="#FAFAFA"/>
<path id="Vector_35" d="M39.5175 114.822C42.5255 90.5306 35.8703 75.8733 29.1399 67.0639C34.5919 78.9472 31.1703 111.036 39.5175 114.822Z" fill="#FAFAFA"/>
<path id="Vector_36" d="M48.8799 107.437C56.4751 93.2672 66.0255 89.8934 73.3199 89.556C65.5743 92.2551 55.1967 110.586 48.8799 107.437Z" fill="#FAFAFA"/>
<path id="Vector_37" d="M47.3008 107.962C52.076 91.9177 61.1376 85.0951 68.5824 81.9462C61.2128 87.4567 54.4824 108.412 47.3008 107.962Z" fill="#FAFAFA"/>
<path id="Vector_38" d="M38.9158 114.897C47.1126 89.7434 43.3902 74.2239 38.3894 64.7772C41.435 77.3728 31.2078 110.624 38.9158 114.897Z" fill="#FAFAFA"/>
<path id="Vector_39" d="M25.0039 105.863V121.682C25.0039 125.731 32.3359 129.03 41.2847 129.03C50.2335 129.03 57.5655 125.731 57.5655 121.682V105.863H25.0039Z" fill="#F5F5F5"/>
</g>
<g id="Group_7">
<path id="Vector_40" d="M150.4 116.322C149.498 101.402 143.068 94.3918 137.278 90.8305C142.542 96.491 144.121 116.059 150.4 116.322Z" fill="#E0E0E0"/>
<path id="Vector_41" d="M156.642 115.159C160.101 103.913 165.628 99.4899 170.065 97.6156C165.59 101.177 160.778 115.872 156.642 115.159Z" fill="#E0E0E0"/>
<path id="Vector_42" d="M152.694 118.158C155.514 101.964 162.582 94.8791 168.561 91.4678C162.808 97.1658 158.672 118.346 152.694 118.158Z" fill="#E0E0E0"/>
<path id="Vector_43" d="M152.844 116.734C153.596 100.465 147.693 92.8548 142.09 88.9937C146.941 95.1415 146.339 116.471 152.844 116.734Z" fill="#E0E0E0"/>
<path id="Vector_44" d="M151.528 119.283C151.565 102.564 157.393 92.5174 162.77 86.4446C158.033 94.6167 157.544 116.659 151.528 119.283Z" fill="#E0E0E0"/>
<path id="Vector_45" d="M145.775 114.222C141.79 104.476 135.548 102.151 130.585 101.927C135.623 103.763 141.15 116.396 145.775 114.222Z" fill="#E0E0E0"/>
<path id="Vector_46" d="M146.79 114.597C144.91 103.576 139.27 98.8902 134.458 96.7159C139.045 100.465 141.827 114.897 146.79 114.597Z" fill="#E0E0E0"/>
<path id="Vector_47" d="M151.942 119.358C148.52 102.039 152.393 91.3928 156.642 84.9076C153.446 93.5296 157.582 116.397 151.942 119.358Z" fill="#E0E0E0"/>
<path id="Vector_48" d="M161.417 113.135V124.006C161.417 126.78 156.378 129.067 150.249 129.067C144.121 129.067 139.082 126.78 139.082 124.006V113.135H161.417Z" fill="#F5F5F5"/>
</g>
</g>
<g id="Group_8">
<g id="Group_9">
<g id="Group_10">
<path id="Vector_49" d="M100.392 34.0005V38.9488C100.392 39.661 99.7904 40.2608 99.076 40.2608H87.0064C86.292 40.2608 85.6904 39.661 85.6904 38.9488V21.1051C85.6904 20.3928 86.292 19.793 87.0064 19.793H99.076C99.7904 19.793 100.392 20.3928 100.392 21.1051V28.8648" fill="white"/>
<path id="Vector_50" d="M99.076 40.4483H87.0064C86.1792 40.4483 85.5024 39.7735 85.5024 38.9488V21.1051C85.5024 20.2804 86.1792 19.6056 87.0064 19.6056H99.076C99.9032 19.6056 100.58 20.2804 100.58 21.1051V28.8648H100.166V21.1051C100.166 20.5053 99.6776 19.9805 99.0384 19.9805H86.9688C86.3672 19.9805 85.8408 20.4678 85.8408 21.1051V38.9488C85.8408 39.5486 86.3296 40.0734 86.9688 40.0734H99.0384C99.64 40.0734 100.166 39.5861 100.166 38.9488V34.0005H100.58V38.9488C100.58 39.7735 99.9032 40.4483 99.076 40.4483Z" fill="#30B9CC"/>
</g>
<path id="Vector_51" d="M92.12 37.7867C92.3832 37.6367 92.6088 37.4868 92.872 37.3743C92.9848 37.2994 93.1352 37.2619 93.248 37.2244C93.3984 37.1869 93.5488 37.1119 93.6992 37.1119C93.6616 37.0744 93.5864 37.037 93.5488 37.037C93.5112 36.9995 93.5112 37.1119 93.5112 37.1119C93.5112 37.1494 93.4736 37.1869 93.4736 37.2619C93.436 37.3743 93.3984 37.4493 93.3608 37.5618C93.3232 37.7117 93.436 37.8617 93.624 37.8617C94.0376 37.8617 94.376 37.5993 94.7144 37.4118C94.6768 37.4118 94.6392 37.4118 94.564 37.4118C94.6016 37.4118 94.6392 37.4493 94.6768 37.4868C94.752 37.5243 94.7896 37.5243 94.8648 37.5243C95.0152 37.5243 95.1656 37.4868 95.316 37.5243C95.5416 37.5618 95.5416 37.1869 95.316 37.1869C95.1656 37.1869 95.0152 37.2244 94.8648 37.1869C94.7144 37.1494 94.6768 37.0369 94.5264 37.1119C94.376 37.1869 94.2256 37.2619 94.0752 37.3368C94 37.3743 93.9248 37.3743 93.8496 37.4118C93.812 37.4118 93.7744 37.4493 93.6992 37.4493C93.6616 37.4493 93.5864 37.4493 93.624 37.5243C93.624 37.5618 93.6616 37.5993 93.6616 37.6367C93.6616 37.4118 93.9248 37.1869 93.8496 36.9245C93.7744 36.6621 93.4736 36.7745 93.2856 36.812C92.7968 36.962 92.308 37.1869 91.8568 37.4493C91.744 37.5993 91.932 37.8991 92.12 37.7867Z" fill="#E0E0E0"/>
<path id="Vector_52" d="M98.9631 22.4546H87.0815V22.8669H98.9631V22.4546Z" fill="#E0E0E0"/>
<path id="Vector_53" d="M97.6471 25.2661H87.0815V25.6785H97.6471V25.2661Z" fill="#E0E0E0"/>
<path id="Vector_54" d="M98.9631 28.0776H87.0815V28.49H98.9631V28.0776Z" fill="#E0E0E0"/>
<path id="Vector_55" d="M90.3527 30.8516H87.0815V31.264H90.3527V30.8516Z" fill="#E0E0E0"/>
<path id="Vector_56" d="M96.0681 30.8516H91.7065V31.264H96.0681V30.8516Z" fill="#E0E0E0"/>
<path id="Vector_57" d="M98.9631 33.6631H87.0815V34.0755H98.9631V33.6631Z" fill="#E0E0E0"/>
<path id="Vector_58" d="M88.6984 38.6489C87.6832 38.6489 86.856 37.8242 86.856 36.812C86.856 35.7999 87.6832 34.9752 88.6984 34.9752C89.7136 34.9752 90.5408 35.7999 90.5408 36.812C90.5408 37.8242 89.7136 38.6489 88.6984 38.6489ZM88.6984 35.3875C87.9088 35.3875 87.2696 36.0248 87.2696 36.812C87.2696 37.5992 87.9088 38.2365 88.6984 38.2365C89.488 38.2365 90.1272 37.5992 90.1272 36.812C90.1272 36.0248 89.488 35.3875 88.6984 35.3875Z" fill="#30B9CC"/>
<path id="Vector_59" d="M88.6986 37.8991C89.3008 37.8991 89.789 37.4124 89.789 36.812C89.789 36.2116 89.3008 35.7249 88.6986 35.7249C88.0963 35.7249 87.6082 36.2116 87.6082 36.812C87.6082 37.4124 88.0963 37.8991 88.6986 37.8991Z" fill="#30B9CC"/>
<path id="Vector_60" d="M95.9177 36.4747C95.9929 35.9124 96.1809 35.4625 96.4441 35.0502C96.7073 34.6378 97.0457 34.3004 97.3465 33.8881C97.9481 33.1384 98.5873 32.3886 99.2265 31.6389C100.505 30.1769 101.783 28.7149 103.212 27.3279C103.287 27.2529 103.4 27.2529 103.475 27.3279C103.551 27.4029 103.551 27.4778 103.513 27.5528C102.498 29.2397 101.37 30.8142 100.204 32.3886C99.6401 33.1758 99.0385 33.9631 98.4369 34.7128C98.1361 35.0877 97.8729 35.5 97.5345 35.8374C97.1961 36.1748 96.7825 36.4747 96.2561 36.6996C96.1433 36.7371 95.9929 36.6621 95.9553 36.5497C95.9177 36.5497 95.9177 36.5122 95.9177 36.4747Z" fill="#30B9CC"/>
</g>
<g id="Group_11">
<path id="Vector_61" d="M97.1522 50.0893L96.8804 49.7785L94.4149 51.9219L94.6867 52.2327L97.1522 50.0893Z" fill="#30B9CC"/>
<path id="Vector_62" d="M94.366 46.5518L93.9624 46.4616L92.9181 51.1072L93.3217 51.1974L94.366 46.5518Z" fill="#30B9CC"/>
<path id="Vector_63" d="M91.6086 51.4533L90.2463 50.0032L89.9444 50.2851L91.3067 51.7352L91.6086 51.4533Z" fill="#30B9CC"/>
</g>
</g>
<g id="Group_12">
<path id="Vector_64" d="M119.229 138.739H116.033L115.62 131.354H118.816L119.229 138.739Z" fill="#EDC0B4"/>
<path id="Vector_65" d="M135.36 138.739H132.164L130.885 131.354H134.081L135.36 138.739Z" fill="#EDC0B4"/>
<path id="Vector_66" d="M131.938 138.401H135.548C135.661 138.401 135.774 138.476 135.811 138.626L136.3 141.475C136.338 141.775 136.112 142.038 135.811 142.038C134.57 142 133.969 141.925 132.39 141.925C131.412 141.925 128.78 142.038 127.464 142.038C126.148 142.038 125.998 140.725 126.562 140.613C129.043 140.088 130.622 139.338 131.45 138.626C131.562 138.439 131.75 138.401 131.938 138.401Z" fill="#102B6E"/>
<path id="Vector_67" d="M115.921 138.401H119.417C119.53 138.401 119.643 138.476 119.681 138.626L120.169 141.475C120.207 141.775 119.981 142.038 119.681 142.038C118.44 142 116.597 141.925 115.018 141.925C113.176 141.925 112.687 142.038 110.544 142.038C109.228 142.038 108.927 140.725 109.491 140.613C112.01 140.051 112.913 140.013 115.169 138.664C115.394 138.476 115.657 138.401 115.921 138.401Z" fill="#102B6E"/>
<path id="Vector_68" d="M115.846 39.4736L111.484 38.1991C111.484 38.1991 107.047 48.7329 105.543 49.4451C103.475 50.3823 98.0232 53.2688 95.692 54.6183C95.5416 55.1431 95.5416 56.5676 95.7672 56.98C99.5648 56.6801 107.348 54.0935 108.852 52.669C112.236 49.4076 115.846 39.4736 115.846 39.4736Z" fill="#EDC0B4"/>
<path id="Vector_69" d="M117.162 37.4868C118.402 40.2609 109.867 52.3316 109.867 52.3316L105.731 48.0581C105.731 48.0581 109.378 38.9113 111.371 35.3876C113.402 31.7514 115.808 34.4504 117.162 37.4868Z" fill="#30B9CC"/>
<path id="Vector_70" opacity="0.4" d="M117.162 37.4868C118.402 40.2609 109.867 52.3316 109.867 52.3316L105.731 48.0581C105.731 48.0581 109.378 38.9113 111.371 35.3876C113.402 31.7514 115.808 34.4504 117.162 37.4868Z" fill="white"/>
<path id="Vector_71" d="M105.43 47.6832C105.167 47.8332 104.603 48.8453 104.49 49.3326C104.377 49.82 107.273 53.7186 108.401 53.5686C109.529 53.4187 110.807 52.3316 111.07 51.7318C111.296 51.132 105.994 47.3458 105.43 47.6832Z" fill="#30B9CC"/>
<path id="Vector_72" d="M96.1432 54.3559L93.4736 53.8685L93.624 57.6172C93.624 57.6172 94.564 57.9921 96.5568 56.755L96.1432 54.3559Z" fill="#EDC0B4"/>
<path id="Vector_73" d="M90.3528 55.1431L90.804 57.4298L93.6616 57.6547L93.5112 53.8685L90.3528 55.1431Z" fill="#EDC0B4"/>
<g id="Group_13">
<path id="Vector_74" opacity="0.2" d="M115.62 131.391L115.808 135.177H119.041L118.816 131.391H115.62Z" fill="#224145"/>
<path id="Vector_75" opacity="0.2" d="M134.081 131.391H130.885L131.525 135.177H134.721L134.081 131.391Z" fill="#224145"/>
</g>
<path id="Vector_76" d="M113.101 33.7007C113.101 33.7007 108.852 44.6468 111.559 62.603C116.71 62.603 126.148 62.603 128.667 62.603C128.893 59.9789 127.915 45.8839 131.036 33.5507C131.036 33.5507 128.141 32.9509 125.358 32.8385C123.177 32.726 120.019 32.651 118.101 32.8385C115.507 33.0634 113.101 33.7007 113.101 33.7007Z" fill="#30B9CC"/>
<path id="Vector_77" opacity="0.2" d="M113.101 33.7007C113.101 33.7007 108.852 44.6468 111.559 62.603C116.71 62.603 126.148 62.603 128.667 62.603C128.893 59.9789 127.915 45.8839 131.036 33.5507C131.036 33.5507 128.141 32.9509 125.358 32.8385C123.177 32.726 120.019 32.651 118.101 32.8385C115.507 33.0634 113.101 33.7007 113.101 33.7007Z" fill="#224145"/>
<path id="Vector_78" opacity="0.2" d="M127.163 36.5872C126.787 38.6115 127.201 43.4847 128.855 49.0703C129.081 44.7593 129.57 39.7361 130.735 34.7503V34.7128C129.607 34.6379 127.502 34.6753 127.163 36.5872Z" fill="#224145"/>
<path id="Vector_79" d="M124.682 26.0533C124.118 28.3775 123.742 31.264 125.321 32.8385C125.321 32.8385 124.268 35.2001 119.906 35.2001C115.921 35.2001 118.026 32.8385 118.026 32.8385C120.658 32.2012 120.696 29.0148 120.32 27.1779L124.682 26.0533Z" fill="#EDC0B4"/>
<path id="Vector_80" d="M119.944 35.2001C122.501 35.9873 123.027 36.812 123.027 36.812C123.027 36.812 126.223 35.5375 126.11 32.726C126.11 32.726 125.546 32.2761 124.87 32.0137C124.832 31.9763 124.569 34.0755 119.944 35.2001Z" fill="#30B9CC"/>
<path id="Vector_81" d="M119.944 35.2001C118.515 35.3501 117.312 36.5496 117.312 36.5496C117.312 36.5496 116.41 35.6125 117.275 32.8385C117.275 32.8385 118.139 32.5386 118.854 32.3886C118.816 32.3886 118.252 34.6003 119.944 35.2001Z" fill="#30B9CC"/>
<path id="Vector_82" opacity="0.2" d="M120.358 27.178C120.583 28.2276 120.658 29.802 120.17 31.0016C120.546 30.9266 120.959 30.8142 121.335 30.6267C122.839 29.952 123.629 28.8649 124.456 27.2154C124.531 26.8031 124.606 26.3907 124.719 26.0159L120.358 27.178Z" fill="#224145"/>
<path id="Vector_83" d="M119.831 18.5935C118.816 18.9308 116.522 20.8802 118.703 21.8548C120.846 22.867 121.598 17.9937 119.831 18.5935Z" fill="#102B6E"/>
<path id="Vector_84" d="M126.75 23.2043C125.772 26.2783 125.321 28.0776 123.366 29.3522C120.433 31.2265 117.011 29.0148 117.086 25.7534C117.162 22.8295 118.778 18.3311 122.087 17.7313C125.358 17.1315 127.727 20.1304 126.75 23.2043Z" fill="#EDC0B4"/>
<path id="Vector_85" d="M121.937 19.8305C120.245 20.1304 118.816 20.018 118.327 18.631C117.801 17.244 120.132 15.7445 121.749 16.4192C122.952 15.1822 126.148 16.1194 126.599 17.3189C128.479 17.2065 130.246 19.3432 128.968 20.4678C129.946 21.0301 130.622 22.7545 129.344 23.9541C129.908 25.566 127.915 27.2154 126.336 26.5407C124.794 26.0908 123.967 26.4657 123.742 25.4536C123.554 24.5164 124.08 23.5043 125.358 23.3168C124.682 22.5296 124.531 21.2925 124.982 20.7677C123.441 21.48 122.125 20.5803 121.937 19.8305Z" fill="#102B6E"/>
<path id="Vector_86" d="M119.906 26.4282C120.921 26.5032 121.561 25.9409 121.561 25.9034C121.598 25.8659 121.598 25.8284 121.561 25.7909C121.523 25.7534 121.485 25.7534 121.448 25.7909C121.448 25.7909 120.733 26.4657 119.605 26.2408C119.568 26.2408 119.53 26.2408 119.53 26.3157C119.53 26.3532 119.53 26.3907 119.605 26.3907C119.718 26.4282 119.793 26.4282 119.906 26.4282Z" fill="#102B6E"/>
<path id="Vector_87" d="M126.9 27.4029C126.223 27.9277 125.358 28.1151 124.644 28.0401C123.591 27.9277 123.516 26.878 124.193 26.1283C124.794 25.4161 126.035 24.6288 126.938 25.1536C127.802 25.641 127.69 26.8031 126.9 27.4029Z" fill="#EDC0B4"/>
<path id="Vector_88" d="M122.802 62.603C122.802 62.603 122.35 66.6141 121.824 72.0497C121.185 78.1975 120.395 86.2197 119.906 92.2925C119.906 92.33 119.906 92.3675 119.906 92.3675C119.794 93.5296 119.718 94.6167 119.643 95.5914C118.929 105.525 120.207 134.428 120.207 134.428H114.793C114.793 134.428 109.792 104.926 109.905 94.8041C110.018 85.0951 111.559 62.5655 111.559 62.5655H122.802V62.603Z" fill="#464D56"/>
<path id="Vector_89" d="M120.621 132.328C120.658 132.328 120.508 134.54 120.508 134.54H114.266L114.116 132.104L120.621 132.328Z" fill="#102B6E"/>
<path id="Vector_90" opacity="0.2" d="M121.786 72.0497C121.147 78.1975 120.358 86.2197 119.869 92.2925C119.869 92.33 119.869 92.3675 119.869 92.3675C118.666 86.5945 118.29 79.3971 118.778 67.5887L121.786 72.0497Z" fill="#224145"/>
<path id="Vector_91" d="M117.613 62.603C117.613 62.603 120.094 85.6574 121.674 94.7666C123.366 104.776 130.096 134.465 130.096 134.465H135.962C135.962 134.465 132.014 105.6 131.224 95.7038C130.397 84.9451 128.667 62.6405 128.667 62.6405H117.613V62.603Z" fill="#464D56"/>
<path id="Vector_92" d="M136.037 132.478C136.074 132.478 136.225 134.578 136.225 134.578H129.795L129.344 132.253L136.037 132.478Z" fill="#102B6E"/>
<path id="Vector_93" d="M121.411 23.0544C121.335 23.3168 121.147 23.4667 120.997 23.4292C120.846 23.3918 120.771 23.1668 120.809 22.9044C120.884 22.642 121.072 22.4921 121.223 22.5296C121.411 22.5671 121.486 22.792 121.411 23.0544Z" fill="#102B6E"/>
<path id="Vector_94" d="M118.59 22.4546C118.515 22.7171 118.327 22.867 118.177 22.8295C118.026 22.792 117.951 22.5671 117.989 22.3047C118.064 22.0423 118.252 21.8923 118.402 21.9298C118.59 21.9673 118.666 22.1922 118.59 22.4546Z" fill="#102B6E"/>
<path id="Vector_95" d="M119.906 22.7545C119.906 22.7545 118.966 24.104 118.139 24.6663C118.478 25.1912 119.267 25.1537 119.267 25.1537L119.906 22.7545Z" fill="#EDC0B4"/>
<path id="Vector_96" d="M122.952 22.3047C122.914 22.3047 122.877 22.2672 122.839 22.2297C122.576 21.6299 122.05 21.5174 122.05 21.5174C121.974 21.5174 121.899 21.4425 121.937 21.33C121.937 21.255 122.05 21.1801 122.125 21.2176C122.162 21.2176 122.839 21.33 123.14 22.0797C123.178 22.1547 123.14 22.2297 123.065 22.2672C123.027 22.3047 122.99 22.3422 122.952 22.3047Z" fill="#102B6E"/>
<path id="Vector_97" d="M118.064 21.1426C118.026 21.1426 118.026 21.1426 117.989 21.1051C117.914 21.0676 117.914 20.9552 117.989 20.8802C118.59 20.2429 119.267 20.3554 119.305 20.3554C119.38 20.3554 119.455 20.4303 119.418 20.5428C119.418 20.6178 119.305 20.6928 119.23 20.6553C119.192 20.6553 118.666 20.5803 118.214 21.0676C118.177 21.1426 118.102 21.1801 118.064 21.1426Z" fill="#102B6E"/>
<path id="Vector_98" d="M132.916 37.8992L128.893 40.3358C128.893 40.3358 133.405 50.0824 133.367 51.7318C133.292 54.8057 134.608 61.4409 134.27 64.9272C134.758 65.1146 136.15 65.1521 136.601 64.8897C137.39 61.7408 138.518 53.4187 138.18 51.3569C137.466 46.821 132.916 37.8992 132.916 37.8992Z" fill="#EDC0B4"/>
<path id="Vector_99" d="M130.998 33.5507C134.006 34.0006 138.293 49.2202 138.293 49.2202L132.728 51.3195C132.728 51.3195 127.877 43.0724 126.674 39.3612C125.433 35.4626 127.802 33.0634 130.998 33.5507Z" fill="#30B9CC"/>
<path id="Vector_100" opacity="0.4" d="M130.998 33.5507C134.006 34.0006 138.293 49.2202 138.293 49.2202L132.728 51.3195C132.728 51.3195 127.877 43.0724 126.674 39.3612C125.433 35.4626 127.802 33.0634 130.998 33.5507Z" fill="white"/>
<path id="Vector_101" d="M130.848 138.926C130.622 138.926 130.397 138.889 130.246 138.776C130.134 138.664 130.096 138.551 130.096 138.364C130.096 138.251 130.171 138.176 130.246 138.139C130.622 137.951 131.6 138.589 131.713 138.664C131.75 138.664 131.75 138.701 131.75 138.739C131.75 138.776 131.713 138.776 131.675 138.814C131.487 138.889 131.149 138.926 130.848 138.926ZM130.397 138.289C130.359 138.289 130.322 138.289 130.284 138.326C130.246 138.326 130.246 138.364 130.246 138.401C130.246 138.514 130.246 138.626 130.322 138.664C130.472 138.814 130.923 138.814 131.45 138.739C131.111 138.514 130.66 138.289 130.397 138.289Z" fill="#30B9CC"/>
<path id="Vector_102" d="M131.675 138.814C131.299 138.626 130.698 137.914 130.81 137.577C130.81 137.502 130.886 137.389 131.074 137.389C131.186 137.389 131.299 137.389 131.374 137.502C131.713 137.802 131.75 138.739 131.75 138.776C131.75 138.814 131.75 138.814 131.713 138.851C131.713 138.814 131.675 138.814 131.675 138.814ZM131.111 137.539C131.074 137.539 131.074 137.539 131.111 137.539C130.961 137.539 130.961 137.614 130.961 137.614C130.923 137.839 131.299 138.364 131.6 138.589C131.562 138.326 131.487 137.802 131.262 137.577C131.224 137.577 131.149 137.539 131.111 137.539Z" fill="#30B9CC"/>
<path id="Vector_103" d="M114.567 138.926C114.266 138.926 113.966 138.889 113.815 138.739C113.702 138.664 113.665 138.514 113.702 138.364C113.702 138.289 113.778 138.214 113.853 138.176C114.266 137.951 115.507 138.626 115.658 138.701C115.695 138.701 115.695 138.739 115.695 138.776C115.695 138.814 115.658 138.851 115.62 138.851C115.319 138.889 114.943 138.926 114.567 138.926ZM114.041 138.289C113.966 138.289 113.928 138.289 113.89 138.326C113.853 138.326 113.853 138.364 113.853 138.401C113.853 138.514 113.853 138.589 113.928 138.626C114.116 138.814 114.642 138.814 115.357 138.701C114.906 138.514 114.342 138.289 114.041 138.289Z" fill="#30B9CC"/>
<path id="Vector_104" d="M115.582 138.814C115.545 138.814 115.545 138.814 115.582 138.814C115.169 138.626 114.454 137.951 114.53 137.577C114.53 137.502 114.605 137.389 114.83 137.352C114.981 137.314 115.131 137.389 115.244 137.464C115.62 137.801 115.695 138.664 115.695 138.701C115.695 138.739 115.695 138.739 115.658 138.776C115.62 138.814 115.582 138.814 115.582 138.814ZM114.868 137.539H114.83C114.68 137.539 114.68 137.614 114.68 137.614C114.642 137.839 115.131 138.364 115.507 138.626C115.47 138.364 115.394 137.876 115.131 137.652C115.018 137.577 114.943 137.539 114.868 137.539Z" fill="#30B9CC"/>
<path id="Vector_105" d="M134.42 64.3649L133.179 66.764L136.789 66.914C136.789 66.914 137.729 65.2646 136.338 63.6901L134.42 64.3649Z" fill="#EDC0B4"/>
<path id="Vector_106" d="M134.57 68.6009L136.714 68.301L136.789 66.914L133.179 66.764L133.217 67.5513C133.292 68.1885 133.894 68.6759 134.57 68.6009Z" fill="#EDC0B4"/>
<path id="Vector_107" d="M131.901 50.4198C131.863 50.7197 132.239 51.8068 132.54 52.2192C132.841 52.6315 137.691 53.0064 138.293 52.0692C138.932 51.132 138.932 49.4076 138.631 48.8453C138.368 48.283 132.014 49.82 131.901 50.4198Z" fill="#30B9CC"/>
</g>
<g id="Group_14">
<path id="Vector_108" d="M61.0623 38.7239C60.4607 39.5111 59.7839 40.3733 59.1823 41.2355C58.5807 42.0977 57.9791 42.9599 57.4151 43.8221C56.2871 45.5465 55.2343 47.3459 54.4823 49.1452C54.4071 49.3702 54.2943 49.5951 54.2191 49.82C54.1815 49.9324 54.1439 50.0449 54.1063 50.1574L54.0687 50.3073L54.0311 50.3823V50.4198C53.9935 50.5322 53.9559 50.9071 53.9935 51.282C54.0687 52.1067 54.3319 53.0813 54.6703 54.056C55.3095 56.0053 56.1743 57.9921 57.0391 59.9414L55.1215 61.141C53.6927 59.3416 52.4519 57.5048 51.3991 55.4055C50.8727 54.3559 50.4215 53.2688 50.1207 51.9193C49.9703 51.2445 49.8575 50.4948 50.0455 49.5576L50.0831 49.3701L50.1207 49.2577L50.1583 49.0328C50.1959 48.8828 50.2335 48.7329 50.2711 48.5829C50.3463 48.283 50.4591 47.9831 50.5343 47.6832C51.3239 45.3591 52.4143 43.3348 53.5799 41.3855C54.1815 40.4108 54.7831 39.4736 55.4599 38.5365C56.1367 37.5993 56.7759 36.7371 57.5279 35.7999L61.0623 38.7239Z" fill="#3E3E3E"/>
<path id="Vector_109" d="M56.4752 59.2667L58.468 60.3163L56.1744 62.9779C56.1744 62.9779 54.7456 62.0032 54.708 60.5412L56.4752 59.2667Z" fill="#FFC3BD"/>
<path id="Vector_110" d="M61.1375 61.9282L58.6935 63.8775L56.1743 62.9404L58.4679 60.3163L61.1375 61.9282Z" fill="#FFC3BD"/>
<path id="Vector_111" d="M90.691 53.5687L93.0222 54.7682L92.8342 55.593L90.9542 57.4673C90.9542 57.4673 89.6006 56.4177 89.6382 54.9557L90.691 53.5687Z" fill="#FFC3BD"/>
<path id="Vector_112" d="M91.0295 53.8686L93.1727 53.4937L94.5263 54.056L93.6239 54.206L93.0223 54.7683L91.0295 53.8686Z" fill="#FFC3BD"/>
<path id="Vector_113" d="M95.3535 57.7297L93.0223 58.217C92.7967 58.2545 92.5335 58.2545 92.3079 58.1421L90.9167 57.4673L92.7967 55.5929L94.0375 55.2181L95.5791 56.98C95.8423 57.2424 95.6919 57.6922 95.3535 57.7297Z" fill="#FFC3BD"/>
<path id="Vector_114" d="M69.8177 23.0537C69.6549 23.0867 69.5631 23.3108 69.6128 23.5543C69.6624 23.7978 69.8346 23.9684 69.9975 23.9354C70.1603 23.9024 70.252 23.6783 70.2024 23.4348C70.1527 23.1914 69.9805 23.0207 69.8177 23.0537Z" fill="#3E3E3E"/>
<path id="Vector_115" d="M69.823 23.9541C69.823 23.9541 70.6878 25.3036 71.4774 25.8659C71.1014 26.3533 70.3118 26.3533 70.3118 26.3533L69.823 23.9541Z" fill="#30B9CC"/>
<path id="Vector_116" d="M68.4319 22.3421C68.3943 22.3421 68.3567 22.3421 68.3191 22.3047C68.2439 22.2297 68.2439 22.1547 68.3191 22.0797C68.8831 21.48 69.5599 21.5924 69.5975 21.5924C69.6727 21.5924 69.7479 21.6674 69.7103 21.7798C69.7103 21.8548 69.6351 21.9298 69.5223 21.8923C69.4847 21.8923 68.9583 21.8173 68.5071 22.3047C68.5071 22.3047 68.4695 22.3421 68.4319 22.3421Z" fill="#3E3E3E"/>
<path id="Vector_117" d="M62.7918 27.9652C63.243 30.1769 63.5062 33.2508 61.927 34.7128C61.927 34.7128 62.5286 36.962 66.6646 36.962C71.2142 36.962 68.8454 34.9752 68.8454 34.9752C66.9654 34.3755 66.9654 32.2387 67.4166 30.5518L62.7918 27.9652Z" fill="#FFC3BD"/>
<path id="Vector_118" d="M61.2879 36.2498C60.9119 35.65 61.0247 33.8506 61.4759 33.5507C62.1903 33.0634 65.1607 33.1384 69.1087 34.3005C68.5823 36.0249 69.4471 36.9995 69.4471 36.9995L61.2879 36.2498Z" fill="#30B9CC"/>
<path id="Vector_119" opacity="0.2" d="M57.9792 39.4362C56.588 40.8232 56.1744 43.6722 56.3248 45.584C56.6632 44.9842 57.0392 44.4219 57.4152 43.8221C57.9792 42.9599 58.5808 42.0977 59.1824 41.2355C59.3704 41.0106 59.5208 40.7482 59.7088 40.5233C59.7464 40.3733 59.784 40.2234 59.8216 40.0734L57.9792 39.4362Z" fill="#0F3970"/>
<path id="Vector_120" d="M47.9776 138.251C48.2784 138.326 48.5792 138.326 48.7296 138.214C48.8048 138.176 48.8424 138.064 48.8048 137.876C48.7672 137.764 48.7296 137.727 48.6168 137.652C48.2032 137.464 47.2632 137.839 47.2256 137.839C47.188 137.839 47.188 137.876 47.188 137.914C47.188 137.951 47.188 137.951 47.2256 137.989C47.376 138.064 47.6768 138.176 47.9776 138.251ZM48.504 137.764C48.5416 137.764 48.5792 137.764 48.5792 137.801C48.6544 137.839 48.6544 137.876 48.692 137.914C48.7296 138.026 48.692 138.101 48.6544 138.101C48.504 138.251 47.9024 138.101 47.4512 137.951C47.752 137.839 48.2032 137.727 48.504 137.764Z" fill="#30B9CC"/>
<path id="Vector_121" d="M47.263 138.026C47.639 137.914 48.391 137.389 48.391 137.052C48.391 136.977 48.3534 136.864 48.203 136.827C48.0902 136.789 47.9774 136.789 47.9022 136.864C47.4886 137.089 47.2254 137.914 47.2254 137.951C47.1878 137.951 47.1878 137.989 47.263 138.026C47.2254 138.026 47.2254 137.989 47.263 138.026ZM48.1278 136.939C48.2406 136.977 48.2406 137.014 48.2406 137.052C48.2406 137.239 47.7518 137.652 47.4134 137.839C47.4886 137.614 47.7142 137.127 47.9774 136.977C48.015 136.939 48.0526 136.939 48.1278 136.939Z" fill="#30B9CC"/>
<path id="Vector_122" d="M70.387 138.776C70.763 138.776 71.139 138.739 71.2894 138.551C71.327 138.476 71.3646 138.401 71.2894 138.251C71.2518 138.176 71.1766 138.101 71.0638 138.101C70.575 137.951 69.4846 138.551 69.447 138.589C69.4094 138.589 69.4094 138.626 69.4094 138.664C69.4094 138.701 69.447 138.701 69.4846 138.739C69.635 138.739 70.011 138.776 70.387 138.776ZM70.8758 138.176C70.9134 138.176 70.9886 138.176 71.0262 138.176C71.1014 138.176 71.139 138.214 71.1766 138.289C71.2142 138.364 71.2142 138.439 71.1766 138.439C71.0262 138.626 70.2742 138.626 69.7102 138.551C69.9734 138.439 70.4998 138.176 70.8758 138.176Z" fill="#30B9CC"/>
<path id="Vector_123" d="M69.4846 138.701C69.8982 138.514 70.6126 137.876 70.5374 137.539C70.5374 137.464 70.4622 137.352 70.2742 137.352C70.1238 137.352 70.011 137.389 69.8606 137.464C69.4846 137.764 69.4094 138.589 69.3718 138.626C69.3718 138.664 69.3718 138.664 69.4094 138.701C69.447 138.664 69.447 138.701 69.4846 138.701ZM70.199 137.464H70.2366C70.3494 137.464 70.387 137.539 70.387 137.539C70.4246 137.727 69.9358 138.251 69.5598 138.476C69.5974 138.251 69.7102 137.764 69.9734 137.539C70.0486 137.502 70.1238 137.464 70.199 137.464Z" fill="#30B9CC"/>
<path id="Vector_124" d="M66.1382 138.626H69.1838L69.4846 131.616H66.439L66.1382 138.626Z" fill="#FFC3BD"/>
<path id="Vector_125" d="M43.9167 137.314L46.8495 137.951L49.5191 131.241L46.5863 130.604L43.9167 137.314Z" fill="#FFC3BD"/>
<path id="Vector_126" d="M47.1127 137.539L43.7663 136.827C43.6535 136.789 43.5407 136.864 43.4655 136.977L42.2999 139.488C42.1871 139.751 42.3375 140.051 42.6383 140.126C43.8039 140.351 44.3679 140.426 45.8343 140.726C46.7367 140.913 48.7671 141.4 50.0079 141.7C51.2111 141.963 51.6623 140.763 51.2111 140.538C49.0303 139.563 48.1279 138.664 47.5263 137.877C47.4511 137.689 47.3007 137.577 47.1127 137.539Z" fill="#3E3E3E"/>
<path id="Vector_127" d="M69.1462 138.251H65.8374C65.7246 138.251 65.6118 138.326 65.5742 138.476L64.9726 141.175C64.8974 141.438 65.123 141.7 65.4238 141.7C66.627 141.663 68.3566 141.625 69.8606 141.625C71.6278 141.625 72.2294 141.738 74.2974 141.738C75.5382 141.738 75.8766 140.501 75.3502 140.351C72.9814 139.826 71.9286 139.788 69.8982 138.514C69.635 138.364 69.4094 138.251 69.1462 138.251Z" fill="#3E3E3E"/>
<g id="Group_15">
<path id="Vector_128" opacity="0.2" d="M69.4846 131.616L69.2966 135.215H66.2886L66.439 131.616H69.4846Z" fill="#0F3970"/>
<path id="Vector_129" opacity="0.2" d="M46.5863 130.642L49.5191 131.241L48.1279 134.69L45.1951 134.09L46.5863 130.642Z" fill="#0F3970"/>
</g>
<g id="Group_16">
<path id="Vector_130" d="M68.3191 61.7033C68.3191 61.7033 64.8599 84.7952 62.9799 93.4546C60.9119 102.939 49.8199 134.278 49.8199 134.278L44.4055 133.116C44.4055 133.116 52.1511 107.55 53.9183 94.3168C55.2343 84.1204 57.8663 61.7033 57.8663 61.7033H68.3191Z" fill="#3E3E3E"/>
<path id="Vector_131" opacity="0.1" d="M68.3191 61.7033C68.3191 61.7033 64.8599 84.7952 62.9799 93.4546C60.9119 102.939 49.8199 134.278 49.8199 134.278L44.4055 133.116C44.4055 133.116 52.1511 107.55 53.9183 94.3168C55.2343 84.1204 57.8663 61.7033 57.8663 61.7033H68.3191Z" fill="white"/>
</g>
<path id="Vector_132" d="M51.0983 132.516C51.1359 132.516 50.0831 134.465 50.0831 134.465L43.9919 133.153L44.5183 131.316L51.0983 132.516Z" fill="#3E3E3E"/>
<path id="Vector_133" opacity="0.3" d="M66.1384 69.9504C62.1528 70.7376 62.5664 85.5074 63.0552 93.1172C64.2208 87.7566 65.8752 77.3728 67.0408 70.0254C66.7776 69.9129 66.4768 69.8754 66.1384 69.9504Z" fill="#0F3970"/>
<g id="Group_17">
<path id="Vector_134" d="M74.072 61.7033C74.072 61.7033 74.4856 84.3079 74.1472 93.5296C73.8088 103.126 70.4623 134.503 70.4623 134.503H65.3112C65.3112 134.503 65.1232 103.651 64.8976 94.2419C64.6344 83.9705 63.3936 61.6658 63.3936 61.6658H74.072V61.7033Z" fill="#3E3E3E"/>
<path id="Vector_135" opacity="0.1" d="M74.072 61.7033C74.072 61.7033 74.4856 84.3079 74.1472 93.5296C73.8088 103.126 70.4623 134.503 70.4623 134.503H65.3112C65.3112 134.503 65.1232 103.651 64.8976 94.2419C64.6344 83.9705 63.3936 61.6658 63.3936 61.6658H74.072V61.7033Z" fill="white"/>
</g>
<path id="Vector_136" d="M71.4399 132.478C71.4775 132.478 71.1391 134.615 71.1391 134.615H64.8975L64.7471 132.703L71.4399 132.478Z" fill="#3E3E3E"/>
<path id="Vector_137" d="M74.4856 38.4615C75.0872 41.7229 76.2528 50.8696 74.448 64.14L56.8888 63.8776C56.776 61.5534 58.6184 48.9578 56.9264 37.7867C56.7384 36.4372 57.6784 35.2002 58.9944 35.0502C59.8968 34.9377 60.912 34.8253 61.9272 34.7878C63.9952 34.6753 67.0032 34.6379 68.808 34.7878C69.56 34.8628 70.312 34.9752 70.9888 35.0877C72.756 35.3501 74.1472 36.6996 74.4856 38.4615Z" fill="#3E3E3E"/>
<path id="Vector_138" opacity="0.2" d="M74.9366 41.6854L71.9662 42.4351C71.7406 45.1716 73.5454 48.3205 75.3878 50.6822C75.4254 46.971 75.1998 43.9346 74.9366 41.6854Z" fill="#0F3970"/>
<path id="Vector_139" d="M73.7334 36.962C74.2222 37.8617 74.7862 38.8364 75.3126 39.7361C75.8766 40.6732 76.4406 41.5729 77.0046 42.4726C78.1702 44.272 79.411 45.9964 80.7646 47.4583C80.9526 47.6458 81.103 47.7957 81.291 47.9832L81.4038 48.0956L81.5166 48.1706C81.5918 48.2456 81.667 48.2831 81.7422 48.358C82.0806 48.6204 82.4942 48.9203 82.9454 49.1827C83.8102 49.7075 84.7878 50.2698 85.7278 50.7572C87.6454 51.8068 89.6382 52.819 91.631 53.8311L90.8414 55.9678C88.623 55.443 86.4422 54.7683 84.299 53.981C83.2086 53.5687 82.1558 53.1563 81.0654 52.6315C80.539 52.3691 79.975 52.0692 79.411 51.6943C79.2606 51.5819 79.1102 51.5069 78.9598 51.3945L78.7342 51.207L78.5462 51.0571C78.283 50.8696 78.0574 50.6447 77.8318 50.4198C76.9294 49.5951 76.1022 48.6954 75.3502 47.7582C74.5982 46.8586 73.8838 45.9214 73.2446 44.9467C72.5678 43.9721 71.9662 43.0349 71.3646 42.0228C70.763 41.0106 70.199 40.036 69.6726 38.9863L73.7334 36.962Z" fill="#3E3E3E"/>
<path id="Vector_140" d="M61.0998 24.7038C61.927 27.7402 62.2278 29.5771 64.1454 30.8516C67.003 32.7635 70.5374 30.5517 70.6502 27.3279C70.763 24.4039 69.4094 19.9055 66.1006 19.3057C62.8294 18.7059 60.2726 21.6674 61.0998 24.7038Z" fill="#FFC3BD"/>
<path id="Vector_141" d="M67.4544 24.7413C68.1688 23.6542 68.4696 22.0423 67.9432 21.255C68.432 21.4425 71.8536 21.7049 70.5 19.2308C69.1464 16.7941 66.4392 16.1194 64.0704 16.7941C64.6344 16.9441 65.236 17.1315 65.236 17.1315C65.236 17.1315 62.0024 16.9066 60.4608 18.1811C60.9496 18.2186 61.3632 18.1811 61.3632 18.1811C61.3632 18.1811 57.904 19.7931 59.408 21.0301C57.0016 22.867 58.6184 25.4161 62.604 29.2022C63.2808 29.8395 65.2736 29.6146 65.6872 29.2397C65.4616 27.5903 67.0408 25.3411 67.4544 24.7413Z" fill="#3E3E3E"/>
<path id="Vector_142" d="M67.868 22.6796C68.5824 23.2044 69.4848 24.7413 69.8608 25.4911C70.2744 26.2408 70.688 26.1658 70.9136 26.4657C71.1016 26.7656 71.9664 31.9013 71.064 32.726C70.1616 33.5507 67.4168 32.2387 67.0784 31.3015C66.74 30.3644 67.3792 28.0402 67.5672 27.5154C67.7552 26.9905 67.7176 25.6785 67.4168 24.7788C67.0784 23.8791 67.868 22.6796 67.868 22.6796Z" fill="#3E3E3E"/>
<path id="Vector_143" d="M66.2511 24.8912C66.4767 25.6785 67.0031 26.3907 67.6423 26.6906C68.4695 27.0655 68.5823 26.0908 68.4319 25.1911C68.2815 24.3664 68.0559 23.6917 67.3791 23.3543C66.5519 22.9419 65.9879 23.9916 66.2511 24.8912Z" fill="#FFC3BD"/>
</g>
</g>
<defs>
<clipPath id="clip0_5_521">
<rect width="188" height="142" fill="white"/>
</clipPath>
</defs>
</svg>
