<svg width="22" height="22" viewBox="0 0 22 22" fill="none" xmlns="http://www.w3.org/2000/svg">
<g id="vuesax-bulk-medal-star 1" clip-path="url(#clip0_5_2202)">
<g id="vuesax/bulk/medal-star">
<g id="medal-star">
<path id="Vector" opacity="0.4" d="M17.4167 8.25C17.4233 9.78576 16.8751 11.2722 15.873 12.436C14.8709 13.5998 13.4822 14.3626 11.9625 14.5842C11.3256 14.6942 10.6745 14.6942 10.0375 14.5842C8.82303 14.3999 7.68694 13.8709 6.76422 13.06C5.8415 12.2491 5.17093 11.1904 4.83218 10.0096C4.49343 8.82882 4.50073 7.57562 4.85321 6.39888C5.20569 5.22213 5.88854 4.17129 6.82064 3.37119C7.75275 2.57109 8.89492 2.05535 10.1115 1.88525C11.3281 1.71514 12.5679 1.89782 13.6837 2.41158C14.7995 2.92534 15.7444 3.74859 16.4061 4.78352C17.0678 5.81846 17.4186 7.02159 17.4167 8.25Z" fill="#A7CDD1"/>
<path id="Vector_2" d="M19.4792 16.9308L17.9667 17.2883C17.8011 17.3259 17.6496 17.4095 17.5295 17.5295C17.4095 17.6495 17.3259 17.8011 17.2884 17.9667L16.9675 19.3142C16.9282 19.4796 16.8436 19.6308 16.7232 19.7509C16.6029 19.871 16.4515 19.9552 16.286 19.9942C16.1205 20.0332 15.9474 20.0254 15.7861 19.9717C15.6248 19.918 15.4816 19.8204 15.3725 19.69L11 14.6667L6.62754 19.6992C6.51847 19.8296 6.37528 19.9271 6.21396 19.9809C6.05265 20.0346 5.87957 20.0424 5.71407 20.0034C5.54858 19.9644 5.39719 19.8802 5.27683 19.7601C5.15648 19.64 5.07189 19.4888 5.03254 19.3233L4.7117 17.9758C4.67232 17.8112 4.58809 17.6606 4.46836 17.5409C4.34862 17.4211 4.19806 17.3369 4.03337 17.2975L2.52087 16.94C2.36187 16.9028 2.21569 16.8238 2.09746 16.7111C1.97923 16.5985 1.89324 16.4563 1.84838 16.2993C1.80352 16.1423 1.80142 15.9761 1.84229 15.818C1.88316 15.6599 1.96553 15.5156 2.08087 15.4L5.65587 11.825C6.15293 12.5664 6.7995 13.1956 7.55408 13.6723C8.30865 14.1491 9.15457 14.4628 10.0375 14.5933C10.3553 14.6489 10.6774 14.6765 11 14.6758C11.3227 14.6765 11.6447 14.6489 11.9625 14.5933C12.8455 14.4628 13.6914 14.1491 14.446 13.6723C15.2006 13.1956 15.8471 12.5664 16.3442 11.825L19.9192 15.4C20.0322 15.5158 20.1125 15.6595 20.1519 15.8164C20.1914 15.9732 20.1887 16.1378 20.144 16.2933C20.0993 16.4487 20.0142 16.5896 19.8975 16.7016C19.7807 16.8136 19.6364 16.8927 19.4792 16.9308Z" fill="#A7CDD1"/>
<path id="Vector_3" d="M11.5317 5.48169L12.0725 6.56335C12.119 6.64491 12.1823 6.71567 12.2581 6.77098C12.3339 6.82628 12.4207 6.86487 12.5125 6.88419L13.4934 7.04919C14.1167 7.15002 14.2634 7.60835 13.8142 8.05752L13.0534 8.81835C12.9858 8.8931 12.9366 8.98253 12.9095 9.07957C12.8825 9.17661 12.8784 9.27861 12.8975 9.37752L13.1175 10.3217C13.2917 11.0642 12.8975 11.3575 12.2375 10.9634L11.3209 10.4225C11.2278 10.3728 11.1239 10.3467 11.0184 10.3467C10.9128 10.3467 10.8089 10.3728 10.7159 10.4225L9.79552 10.9634C9.13552 11.3484 8.74135 11.0642 8.91552 10.3217L9.13552 9.37752C9.15183 9.27859 9.14634 9.17729 9.11942 9.08071C9.0925 8.98412 9.04481 8.89459 8.97969 8.81835L8.21885 8.05752C7.76969 7.60835 7.91635 7.15919 8.53969 7.04919L9.52052 6.88419C9.61062 6.86343 9.69543 6.82419 9.76959 6.76897C9.84375 6.71374 9.90564 6.64373 9.95135 6.56335L10.4959 5.48169C10.7617 4.89502 11.2384 4.89502 11.5317 5.48169Z" fill="#A7CDD1"/>
</g>
</g>
</g>
<defs>
<clipPath id="clip0_5_2202">
<rect width="22" height="22" fill="white"/>
</clipPath>
</defs>
</svg>
