<svg width="375" height="812" viewBox="0 0 375 812" fill="none" xmlns="http://www.w3.org/2000/svg">
<g clip-path="url(#clip0_5_204)">
<rect width="375" height="812" fill="white"/>
<rect width="375" height="812" fill="#30B9CC"/>
<g clip-path="url(#clip1_5_204)">
<path opacity="0.3" d="M586 0H-226V812H586V0Z" fill="url(#paint0_radial_5_204)"/>
</g>
<g clip-path="url(#clip2_5_204)">
<path d="M228.989 253.619C228.989 262.801 236.443 270.255 245.625 270.255C254.807 270.255 262.261 262.801 262.261 253.619C262.261 244.437 254.807 236.983 245.625 236.983C236.477 236.983 228.989 244.471 228.989 253.619ZM245.625 240.27C253.011 240.27 259.008 246.267 259.008 253.653C259.008 261.039 253.011 267.036 245.625 267.036C238.239 267.036 232.242 261.039 232.242 253.653C232.276 246.267 238.273 240.27 245.625 240.27Z" fill="white" fill-opacity="0.07"/>
<path d="M218.486 327.109C218.486 331.31 221.908 334.732 226.109 334.732C230.311 334.732 233.733 331.31 233.733 327.109V303.121C233.733 302.206 232.987 301.494 232.106 301.494C231.191 301.494 230.48 302.24 230.48 303.121V327.109C230.48 329.514 228.515 331.48 226.109 331.48C223.704 331.48 221.738 329.514 221.738 327.109V295.599C221.738 288.213 227.736 282.216 235.122 282.216H256.128C263.515 282.216 269.512 288.213 269.512 295.599V327.109C269.512 329.514 267.547 331.48 265.141 331.48C262.735 331.48 260.77 329.514 260.77 327.109V303.121C260.77 302.206 260.025 301.494 259.144 301.494C258.229 301.494 257.518 302.24 257.518 303.121V327.109C257.518 331.31 260.94 334.732 265.141 334.732C269.342 334.732 272.764 331.31 272.764 327.109V295.599C272.764 286.417 265.31 278.963 256.128 278.963H235.122C225.94 278.963 218.486 286.417 218.486 295.599V327.109Z" fill="white" fill-opacity="0.07"/>
<path d="M292.145 243.252C301.327 243.252 308.781 235.798 308.781 226.616C308.781 217.434 301.327 209.98 292.145 209.98C282.963 209.98 275.509 217.434 275.509 226.616C275.509 235.798 282.963 243.252 292.145 243.252ZM292.145 213.266C299.531 213.266 305.528 219.263 305.528 226.65C305.528 234.036 299.531 240.033 292.145 240.033C284.759 240.033 278.761 234.036 278.761 226.65C278.761 219.263 284.759 213.266 292.145 213.266Z" fill="white" fill-opacity="0.07"/>
<path d="M270.63 258.295C271.206 258.973 272.256 259.041 272.934 258.465C275.34 256.398 278.457 255.246 281.642 255.246H302.648C310.034 255.246 316.031 261.243 316.031 268.629V300.139C316.031 302.545 314.066 304.51 311.661 304.51C309.255 304.51 307.29 302.545 307.29 300.139V298.614V276.117C307.29 275.202 306.545 274.491 305.664 274.491C304.783 274.491 304.037 275.236 304.037 276.117V300.105V334.597C304.037 335.512 304.783 336.223 305.664 336.223C306.578 336.223 307.29 335.478 307.29 334.597V306.373C308.544 307.254 310.034 307.762 311.661 307.762C315.862 307.762 319.284 304.34 319.284 300.139V268.629C319.284 259.447 311.83 251.993 302.648 251.993H281.642C277.677 251.993 273.815 253.416 270.799 255.991C270.122 256.601 270.02 257.618 270.63 258.295Z" fill="white" fill-opacity="0.07"/>
<path d="M290.484 302.172V334.597C290.484 335.512 291.23 336.223 292.111 336.223C292.992 336.223 293.737 335.478 293.737 334.597V302.172C293.737 301.257 292.992 300.546 292.111 300.546C291.23 300.546 290.484 301.291 290.484 302.172Z" fill="white" fill-opacity="0.07"/>
<path d="M216.487 226.616C216.487 217.434 209.033 209.98 199.851 209.98C190.669 209.98 183.215 217.434 183.215 226.616C183.215 235.798 190.669 243.252 199.851 243.252C209.033 243.252 216.487 235.798 216.487 226.616ZM186.501 226.616C186.501 219.229 192.498 213.232 199.885 213.232C207.271 213.232 213.268 219.229 213.268 226.616C213.268 234.002 207.271 239.999 199.885 239.999C192.498 239.999 186.501 234.002 186.501 226.616Z" fill="white" fill-opacity="0.07"/>
<path d="M172 268.629V300.139C172 304.34 175.422 307.762 179.623 307.762C181.25 307.762 182.741 307.254 183.994 306.373V334.631C183.994 335.545 184.74 336.257 185.62 336.257C186.501 336.257 187.247 335.511 187.247 334.631V300.139V276.151C187.247 275.236 186.501 274.524 185.62 274.524C184.706 274.524 183.994 275.27 183.994 276.151V298.648V300.173C183.994 302.578 182.029 304.544 179.623 304.544C177.218 304.544 175.253 302.578 175.253 300.173V268.663C175.253 261.277 181.25 255.28 188.636 255.28H209.643C212.827 255.28 215.945 256.432 218.35 258.498C219.028 259.074 220.078 259.007 220.654 258.329C221.23 257.651 221.162 256.601 220.485 256.025C217.469 253.45 213.641 252.027 209.643 252.027H188.636C179.454 251.993 172 259.447 172 268.629Z" fill="white" fill-opacity="0.07"/>
<path d="M197.513 302.172V334.597C197.513 335.512 198.258 336.223 199.139 336.223C200.054 336.223 200.765 335.478 200.765 334.597V302.172C200.765 301.257 200.02 300.546 199.139 300.546C198.224 300.546 197.513 301.291 197.513 302.172Z" fill="white" fill-opacity="0.07"/>
<path d="M292.145 201.272C293.059 201.272 293.771 200.527 293.771 199.646V189.142C293.771 184.094 289.671 180.028 284.657 180.028H277.169C276.254 180.028 275.542 180.774 275.542 181.655C275.542 182.569 276.288 183.281 277.169 183.281H284.657C287.909 183.281 290.518 185.924 290.518 189.142V199.646C290.484 200.527 291.23 201.272 292.145 201.272Z" fill="white" fill-opacity="0.07"/>
<path d="M199.139 201.272C200.054 201.272 200.765 200.527 200.765 199.646V189.142C200.765 185.89 203.408 183.281 206.627 183.281H214.115C215.03 183.281 215.741 182.536 215.741 181.655C215.741 180.74 214.996 180.028 214.115 180.028H206.627C201.579 180.028 197.513 184.128 197.513 189.142V199.646C197.513 200.527 198.224 201.272 199.139 201.272Z" fill="white" fill-opacity="0.07"/>
<path d="M248.776 220.619C248.776 218.891 247.387 217.501 245.659 217.501C243.931 217.501 242.542 218.891 242.542 220.619C242.542 222.347 243.931 223.736 245.659 223.736C247.353 223.77 248.776 222.347 248.776 220.619ZM245.49 220.619C245.49 220.551 245.557 220.483 245.625 220.483C245.693 220.483 245.761 220.551 245.761 220.619C245.761 220.754 245.49 220.754 245.49 220.619Z" fill="white" fill-opacity="0.07"/>
<path d="M261.245 153.262C256.738 148.959 250.809 146.723 244.541 147.028C233.191 147.536 223.738 156.819 223.026 168.17C222.789 171.897 223.433 175.488 224.923 178.842C225.296 179.656 226.245 180.028 227.092 179.656C227.905 179.283 228.278 178.334 227.905 177.487C226.617 174.607 226.075 171.524 226.279 168.339C226.889 158.649 234.986 150.721 244.676 150.246C250.03 150.009 255.112 151.907 258.974 155.6C262.837 159.293 264.972 164.273 264.972 169.593C264.972 176.132 258.432 182.163 249.86 189.346C246.099 192.497 243.965 197.139 243.965 202.051V207.066C243.965 207.981 244.71 208.692 245.591 208.692C246.506 208.692 247.218 207.947 247.218 207.066V202.051C247.218 198.087 248.945 194.36 251.961 191.853C261.177 184.094 268.224 177.555 268.224 169.593C268.258 163.392 265.785 157.565 261.245 153.262Z" fill="white" fill-opacity="0.07"/>
<path d="M227.361 39.7219C227.496 39.8574 227.496 40.0268 227.462 40.1285C227.429 40.2301 227.361 40.3656 227.157 40.4334C225.531 40.8061 222.516 41.7548 220.551 43.686C218.687 45.5495 217.671 48.0229 217.671 50.6657C217.671 53.3085 218.687 55.7818 220.551 57.6453C222.414 59.5088 224.887 60.5253 227.53 60.5253C230.173 60.5253 232.646 59.5088 234.51 57.6453C236.475 55.6802 237.39 52.6647 237.762 51.0384C237.796 50.8351 237.932 50.7673 238.067 50.7334C238.169 50.6996 238.338 50.6996 238.474 50.8351L256.194 68.5552C257.482 69.8427 259.176 70.5542 260.971 70.5542C262.767 70.5542 264.495 69.8427 265.749 68.5552L283.469 50.8351C284.418 49.8864 284.79 48.4972 284.418 47.2097C284.045 45.9222 283.028 44.9397 281.707 44.6347C279.505 44.1265 277.675 43.2456 276.659 42.2291C275.405 40.9755 274.727 39.3153 274.727 37.5535C274.727 35.7916 275.405 34.1314 276.659 32.8778C277.912 31.6242 279.572 30.9465 281.334 30.9465C283.096 30.9465 284.756 31.6242 286.01 32.8778C287.026 33.8942 287.907 35.7238 288.416 37.9262C288.721 39.2137 289.703 40.264 290.991 40.6367C292.278 41.0094 293.667 40.6367 294.616 39.688L312.336 21.9679C313.624 20.6804 314.335 18.9863 314.335 17.1906C314.335 15.3948 313.624 13.6669 312.336 12.4132L294.616 -5.30689C294.48 -5.44242 294.48 -5.61183 294.514 -5.71347C294.548 -5.81512 294.616 -5.95065 294.819 -6.01841C296.344 -6.39111 299.156 -7.23815 301.087 -9H293.464C292.448 -8.55954 291.668 -7.7125 291.363 -6.62828C290.991 -5.34078 291.363 -3.95163 292.312 -3.00294L310.032 14.7172C310.71 15.3948 311.049 16.2758 311.049 17.1906C311.049 18.1392 310.676 19.0202 310.032 19.6639L292.278 37.4179C292.143 37.5535 291.973 37.5535 291.872 37.5196C291.77 37.4857 291.634 37.4179 291.567 37.2146C291.194 35.5883 290.279 32.5728 288.314 30.6077C286.45 28.7442 283.977 27.7278 281.334 27.7278C278.692 27.7278 276.218 28.7442 274.355 30.6077C272.491 32.4712 271.475 34.9446 271.475 37.5873C271.475 40.2301 272.491 42.7035 274.355 44.567C276.32 46.5321 279.335 47.4469 280.962 47.8196C281.165 47.8535 281.233 47.989 281.267 48.1246C281.3 48.2262 281.3 48.3956 281.165 48.5311L263.445 66.2513C262.767 66.9289 261.886 67.2677 260.971 67.2677C260.023 67.2677 259.142 66.895 258.498 66.2513L240.778 48.5311C240.066 47.8196 239.152 47.4469 238.169 47.4469C237.83 47.4469 237.491 47.4808 237.153 47.5824C235.865 47.9551 234.882 48.9716 234.578 50.293C234.069 52.4953 233.188 54.3249 232.172 55.3414C230.918 56.595 229.258 57.2726 227.496 57.2726C225.734 57.2726 224.074 56.595 222.821 55.3414C221.567 54.0877 220.889 52.4275 220.889 50.6657C220.889 48.9038 221.567 47.2436 222.821 45.99C223.837 44.9736 225.667 44.0926 227.869 43.5844C229.157 43.2795 230.207 42.2969 230.58 41.0094C230.952 39.7219 230.58 38.3327 229.631 37.384L211.911 19.6639C211.233 18.9863 210.894 18.1054 210.894 17.1906C210.894 16.2419 211.267 15.3609 211.911 14.7172L229.631 -3.00294C229.766 -3.13846 229.936 -3.13847 230.037 -3.10458C230.139 -3.0707 230.275 -3.00294 230.342 -2.79965C230.715 -1.17333 231.63 1.84214 233.595 3.80728C237.424 7.63592 243.692 7.63592 247.554 3.80728C251.044 0.317468 251.349 -5.13749 248.537 -9H243.624C244.302 -8.66118 244.844 -8.2546 245.284 -7.84802C247.859 -5.27301 247.859 -1.07168 245.284 1.46945C242.709 4.04446 238.508 4.04446 235.967 1.46945C234.95 0.452995 234.069 -1.37662 233.561 -3.57893C233.256 -4.86643 232.274 -5.91676 230.986 -6.28946C229.699 -6.66216 228.309 -6.28946 227.361 -5.34078L209.641 12.3794C208.353 13.6669 207.642 15.3609 207.642 17.1567C207.642 18.9524 208.353 20.6804 209.641 21.934L227.361 39.7219Z" fill="white" fill-opacity="0.07"/>
<path d="M358.415 210.892C361.701 208.419 365.598 204.692 365.598 200.965C365.598 197.746 364.31 194.731 362.006 192.495C359.702 190.258 356.619 189.106 353.4 189.208C347.539 189.445 342.592 194.189 342.152 200.016C342.016 201.846 342.287 203.608 342.931 205.268C343.27 206.115 344.218 206.522 345.032 206.183C345.879 205.844 346.285 204.895 345.946 204.082C345.472 202.862 345.269 201.609 345.37 200.287C345.675 196.086 349.267 192.664 353.502 192.495C355.84 192.393 358.042 193.24 359.702 194.866C361.363 196.493 362.311 198.661 362.311 200.965C362.311 202.727 360.041 205.539 356.416 208.283C353.773 210.282 352.215 213.467 352.215 216.855V218.516C352.215 219.43 352.96 220.142 353.841 220.142C354.756 220.142 355.467 219.397 355.467 218.516V216.855C355.535 214.518 356.619 212.281 358.415 210.892Z" fill="white" fill-opacity="0.07"/>
<path d="M351.334 226.681C351.334 228.07 352.486 229.222 353.875 229.222C355.264 229.222 356.416 228.07 356.416 226.681C356.416 225.292 355.264 224.14 353.875 224.14C352.486 224.14 351.334 225.292 351.334 226.681ZM354.62 226.681C354.62 227.088 354.316 227.393 353.909 227.393C353.502 227.393 353.197 227.088 353.197 226.681C353.197 226.275 353.502 225.97 353.909 225.97C354.316 225.97 354.62 226.308 354.62 226.681Z" fill="white" fill-opacity="0.07"/>
<path d="M77.9424 126.662H86.5823V146.89C86.5823 149.939 88.2764 152.683 90.9869 154.073C92.1389 154.649 93.3925 154.954 94.6461 154.954C96.3063 154.954 97.9665 154.445 99.3557 153.429L136.219 126.662H157.497C158.411 126.662 159.123 125.917 159.123 125.036C159.123 124.121 158.378 123.41 157.497 123.41H135.677C135.338 123.41 134.999 123.511 134.728 123.715L97.4583 150.786C95.9675 151.87 94.104 152.006 92.4777 151.193C90.8514 150.346 89.8688 148.753 89.8688 146.924V126.696H106.2C107.115 126.696 107.826 125.951 107.826 125.07C107.826 124.155 107.081 123.444 106.2 123.444H77.9763C64.7286 123.444 53.9203 112.669 53.9203 99.3876V21.087C53.9203 7.83923 64.6947 -2.96904 77.9763 -2.96904H167.831C181.078 -2.96904 191.887 7.80535 191.887 21.087V94.2376C191.887 95.1524 192.632 95.8639 193.513 95.8639C194.428 95.8639 195.139 95.1185 195.139 94.2376V21.087C195.139 6.0435 182.908 -6.22168 167.831 -6.22168H77.9424C62.899 -6.22168 50.6338 6.00962 50.6338 21.087V99.3876C50.6677 114.431 62.899 126.662 77.9424 126.662Z" fill="white" fill-opacity="0.07"/>
<path d="M173.997 71.1641L169.694 66.8611C170.371 63.6762 170.71 60.3897 170.71 57.0016C170.71 30.6416 149.263 9.16058 122.869 9.16058C96.4754 9.16058 75.0283 30.6416 75.0283 57.0354C75.0283 83.4293 96.5093 104.843 122.869 104.843C126.257 104.843 129.544 104.47 132.729 103.826L137.032 108.129C139.776 110.873 143.402 112.364 147.264 112.364C149.907 112.364 152.414 111.653 154.65 110.331L176.843 132.524C179.655 135.336 183.382 136.759 187.075 136.759C190.768 136.759 194.495 135.336 197.307 132.524L198.392 131.406C201.136 128.661 202.627 125.036 202.627 121.173C202.627 117.311 201.136 113.686 198.392 110.941L176.199 88.7487C179.486 83.226 178.774 75.9414 173.997 71.1641ZM132.221 100.607C129.205 101.251 126.088 101.59 122.869 101.59C98.3051 101.59 78.281 81.5997 78.281 57.0016C78.281 32.4034 98.3051 12.4471 122.869 12.4471C147.434 12.4471 167.458 32.4373 167.458 57.0354C167.458 60.2542 167.119 63.3713 166.475 66.3868C166.238 66.7256 166.136 67.1322 166.204 67.5388C162.274 83.7003 149.534 96.4398 133.406 100.336C132.966 100.268 132.559 100.37 132.221 100.607ZM147.264 109.112C144.283 109.112 141.47 107.96 139.336 105.825L136.388 102.877C151.906 98.3033 164.171 86.0382 168.745 70.5204L171.693 73.468C176.064 77.8388 176.064 84.954 171.693 89.3247L155.192 105.825C153.058 107.96 150.246 109.112 147.264 109.112ZM196.088 113.279C198.188 115.38 199.374 118.226 199.374 121.207C199.374 124.189 198.222 127.001 196.088 129.136L195.003 130.254C190.633 134.625 183.518 134.625 179.147 130.254L157.293 108.4C157.361 108.332 157.462 108.265 157.53 108.197L174.031 91.6964C174.098 91.6287 174.166 91.527 174.234 91.4592L196.088 113.279Z" fill="white" fill-opacity="0.07"/>
<path d="M122.259 29.7268C114.399 30.0317 107.758 36.4015 107.182 44.2281C106.979 46.6676 107.352 49.0393 108.232 51.2755C108.571 52.1226 109.52 52.5292 110.333 52.1903C111.18 51.8515 111.587 50.9028 111.248 50.0897C110.536 48.3278 110.265 46.4305 110.401 44.4992C110.875 38.2988 116.127 33.2505 122.361 33.0133C125.783 32.8778 129.036 34.1314 131.509 36.5031C133.983 38.8748 135.338 42.0597 135.338 45.5156C135.338 48.2262 132.153 52.2581 126.834 56.2562C123.31 58.8989 121.209 63.2019 121.209 67.7082V70.0121C121.209 70.9269 121.955 71.6384 122.835 71.6384C123.75 71.6384 124.462 70.893 124.462 70.0121V67.7082C124.462 64.2183 126.088 60.8979 128.765 58.865C133.237 55.4769 138.557 50.4285 138.557 45.5156C138.557 41.1788 136.829 37.1808 133.745 34.1653C130.696 31.1159 126.596 29.5574 122.259 29.7268Z" fill="white" fill-opacity="0.07"/>
<path d="M122.869 78.4825C121.277 78.4825 119.956 79.8039 119.956 81.3964C119.956 82.9888 121.277 84.3102 122.869 84.3102C124.462 84.3102 125.783 82.9888 125.783 81.3964C125.783 79.8039 124.496 78.4825 122.869 78.4825ZM122.869 81.7691C122.666 81.7691 122.531 81.5997 122.531 81.4302C122.531 81.2608 122.7 81.0914 122.869 81.0914C123.073 81.0914 123.208 81.2608 123.208 81.4302C123.208 81.5997 123.073 81.7691 122.869 81.7691Z" fill="white" fill-opacity="0.07"/>
<path d="M306.644 56.1545C306.644 54.5621 305.661 53.1729 304.136 52.6308C302.612 52.0887 300.985 52.563 300.003 53.8167L282.079 76.3141C280.724 78.0082 280.724 80.4138 282.079 82.1079L300.003 104.605C301.019 105.859 302.646 106.333 304.136 105.791C305.661 105.249 306.644 103.894 306.644 102.267V94.7796H318.739V111.314C318.739 121.445 326.973 129.712 337.137 129.712H353.671V141.807H346.184C344.591 141.807 343.202 142.79 342.66 144.315C342.118 145.839 342.592 147.466 343.846 148.448L366.343 166.372C367.19 167.049 368.207 167.388 369.257 167.388C370.273 167.388 371.324 167.049 372.171 166.372L394.668 148.448C395.922 147.432 396.396 145.805 395.854 144.315C395.312 142.79 393.957 141.807 392.33 141.807H384.843V129.712H401.377C411.508 129.712 419.775 121.478 419.775 111.314V94.7796H431.87V102.267C431.87 103.86 432.853 105.249 434.378 105.791C435.902 106.333 437.529 105.859 438.511 104.605L456.435 82.1079C457.79 80.4138 457.79 78.0082 456.435 76.3141L438.511 53.8167C437.495 52.563 435.868 52.0887 434.378 52.6308C432.853 53.1729 431.87 54.5282 431.87 56.1545V63.6424H419.775V47.1081C419.775 36.9775 411.541 28.7103 401.377 28.7103H384.843V16.6484H392.33C393.923 16.6484 395.312 15.6659 395.854 14.1412C396.396 12.6165 395.922 10.9902 394.668 10.0076L372.171 -7.9158C370.477 -9.27107 368.071 -9.27107 366.377 -7.9158L343.88 10.0076C342.626 11.0241 342.152 12.6504 342.694 14.1412C343.236 15.6659 344.591 16.6484 346.217 16.6484H353.705V28.7442H337.171C327.04 28.7442 318.773 36.9775 318.773 47.142V63.6762H306.678V56.1545H306.644ZM320.366 66.895C321.281 66.895 321.992 66.1496 321.992 65.2687V47.1081C321.992 38.7732 328.768 31.963 337.137 31.963H355.298C356.213 31.963 356.924 31.2176 356.924 30.3366V14.9882C356.924 14.0734 356.179 13.3619 355.298 13.3619H346.184C345.913 13.3619 345.777 13.1925 345.743 13.057C345.709 12.9214 345.675 12.7182 345.879 12.5487L368.376 -5.37467C368.884 -5.78125 369.596 -5.78125 370.138 -5.37467L392.635 12.5487C392.839 12.7182 392.839 12.9214 392.771 13.057C392.737 13.1925 392.602 13.3619 392.33 13.3619H383.216C382.302 13.3619 381.59 14.1073 381.59 14.9882V30.3366C381.59 31.2514 382.335 31.963 383.216 31.963H401.377C409.712 31.963 416.522 38.7393 416.522 47.1081V65.2687C416.522 66.1835 417.267 66.895 418.148 66.895H433.497C434.412 66.895 435.123 66.1496 435.123 65.2687V56.1545C435.123 55.8834 435.292 55.7479 435.428 55.714C435.564 55.6802 435.767 55.6463 435.936 55.8496L453.86 78.347C454.266 78.8552 454.266 79.5667 453.86 80.1089L435.936 102.606C435.767 102.81 435.564 102.81 435.428 102.742C435.292 102.708 435.123 102.572 435.123 102.301V93.1872C435.123 92.2724 434.378 91.5609 433.497 91.5609H418.148C417.234 91.5609 416.522 92.3063 416.522 93.1872V111.348C416.522 119.683 409.746 126.493 401.377 126.493H383.216C382.302 126.493 381.59 127.238 381.59 128.119V143.468C381.59 144.382 382.335 145.094 383.216 145.094H392.33C392.602 145.094 392.703 145.263 392.771 145.399C392.805 145.534 392.839 145.738 392.635 145.907L370.138 163.831C369.63 164.237 368.918 164.237 368.376 163.831L345.879 145.907C345.675 145.738 345.675 145.534 345.743 145.399C345.777 145.263 345.913 145.094 346.184 145.094H355.298C356.213 145.094 356.924 144.349 356.924 143.468V128.119C356.924 127.204 356.179 126.493 355.298 126.493H337.137C328.802 126.493 321.992 119.717 321.992 111.348V93.1872C321.992 92.2724 321.247 91.5609 320.366 91.5609H305.017C304.103 91.5609 303.391 92.3063 303.391 93.1872V102.301C303.391 102.572 303.222 102.674 303.086 102.742C302.951 102.776 302.747 102.81 302.578 102.606L284.654 80.1089C284.248 79.6006 284.248 78.8891 284.654 78.347L302.578 55.8496C302.747 55.6463 302.951 55.6463 303.086 55.714C303.222 55.7479 303.391 55.8834 303.391 56.1545V65.2687C303.391 66.1835 304.136 66.895 305.017 66.895H320.366Z" fill="white" fill-opacity="0.07"/>
<path d="M355.569 72.4516C356.416 72.1128 356.822 71.1641 356.484 70.351C355.704 68.3858 355.399 66.3191 355.569 64.1845C356.077 57.3743 361.871 51.8177 368.715 51.5466C372.51 51.4111 376.067 52.7664 378.778 55.3753C381.488 57.9842 382.979 61.5078 382.979 65.2687C382.979 68.2503 379.489 72.6888 373.662 77.0934C369.867 79.9395 367.597 84.5474 367.597 89.4264V91.9336C367.597 92.8484 368.342 93.5599 369.223 93.5599C370.138 93.5599 370.85 92.8145 370.85 91.9336V89.4264C370.85 85.5977 372.611 81.9385 375.593 79.7023C380.438 76.0431 386.198 70.5881 386.198 65.3026C386.198 60.6269 384.334 56.2901 380.98 53.0713C377.626 49.8525 373.187 48.1585 368.546 48.3279C360.075 48.6667 352.926 55.5108 352.248 63.9812C352.045 66.624 352.418 69.1651 353.4 71.6046C353.807 72.3839 354.756 72.7905 355.569 72.4516Z" fill="white" fill-opacity="0.07"/>
<path d="M369.257 101.353C367.597 101.353 366.242 102.708 366.242 104.368C366.242 106.028 367.597 107.384 369.257 107.384C370.917 107.384 372.273 106.028 372.273 104.368C372.273 102.708 370.917 101.353 369.257 101.353ZM369.257 104.605C369.122 104.605 369.02 104.504 369.02 104.368C369.02 104.233 369.122 104.131 369.257 104.131C369.393 104.131 369.494 104.233 369.494 104.368C369.494 104.504 369.393 104.605 369.257 104.605Z" fill="white" fill-opacity="0.07"/>
<path d="M116.297 322.431V313.926C116.297 313.012 115.551 312.3 114.67 312.3C113.755 312.3 113.044 313.046 113.044 313.926V322.431C113.044 323.346 113.789 324.057 114.67 324.057C115.551 324.057 116.297 323.346 116.297 322.431Z" fill="white" fill-opacity="0.07"/>
<path d="M35.0483 294.106V322.431C35.0483 323.346 35.7937 324.057 36.6747 324.057C37.5895 324.057 38.301 323.312 38.301 322.431V294.106C38.301 289.396 42.1296 285.534 46.8731 285.534C51.5826 285.534 55.4451 289.362 55.4451 294.106V303.118C55.4451 304.677 56.6987 305.964 58.2573 305.964H126.631C128.189 305.964 129.477 304.711 129.477 303.118V294.106C129.477 287.6 124.157 282.281 117.652 282.281H46.8731C40.3678 282.281 35.0483 287.6 35.0483 294.106ZM117.652 285.568C122.361 285.568 126.224 289.396 126.224 294.14V302.712H58.6978V294.14C58.6978 290.785 57.2747 287.736 55.0047 285.568H117.652Z" fill="white" fill-opacity="0.07"/>
<path d="M29.2543 311.792C28.7461 311.047 27.7296 310.877 26.9842 311.385L16.5825 318.704C16.5486 318.738 16.5148 318.738 16.5148 318.772C16.4809 318.805 16.4131 318.839 16.3792 318.873C16.3792 318.873 16.3792 318.873 16.3453 318.907C16.3115 318.941 16.2776 318.975 16.2437 319.043C16.2098 319.077 16.1759 319.11 16.1759 319.144C16.1759 319.144 16.1759 319.144 16.1759 319.178C16.1421 319.212 16.1082 319.28 16.1082 319.314C16.0743 319.348 16.0743 319.381 16.0404 319.449V319.483C16.0065 319.517 16.0065 319.585 16.0065 319.619C16.0065 319.652 15.9727 319.686 15.9727 319.754V319.788C15.9727 319.822 15.9727 319.89 15.9727 319.924C15.9727 319.957 15.9727 320.025 15.9727 320.059V398.021C15.9727 398.936 16.718 399.647 17.599 399.647H133.949C134.084 399.647 134.186 399.613 134.321 399.613C134.355 399.613 134.389 399.579 134.423 399.579C134.525 399.546 134.592 399.512 134.66 399.478C134.694 399.444 134.728 399.444 134.762 399.41C134.83 399.376 134.897 399.308 134.965 399.274C134.999 399.241 135.033 399.241 135.067 399.207C135.168 399.139 135.236 399.037 135.304 398.936C135.304 398.902 135.338 398.902 135.338 398.868C135.372 398.8 135.44 398.732 135.44 398.631C135.473 398.563 135.473 398.529 135.507 398.461C135.507 398.427 135.541 398.394 135.541 398.326C135.575 398.224 135.575 398.123 135.575 398.021V320.025C135.575 319.957 135.575 319.924 135.575 319.856C135.575 319.822 135.575 319.754 135.575 319.72C135.575 319.652 135.541 319.585 135.507 319.517C135.507 319.483 135.473 319.449 135.473 319.415C135.473 319.381 135.44 319.381 135.44 319.348C135.406 319.28 135.372 319.212 135.338 319.144C135.27 319.077 135.202 318.975 135.135 318.907C135.101 318.873 135.067 318.839 134.999 318.805C134.965 318.772 134.931 318.738 134.897 318.704L123.818 311.385C123.073 310.877 122.056 311.08 121.548 311.86C121.04 312.605 121.243 313.622 122.022 314.13L131.069 320.093L75.8416 357.092L20.3773 319.991L28.8477 314.028C29.5931 313.52 29.7625 312.503 29.2543 311.792ZM132.221 323.075V394.938L78.6199 359.023L132.221 323.075ZM128.494 396.361H19.1237V323.075L128.494 396.361Z" fill="white" fill-opacity="0.07"/>
<path d="M239.841 513.734C239.565 512.781 238.812 512.053 237.833 511.827C236.202 511.451 234.847 510.798 234.094 510.045C233.166 509.117 232.664 507.887 232.664 506.582C232.664 505.277 233.166 504.048 234.094 503.119C235.023 502.191 236.252 501.689 237.557 501.689C238.862 501.689 240.092 502.191 241.02 503.119C241.773 503.872 242.426 505.227 242.802 506.858C243.028 507.812 243.756 508.59 244.709 508.866C245.663 509.142 246.692 508.866 247.395 508.163L260.519 495.038C261.473 494.085 262 492.83 262 491.5C262 490.17 261.473 488.89 260.519 487.962L247.395 474.837C247.294 474.736 247.294 474.611 247.319 474.536C247.344 474.46 247.395 474.36 247.545 474.31C248.75 474.034 250.983 473.356 252.439 471.901C253.819 470.52 254.572 468.688 254.572 466.731C254.572 464.773 253.819 462.942 252.439 461.561C251.058 460.181 249.227 459.428 247.269 459.428C245.312 459.428 243.48 460.181 242.099 461.561C240.644 463.017 239.966 465.25 239.69 466.455C239.665 466.605 239.565 466.656 239.464 466.681C239.389 466.706 239.264 466.706 239.163 466.605L226.038 453.481C225.085 452.527 223.83 452 222.5 452C221.17 452 219.89 452.527 218.962 453.481L205.837 466.605C205.134 467.308 204.858 468.337 205.134 469.291C205.41 470.244 206.163 470.972 207.142 471.198C208.773 471.574 210.128 472.227 210.881 472.98C212.788 474.887 212.788 477.999 210.881 479.881C208.974 481.788 205.862 481.788 203.98 479.881C203.227 479.128 202.574 477.773 202.198 476.142C201.972 475.188 201.244 474.41 200.291 474.134C199.337 473.858 198.308 474.134 197.605 474.837L184.481 487.962C183.527 488.915 183 490.17 183 491.5C183 492.83 183.527 494.11 184.481 495.038L197.605 508.163C197.706 508.264 197.706 508.389 197.681 508.464C197.656 508.54 197.605 508.64 197.455 508.69C196.25 508.966 194.017 509.669 192.561 511.099C191.181 512.48 190.428 514.312 190.428 516.269C190.428 518.227 191.181 520.058 192.561 521.439C193.942 522.819 195.773 523.572 197.731 523.572C199.688 523.572 201.52 522.819 202.901 521.439C204.356 519.983 205.034 517.75 205.31 516.545C205.335 516.395 205.435 516.344 205.536 516.319C205.611 516.294 205.736 516.294 205.837 516.395L218.962 529.519C219.915 530.473 221.17 531 222.5 531C223.83 531 225.11 530.473 226.038 529.519L239.163 516.395C239.841 515.717 240.117 514.688 239.841 513.734ZM237.432 514.713L224.307 527.838C223.805 528.34 223.152 528.591 222.475 528.591C221.772 528.591 221.12 528.315 220.643 527.838L207.518 514.713C206.991 514.186 206.314 513.91 205.586 513.91C205.335 513.91 205.084 513.935 204.833 514.01C203.879 514.287 203.152 515.039 202.926 516.018C202.549 517.649 201.897 519.004 201.144 519.757C200.215 520.686 198.986 521.188 197.681 521.188C196.376 521.188 195.146 520.686 194.218 519.757C193.289 518.829 192.787 517.599 192.787 516.294C192.787 514.989 193.289 513.76 194.218 512.831C194.97 512.078 196.326 511.426 197.957 511.049C198.91 510.823 199.688 510.096 199.964 509.142C200.24 508.188 199.964 507.159 199.262 506.457L186.137 493.332C185.635 492.83 185.384 492.178 185.384 491.5C185.384 490.797 185.66 490.145 186.137 489.668L199.262 476.543C199.362 476.443 199.488 476.443 199.563 476.468C199.638 476.493 199.739 476.543 199.789 476.694C200.065 477.898 200.742 480.132 202.198 481.587C205.034 484.423 209.676 484.423 212.537 481.587C215.373 478.752 215.373 474.109 212.537 471.248C211.082 469.793 208.848 469.115 207.644 468.839C207.493 468.814 207.443 468.713 207.418 468.613C207.393 468.538 207.393 468.412 207.493 468.312L220.618 455.187C221.12 454.685 221.772 454.434 222.45 454.434C223.152 454.434 223.805 454.71 224.282 455.187L237.407 468.312C238.109 469.015 239.138 469.266 240.092 469.015C241.045 468.739 241.773 467.986 241.999 467.007C242.375 465.376 243.028 464.021 243.781 463.268C244.709 462.339 245.939 461.837 247.244 461.837C248.549 461.837 249.779 462.339 250.707 463.268C251.636 464.196 252.138 465.426 252.138 466.731C252.138 468.036 251.636 469.266 250.707 470.194C249.954 470.947 248.599 471.599 246.968 471.976C246.014 472.202 245.236 472.929 244.96 473.883C244.684 474.837 244.96 475.866 245.663 476.568L258.788 489.693C259.29 490.195 259.541 490.848 259.541 491.525C259.541 492.228 259.265 492.88 258.788 493.357L245.663 506.482C245.563 506.582 245.437 506.582 245.362 506.557C245.287 506.532 245.186 506.482 245.136 506.331C244.86 505.127 244.182 502.893 242.727 501.438C241.347 500.058 239.515 499.305 237.557 499.305C235.6 499.305 233.768 500.058 232.388 501.438C231.007 502.818 230.254 504.65 230.254 506.607C230.254 508.565 231.007 510.397 232.388 511.777C233.843 513.233 236.077 513.91 237.281 514.186C237.432 514.211 237.482 514.312 237.507 514.412C237.557 514.487 237.557 514.613 237.432 514.713Z" fill="white" fill-opacity="0.07"/>
<path d="M315.86 343.031H312.539C311.625 343.031 310.913 343.776 310.913 344.657C310.913 345.572 311.658 346.284 312.539 346.284H315.86C316.707 371.085 336.731 391.109 361.532 391.922V395.243C361.532 396.157 362.278 396.869 363.159 396.869C364.073 396.869 364.785 396.123 364.785 395.243V391.922C389.586 391.075 409.61 371.051 410.424 346.284H413.744C414.659 346.284 415.37 345.538 415.37 344.657C415.37 343.742 414.625 343.031 413.744 343.031H410.424C409.577 318.229 389.553 298.205 364.785 297.392V294.072C364.785 293.157 364.04 292.445 363.159 292.445C362.244 292.445 361.532 293.191 361.532 294.072V297.392C336.697 298.239 316.707 318.229 315.86 343.031ZM361.498 388.703C338.493 387.856 319.959 369.323 319.112 346.317H331.107C331.92 362.716 345.1 375.896 361.498 376.709V388.703ZM364.751 388.703V376.709C381.15 375.896 394.33 362.716 395.143 346.317H407.137C406.324 369.289 387.757 387.856 364.751 388.703ZM364.751 300.645C387.757 301.492 406.29 320.025 407.137 343.031H395.143C394.33 326.632 381.15 313.452 364.751 312.639V300.645ZM363.125 329.58C364.04 329.58 364.751 328.834 364.751 327.954V315.926C379.32 316.739 391.043 328.462 391.856 343.031H379.828C378.914 343.031 378.202 343.776 378.202 344.657C378.202 345.572 378.948 346.284 379.828 346.284H391.856C391.043 360.853 379.32 372.576 364.751 373.389V361.361C364.751 360.446 364.006 359.735 363.125 359.735C362.21 359.735 361.498 360.48 361.498 361.361V373.389C346.929 372.576 335.206 360.853 334.393 346.284H346.421C347.336 346.284 348.047 345.538 348.047 344.657C348.047 343.742 347.302 343.031 346.421 343.031H334.393C335.206 328.462 346.929 316.739 361.498 315.926V327.954C361.498 328.834 362.244 329.58 363.125 329.58ZM361.498 300.645V312.639C345.1 313.452 331.92 326.632 331.107 343.031H319.112C319.959 320.025 338.493 301.492 361.498 300.645Z" fill="white" fill-opacity="0.07"/>
<path d="M138.387 264.154V253.041H144.656C154.278 253.041 162.071 245.214 162.071 235.626V189.818C162.071 180.195 154.244 172.403 144.656 172.403H127.308L84.7866 172.098C80.1448 172.064 75.7063 173.86 72.3859 177.146C69.0655 180.433 67.2358 184.837 67.2358 189.513V235.592C67.2358 245.214 75.0625 253.007 84.651 253.007H110.842L127.647 268.762C128.867 269.914 130.391 270.49 131.984 270.49C132.831 270.49 133.712 270.321 134.559 269.948C136.931 268.999 138.387 266.729 138.387 264.154ZM135.135 251.415V264.154C135.135 265.442 134.423 266.492 133.271 267C132.085 267.509 130.832 267.305 129.917 266.424L112.637 250.229C112.332 249.958 111.926 249.788 111.519 249.788H84.6849C76.8921 249.788 70.5224 243.453 70.5224 235.626V189.547C70.5224 185.752 72.0132 182.161 74.6898 179.484C77.3665 176.841 80.8902 175.384 84.651 175.384C84.6849 175.384 84.7188 175.384 84.7527 175.384L127.274 175.655H144.656C152.448 175.655 158.818 182.025 158.818 189.818V235.626C158.818 243.419 152.448 249.788 144.656 249.788H136.761C135.846 249.788 135.135 250.5 135.135 251.415Z" fill="white" fill-opacity="0.07"/>
<path d="M114.67 210.316C112.908 210.316 111.451 211.739 111.451 213.535C111.451 215.297 112.874 216.754 114.67 216.754C116.432 216.754 117.889 215.331 117.889 213.535C117.855 211.739 116.432 210.316 114.67 210.316ZM114.67 213.569C114.636 213.569 114.636 213.535 114.636 213.535L114.67 213.501V213.569Z" fill="white" fill-opacity="0.07"/>
<path d="M136.761 210.316C134.999 210.316 133.542 211.739 133.542 213.535C133.542 215.297 134.965 216.754 136.761 216.754C138.523 216.754 139.98 215.331 139.98 213.535C139.98 211.739 138.523 210.316 136.761 210.316ZM136.761 213.569C136.727 213.569 136.727 213.535 136.727 213.535L136.761 213.501V213.569Z" fill="white" fill-opacity="0.07"/>
<path d="M92.5454 210.316C90.7836 210.316 89.3267 211.739 89.3267 213.535C89.3267 215.297 90.7497 216.754 92.5454 216.754C94.3073 216.754 95.7642 215.331 95.7642 213.535C95.7642 211.739 94.3073 210.316 92.5454 210.316ZM92.5454 213.569C92.5115 213.569 92.5115 213.535 92.5115 213.535L92.5454 213.501V213.569Z" fill="white" fill-opacity="0.07"/>
<path d="M236.542 630.788C236.542 639.97 243.996 647.424 253.178 647.424C262.36 647.424 269.814 639.97 269.814 630.788C269.814 621.606 262.36 614.152 253.178 614.152C243.996 614.152 236.542 621.606 236.542 630.788ZM253.145 617.405C260.531 617.405 266.528 623.402 266.528 630.788C266.528 638.174 260.531 644.171 253.145 644.171C245.758 644.171 239.761 638.174 239.761 630.788C239.795 623.402 245.792 617.405 253.145 617.405Z" fill="white" fill-opacity="0.07"/>
<path d="M241.286 704.277V680.289C241.286 679.374 240.54 678.663 239.659 678.663C238.745 678.663 238.033 679.408 238.033 680.289V704.277C238.033 706.683 236.068 708.648 233.662 708.648C231.257 708.648 229.292 706.683 229.292 704.277V672.767C229.292 665.381 235.289 659.384 242.675 659.384H263.682C271.068 659.384 277.065 665.381 277.065 672.767V704.277C277.065 706.683 275.1 708.648 272.694 708.648C270.289 708.648 268.323 706.683 268.323 704.277V680.289C268.323 679.374 267.578 678.663 266.697 678.663C265.782 678.663 265.071 679.408 265.071 680.289V704.277C265.071 708.479 268.493 711.901 272.694 711.901C276.895 711.901 280.318 708.479 280.318 704.277V672.767C280.318 663.586 272.864 656.132 263.682 656.132H242.675C233.493 656.132 226.039 663.586 226.039 672.767V704.277C226.039 708.479 229.461 711.901 233.662 711.901C237.864 711.901 241.286 708.479 241.286 704.277Z" fill="white" fill-opacity="0.07"/>
<path d="M299.664 620.42C308.846 620.42 316.3 612.966 316.3 603.784C316.3 594.603 308.846 587.149 299.664 587.149C290.482 587.149 283.028 594.603 283.028 603.784C283.028 612.966 290.482 620.42 299.664 620.42ZM299.664 590.401C307.05 590.401 313.048 596.398 313.048 603.784C313.048 611.171 307.05 617.168 299.664 617.168C292.278 617.168 286.281 611.171 286.281 603.784C286.281 596.398 292.278 590.401 299.664 590.401Z" fill="white" fill-opacity="0.07"/>
<path d="M323.517 645.798V677.308C323.517 679.713 321.552 681.679 319.146 681.679C316.741 681.679 314.776 679.713 314.776 677.308V675.783V653.286C314.776 652.371 314.03 651.659 313.149 651.659C312.235 651.659 311.523 652.405 311.523 653.286V677.274V711.765C311.523 712.68 312.268 713.392 313.149 713.392C314.064 713.392 314.776 712.646 314.776 711.765V683.542C316.029 684.423 317.52 684.931 319.146 684.931C323.348 684.931 326.77 681.509 326.77 677.308V645.798C326.77 636.616 319.316 629.162 310.134 629.162H289.127C285.163 629.162 281.301 630.585 278.285 633.16C277.607 633.736 277.54 634.786 278.116 635.464C278.692 636.141 279.742 636.209 280.42 635.633C282.825 633.566 285.942 632.415 289.127 632.415H310.134C317.52 632.415 323.517 638.412 323.517 645.798Z" fill="white" fill-opacity="0.07"/>
<path d="M301.291 711.765V679.341C301.291 678.426 300.545 677.714 299.664 677.714C298.75 677.714 298.038 678.46 298.038 679.341V711.765C298.038 712.68 298.783 713.392 299.664 713.392C300.545 713.426 301.291 712.68 301.291 711.765Z" fill="white" fill-opacity="0.07"/>
<path d="M207.404 620.42C216.586 620.42 224.04 612.966 224.04 603.784C224.04 594.603 216.586 587.149 207.404 587.149C198.223 587.149 190.769 594.603 190.769 603.784C190.769 612.966 198.223 620.42 207.404 620.42ZM207.404 590.401C214.791 590.401 220.788 596.398 220.788 603.784C220.788 611.171 214.791 617.168 207.404 617.168C200.018 617.168 194.021 611.171 194.021 603.784C194.021 596.398 200.018 590.401 207.404 590.401Z" fill="white" fill-opacity="0.07"/>
<path d="M228.174 635.464C228.75 634.786 228.682 633.736 228.004 633.16C224.989 630.585 221.16 629.162 217.162 629.162H196.155C186.974 629.162 179.52 636.616 179.52 645.798V677.308C179.52 681.509 182.942 684.931 187.143 684.931C188.769 684.931 190.26 684.423 191.514 683.542V711.799C191.514 712.714 192.259 713.426 193.14 713.426C194.021 713.426 194.766 712.68 194.766 711.799V677.308V653.32C194.766 652.405 194.021 651.693 193.14 651.693C192.225 651.693 191.514 652.439 191.514 653.32V675.817V677.342C191.514 679.747 189.549 681.712 187.143 681.712C184.737 681.712 182.772 679.747 182.772 677.342V645.832C182.772 638.445 188.769 632.448 196.155 632.448H217.162C220.347 632.448 223.464 633.6 225.87 635.667C226.547 636.209 227.564 636.141 228.174 635.464Z" fill="white" fill-opacity="0.07"/>
<path d="M208.285 711.765V679.341C208.285 678.426 207.54 677.714 206.659 677.714C205.778 677.714 205.033 678.46 205.033 679.341V711.765C205.033 712.68 205.778 713.392 206.659 713.392C207.54 713.392 208.285 712.68 208.285 711.765Z" fill="white" fill-opacity="0.07"/>
<path d="M299.664 578.407C300.579 578.407 301.29 577.662 301.29 576.781V566.278C301.29 561.229 297.191 557.163 292.176 557.163H284.688C283.774 557.163 283.062 557.909 283.062 558.79C283.062 559.704 283.807 560.416 284.688 560.416H292.176C295.429 560.416 298.038 563.059 298.038 566.278V576.781C298.038 577.696 298.749 578.407 299.664 578.407Z" fill="white" fill-opacity="0.07"/>
<path d="M206.659 578.407C207.574 578.407 208.285 577.662 208.285 576.781V566.278C208.285 563.025 210.928 560.416 214.147 560.416H221.635C222.55 560.416 223.261 559.671 223.261 558.79C223.261 557.875 222.516 557.163 221.635 557.163H214.147C209.099 557.163 205.033 561.263 205.033 566.278V576.781C205.033 577.696 205.744 578.407 206.659 578.407Z" fill="white" fill-opacity="0.07"/>
<path d="M256.296 597.787C256.296 596.059 254.907 594.67 253.179 594.67C251.451 594.67 250.062 596.059 250.062 597.787C250.062 599.515 251.451 600.905 253.179 600.905C254.873 600.905 256.296 599.515 256.296 597.787ZM253.043 597.787C253.043 597.72 253.111 597.652 253.179 597.652C253.246 597.652 253.314 597.72 253.314 597.787C253.28 597.923 253.043 597.923 253.043 597.787Z" fill="white" fill-opacity="0.07"/>
<path d="M268.798 530.43C264.291 526.128 258.362 523.891 252.094 524.196C240.744 524.704 231.291 533.988 230.579 545.338C230.342 549.065 230.986 552.657 232.477 556.011C232.849 556.824 233.798 557.197 234.645 556.824C235.458 556.452 235.831 555.503 235.458 554.656C234.171 551.776 233.629 548.693 233.832 545.508C234.442 535.818 242.539 527.889 252.23 527.415C257.583 527.178 262.665 529.075 266.528 532.768C270.39 536.461 272.525 541.442 272.525 546.761C272.525 553.301 265.986 559.332 257.414 566.514C253.653 569.666 251.518 574.307 251.518 579.22V584.235C251.518 585.149 252.264 585.861 253.144 585.861C254.059 585.861 254.771 585.116 254.771 584.235V579.22C254.771 575.256 256.499 571.529 259.514 569.022C268.73 561.263 275.777 554.724 275.777 546.761C275.777 540.561 273.304 534.733 268.798 530.43Z" fill="white" fill-opacity="0.07"/>
<path d="M358.449 625.943C361.736 623.47 365.632 619.743 365.632 616.016C365.632 612.797 364.345 609.781 362.041 607.579C359.737 605.343 356.653 604.191 353.435 604.293C347.573 604.53 342.626 609.273 342.186 615.101C342.05 616.93 342.321 618.692 342.965 620.353C343.304 621.2 344.253 621.606 345.066 621.267C345.913 620.928 346.319 619.98 345.981 619.167C345.506 617.947 345.303 616.693 345.405 615.372C345.71 611.171 349.301 607.749 353.536 607.579C355.874 607.477 358.076 608.325 359.737 609.951C361.397 611.577 362.346 613.746 362.346 616.05C362.346 617.811 360.075 620.624 356.45 623.368C353.807 625.367 352.249 628.552 352.249 631.94V633.6C352.249 634.515 352.994 635.227 353.875 635.227C354.79 635.227 355.501 634.481 355.501 633.6V631.94C355.535 629.534 356.62 627.332 358.449 625.943Z" fill="white" fill-opacity="0.07"/>
<path d="M351.368 641.732C351.368 643.121 352.52 644.273 353.909 644.273C355.298 644.273 356.45 643.121 356.45 641.732C356.45 640.343 355.298 639.191 353.909 639.191C352.486 639.191 351.368 640.343 351.368 641.732ZM354.62 641.732C354.62 642.139 354.315 642.443 353.909 642.443C353.502 642.443 353.197 642.139 353.197 641.732C353.197 641.325 353.502 641.02 353.909 641.02C354.282 641.02 354.62 641.359 354.62 641.732Z" fill="white" fill-opacity="0.07"/>
<path d="M268.256 756.388C272.864 752.898 278.352 747.714 278.352 742.632C278.352 738.193 276.591 734.026 273.372 730.942C270.153 727.859 265.952 726.233 261.513 726.436C253.415 726.741 246.605 733.314 245.995 741.378C245.792 743.885 246.165 746.325 247.08 748.629C247.418 749.476 248.367 749.882 249.18 749.543C250.027 749.205 250.434 748.256 250.095 747.443C249.35 745.613 249.079 743.648 249.214 741.649C249.722 735.212 255.143 729.96 261.615 729.723C265.172 729.587 268.561 730.875 271.102 733.348C273.677 735.821 275.066 739.142 275.066 742.665C275.066 745.478 271.779 749.645 266.257 753.813C262.631 756.557 260.497 760.962 260.497 765.57V767.941C260.497 768.856 261.242 769.568 262.123 769.568C263.038 769.568 263.749 768.822 263.749 767.941V765.57C263.749 761.944 265.443 758.488 268.256 756.388Z" fill="white" fill-opacity="0.07"/>
<path d="M259.176 779.766C259.176 781.392 260.497 782.714 262.123 782.714C263.75 782.714 265.071 781.392 265.071 779.766C265.071 778.14 263.75 776.818 262.123 776.818C260.497 776.784 259.176 778.14 259.176 779.766ZM262.428 779.766C262.428 779.935 262.293 780.071 262.123 780.071C261.954 780.071 261.819 779.935 261.819 779.766C261.819 779.597 261.954 779.461 262.123 779.461C262.293 779.461 262.428 779.597 262.428 779.766Z" fill="white" fill-opacity="0.07"/>
<path d="M75.8529 569.455C76.563 569.811 77.3357 570 78.1084 570C79.1318 570 80.1551 569.685 81.0114 569.056L103.734 552.487H116.85C117.414 552.487 117.852 552.025 117.852 551.48C117.852 550.914 117.393 550.473 116.85 550.473H103.4C103.191 550.473 102.982 550.536 102.815 550.662L79.8419 567.42C78.9229 568.091 77.7743 568.175 76.7718 567.672C75.7693 567.148 75.1637 566.162 75.1637 565.029V552.508H85.2301C85.794 552.508 86.2326 552.046 86.2326 551.501C86.2326 550.935 85.7731 550.494 85.2301 550.494H67.8331C59.6672 550.494 53.0049 543.825 53.0049 535.603V487.133C53.0049 478.932 59.6463 472.242 67.8331 472.242H123.22C131.385 472.242 138.048 478.911 138.048 487.133V532.415C138.048 532.981 138.507 533.422 139.05 533.422C139.614 533.422 140.053 532.96 140.053 532.415V487.133C140.053 477.821 132.513 470.228 123.22 470.228H67.8331C58.5603 470.228 51 477.8 51 487.133V535.603C51 544.915 58.5394 552.508 67.8331 552.508H73.1587V565.029C73.1378 566.896 74.1821 568.595 75.8529 569.455Z" fill="white" fill-opacity="0.07"/>
<path d="M135.362 558.456C137.653 558.456 139.965 557.582 141.71 555.855L142.383 555.19C145.873 551.736 145.873 546.098 142.383 542.623L128.614 528.995C130.653 525.583 130.211 521.11 127.247 518.197L124.577 515.555C124.998 513.599 125.208 511.581 125.208 509.5C125.208 493.314 111.901 480.123 95.5252 480.123C79.1491 480.123 65.8423 493.293 65.8423 509.5C65.8423 525.687 79.1491 538.878 95.5252 538.878C97.6274 538.878 99.6665 538.649 101.643 538.254L104.312 540.896C106.057 542.623 108.37 543.497 110.661 543.497C112.238 543.497 113.835 543.081 115.244 542.249L129.013 555.876C130.779 557.582 133.07 558.456 135.362 558.456ZM101.348 536.257C99.4773 536.652 97.5433 536.86 95.5462 536.86C80.3053 536.86 67.8814 524.585 67.8814 509.48C67.8814 494.375 80.2843 482.099 95.5462 482.099C110.808 482.099 123.211 494.375 123.211 509.48C123.211 511.456 123.001 513.37 122.601 515.222C122.454 515.43 122.391 515.68 122.433 515.929C119.995 525.854 112.09 533.677 102.084 536.069C101.832 536.048 101.558 536.111 101.348 536.257ZM105.763 539.461L103.934 537.65C113.562 534.842 121.172 527.31 124.01 517.781L125.839 519.591C128.551 522.275 128.551 526.644 125.839 529.328L115.601 539.461C112.889 542.145 108.475 542.145 105.763 539.461ZM117.031 540.875L127.268 530.743C127.31 530.701 127.352 530.639 127.394 530.597L140.974 544.038C143.686 546.722 143.686 551.091 140.974 553.775L140.281 554.461C137.569 557.145 133.154 557.145 130.443 554.461L116.883 541.042C116.925 540.959 116.989 540.917 117.031 540.875Z" fill="white" fill-opacity="0.07"/>
<path d="M95.1591 492.499C90.2096 492.685 86.0281 496.568 85.6655 501.34C85.5375 502.828 85.7721 504.274 86.3268 505.637C86.5402 506.154 87.1375 506.402 87.6495 506.195C88.1829 505.988 88.4389 505.41 88.2256 504.914C87.7775 503.84 87.6069 502.683 87.6922 501.506C87.9909 497.725 91.2977 494.647 95.2231 494.503C97.3779 494.42 99.4259 495.184 100.983 496.63C102.541 498.076 103.394 500.018 103.394 502.125C103.394 503.778 101.389 506.236 98.0392 508.674C95.8205 510.285 94.4978 512.909 94.4978 515.656V517.061C94.4978 517.619 94.9671 518.053 95.5218 518.053C96.0978 518.053 96.5458 517.598 96.5458 517.061V515.656C96.5458 513.529 97.5699 511.504 99.2553 510.265C102.071 508.199 105.421 505.121 105.421 502.125C105.421 499.481 104.333 497.044 102.391 495.205C100.471 493.346 97.8899 492.396 95.1591 492.499Z" fill="white" fill-opacity="0.07"/>
<path d="M95.4554 525.474C94.1423 525.474 93.0527 526.563 93.0527 527.876C93.0527 529.189 94.1423 530.279 95.4554 530.279C96.7684 530.279 97.858 529.189 97.858 527.876C97.858 526.563 96.7964 525.474 95.4554 525.474ZM95.4554 528.156C95.2877 528.156 95.176 528.016 95.176 527.876C95.176 527.737 95.3157 527.597 95.4554 527.597C95.623 527.597 95.7347 527.737 95.7347 527.876C95.7347 528.016 95.623 528.156 95.4554 528.156Z" fill="white" fill-opacity="0.07"/>
<path d="M369.257 516.403C367.597 516.403 366.242 517.759 366.242 519.419C366.242 521.079 367.597 522.434 369.257 522.434C370.917 522.434 372.273 521.079 372.273 519.419C372.306 517.759 370.917 516.403 369.257 516.403ZM369.257 519.656C369.122 519.656 369.02 519.554 369.02 519.419C369.02 519.283 369.122 519.182 369.257 519.182C369.393 519.182 369.494 519.283 369.494 519.419C369.494 519.554 369.393 519.656 369.257 519.656Z" fill="white" fill-opacity="0.07"/>
<path d="M287.467 806.837C285.502 808.802 284.587 811.818 284.214 813.444C284.18 813.648 284.045 813.715 283.909 813.749C283.808 813.783 283.638 813.783 283.503 813.648L265.783 795.927C264.495 794.64 262.801 793.928 261.005 793.928C259.209 793.928 257.481 794.64 256.228 795.927L238.508 813.648C237.559 814.596 237.186 815.985 237.559 817.273C237.932 818.56 238.948 819.543 240.27 819.848C241.489 820.119 242.607 820.526 243.522 821H248.537C248.266 820.627 247.961 820.255 247.622 819.916C245.657 817.951 242.641 817.036 241.015 816.663C240.812 816.629 240.744 816.494 240.71 816.358C240.676 816.256 240.676 816.087 240.812 815.952L258.532 798.231C259.209 797.554 260.09 797.215 261.005 797.215C261.954 797.215 262.835 797.588 263.479 798.231L281.199 815.952C282.147 816.9 283.536 817.273 284.824 816.9C286.112 816.528 287.094 815.511 287.399 814.19C287.907 811.987 288.788 810.158 289.805 809.141C292.38 806.566 296.581 806.566 299.122 809.141C300.376 810.395 301.053 812.055 301.053 813.817C301.053 815.579 300.376 817.239 299.122 818.493C298.106 819.509 296.276 820.39 294.074 820.898C293.938 820.932 293.803 820.966 293.667 821.034H301.189C301.257 820.966 301.358 820.898 301.426 820.831C303.29 818.967 304.306 816.494 304.306 813.851C304.306 811.208 303.29 808.735 301.426 806.871C297.564 803.009 291.295 803.009 287.467 806.837Z" fill="white" fill-opacity="0.07"/>
<path d="M413.744 758.082H410.424C409.577 733.28 389.553 713.256 364.751 712.443V709.123C364.751 708.208 364.006 707.496 363.125 707.496C362.21 707.496 361.498 708.242 361.498 709.123V712.443C336.697 713.29 316.673 733.314 315.86 758.082H312.539C311.625 758.082 310.913 758.827 310.913 759.708C310.913 760.589 311.658 761.334 312.539 761.334H315.86C316.707 786.136 336.731 806.16 361.498 806.973V810.293C361.498 811.208 362.244 811.92 363.125 811.92C364.04 811.92 364.751 811.174 364.751 810.293V806.973C389.553 806.126 409.577 786.102 410.424 761.334H413.744C414.659 761.334 415.37 760.589 415.37 759.708C415.37 758.827 414.625 758.082 413.744 758.082ZM361.498 715.696V727.69C345.1 728.503 331.92 741.683 331.107 758.082H319.112C319.959 735.076 338.493 716.543 361.498 715.696ZM361.498 803.72C338.493 802.873 319.959 784.34 319.112 761.334H331.107C331.92 777.733 345.1 790.913 361.498 791.726V803.72ZM363.125 774.785C362.21 774.785 361.498 775.531 361.498 776.412V788.44C346.929 787.627 335.206 775.904 334.393 761.334H346.421C347.336 761.334 348.047 760.589 348.047 759.708C348.047 758.827 347.302 758.082 346.421 758.082H334.393C335.206 743.513 346.929 731.79 361.498 730.976V743.004C361.498 743.919 362.244 744.631 363.125 744.631C364.04 744.631 364.751 743.885 364.751 743.004V730.976C379.32 731.79 391.043 743.513 391.856 758.082H379.828C378.914 758.082 378.202 758.827 378.202 759.708C378.202 760.589 378.948 761.334 379.828 761.334H391.856C391.043 775.904 379.32 787.627 364.751 788.44V776.412C364.751 775.531 364.04 774.785 363.125 774.785ZM364.751 803.72V791.726C381.15 790.913 394.33 777.733 395.143 761.334H407.137C406.324 784.34 387.757 802.907 364.751 803.72ZM395.143 758.082C394.33 741.683 381.15 728.503 364.751 727.69V715.696C387.757 716.543 406.29 735.076 407.137 758.082H395.143Z" fill="white" fill-opacity="0.07"/>
<path d="M144.656 587.453H127.308L84.7866 587.149C80.1109 587.115 75.7063 588.91 72.3859 592.197C69.0655 595.483 67.2358 599.888 67.2358 604.564V650.643C67.2358 660.265 75.0625 668.058 84.651 668.058H110.842L127.647 683.813C128.867 684.965 130.391 685.541 131.984 685.541C132.831 685.541 133.712 685.372 134.559 684.999C136.931 683.982 138.387 681.746 138.387 679.171V668.058H144.656C154.278 668.058 162.071 660.231 162.071 650.643V604.835C162.071 595.246 154.278 587.453 144.656 587.453ZM158.818 650.677C158.818 658.47 152.448 664.839 144.656 664.839H136.761C135.846 664.839 135.135 665.585 135.135 666.466V679.205C135.135 680.493 134.423 681.543 133.271 682.051C132.085 682.559 130.832 682.356 129.917 681.475L112.637 665.28C112.332 665.009 111.926 664.839 111.519 664.839H84.6849C76.8921 664.839 70.5224 658.47 70.5224 650.677V604.598C70.5224 600.803 72.0132 597.211 74.6898 594.535C77.3665 591.892 80.8902 590.435 84.651 590.435C84.6849 590.435 84.7188 590.435 84.7527 590.435L127.274 590.706H144.656C152.448 590.706 158.818 597.076 158.818 604.869V650.677Z" fill="white" fill-opacity="0.07"/>
<path d="M114.67 625.333C112.908 625.333 111.451 626.756 111.451 628.552C111.451 630.348 112.874 631.771 114.67 631.771C116.432 631.771 117.889 630.348 117.889 628.552C117.889 626.756 116.432 625.333 114.67 625.333ZM114.67 628.62C114.636 628.62 114.636 628.586 114.636 628.586L114.67 628.518V628.62Z" fill="white" fill-opacity="0.07"/>
<path d="M136.761 625.333C134.999 625.333 133.542 626.756 133.542 628.552C133.542 630.348 134.965 631.771 136.761 631.771C138.523 631.771 139.98 630.348 139.98 628.552C139.98 626.756 138.556 625.333 136.761 625.333ZM136.761 628.62C136.727 628.62 136.727 628.586 136.727 628.586L136.761 628.518V628.62Z" fill="white" fill-opacity="0.07"/>
<path d="M92.5454 625.333C90.7836 625.333 89.3267 626.756 89.3267 628.552C89.3267 630.348 90.7497 631.771 92.5454 631.771C94.3073 631.771 95.7642 630.348 95.7642 628.552C95.7642 626.756 94.3073 625.333 92.5454 625.333ZM92.5454 628.62C92.5115 628.62 92.5115 628.586 92.5115 628.586L92.5454 628.518V628.62Z" fill="white" fill-opacity="0.07"/>
<path d="M216.654 734.602H186.94V728.029C186.94 726.504 185.991 725.149 184.568 724.64C183.111 724.132 181.553 724.573 180.57 725.759L164.273 745.783C162.782 747.646 162.782 750.323 164.273 752.186L180.57 772.21C181.282 773.057 182.264 773.532 183.348 773.532C183.755 773.532 184.161 773.464 184.568 773.328C186.025 772.82 186.94 771.499 186.94 769.94V763.367H216.654C220.245 763.367 223.193 760.453 223.193 756.828V741.141C223.193 737.515 220.279 734.602 216.654 734.602ZM219.941 756.794C219.941 758.59 218.484 760.047 216.688 760.047H185.347C184.432 760.047 183.721 760.792 183.721 761.673V769.872C183.721 769.94 183.721 770.11 183.518 770.177C183.314 770.245 183.179 770.11 183.145 770.076L166.848 750.052C166.306 749.408 166.306 748.425 166.848 747.782L183.145 727.758C183.179 727.724 183.247 727.622 183.382 727.622C183.416 727.622 183.45 727.622 183.518 727.656C183.721 727.724 183.721 727.893 183.721 727.961V736.16C183.721 737.075 184.466 737.787 185.347 737.787H216.688C218.484 737.787 219.941 739.243 219.941 741.039V756.794Z" fill="white" fill-opacity="0.07"/>
<path d="M204.863 769.534C203.881 768.348 202.322 767.907 200.865 768.416C199.408 768.924 198.494 770.245 198.494 771.804V778.377H168.779C165.188 778.377 162.24 781.291 162.24 784.916V800.603C162.24 804.195 165.154 807.142 168.779 807.142H198.494V813.715C198.494 815.24 199.442 816.595 200.865 817.104C201.272 817.239 201.679 817.307 202.085 817.307C203.135 817.307 204.152 816.833 204.863 815.986L221.16 795.962C222.651 794.098 222.651 791.421 221.16 789.558L204.863 769.534ZM218.653 793.895L202.356 813.919C202.322 813.953 202.221 814.088 201.983 814.02C201.78 813.953 201.78 813.783 201.78 813.715V805.516C201.78 804.601 201.035 803.89 200.154 803.89H168.813C167.018 803.89 165.561 802.433 165.561 800.637V784.95C165.561 783.154 167.018 781.697 168.813 781.697H200.154C201.069 781.697 201.78 780.952 201.78 780.071V771.872C201.78 771.804 201.78 771.634 201.983 771.567C202.187 771.499 202.322 771.634 202.356 771.668L218.653 791.692C219.195 792.268 219.195 793.217 218.653 793.895Z" fill="white" fill-opacity="0.07"/>
<path d="M18.0055 13.7685C18.8525 13.4297 19.2591 12.481 18.9203 11.6679C18.4459 10.4481 18.2426 9.19449 18.3443 7.87311C18.6492 3.67178 22.2407 0.249724 26.4759 0.0803151C28.8137 -0.0213301 31.016 0.825712 32.6762 2.45203C34.3365 4.07836 35.2851 6.24679 35.2851 8.55074C35.2851 10.3126 33.0151 13.1248 29.3897 15.8692C26.7469 17.8682 25.1884 21.0531 25.1884 24.4413V26.1015C25.1884 27.0163 25.9338 27.7278 26.8147 27.7278C27.7295 27.7278 28.441 26.9824 28.441 26.1015V24.4413C28.441 22.0695 29.5253 19.8672 31.3549 18.4781C34.6414 16.0047 38.5378 12.2777 38.5378 8.55074C38.5378 5.33198 37.2503 2.31651 34.9463 0.0803151C32.6424 -2.15588 29.593 -3.30785 26.3404 -3.20621C20.4788 -2.96904 15.5321 1.7744 15.0917 7.60205C14.9561 9.43167 15.2272 11.1935 15.8709 12.8537C16.2097 13.7008 17.1584 14.1073 18.0055 13.7685Z" fill="white" fill-opacity="0.07"/>
<path d="M24.2397 34.267C24.2397 35.6561 25.3917 36.8081 26.7809 36.8081C28.17 36.8081 29.322 35.6561 29.322 34.267C29.322 32.8778 28.17 31.7258 26.7809 31.7258C25.3917 31.6919 24.2397 32.8439 24.2397 34.267ZM27.5263 34.267C27.5263 34.6735 27.2213 34.9785 26.8147 34.9785C26.4082 34.9785 26.1032 34.6735 26.1032 34.267C26.1032 33.8604 26.4082 33.5554 26.8147 33.5554C27.1874 33.5554 27.5263 33.8604 27.5263 34.267Z" fill="white" fill-opacity="0.07"/>
<path d="M-18.417 220.379C-22.6861 220.379 -25.295 218.143 -26.1421 213.772C-26.4131 212.519 -27.3618 211.57 -28.6493 211.367C-29.9029 211.163 -31.1227 211.739 -31.7664 212.857C-34.7819 218.041 -39.7964 228.545 -39.7964 240.403C-39.7964 251.11 -35.2901 261.41 -27.4296 268.694C-20.2805 275.335 -11.1663 278.893 -1.51006 278.893C-0.493603 278.893 0.522846 278.859 1.5393 278.791C11.636 278.012 20.9196 273.167 27.6282 265.137C34.6078 256.802 37.996 245.892 36.9118 235.185C36.1664 227.664 33.6591 217.601 20.9874 206.183C20.6147 205.844 20.1742 205.471 19.7338 205.098C16.2778 202.083 11.5344 197.949 11.5344 192.427C11.5344 186.633 12.8558 182.77 16.2439 178.705C17.0571 177.756 17.1587 176.401 16.5828 175.316C15.9729 174.198 14.787 173.588 13.5673 173.724C-1.17124 175.384 -11.4713 187.717 -11.4713 203.743C-11.4713 204.59 -11.3358 205.641 -11.1663 206.894C-10.692 210.384 -10.0144 215.703 -12.3861 218.414C-13.7075 219.701 -15.6387 220.379 -18.417 220.379ZM-10.0482 220.447C-6.69396 216.618 -7.50712 210.418 -8.04923 206.352C-8.18476 205.234 -8.32029 204.251 -8.32029 203.642C-8.32029 189.31 0.353436 178.637 13.3301 176.943C9.70478 181.449 8.21398 185.955 8.21398 192.359C8.21398 199.406 13.8045 204.285 17.5314 207.504C17.9719 207.877 18.3785 208.249 18.7512 208.554C30.5759 219.227 32.9137 228.545 33.6253 235.456C34.6078 245.282 31.5246 255.311 25.0871 263.002C18.9206 270.355 10.4502 274.793 1.23436 275.505C-8.62522 276.25 -18.0443 272.997 -25.2611 266.289C-32.4441 259.648 -36.5776 250.195 -36.5776 240.403C-36.5776 232.441 -33.901 223.225 -29.2592 214.958C-27.9378 220.481 -24.0414 223.666 -18.4509 223.666C-14.7239 223.632 -11.8779 222.548 -10.0482 220.447Z" fill="white" fill-opacity="0.07"/>
<path d="M-1.51038 263.307C-0.90051 263.307 -0.290652 263.273 0.319219 263.239C6.21463 262.799 11.6696 259.885 15.6676 255.108C19.9706 249.958 22.0713 243.249 21.3936 236.71C21.292 235.829 20.5127 235.152 19.5979 235.253C18.717 235.355 18.0394 236.134 18.141 237.049C18.717 242.741 16.8874 248.569 13.1604 253.041C9.70446 257.141 5.06266 259.648 0.0481694 260.021C-0.460056 260.055 -1.00216 260.088 -1.51038 260.088C-2.42519 260.088 -3.13672 260.834 -3.13672 261.715C-3.13672 262.596 -2.42519 263.307 -1.51038 263.307Z" fill="white" fill-opacity="0.07"/>
<path d="M-108.61 56.0867C-108.61 54.4943 -109.593 53.1052 -111.117 52.563C-112.642 52.0209 -114.268 52.4953 -115.251 53.7489L-133.174 76.2464C-134.53 77.9404 -134.53 80.346 -133.174 82.0401L-115.251 104.538C-114.235 105.791 -112.608 106.266 -111.117 105.723C-109.593 105.181 -108.61 103.826 -108.61 102.2V94.7119H-96.5145V111.28C-96.5145 121.411 -88.2812 129.678 -78.1167 129.678H-61.5824V141.774H-69.0703C-70.6627 141.774 -72.0519 142.756 -72.594 144.281C-73.1361 145.805 -72.6618 147.432 -71.4081 148.414L-48.9107 166.338C-48.0636 167.015 -47.0472 167.354 -45.9969 167.354C-44.9804 167.354 -43.9301 167.015 -43.083 166.338L-20.5856 148.414C-19.332 147.398 -18.8576 145.772 -19.3997 144.281C-19.9418 142.756 -21.2971 141.774 -22.9234 141.774H-30.4113V129.678H-13.877C-3.74638 129.678 4.52077 121.445 4.52077 111.28V94.7458H16.6165V102.234C16.6165 103.826 17.5991 105.215 19.1238 105.757C20.6485 106.299 22.2748 105.825 23.2573 104.571L41.1808 82.074C42.536 80.3799 42.536 77.9743 41.1808 76.2802L23.2573 53.7828C22.2409 52.5292 20.6146 52.0548 19.1238 52.5969C17.5991 53.139 16.6165 54.4943 16.6165 56.1206V63.6085H4.52077V47.0742C4.52077 36.9436 -3.71249 28.6764 -13.877 28.6764H-30.4113V16.5468H-22.9234C-21.331 16.5468 -19.9418 15.5642 -19.3997 14.0396C-18.8576 12.5149 -19.332 10.8886 -20.5856 9.90599L-43.083 -8.01743C-43.8284 -8.59342 -44.7094 -8.93224 -45.5903 -9H-46.4034C-47.2844 -8.93224 -48.1653 -8.59342 -48.9107 -8.01743L-71.4081 9.90599C-72.6618 10.9224 -73.1361 12.5488 -72.594 14.0396C-72.0519 15.5642 -70.6966 16.5468 -69.0703 16.5468H-61.5824V28.6426H-78.1167C-88.2473 28.6426 -96.5145 36.8758 -96.5145 47.0403V63.5746H-108.61V56.0867ZM-94.8543 66.8272C-93.9395 66.8272 -93.2279 66.0818 -93.2279 65.2009V47.0403C-93.2279 38.7054 -86.4516 31.8952 -78.0828 31.8952H-59.9222C-59.0074 31.8952 -58.2959 31.1498 -58.2959 30.2689V14.9205C-58.2959 14.0057 -59.0413 13.2942 -59.9222 13.2942H-69.0364C-69.3075 13.2942 -69.443 13.1248 -69.4769 12.9892C-69.5108 12.8537 -69.5446 12.6504 -69.3413 12.481L-46.8778 -5.4763C-46.3695 -5.88288 -45.658 -5.88288 -45.1159 -5.4763L-22.6185 12.4471C-22.4152 12.6165 -22.4152 12.8198 -22.4829 12.9553C-22.5168 13.0909 -22.6524 13.2603 -22.9234 13.2603H-32.0376C-32.9524 13.2603 -33.6639 14.0057 -33.6639 14.8866V30.235C-33.6639 31.1498 -32.9185 31.8613 -32.0376 31.8613H-13.877C-5.54211 31.8613 1.26811 38.6377 1.26811 47.0065V65.2009C1.26811 66.1157 2.01353 66.8272 2.89445 66.8272H18.2429C19.1577 66.8272 19.8692 66.0818 19.8692 65.2009V56.0867C19.8692 55.8157 20.0386 55.7141 20.1741 55.6463C20.3096 55.6124 20.5129 55.5785 20.6823 55.7818L38.6058 78.2793C39.0123 78.7875 39.0123 79.499 38.6058 80.0411L20.6823 102.539C20.5129 102.742 20.3096 102.742 20.1741 102.674C20.0386 102.64 19.8692 102.505 19.8692 102.234V93.1194C19.8692 92.2046 19.1238 91.4931 18.2429 91.4931H2.89445C1.97964 91.4931 1.26811 92.2385 1.26811 93.1194V111.28C1.26811 119.615 -5.50822 126.425 -13.877 126.425H-32.0376C-32.9524 126.425 -33.6639 127.171 -33.6639 128.051V143.4C-33.6639 144.315 -32.9185 145.026 -32.0376 145.026H-22.9234C-22.6524 145.026 -22.5507 145.196 -22.4829 145.331C-22.4491 145.467 -22.4152 145.67 -22.6185 145.839L-45.1159 163.797C-45.6241 164.203 -46.3357 164.203 -46.8778 163.797L-69.3752 145.873C-69.5785 145.704 -69.5785 145.501 -69.5107 145.365C-69.4769 145.23 -69.3413 145.06 -69.0703 145.06H-59.9561C-59.0413 145.06 -58.3298 144.315 -58.3298 143.434V128.085C-58.3298 127.171 -59.0752 126.459 -59.9561 126.459H-78.1167C-86.4516 126.459 -93.2618 119.683 -93.2618 111.314V93.1533C-93.2618 92.2385 -94.0072 91.527 -94.8881 91.527H-110.237C-111.151 91.527 -111.863 92.2724 -111.863 93.1533V102.268C-111.863 102.539 -112.032 102.64 -112.168 102.708C-112.303 102.742 -112.507 102.776 -112.676 102.572L-130.599 80.075C-131.006 79.5668 -131.006 78.8553 -130.599 78.3131L-112.676 55.8157C-112.507 55.6124 -112.303 55.6124 -112.168 55.6802C-112.032 55.714 -111.863 55.8496 -111.863 56.1206V65.2009C-111.863 66.1157 -111.117 66.8272 -110.237 66.8272H-94.8543Z" fill="white" fill-opacity="0.07"/>
<path d="M-102.715 346.216H-99.3946C-98.5475 371.017 -78.5234 391.041 -53.7559 391.854V395.175C-53.7559 396.09 -53.0105 396.801 -52.1296 396.801C-51.2148 396.801 -50.5033 396.056 -50.5033 395.175V391.854C-25.7019 391.007 -5.6778 370.983 -4.83075 346.216H-1.51034C-0.595535 346.216 0.115982 345.47 0.115982 344.589C0.115982 343.709 -0.629417 342.963 -1.51034 342.963H-4.83075C-5.6778 318.162 -25.7019 298.138 -50.5033 297.324V294.004C-50.5033 293.089 -51.2487 292.378 -52.1296 292.378C-53.0444 292.378 -53.7559 293.123 -53.7559 294.004V297.324C-78.5573 298.172 -98.5814 318.196 -99.3946 342.963H-102.715C-103.63 342.963 -104.341 343.709 -104.341 344.589C-104.341 345.47 -103.596 346.216 -102.715 346.216ZM-50.5033 388.602V376.608C-34.1045 375.794 -20.9246 362.615 -20.1114 346.216H-8.11728C-8.93044 369.221 -27.4976 387.789 -50.5033 388.602ZM-50.5033 300.577C-27.4976 301.424 -8.96432 319.957 -8.11728 342.963H-20.1114C-20.9246 326.564 -34.1045 313.384 -50.5033 312.571V300.577ZM-52.1296 329.512C-51.2148 329.512 -50.5033 328.767 -50.5033 327.886V315.858C-35.9342 316.671 -24.2111 328.394 -23.3979 342.963H-35.4259C-36.3407 342.963 -37.0523 343.709 -37.0523 344.589C-37.0523 345.47 -36.3069 346.216 -35.4259 346.216H-23.3979C-24.2111 360.785 -35.9342 372.508 -50.5033 373.321V361.327C-50.5033 360.412 -51.2487 359.701 -52.1296 359.701C-53.0444 359.701 -53.7559 360.446 -53.7559 361.327V373.355C-68.3251 372.542 -80.0481 360.819 -80.8613 346.25H-68.8333C-67.9185 346.25 -67.207 345.504 -67.207 344.623C-67.207 343.742 -67.9524 342.997 -68.8333 342.997H-80.8613C-80.0481 328.428 -68.3251 316.705 -53.7559 315.892V327.92C-53.7559 328.767 -53.0105 329.512 -52.1296 329.512ZM-53.7559 300.577V312.571C-70.1547 313.384 -83.3347 326.564 -84.1478 342.963H-96.1419C-95.2949 319.957 -76.7616 301.424 -53.7559 300.577ZM-84.1478 346.216C-83.3347 362.615 -70.1547 375.794 -53.7559 376.608V388.602C-76.7616 387.755 -95.2949 369.221 -96.1419 346.216H-84.1478Z" fill="white" fill-opacity="0.07"/>
<path d="M31.3549 433.495C34.6414 431.022 38.5378 427.295 38.5378 423.568C38.5378 420.349 37.2503 417.333 34.9463 415.131C32.6424 412.895 29.5591 411.743 26.3404 411.845C20.4788 412.082 15.5321 416.825 15.0917 422.653C14.9561 424.482 15.2272 426.244 15.8709 427.905C16.2097 428.752 17.1584 429.158 17.9716 428.819C18.8186 428.48 19.2252 427.532 18.8864 426.719C18.412 425.499 18.2088 424.245 18.3104 422.924C18.6492 418.723 22.2068 415.301 26.442 415.131C28.7799 415.029 30.9822 415.877 32.6424 417.503C34.3026 419.129 35.2513 421.298 35.2513 423.602C35.2513 425.363 32.9812 428.176 29.3558 430.92C26.7131 432.919 25.1545 436.104 25.1545 439.492V441.152C25.1545 442.067 25.8999 442.779 26.7808 442.779C27.6957 442.779 28.4072 442.033 28.4072 441.152V439.492C28.441 437.12 29.5253 434.884 31.3549 433.495Z" fill="white" fill-opacity="0.07"/>
<path d="M24.2739 449.284C24.2739 450.673 25.4259 451.825 26.8151 451.825C28.2042 451.825 29.3562 450.673 29.3562 449.284C29.3562 447.895 28.2042 446.743 26.8151 446.743C25.392 446.743 24.2739 447.895 24.2739 449.284ZM27.5266 449.284C27.5266 449.691 27.2216 449.995 26.8151 449.995C26.4085 449.995 26.1035 449.691 26.1035 449.284C26.1035 448.877 26.4085 448.572 26.8151 448.572C27.1878 448.572 27.5266 448.911 27.5266 449.284Z" fill="white" fill-opacity="0.07"/>
<path d="M27.5941 680.12C34.5738 671.785 37.9619 660.875 36.8777 650.168C36.1323 642.647 33.6251 632.584 20.9533 621.166C20.5806 620.827 20.1402 620.454 19.6997 620.048C16.2438 617.032 11.5003 612.899 11.5003 607.376C11.5003 601.582 12.8217 597.72 16.2099 593.654C17.023 592.705 17.1586 591.35 16.5487 590.266C15.9388 589.148 14.753 588.538 13.5332 588.673C-1.20533 590.333 -11.5054 602.666 -11.5054 618.692C-11.5054 619.539 -11.3698 620.59 -11.2004 621.843C-10.7261 625.333 -10.0484 630.653 -12.4202 633.363C-13.6399 634.752 -15.5712 635.43 -18.3495 635.43C-22.6186 635.43 -25.2275 633.194 -26.1084 628.823C-26.3794 627.569 -27.3281 626.621 -28.6156 626.417C-29.8692 626.214 -31.089 626.79 -31.7327 627.908C-34.7482 633.092 -39.7627 643.595 -39.7627 655.454C-39.7627 666.161 -35.2564 676.461 -27.3959 683.745C-20.2468 690.386 -11.1327 693.944 -1.47638 693.944C-0.459923 693.944 0.556526 693.91 1.57298 693.842C11.602 692.995 20.8517 688.15 27.5941 680.12ZM1.23416 690.522C-8.62541 691.267 -18.0445 688.014 -25.2613 681.306C-32.4443 674.631 -36.5778 665.212 -36.5778 655.42C-36.5778 647.458 -33.9012 638.242 -29.2594 629.975C-27.938 635.498 -24.0416 638.649 -18.4511 638.649C-14.7241 638.649 -11.9119 637.598 -10.0823 635.464C-6.72803 631.635 -7.5412 625.435 -8.08331 621.369C-8.21883 620.251 -8.35435 619.268 -8.35435 618.659C-8.35435 604.327 0.319347 593.654 13.296 591.96C9.6707 596.466 8.17991 600.972 8.17991 607.376C8.17991 614.423 13.7704 619.302 17.4974 622.521C17.9378 622.894 18.3444 623.266 18.7171 623.571C30.5418 634.244 32.8797 643.562 33.5912 650.473C34.5738 660.299 31.4905 670.328 25.053 678.019C18.9204 685.372 10.45 689.81 1.23416 690.522Z" fill="white" fill-opacity="0.07"/>
<path d="M19.5979 650.27C18.717 650.372 18.0394 651.151 18.141 652.066C18.717 657.758 16.8874 663.586 13.1604 668.058C9.70446 672.158 5.06266 674.665 0.0481694 675.038C-0.460056 675.071 -1.00216 675.105 -1.51038 675.105C-2.42519 675.105 -3.13672 675.851 -3.13672 676.732C-3.13672 677.613 -2.3913 678.358 -1.51038 678.358C-0.90051 678.358 -0.290652 678.324 0.319219 678.29C6.21463 677.85 11.6696 674.936 15.6676 670.159C19.9706 665.009 22.0713 658.3 21.3936 651.761C21.292 650.812 20.4788 650.168 19.5979 650.27Z" fill="white" fill-opacity="0.07"/>
<path d="M19.1236 520.808C20.6483 521.35 22.2746 520.876 23.2572 519.622L41.1806 497.125C42.5358 495.431 42.5358 493.025 41.1806 491.331L23.2572 468.834C22.2407 467.58 20.6144 467.106 19.1236 467.648C17.5989 468.19 16.6163 469.545 16.6163 471.171V478.659H4.52058V462.125C4.52058 451.994 -3.71268 443.727 -13.8772 443.727H-30.4115V431.632H-22.9236C-21.3312 431.632 -19.942 430.649 -19.3999 429.124C-18.8578 427.6 -19.3321 425.973 -20.5858 424.991L-43.0832 407.067C-44.7773 405.712 -47.1829 405.712 -48.877 407.067L-71.3744 424.991C-72.6281 426.007 -73.1024 427.633 -72.5603 429.124C-72.0182 430.649 -70.6629 431.632 -69.0366 431.632H-61.5487V443.727H-78.083C-88.2136 443.727 -96.4808 451.961 -96.4808 462.125V478.659H-108.577V471.171C-108.577 469.579 -109.559 468.19 -111.084 467.648C-112.608 467.106 -114.235 467.58 -115.217 468.834L-133.141 491.331C-134.496 493.025 -134.496 495.431 -133.141 497.125L-115.217 519.622C-114.201 520.876 -112.575 521.35 -111.084 520.808C-109.559 520.266 -108.577 518.911 -108.577 517.284V509.797H-96.4808V526.331C-96.4808 536.462 -88.2475 544.729 -78.083 544.729H-61.5487V556.824H-69.0366C-70.629 556.824 -72.0182 557.807 -72.5603 559.332C-73.1024 560.856 -72.6281 562.483 -71.3744 563.465L-48.877 581.389C-48.0299 582.066 -47.0135 582.405 -45.9632 582.405C-44.9467 582.405 -43.8964 582.066 -43.0493 581.389L-20.5519 563.465C-19.2983 562.449 -18.8239 560.822 -19.366 559.332C-19.9081 557.807 -21.2634 556.824 -22.8897 556.824H-30.3776V544.729H-13.8433C-3.71268 544.729 4.55446 536.495 4.55446 526.331V509.797H16.6502V517.284C16.6163 518.877 17.5989 520.266 19.1236 520.808ZM2.89426 506.544C1.97946 506.544 1.26793 507.289 1.26793 508.17V526.331C1.26793 534.666 -5.50841 541.476 -13.8772 541.476H-32.0378C-32.9526 541.476 -33.6641 542.221 -33.6641 543.102V558.451C-33.6641 559.366 -32.9187 560.077 -32.0378 560.077H-22.9236C-22.6525 560.077 -22.5509 560.246 -22.4831 560.382C-22.4493 560.518 -22.4154 560.721 -22.6187 560.89L-45.1161 578.814C-45.6243 579.22 -46.3359 579.22 -46.878 578.814L-69.3754 560.89C-69.5787 560.721 -69.5787 560.518 -69.5109 560.382C-69.4771 560.246 -69.3415 560.077 -69.0705 560.077H-59.9563C-59.0415 560.077 -58.33 559.332 -58.33 558.451V543.102C-58.33 542.188 -59.0754 541.476 -59.9563 541.476H-78.1169C-86.4518 541.476 -93.262 534.7 -93.262 526.331V508.17C-93.262 507.255 -94.0074 506.544 -94.8883 506.544H-110.237C-111.152 506.544 -111.863 507.289 -111.863 508.17V517.284C-111.863 517.556 -112.032 517.691 -112.168 517.725C-112.304 517.759 -112.507 517.793 -112.676 517.589L-130.6 495.092C-131.006 494.584 -131.006 493.872 -130.6 493.33L-112.676 470.833C-112.507 470.629 -112.304 470.629 -112.168 470.697C-112.032 470.731 -111.863 470.867 -111.863 471.138V480.252C-111.863 481.167 -111.118 481.878 -110.237 481.878H-94.8883C-93.9735 481.878 -93.262 481.133 -93.262 480.252V462.091C-93.262 453.756 -86.4857 446.946 -78.1169 446.946H-59.9563C-59.0415 446.946 -58.33 446.201 -58.33 445.32V429.971C-58.33 429.057 -59.0754 428.345 -59.9563 428.345H-69.0705C-69.3415 428.345 -69.4771 428.176 -69.5109 428.04C-69.5448 427.905 -69.5787 427.701 -69.3754 427.532L-46.878 409.608C-46.3697 409.202 -45.6582 409.202 -45.1161 409.608L-22.6187 427.532C-22.4154 427.701 -22.4154 427.905 -22.4831 428.04C-22.517 428.176 -22.6525 428.345 -22.9236 428.345H-32.0378C-32.9526 428.345 -33.6641 429.09 -33.6641 429.971V445.32C-33.6641 446.235 -32.9187 446.946 -32.0378 446.946H-13.8772C-5.5423 446.946 1.26793 453.722 1.26793 462.091V480.252C1.26793 481.167 2.01334 481.878 2.89426 481.878H18.2427C19.1575 481.878 19.869 481.133 19.869 480.252V471.138C19.869 470.867 20.0384 470.731 20.1739 470.697C20.3094 470.663 20.5127 470.629 20.6822 470.833L38.6056 493.33C39.0121 493.838 39.0121 494.55 38.6056 495.092L20.6822 517.589C20.5127 517.793 20.3094 517.793 20.1739 517.725C20.0384 517.691 19.869 517.556 19.869 517.284V508.17C19.869 507.255 19.1236 506.544 18.2427 506.544H2.89426Z" fill="white" fill-opacity="0.07"/>
<path d="M112.875 728.909V737.414C112.875 738.329 113.62 739.04 114.501 739.04C115.416 739.04 116.127 738.295 116.127 737.414V728.909C116.127 727.995 115.382 727.283 114.501 727.283C113.62 727.283 112.875 728.029 112.875 728.909Z" fill="white" fill-opacity="0.07"/>
<path d="M129.341 718.135V709.123C129.341 702.617 124.021 697.298 117.516 697.298H46.7373C40.232 697.298 34.9126 702.617 34.9126 709.123V737.448C34.9126 738.363 35.658 739.074 36.5389 739.074C37.4198 739.074 38.1652 738.329 38.1652 737.448V709.123C38.1652 704.413 41.9939 700.551 46.7373 700.551C51.4469 700.551 55.3094 704.379 55.3094 709.123V718.135C55.3094 719.694 56.563 720.947 58.1554 720.947H126.529C128.053 720.947 129.341 719.694 129.341 718.135ZM126.088 717.695H58.562V709.123C58.562 705.768 57.139 702.719 54.8689 700.551H117.482C122.192 700.551 126.054 704.379 126.054 709.123V717.695H126.088Z" fill="white" fill-opacity="0.07"/>
<path d="M135.304 734.873C135.304 734.839 135.304 734.771 135.304 734.737C135.304 734.669 135.27 734.602 135.237 734.534C135.237 734.5 135.203 734.466 135.203 734.432C135.203 734.398 135.169 734.398 135.169 734.365C135.135 734.297 135.101 734.229 135.067 734.161C134.999 734.093 134.932 733.992 134.864 733.924C134.83 733.89 134.796 733.856 134.728 733.822C134.694 733.788 134.661 733.755 134.627 733.721L123.547 726.402C122.802 725.894 121.785 726.097 121.277 726.877C120.769 727.622 120.972 728.639 121.752 729.147L130.798 735.11L75.5709 772.109L20.2759 735.042L28.7463 729.079C29.4917 728.571 29.6612 727.554 29.1529 726.809C28.6447 726.063 27.6282 725.894 26.8828 726.402L16.4812 733.721C16.4473 733.755 16.4134 733.755 16.3795 733.789C16.3456 733.822 16.3118 733.856 16.244 733.89C16.244 733.89 16.244 733.89 16.2101 733.924C16.1762 733.958 16.1424 733.992 16.1085 734.06C16.0746 734.094 16.0407 734.127 16.0407 734.161C16.0407 734.161 16.0407 734.161 16.0407 734.195C16.0068 734.229 15.9729 734.297 15.9729 734.331C15.9391 734.364 15.9391 734.398 15.9052 734.466V734.5C15.8713 734.534 15.8713 734.602 15.8713 734.636C15.8713 734.669 15.8374 734.703 15.8374 734.771V734.805C15.8374 734.839 15.8374 734.907 15.8374 734.94C15.8374 734.974 15.8374 735.042 15.8374 735.076V813.038C15.8374 813.953 16.5828 814.664 17.4637 814.664H133.712C133.847 814.664 133.949 814.664 134.051 814.63C134.085 814.63 134.118 814.596 134.152 814.596C134.22 814.563 134.322 814.529 134.389 814.495C134.423 814.461 134.457 814.461 134.491 814.427C134.559 814.393 134.627 814.325 134.694 814.291C134.728 814.258 134.762 814.258 134.796 814.224C134.898 814.156 134.965 814.054 135.033 813.953C135.033 813.919 135.067 813.919 135.067 813.885C135.101 813.817 135.169 813.749 135.169 813.648C135.203 813.58 135.203 813.546 135.237 813.478C135.237 813.444 135.27 813.411 135.27 813.343C135.304 813.241 135.304 813.139 135.304 813.038V735.042C135.338 734.974 135.338 734.907 135.304 734.873ZM18.9884 811.378V738.092L128.359 811.378H18.9884ZM132.086 809.955L78.4847 774.04L132.086 738.125V809.955Z" fill="white" fill-opacity="0.07"/>
<path d="M-1.51003 758.014H-4.83044C-5.67749 733.212 -25.7016 713.188 -50.4691 712.375V709.055C-50.4691 708.14 -51.2145 707.428 -52.0954 707.428C-53.0102 707.428 -53.7218 708.174 -53.7218 709.055V712.375C-78.5232 713.222 -98.5472 733.246 -99.3604 758.014H-102.681C-103.596 758.014 -104.307 758.759 -104.307 759.64C-104.307 760.555 -103.562 761.266 -102.681 761.266H-99.3604C-98.5134 786.068 -78.4893 806.092 -53.7218 806.939V810.259C-53.7218 811.174 -52.9763 811.886 -52.0954 811.886C-51.1806 811.886 -50.4691 811.14 -50.4691 810.259V806.939C-25.6677 806.092 -5.64361 786.068 -4.83044 761.266H-1.51003C-0.59523 761.266 0.116287 760.521 0.116287 759.64C0.116287 758.725 -0.629112 758.014 -1.51003 758.014ZM-53.7218 715.594V727.588C-70.1205 728.401 -83.3005 741.581 -84.1136 757.98H-96.1078C-95.2946 735.008 -76.7274 716.441 -53.7218 715.594ZM-53.7218 803.652C-76.7274 802.805 -95.2607 784.272 -96.1078 761.266H-84.1136C-83.3005 777.665 -70.1205 790.845 -53.7218 791.658V803.652ZM-52.0954 774.718C-53.0102 774.718 -53.7218 775.463 -53.7218 776.344V788.372C-68.2909 787.559 -80.014 775.836 -80.8271 761.266H-68.7991C-67.8843 761.266 -67.1728 760.521 -67.1728 759.64C-67.1728 758.725 -67.9182 758.014 -68.7991 758.014H-80.8271C-80.014 743.445 -68.2909 731.722 -53.7218 730.909V742.937C-53.7218 743.851 -52.9763 744.563 -52.0954 744.563C-51.1806 744.563 -50.4691 743.817 -50.4691 742.937V730.909C-35.9 731.722 -24.1769 743.445 -23.3637 758.014H-35.3917C-36.3066 758.014 -37.0181 758.759 -37.0181 759.64C-37.0181 760.555 -36.2727 761.266 -35.3917 761.266H-23.3637C-24.1769 775.836 -35.9 787.559 -50.4691 788.372V776.344C-50.4691 775.463 -51.2145 774.718 -52.0954 774.718ZM-50.4691 803.652V791.658C-34.0704 790.845 -20.8904 777.665 -20.0772 761.266H-8.08309C-8.93014 784.272 -27.4634 802.805 -50.4691 803.652ZM-20.0772 758.014C-20.8904 741.615 -34.0704 728.435 -50.4691 727.622V715.628C-27.4634 716.475 -8.93014 735.008 -8.08309 758.014H-20.0772Z" fill="white" fill-opacity="0.07"/>
<path d="M339.141 553.339C340.002 553.771 340.939 554 341.876 554C343.117 554 344.358 553.618 345.397 552.855L372.954 532.761H388.86C389.544 532.761 390.076 532.201 390.076 531.54C390.076 530.853 389.519 530.319 388.86 530.319H372.549C372.295 530.319 372.042 530.395 371.84 530.548L343.978 550.871C342.864 551.685 341.471 551.787 340.255 551.177C339.039 550.541 338.305 549.345 338.305 547.972V532.786H350.513C351.197 532.786 351.729 532.227 351.729 531.565C351.729 530.878 351.172 530.344 350.513 530.344H329.415C319.511 530.344 311.432 522.256 311.432 512.285V453.502C311.432 443.556 319.486 435.442 329.415 435.442H396.585C406.489 435.442 414.568 443.531 414.568 453.502V508.418C414.568 509.105 415.126 509.639 415.784 509.639C416.468 509.639 417 509.08 417 508.418V453.502C417 442.208 407.856 433 396.585 433H329.415C318.169 433 309 442.182 309 453.502V512.285C309 523.578 318.144 532.786 329.415 532.786H335.873V547.972C335.848 550.235 337.114 552.296 339.141 553.339Z" fill="white" fill-opacity="0.07"/>
<path d="M411.311 540C414.09 540 416.894 538.94 419.01 536.846L419.826 536.039C424.058 531.85 424.058 525.012 419.826 520.798L403.127 504.271C405.6 500.133 405.065 494.708 401.47 491.175L398.232 487.971C398.742 485.599 398.997 483.151 398.997 480.628C398.997 460.997 382.859 445 362.998 445C343.138 445 327 460.972 327 480.628C327 500.259 343.138 516.256 362.998 516.256C365.548 516.256 368.021 515.979 370.417 515.499L373.655 518.704C375.771 520.798 378.576 521.858 381.355 521.858C383.267 521.858 385.204 521.353 386.912 520.344L403.611 536.871C405.753 538.94 408.532 540 411.311 540ZM370.06 513.077C367.791 513.556 365.446 513.809 363.024 513.809C344.54 513.809 329.473 498.922 329.473 480.603C329.473 462.284 344.515 447.397 363.024 447.397C381.533 447.397 396.575 462.284 396.575 480.603C396.575 483 396.32 485.321 395.835 487.567C395.657 487.819 395.581 488.122 395.632 488.425C392.674 500.461 383.088 509.948 370.953 512.85C370.647 512.825 370.315 512.9 370.06 513.077ZM375.414 516.963L373.196 514.768C384.873 511.361 394.102 502.227 397.544 490.671L399.762 492.866C403.05 496.121 403.05 501.42 399.762 504.675L387.346 516.963C384.057 520.218 378.703 520.218 375.414 516.963ZM389.079 518.679L401.495 506.39C401.546 506.34 401.597 506.264 401.648 506.214L418.118 522.514C421.407 525.769 421.407 531.068 418.118 534.323L417.276 535.155C413.988 538.41 408.634 538.41 405.345 535.155L388.901 518.88C388.952 518.78 389.028 518.729 389.079 518.679Z" fill="white" fill-opacity="0.07"/>
<path d="M362.555 460.009C356.552 460.235 351.481 464.945 351.041 470.732C350.886 472.536 351.171 474.29 351.843 475.943C352.102 476.569 352.827 476.87 353.448 476.619C354.094 476.369 354.405 475.667 354.146 475.066C353.603 473.763 353.396 472.36 353.499 470.932C353.862 466.348 357.872 462.615 362.633 462.439C365.246 462.339 367.73 463.266 369.618 465.02C371.507 466.774 372.542 469.129 372.542 471.684C372.542 473.688 370.11 476.67 366.048 479.626C363.357 481.58 361.753 484.762 361.753 488.094V489.797C361.753 490.474 362.322 491 362.995 491C363.693 491 364.237 490.449 364.237 489.797V488.094C364.237 485.513 365.479 483.058 367.523 481.555C370.938 479.05 375 475.317 375 471.684C375 468.477 373.68 465.521 371.326 463.291C368.997 461.036 365.867 459.884 362.555 460.009Z" fill="white" fill-opacity="0.07"/>
<path d="M362.914 500C361.321 500 360 501.321 360 502.914C360 504.506 361.321 505.828 362.914 505.828C364.506 505.828 365.828 504.506 365.828 502.914C365.828 501.321 364.54 500 362.914 500ZM362.914 503.253C362.711 503.253 362.575 503.083 362.575 502.914C362.575 502.744 362.744 502.575 362.914 502.575C363.117 502.575 363.253 502.744 363.253 502.914C363.253 503.083 363.117 503.253 362.914 503.253Z" fill="white" fill-opacity="0.07"/>
</g>
</g>
<defs>
<radialGradient id="paint0_radial_5_204" cx="0" cy="0" r="1" gradientUnits="userSpaceOnUse" gradientTransform="translate(180 406) scale(625.248)">
<stop offset="0.5744" stop-color="#130C0E" stop-opacity="0"/>
<stop offset="0.7977" stop-color="#130C0E" stop-opacity="0.6512"/>
<stop offset="1" stop-color="#130C0E" stop-opacity="0.95"/>
</radialGradient>
<clipPath id="clip0_5_204">
<rect width="375" height="812" fill="white"/>
</clipPath>
<clipPath id="clip1_5_204">
<rect width="812" height="812" fill="white" transform="translate(-226)"/>
</clipPath>
<clipPath id="clip2_5_204">
<rect width="830" height="830" fill="white" transform="translate(-178 -9)"/>
</clipPath>
</defs>
</svg>
