<svg width="88" height="88" viewBox="0 0 88 88" fill="none" xmlns="http://www.w3.org/2000/svg">
<circle cx="44" cy="44" r="44" fill="#30B9CC" fill-opacity="0.12"/>
<circle cx="44" cy="44" r="32" fill="#30B9CC"/>
<path d="M57.4034 37.3307L41.1785 53.5555C40.7955 53.9376 40.2767 54.1522 39.7357 54.1522C39.1947 54.1522 38.6759 53.9376 38.2929 53.5555L30.5966 45.8594C30.2161 45.4763 30.003 44.958 30.0039 44.4181C30.0048 43.8781 30.2197 43.3606 30.6015 42.9788C30.9833 42.597 31.5009 42.3821 32.0408 42.3812C32.5807 42.3802 33.099 42.5934 33.4821 42.9739L39.3162 48.8081C39.4275 48.9193 39.5784 48.9818 39.7357 48.9818C39.893 48.9818 40.0439 48.9193 40.1552 48.8081L54.5178 34.4452C54.9009 34.0647 55.4192 33.8516 55.9592 33.8525C56.4991 33.8534 57.0167 34.0683 57.3984 34.4501C57.7802 34.8319 57.9951 35.3494 57.9961 35.8894C57.997 36.4293 57.7839 36.9476 57.4034 37.3307Z" fill="white"/>
</svg>
