<svg width="17" height="17" viewBox="0 0 17 17" fill="none" xmlns="http://www.w3.org/2000/svg">
<g clip-path="url(#clip0_5_2874)">
<path d="M12.151 7.75891C12.1793 7.75891 12.2075 7.75927 12.2358 7.7598L12.243 7.75994C12.4016 7.76279 12.559 7.77302 12.7147 7.79002V2.0058C12.7147 0.899871 11.8149 0 10.7089 0H2.00593C0.899871 0 0 0.899871 0 2.0058V13.543C0 14.6491 0.899871 15.5489 2.0058 15.5489H7.81635C7.31495 14.7431 7.05191 13.8228 7.05191 12.8609C7.05191 10.0476 9.33928 7.75891 12.1511 7.75891H12.151ZM7.19369 3.27506H10.1662C10.4413 3.27506 10.6642 3.49802 10.6642 3.7731C10.6642 4.04819 10.4413 4.27115 10.1662 4.27115H7.19369C6.91874 4.27115 6.69564 4.04819 6.69564 3.7731C6.69564 3.49802 6.91874 3.27506 7.19369 3.27506ZM7.19369 5.26738H10.1662C10.4413 5.26738 10.6642 5.4903 10.6642 5.76542C10.6642 6.04054 10.4413 6.26347 10.1662 6.26347H7.19369C6.91874 6.26347 6.69564 6.04051 6.69564 5.76542C6.69564 5.49034 6.91874 5.26738 7.19369 5.26738ZM5.52108 12.2737H2.54861C2.27352 12.2737 2.05056 12.0508 2.05056 11.7757C2.05056 11.5007 2.27352 11.2776 2.54861 11.2776H5.52105C5.796 11.2776 6.0191 11.5007 6.0191 11.7757C6.0191 12.0508 5.79604 12.2737 5.52108 12.2737ZM5.52108 10.2481H2.54861C2.27352 10.2481 2.05056 10.0252 2.05056 9.75003C2.05056 9.47494 2.27352 9.25198 2.54861 9.25198H5.52105C5.796 9.25198 6.0191 9.47494 6.0191 9.75003C6.0191 10.0252 5.79604 10.2481 5.52108 10.2481ZM5.52108 8.25579H2.54861C2.27352 8.25579 2.05056 8.03283 2.05056 7.75774C2.05056 7.48262 2.27352 7.2597 2.54861 7.2597H5.52105C5.796 7.2597 6.0191 7.48262 6.0191 7.75774C6.0191 8.03283 5.79604 8.25579 5.52108 8.25579ZM5.52108 6.26347H2.54861C2.27352 6.26347 2.05056 6.04051 2.05056 5.76542C2.05056 5.49034 2.27352 5.26738 2.54861 5.26738H5.52105C5.796 5.26738 6.0191 5.4903 6.0191 5.76542C6.0191 6.04054 5.79604 6.26347 5.52108 6.26347ZM5.52108 4.27115H2.54861C2.27352 4.27115 2.05056 4.04819 2.05056 3.7731C2.05056 3.49802 2.27352 3.27506 2.54861 3.27506H5.52105C5.796 3.27506 6.0191 3.49802 6.0191 3.7731C6.0191 4.04819 5.79604 4.27115 5.52108 4.27115ZM6.69564 7.75774C6.69564 7.48262 6.91874 7.2597 7.19369 7.2597H8.62531C8.90043 7.2597 9.12336 7.48262 9.12336 7.75774C9.12336 8.03283 8.90043 8.25579 8.62531 8.25579H7.19369C6.91874 8.25579 6.69564 8.03283 6.69564 7.75774Z" fill="#3E3E3E"/>
<path d="M15.1004 9.95898C14.3359 9.18103 13.3149 8.74189 12.2256 8.7227L12.2184 8.72257C12.196 8.72217 12.1736 8.7218 12.1511 8.7218C9.87038 8.7218 8.01489 10.5786 8.01489 12.8609C8.01489 13.7673 8.30257 14.6282 8.84663 15.3505C9.6364 16.3989 10.8408 17 12.1511 17C14.4319 17 16.2874 15.1432 16.2874 12.8609C16.2874 11.7683 15.8659 10.7377 15.1004 9.95898ZM13.9184 12.188L12.3389 14.157C12.2923 14.2152 12.2331 14.2623 12.1658 14.2945C12.0985 14.3268 12.0248 14.3436 11.9501 14.3435C11.8485 14.3435 11.7464 14.3125 11.6581 14.2487L10.4801 13.3951C10.2574 13.2338 10.2076 12.9224 10.3691 12.6995C10.5304 12.4768 10.8418 12.427 11.0645 12.5885L11.8587 13.1639L13.1416 11.5647C13.3137 11.3501 13.627 11.3158 13.8417 11.4879C14.0562 11.66 14.0906 11.9735 13.9185 12.188L13.9184 12.188Z" fill="#C5C5C5"/>
</g>
<defs>
<clipPath id="clip0_5_2874">
<rect width="17" height="17" fill="white"/>
</clipPath>
</defs>
</svg>
