<svg width="46" height="46" viewBox="0 0 46 46" fill="none" xmlns="http://www.w3.org/2000/svg">
<path d="M32.5835 2.39581H5.75016C3.89771 2.39581 2.396 3.89752 2.396 5.74998V40.25C2.396 42.1024 3.89771 43.6041 5.75016 43.6041H32.5835C34.436 43.6041 35.9377 42.1024 35.9377 40.25V5.74998C35.9377 3.89752 34.436 2.39581 32.5835 2.39581Z" fill="#30B9CC"/>
<path d="M34.5002 43.6041C39.5283 43.6041 43.6043 39.5281 43.6043 34.5C43.6043 29.4719 39.5283 25.3958 34.5002 25.3958C29.4721 25.3958 25.396 29.4719 25.396 34.5C25.396 39.5281 29.4721 43.6041 34.5002 43.6041Z" fill="#3E3E3E"/>
<path d="M27.792 12.9375H10.542C10.1607 12.9375 9.79511 12.786 9.52553 12.5165C9.25594 12.2469 9.10449 11.8812 9.10449 11.5C9.10449 11.1188 9.25594 10.7531 9.52553 10.4835C9.79511 10.214 10.1607 10.0625 10.542 10.0625H27.792C28.1732 10.0625 28.5389 10.214 28.8085 10.4835C29.078 10.7531 29.2295 11.1188 29.2295 11.5C29.2295 11.8812 29.078 12.2469 28.8085 12.5165C28.5389 12.786 28.1732 12.9375 27.792 12.9375ZM27.792 20.6042H10.542C10.1607 20.6042 9.79511 20.4527 9.52553 20.1831C9.25594 19.9135 9.10449 19.5479 9.10449 19.1667C9.10449 18.7854 9.25594 18.4198 9.52553 18.1502C9.79511 17.8806 10.1607 17.7292 10.542 17.7292H27.792C28.1732 17.7292 28.5389 17.8806 28.8085 18.1502C29.078 18.4198 29.2295 18.7854 29.2295 19.1667C29.2295 19.5479 29.078 19.9135 28.8085 20.1831C28.5389 20.4527 28.1732 20.6042 27.792 20.6042ZM23.0003 28.2708H10.542C10.1607 28.2708 9.79511 28.1194 9.52553 27.8498C9.25594 27.5802 9.10449 27.2146 9.10449 26.8333C9.10449 26.4521 9.25594 26.0865 9.52553 25.8169C9.79511 25.5473 10.1607 25.3958 10.542 25.3958H23.0003C23.3816 25.3958 23.7472 25.5473 24.0168 25.8169C24.2864 26.0865 24.4378 26.4521 24.4378 26.8333C24.4378 27.2146 24.2864 27.5802 24.0168 27.8498C23.7472 28.1194 23.3816 28.2708 23.0003 28.2708ZM21.0837 35.9375H10.542C10.1607 35.9375 9.79511 35.7861 9.52553 35.5165C9.25594 35.2469 9.10449 34.8812 9.10449 34.5C9.10449 34.1188 9.25594 33.7531 9.52553 33.4835C9.79511 33.2139 10.1607 33.0625 10.542 33.0625H21.0837C21.4649 33.0625 21.8305 33.2139 22.1001 33.4835C22.3697 33.7531 22.5212 34.1188 22.5212 34.5C22.5212 34.8812 22.3697 35.2469 22.1001 35.5165C21.8305 35.7861 21.4649 35.9375 21.0837 35.9375Z" fill="white"/>
<path d="M33.5419 37.8542C33.3531 37.8543 33.1662 37.8171 32.9919 37.7448C32.8175 37.6724 32.6592 37.5663 32.526 37.4325L30.6094 35.5158C30.4681 35.3842 30.3549 35.2255 30.2763 35.0492C30.1977 34.8729 30.1555 34.6825 30.1521 34.4895C30.1487 34.2965 30.1842 34.1048 30.2565 33.9258C30.3288 33.7468 30.4364 33.5842 30.5729 33.4477C30.7094 33.3112 30.872 33.2036 31.051 33.1313C31.23 33.059 31.4217 33.0235 31.6147 33.0269C31.8077 33.0303 31.9981 33.0725 32.1744 33.1511C32.3507 33.2297 32.5094 33.3429 32.641 33.4842L33.5419 34.385L36.3594 31.5675C36.6319 31.3136 36.9923 31.1754 37.3647 31.1819C37.7371 31.1885 38.0924 31.3394 38.3558 31.6027C38.6192 31.8661 38.7701 32.2214 38.7766 32.5938C38.7832 32.9663 38.645 33.3267 38.391 33.5992L34.5577 37.4325C34.4245 37.5663 34.2662 37.6724 34.0919 37.7448C33.9176 37.8171 33.7306 37.8543 33.5419 37.8542Z" fill="white"/>
</svg>
