<svg width="15" height="15" viewBox="0 0 15 15" fill="none" xmlns="http://www.w3.org/2000/svg">
<g id="Frame" clip-path="url(#clip0_5_1795)">
<g id="Group">
<path id="Vector" fill-rule="evenodd" clip-rule="evenodd" d="M7.5 0.78125C3.79187 0.78125 0.78125 3.79187 0.78125 7.5C0.78125 11.2081 3.79187 14.2187 7.5 14.2187C11.2081 14.2187 14.2187 11.2081 14.2187 7.5C14.2187 3.79187 11.2081 0.78125 7.5 0.78125ZM7.03125 3.125V7.5C7.03125 7.62437 7.08062 7.74375 7.16875 7.83125L9.35625 10.0187C9.39975 10.0623 9.45139 10.0968 9.50823 10.1203C9.56506 10.1438 9.62598 10.156 9.6875 10.156C9.74902 10.156 9.80993 10.1438 9.86677 10.1203C9.92361 10.0968 9.97525 10.0623 10.0187 10.0187C10.0623 9.97525 10.0968 9.92361 10.1203 9.86677C10.1438 9.80993 10.156 9.74902 10.156 9.6875C10.156 9.62598 10.1438 9.56506 10.1203 9.50823C10.0968 9.45139 10.0623 9.39975 10.0187 9.35625L7.96875 7.30562V3.125C7.96875 3.00068 7.91936 2.88145 7.83146 2.79354C7.74355 2.70564 7.62432 2.65625 7.5 2.65625C7.37568 2.65625 7.25645 2.70564 7.16854 2.79354C7.08064 2.88145 7.03125 3.00068 7.03125 3.125Z" fill="#A7CDD1"/>
</g>
</g>
<defs>
<clipPath id="clip0_5_1795">
<rect width="15" height="15" fill="white"/>
</clipPath>
</defs>
</svg>
