<svg width="24" height="24" viewBox="0 0 24 24" fill="none" xmlns="http://www.w3.org/2000/svg">
<g id="Frame">
<g id="Group">
<path id="Vector" d="M14.1216 11.0069H9.87839C7.96804 11.0069 6.41386 12.5611 6.41386 14.4715V21.4863C6.41386 21.869 6.72408 22.1792 7.10676 22.1792H16.8932C17.2759 22.1792 17.5861 21.869 17.5861 21.4863V14.4715C17.5861 12.5611 16.032 11.0069 14.1216 11.0069ZM12 1.82062C9.70256 1.82062 7.83347 3.68971 7.83347 5.9872C7.83347 7.54555 8.69358 8.90657 9.96379 9.62113C10.5663 9.96004 11.2609 10.1537 12 10.1537C12.7391 10.1537 13.4337 9.96004 14.0362 9.62113C15.3065 8.90657 16.1665 7.54551 16.1665 5.9872C16.1665 3.68976 14.2974 1.82062 12 1.82062Z" fill="#A7CDD1"/>
</g>
</g>
</svg>
