<svg width="24" height="24" viewBox="0 0 24 24" fill="none" xmlns="http://www.w3.org/2000/svg">
<g id="Frame">
<g id="Group">
<path id="Vector" d="M12 3.99988C6.86912 3.99988 2.40029 7.22248 0 12C2.40029 16.7784 6.86912 20.0001 12 20.0001C17.1309 20.0001 21.5997 16.7784 24 12C21.5997 7.22248 17.1309 3.99988 12 3.99988ZM12 17.0001C9.23818 17.0001 6.9999 14.7618 6.9999 12C6.9999 9.23816 9.23818 6.99988 12 6.99988C14.7618 6.99988 17.0001 9.23816 17.0001 12C17.0001 14.7618 14.7618 17.0001 12 17.0001Z" fill="#76B6BF"/>
<path id="Vector_2" d="M12 15C13.6569 15 15 13.6569 15 12C15 10.3431 13.6569 9 12 9C10.3431 9 9 10.3431 9 12C9 13.6569 10.3431 15 12 15Z" fill="#76B6BF"/>
</g>
</g>
</svg>
