<svg width="20" height="20" viewBox="0 0 20 20" fill="none" xmlns="http://www.w3.org/2000/svg">
<g id="Group 48096350">
<circle id="Ellipse 161" cx="10" cy="10" r="10" fill="#009BFF"/>
<g id="Group">
<path id="Vector" d="M13.7973 11.0071C13.4255 10.6401 12.9614 10.6401 12.592 11.0071C12.3103 11.2865 12.0285 11.5659 11.7515 11.8501C11.6757 11.9282 11.6118 11.9448 11.5194 11.8927C11.3371 11.7932 11.1429 11.7127 10.9677 11.6038C10.1508 11.09 9.46653 10.4294 8.86037 9.68587C8.55965 9.31649 8.29209 8.92106 8.10503 8.47591C8.06715 8.38593 8.07425 8.32674 8.14765 8.25334C8.42942 7.98104 8.70409 7.70163 8.98113 7.42223C9.36708 7.03391 9.36708 6.57929 8.97876 6.1886C8.75855 5.96602 8.53834 5.74818 8.31814 5.52561C8.09083 5.2983 7.86588 5.06862 7.6362 4.84368C7.26446 4.4814 6.80036 4.4814 6.43098 4.84605C6.14685 5.12545 5.87455 5.41195 5.58567 5.68662C5.31811 5.93998 5.18314 6.25016 5.15473 6.61244C5.10974 7.20202 5.25418 7.75846 5.45781 8.30069C5.87455 9.42304 6.50912 10.4199 7.27866 11.3339C8.31814 12.5699 9.55887 13.5478 11.0103 14.2534C11.6639 14.5707 12.3411 14.8146 13.0775 14.8548C13.5842 14.8832 14.0246 14.7554 14.3774 14.3599C14.6189 14.09 14.8912 13.8438 15.1469 13.5857C15.5258 13.2021 15.5281 12.738 15.1517 12.3591C14.7018 11.9069 14.2495 11.457 13.7973 11.0071Z" fill="white"/>
</g>
</g>
</svg>
