<svg width="18" height="18" viewBox="0 0 18 18" fill="none" xmlns="http://www.w3.org/2000/svg">
<g clip-path="url(#clip0_5_2847)">
<path d="M0 7.20703V13.2188C0 14.3061 0.881438 15.1875 1.96875 15.1875H16.0312C17.1186 15.1875 18 14.3061 18 13.2188V7.20703C18 7.16041 17.9815 7.1157 17.9485 7.08274C17.9156 7.04977 17.8708 7.03125 17.8242 7.03125H0.175781C0.129161 7.03125 0.0844505 7.04977 0.0514851 7.08274C0.0185198 7.1157 0 7.16041 0 7.20703ZM4.5 11.8125C4.5 12.1231 4.24814 12.375 3.9375 12.375H3.375C3.06436 12.375 2.8125 12.1231 2.8125 11.8125V11.25C2.8125 10.9394 3.06436 10.6875 3.375 10.6875H3.9375C4.24814 10.6875 4.5 10.9394 4.5 11.25V11.8125Z" fill="#3E3E3E"/>
<g clip-path="url(#clip1_5_2847)">
<path d="M18 5.91797V4.96875C18 3.88144 17.1186 3 16.0312 3H1.96875C0.881438 3 0 3.88144 0 4.96875V5.91797C0 5.96459 0.0185198 6.0093 0.0514851 6.04226C0.0844505 6.07523 0.129161 6.09375 0.175781 6.09375H17.8242C17.8708 6.09375 17.9156 6.07523 17.9485 6.04226C17.9815 6.0093 18 5.96459 18 5.91797Z" fill="#C5C5C5"/>
</g>
</g>
<defs>
<clipPath id="clip0_5_2847">
<rect width="18" height="18" fill="white"/>
</clipPath>
<clipPath id="clip1_5_2847">
<rect width="18" height="18" fill="white" transform="translate(0 3)"/>
</clipPath>
</defs>
</svg>
